<svg width="243" height="107" viewBox="0 0 243 107" fill="none" xmlns="http://www.w3.org/2000/svg">
<rect x="0.5" y="0.5" width="242" height="51" stroke="#288071" stroke-dasharray="2 2"/>
<path d="M9.26 22V12.816H10.422V22H9.26ZM12.8257 22V15.196H13.7777L13.8757 16.176H13.9177C14.2444 15.8493 14.5897 15.5787 14.9537 15.364C15.3177 15.14 15.7331 15.028 16.1997 15.028C16.9184 15.028 17.4411 15.2567 17.7677 15.714C18.1037 16.162 18.2717 16.82 18.2717 17.688V22H17.1237V17.842C17.1237 17.2073 17.0211 16.7453 16.8157 16.456C16.6104 16.1667 16.2837 16.022 15.8357 16.022C15.4904 16.022 15.1777 16.1107 14.8977 16.288C14.6271 16.4653 14.3191 16.7267 13.9737 17.072V22H12.8257ZM22.26 22.168C21.7747 22.168 21.3127 22.0793 20.874 21.902C20.4353 21.7153 20.0527 21.4913 19.726 21.23L20.3 20.46C20.5987 20.6933 20.9067 20.8893 21.224 21.048C21.5413 21.1973 21.9007 21.272 22.302 21.272C22.75 21.272 23.086 21.1693 23.31 20.964C23.534 20.7493 23.646 20.4973 23.646 20.208C23.646 19.9747 23.5667 19.7787 23.408 19.62C23.2587 19.4613 23.0627 19.3307 22.82 19.228C22.5867 19.116 22.344 19.0133 22.092 18.92C21.7747 18.7987 21.462 18.6633 21.154 18.514C20.846 18.3553 20.594 18.1547 20.398 17.912C20.202 17.66 20.104 17.3427 20.104 16.96C20.104 16.4093 20.3093 15.952 20.72 15.588C21.14 15.2147 21.7187 15.028 22.456 15.028C22.876 15.028 23.268 15.1027 23.632 15.252C23.996 15.4013 24.3087 15.5833 24.57 15.798L24.01 16.526C23.7767 16.3487 23.534 16.204 23.282 16.092C23.03 15.98 22.7547 15.924 22.456 15.924C22.0267 15.924 21.7093 16.022 21.504 16.218C21.308 16.414 21.21 16.6427 21.21 16.904C21.21 17.1187 21.28 17.296 21.42 17.436C21.56 17.5667 21.742 17.6833 21.966 17.786C22.19 17.8793 22.428 17.9773 22.68 18.08C23.0067 18.2013 23.3287 18.3413 23.646 18.5C23.9633 18.6493 24.2247 18.8547 24.43 19.116C24.6447 19.368 24.752 19.7087 24.752 20.138C24.752 20.502 24.654 20.838 24.458 21.146C24.2713 21.454 23.9913 21.7013 23.618 21.888C23.254 22.0747 22.8013 22.168 22.26 22.168ZM26.3472 24.87V15.196H27.2992L27.3972 15.98H27.4392C27.7472 15.7187 28.0832 15.4947 28.4472 15.308C28.8206 15.1213 29.2079 15.028 29.6092 15.028C30.4866 15.028 31.1539 15.3453 31.6112 15.98C32.0686 16.6053 32.2972 17.4453 32.2972 18.5C32.2972 19.2653 32.1572 19.9233 31.8772 20.474C31.6066 21.0247 31.2472 21.4447 30.7992 21.734C30.3606 22.0233 29.8799 22.168 29.3572 22.168C29.0399 22.168 28.7226 22.098 28.4052 21.958C28.0972 21.818 27.7846 21.6267 27.4672 21.384L27.4952 22.574V24.87H26.3472ZM29.1612 21.202C29.7212 21.202 30.1832 20.964 30.5472 20.488C30.9206 20.0027 31.1072 19.34 31.1072 18.5C31.1072 17.7533 30.9672 17.1513 30.6872 16.694C30.4166 16.2273 29.9592 15.994 29.3152 15.994C29.0259 15.994 28.7319 16.0733 28.4332 16.232C28.1439 16.3907 27.8312 16.6193 27.4952 16.918V20.488C27.8032 20.7493 28.1019 20.936 28.3912 21.048C28.6806 21.1507 28.9372 21.202 29.1612 21.202ZM34.1128 22V15.196H35.2608V22H34.1128ZM34.7008 13.796C34.4768 13.796 34.2902 13.7307 34.1408 13.6C34.0008 13.46 33.9308 13.2733 33.9308 13.04C33.9308 12.816 34.0008 12.634 34.1408 12.494C34.2902 12.354 34.4768 12.284 34.7008 12.284C34.9248 12.284 35.1068 12.354 35.2468 12.494C35.3962 12.634 35.4708 12.816 35.4708 13.04C35.4708 13.2733 35.3962 13.46 35.2468 13.6C35.1068 13.7307 34.9248 13.796 34.7008 13.796ZM37.5582 22V15.196H38.5102L38.6082 16.428H38.6502C38.8835 15.9987 39.1682 15.658 39.5042 15.406C39.8402 15.154 40.1995 15.028 40.5822 15.028C40.8528 15.028 41.0955 15.0747 41.3102 15.168L41.0862 16.176C40.9742 16.1387 40.8715 16.1107 40.7782 16.092C40.6848 16.0733 40.5682 16.064 40.4282 16.064C40.1388 16.064 39.8355 16.1807 39.5182 16.414C39.2102 16.6473 38.9395 17.0533 38.7062 17.632V22H37.5582ZM43.6379 22.168C43.0685 22.168 42.5925 22 42.2099 21.664C41.8365 21.3187 41.6499 20.8427 41.6499 20.236C41.6499 19.4893 41.9812 18.92 42.6439 18.528C43.3159 18.1267 44.3752 17.8467 45.8219 17.688C45.8219 17.3987 45.7799 17.1233 45.6959 16.862C45.6212 16.6007 45.4812 16.3907 45.2759 16.232C45.0799 16.064 44.7952 15.98 44.4219 15.98C44.0299 15.98 43.6612 16.0547 43.3159 16.204C42.9705 16.3533 42.6625 16.5213 42.3919 16.708L41.9439 15.91C42.2612 15.7047 42.6485 15.5087 43.1059 15.322C43.5725 15.126 44.0765 15.028 44.6179 15.028C45.4485 15.028 46.0505 15.2847 46.4239 15.798C46.7972 16.302 46.9839 16.9787 46.9839 17.828V22H46.0319L45.9339 21.188H45.8919C45.5745 21.4493 45.2245 21.678 44.8419 21.874C44.4685 22.07 44.0672 22.168 43.6379 22.168ZM43.9739 21.244C44.3005 21.244 44.6085 21.1647 44.8979 21.006C45.1872 20.8473 45.4952 20.6233 45.8219 20.334V18.444C44.6925 18.584 43.8992 18.794 43.4419 19.074C42.9939 19.354 42.7699 19.7133 42.7699 20.152C42.7699 20.5347 42.8865 20.8147 43.1199 20.992C43.3532 21.16 43.6379 21.244 43.9739 21.244ZM51.0752 22.168C50.3472 22.168 49.8385 21.958 49.5492 21.538C49.2692 21.118 49.1292 20.572 49.1292 19.9V16.134H48.1212V15.266L49.1852 15.196L49.3252 13.292H50.2912V15.196H52.1252V16.134H50.2912V19.914C50.2912 20.334 50.3658 20.6607 50.5152 20.894C50.6738 21.118 50.9492 21.23 51.3412 21.23C51.4625 21.23 51.5932 21.2113 51.7332 21.174C51.8732 21.1273 51.9992 21.0853 52.1112 21.048L52.3352 21.916C52.1485 21.9813 51.9432 22.0373 51.7192 22.084C51.5045 22.14 51.2898 22.168 51.0752 22.168ZM53.6636 22V15.196H54.8116V22H53.6636ZM54.2516 13.796C54.0276 13.796 53.841 13.7307 53.6916 13.6C53.5516 13.46 53.4816 13.2733 53.4816 13.04C53.4816 12.816 53.5516 12.634 53.6916 12.494C53.841 12.354 54.0276 12.284 54.2516 12.284C54.4756 12.284 54.6576 12.354 54.7976 12.494C54.947 12.634 55.0216 12.816 55.0216 13.04C55.0216 13.2733 54.947 13.46 54.7976 13.6C54.6576 13.7307 54.4756 13.796 54.2516 13.796ZM59.7549 22.168C59.2043 22.168 58.6863 22.028 58.2009 21.748C57.7249 21.468 57.3376 21.062 57.0389 20.53C56.7496 19.998 56.6049 19.3587 56.6049 18.612C56.6049 17.8467 56.7496 17.198 57.0389 16.666C57.3376 16.134 57.7249 15.728 58.2009 15.448C58.6863 15.168 59.2043 15.028 59.7549 15.028C60.3149 15.028 60.8329 15.168 61.3089 15.448C61.7849 15.728 62.1676 16.134 62.4569 16.666C62.7556 17.198 62.9049 17.8467 62.9049 18.612C62.9049 19.3587 62.7556 19.998 62.4569 20.53C62.1676 21.062 61.7849 21.468 61.3089 21.748C60.8329 22.028 60.3149 22.168 59.7549 22.168ZM59.7549 21.216C60.3429 21.216 60.8143 20.978 61.1689 20.502C61.5329 20.0167 61.7149 19.3867 61.7149 18.612C61.7149 17.828 61.5329 17.1933 61.1689 16.708C60.8143 16.2227 60.3429 15.98 59.7549 15.98C59.1763 15.98 58.7049 16.2227 58.3409 16.708C57.9769 17.1933 57.7949 17.828 57.7949 18.612C57.7949 19.3867 57.9769 20.0167 58.3409 20.502C58.7049 20.978 59.1763 21.216 59.7549 21.216ZM64.6968 22V15.196H65.6488L65.7468 16.176H65.7888C66.1155 15.8493 66.4608 15.5787 66.8248 15.364C67.1888 15.14 67.6042 15.028 68.0708 15.028C68.7895 15.028 69.3122 15.2567 69.6388 15.714C69.9748 16.162 70.1428 16.82 70.1428 17.688V22H68.9948V17.842C68.9948 17.2073 68.8922 16.7453 68.6868 16.456C68.4815 16.1667 68.1548 16.022 67.7068 16.022C67.3615 16.022 67.0488 16.1107 66.7688 16.288C66.4982 16.4653 66.1902 16.7267 65.8448 17.072V22H64.6968ZM75.3518 22V16.134H74.4278V15.266L75.3518 15.196V14.118C75.3518 13.4273 75.5105 12.8813 75.8278 12.48C76.1545 12.0693 76.6585 11.864 77.3398 11.864C77.5545 11.864 77.7598 11.8873 77.9558 11.934C78.1518 11.9713 78.3245 12.0227 78.4738 12.088L78.2218 12.97C77.9698 12.858 77.7131 12.802 77.4518 12.802C76.8171 12.802 76.4998 13.2407 76.4998 14.118V15.196H77.9418V16.134H76.4998V22H75.3518ZM79.2437 22V15.196H80.1957L80.2937 16.428H80.3357C80.569 15.9987 80.8537 15.658 81.1897 15.406C81.5257 15.154 81.885 15.028 82.2677 15.028C82.5384 15.028 82.781 15.0747 82.9957 15.168L82.7717 16.176C82.6597 16.1387 82.557 16.1107 82.4637 16.092C82.3704 16.0733 82.2537 16.064 82.1137 16.064C81.8244 16.064 81.521 16.1807 81.2037 16.414C80.8957 16.6473 80.625 17.0533 80.3917 17.632V22H79.2437ZM86.6065 22.168C86.0558 22.168 85.5378 22.028 85.0525 21.748C84.5765 21.468 84.1892 21.062 83.8905 20.53C83.6012 19.998 83.4565 19.3587 83.4565 18.612C83.4565 17.8467 83.6012 17.198 83.8905 16.666C84.1892 16.134 84.5765 15.728 85.0525 15.448C85.5378 15.168 86.0558 15.028 86.6065 15.028C87.1665 15.028 87.6845 15.168 88.1605 15.448C88.6365 15.728 89.0192 16.134 89.3085 16.666C89.6072 17.198 89.7565 17.8467 89.7565 18.612C89.7565 19.3587 89.6072 19.998 89.3085 20.53C89.0192 21.062 88.6365 21.468 88.1605 21.748C87.6845 22.028 87.1665 22.168 86.6065 22.168ZM86.6065 21.216C87.1945 21.216 87.6658 20.978 88.0205 20.502C88.3845 20.0167 88.5665 19.3867 88.5665 18.612C88.5665 17.828 88.3845 17.1933 88.0205 16.708C87.6658 16.2227 87.1945 15.98 86.6065 15.98C86.0278 15.98 85.5565 16.2227 85.1925 16.708C84.8285 17.1933 84.6465 17.828 84.6465 18.612C84.6465 19.3867 84.8285 20.0167 85.1925 20.502C85.5565 20.978 86.0278 21.216 86.6065 21.216ZM91.5484 22V15.196H92.5004L92.5984 16.176H92.6404C92.9391 15.8493 93.2657 15.5787 93.6204 15.364C93.9751 15.14 94.3531 15.028 94.7544 15.028C95.2771 15.028 95.6831 15.1447 95.9724 15.378C96.2711 15.602 96.4904 15.9193 96.6304 16.33C96.9851 15.9473 97.3444 15.6347 97.7084 15.392C98.0724 15.1493 98.4597 15.028 98.8704 15.028C99.5704 15.028 100.088 15.2567 100.424 15.714C100.77 16.162 100.942 16.82 100.942 17.688V22H99.7944V17.842C99.7944 17.2073 99.6917 16.7453 99.4864 16.456C99.2811 16.1667 98.9637 16.022 98.5344 16.022C98.0304 16.022 97.4611 16.372 96.8264 17.072V22H95.6784V17.842C95.6784 17.2073 95.5757 16.7453 95.3704 16.456C95.1651 16.1667 94.8431 16.022 94.4044 16.022C93.9004 16.022 93.3311 16.372 92.6964 17.072V22H91.5484ZM108.101 22.168C107.373 22.168 106.864 21.958 106.575 21.538C106.295 21.118 106.155 20.572 106.155 19.9V16.134H105.147V15.266L106.211 15.196L106.351 13.292H107.317V15.196H109.151V16.134H107.317V19.914C107.317 20.334 107.391 20.6607 107.541 20.894C107.699 21.118 107.975 21.23 108.367 21.23C108.488 21.23 108.619 21.2113 108.759 21.174C108.899 21.1273 109.025 21.0853 109.137 21.048L109.361 21.916C109.174 21.9813 108.969 22.0373 108.745 22.084C108.53 22.14 108.315 22.168 108.101 22.168ZM110.689 22V12.032H111.837V14.748L111.795 16.148C112.122 15.84 112.462 15.5787 112.817 15.364C113.181 15.14 113.596 15.028 114.063 15.028C114.782 15.028 115.304 15.2567 115.631 15.714C115.967 16.162 116.135 16.82 116.135 17.688V22H114.987V17.842C114.987 17.2073 114.884 16.7453 114.679 16.456C114.474 16.1667 114.147 16.022 113.699 16.022C113.354 16.022 113.041 16.1107 112.761 16.288C112.49 16.4653 112.182 16.7267 111.837 17.072V22H110.689ZM121.062 22.168C120.456 22.168 119.905 22.028 119.41 21.748C118.916 21.4587 118.524 21.048 118.234 20.516C117.945 19.984 117.8 19.3493 117.8 18.612C117.8 17.8653 117.945 17.226 118.234 16.694C118.533 16.162 118.916 15.7513 119.382 15.462C119.849 15.1727 120.339 15.028 120.852 15.028C121.72 15.028 122.388 15.3173 122.854 15.896C123.33 16.4747 123.568 17.2493 123.568 18.22C123.568 18.3413 123.564 18.4627 123.554 18.584C123.554 18.696 123.545 18.794 123.526 18.878H118.934C118.981 19.5967 119.205 20.1707 119.606 20.6C120.017 21.0293 120.549 21.244 121.202 21.244C121.529 21.244 121.828 21.1973 122.098 21.104C122.378 21.0013 122.644 20.8707 122.896 20.712L123.302 21.468C123.013 21.6547 122.682 21.818 122.308 21.958C121.944 22.098 121.529 22.168 121.062 22.168ZM118.92 18.052H122.56C122.56 17.3613 122.411 16.8387 122.112 16.484C121.823 16.12 121.412 15.938 120.88 15.938C120.404 15.938 119.975 16.1247 119.592 16.498C119.219 16.862 118.995 17.38 118.92 18.052ZM129.62 22.168C129.051 22.168 128.575 22 128.192 21.664C127.819 21.3187 127.632 20.8427 127.632 20.236C127.632 19.4893 127.964 18.92 128.626 18.528C129.298 18.1267 130.358 17.8467 131.804 17.688C131.804 17.3987 131.762 17.1233 131.678 16.862C131.604 16.6007 131.464 16.3907 131.258 16.232C131.062 16.064 130.778 15.98 130.404 15.98C130.012 15.98 129.644 16.0547 129.298 16.204C128.953 16.3533 128.645 16.5213 128.374 16.708L127.926 15.91C128.244 15.7047 128.631 15.5087 129.088 15.322C129.555 15.126 130.059 15.028 130.6 15.028C131.431 15.028 132.033 15.2847 132.406 15.798C132.78 16.302 132.966 16.9787 132.966 17.828V22H132.014L131.916 21.188H131.874C131.557 21.4493 131.207 21.678 130.824 21.874C130.451 22.07 130.05 22.168 129.62 22.168ZM129.956 21.244C130.283 21.244 130.591 21.1647 130.88 21.006C131.17 20.8473 131.478 20.6233 131.804 20.334V18.444C130.675 18.584 129.882 18.794 129.424 19.074C128.976 19.354 128.752 19.7133 128.752 20.152C128.752 20.5347 128.869 20.8147 129.102 20.992C129.336 21.16 129.62 21.244 129.956 21.244ZM135.107 24.87V15.196H136.059L136.157 15.98H136.199C136.507 15.7187 136.843 15.4947 137.207 15.308C137.58 15.1213 137.968 15.028 138.369 15.028C139.246 15.028 139.914 15.3453 140.371 15.98C140.828 16.6053 141.057 17.4453 141.057 18.5C141.057 19.2653 140.917 19.9233 140.637 20.474C140.366 21.0247 140.007 21.4447 139.559 21.734C139.12 22.0233 138.64 22.168 138.117 22.168C137.8 22.168 137.482 22.098 137.165 21.958C136.857 21.818 136.544 21.6267 136.227 21.384L136.255 22.574V24.87H135.107ZM137.921 21.202C138.481 21.202 138.943 20.964 139.307 20.488C139.68 20.0027 139.867 19.34 139.867 18.5C139.867 17.7533 139.727 17.1513 139.447 16.694C139.176 16.2273 138.719 15.994 138.075 15.994C137.786 15.994 137.492 16.0733 137.193 16.232C136.904 16.3907 136.591 16.6193 136.255 16.918V20.488C136.563 20.7493 136.862 20.936 137.151 21.048C137.44 21.1507 137.697 21.202 137.921 21.202ZM142.873 24.87V15.196H143.825L143.923 15.98H143.965C144.273 15.7187 144.609 15.4947 144.973 15.308C145.346 15.1213 145.733 15.028 146.135 15.028C147.012 15.028 147.679 15.3453 148.137 15.98C148.594 16.6053 148.823 17.4453 148.823 18.5C148.823 19.2653 148.683 19.9233 148.403 20.474C148.132 21.0247 147.773 21.4447 147.325 21.734C146.886 22.0233 146.405 22.168 145.883 22.168C145.565 22.168 145.248 22.098 144.931 21.958C144.623 21.818 144.31 21.6267 143.993 21.384L144.021 22.574V24.87H142.873ZM145.687 21.202C146.247 21.202 146.709 20.964 147.073 20.488C147.446 20.0027 147.633 19.34 147.633 18.5C147.633 17.7533 147.493 17.1513 147.213 16.694C146.942 16.2273 146.485 15.994 145.841 15.994C145.551 15.994 145.257 16.0733 144.959 16.232C144.669 16.3907 144.357 16.6193 144.021 16.918V20.488C144.329 20.7493 144.627 20.936 144.917 21.048C145.206 21.1507 145.463 21.202 145.687 21.202ZM156.129 22.168C155.532 22.168 154.99 22.028 154.505 21.748C154.02 21.468 153.637 21.062 153.357 20.53C153.077 19.998 152.937 19.3587 152.937 18.612C152.937 17.8467 153.086 17.198 153.385 16.666C153.693 16.134 154.094 15.728 154.589 15.448C155.093 15.168 155.634 15.028 156.213 15.028C156.661 15.028 157.044 15.1073 157.361 15.266C157.688 15.4247 157.968 15.6113 158.201 15.826L157.613 16.582C157.417 16.4047 157.207 16.26 156.983 16.148C156.768 16.036 156.526 15.98 156.255 15.98C155.844 15.98 155.476 16.092 155.149 16.316C154.832 16.5307 154.58 16.8387 154.393 17.24C154.216 17.632 154.127 18.0893 154.127 18.612C154.127 19.3867 154.318 20.0167 154.701 20.502C155.093 20.978 155.602 21.216 156.227 21.216C156.544 21.216 156.838 21.1507 157.109 21.02C157.38 20.88 157.618 20.7167 157.823 20.53L158.327 21.3C158.019 21.5707 157.678 21.7853 157.305 21.944C156.932 22.0933 156.54 22.168 156.129 22.168ZM161.257 22.168C160.688 22.168 160.212 22 159.829 21.664C159.456 21.3187 159.269 20.8427 159.269 20.236C159.269 19.4893 159.6 18.92 160.263 18.528C160.935 18.1267 161.994 17.8467 163.441 17.688C163.441 17.3987 163.399 17.1233 163.315 16.862C163.24 16.6007 163.1 16.3907 162.895 16.232C162.699 16.064 162.414 15.98 162.041 15.98C161.649 15.98 161.28 16.0547 160.935 16.204C160.59 16.3533 160.282 16.5213 160.011 16.708L159.563 15.91C159.88 15.7047 160.268 15.5087 160.725 15.322C161.192 15.126 161.696 15.028 162.237 15.028C163.068 15.028 163.67 15.2847 164.043 15.798C164.416 16.302 164.603 16.9787 164.603 17.828V22H163.651L163.553 21.188H163.511C163.194 21.4493 162.844 21.678 162.461 21.874C162.088 22.07 161.686 22.168 161.257 22.168ZM161.593 21.244C161.92 21.244 162.228 21.1647 162.517 21.006C162.806 20.8473 163.114 20.6233 163.441 20.334V18.444C162.312 18.584 161.518 18.794 161.061 19.074C160.613 19.354 160.389 19.7133 160.389 20.152C160.389 20.5347 160.506 20.8147 160.739 20.992C160.972 21.16 161.257 21.244 161.593 21.244ZM166.744 22V15.196H167.696L167.794 16.176H167.836C168.134 15.8493 168.461 15.5787 168.816 15.364C169.17 15.14 169.548 15.028 169.95 15.028C170.472 15.028 170.878 15.1447 171.168 15.378C171.466 15.602 171.686 15.9193 171.826 16.33C172.18 15.9473 172.54 15.6347 172.904 15.392C173.268 15.1493 173.655 15.028 174.066 15.028C174.766 15.028 175.284 15.2567 175.62 15.714C175.965 16.162 176.138 16.82 176.138 17.688V22H174.99V17.842C174.99 17.2073 174.887 16.7453 174.682 16.456C174.476 16.1667 174.159 16.022 173.73 16.022C173.226 16.022 172.656 16.372 172.022 17.072V22H170.874V17.842C170.874 17.2073 170.771 16.7453 170.566 16.456C170.36 16.1667 170.038 16.022 169.6 16.022C169.096 16.022 168.526 16.372 167.892 17.072V22H166.744ZM181.109 22.168C180.502 22.168 179.952 22.028 179.457 21.748C178.962 21.4587 178.57 21.048 178.281 20.516C177.992 19.984 177.847 19.3493 177.847 18.612C177.847 17.8653 177.992 17.226 178.281 16.694C178.58 16.162 178.962 15.7513 179.429 15.462C179.896 15.1727 180.386 15.028 180.899 15.028C181.767 15.028 182.434 15.3173 182.901 15.896C183.377 16.4747 183.615 17.2493 183.615 18.22C183.615 18.3413 183.61 18.4627 183.601 18.584C183.601 18.696 183.592 18.794 183.573 18.878H178.981C179.028 19.5967 179.252 20.1707 179.653 20.6C180.064 21.0293 180.596 21.244 181.249 21.244C181.576 21.244 181.874 21.1973 182.145 21.104C182.425 21.0013 182.691 20.8707 182.943 20.712L183.349 21.468C183.06 21.6547 182.728 21.818 182.355 21.958C181.991 22.098 181.576 22.168 181.109 22.168ZM178.967 18.052H182.607C182.607 17.3613 182.458 16.8387 182.159 16.484C181.87 16.12 181.459 15.938 180.927 15.938C180.451 15.938 180.022 16.1247 179.639 16.498C179.266 16.862 179.042 17.38 178.967 18.052ZM188.295 22V16.134H187.371V15.266L188.295 15.196V14.118C188.295 13.4273 188.454 12.8813 188.771 12.48C189.098 12.0693 189.602 11.864 190.283 11.864C190.498 11.864 190.703 11.8873 190.899 11.934C191.095 11.9713 191.268 12.0227 191.417 12.088L191.165 12.97C190.913 12.858 190.657 12.802 190.395 12.802C189.761 12.802 189.443 13.2407 189.443 14.118V15.196H190.885V16.134H189.443V22H188.295ZM192.187 22V15.196H193.139L193.237 16.428H193.279C193.512 15.9987 193.797 15.658 194.133 15.406C194.469 15.154 194.828 15.028 195.211 15.028C195.482 15.028 195.724 15.0747 195.939 15.168L195.715 16.176C195.603 16.1387 195.5 16.1107 195.407 16.092C195.314 16.0733 195.197 16.064 195.057 16.064C194.768 16.064 194.464 16.1807 194.147 16.414C193.839 16.6473 193.568 17.0533 193.335 17.632V22H192.187ZM199.55 22.168C198.999 22.168 198.481 22.028 197.996 21.748C197.52 21.468 197.133 21.062 196.834 20.53C196.545 19.998 196.4 19.3587 196.4 18.612C196.4 17.8467 196.545 17.198 196.834 16.666C197.133 16.134 197.52 15.728 197.996 15.448C198.481 15.168 198.999 15.028 199.55 15.028C200.11 15.028 200.628 15.168 201.104 15.448C201.58 15.728 201.963 16.134 202.252 16.666C202.551 17.198 202.7 17.8467 202.7 18.612C202.7 19.3587 202.551 19.998 202.252 20.53C201.963 21.062 201.58 21.468 201.104 21.748C200.628 22.028 200.11 22.168 199.55 22.168ZM199.55 21.216C200.138 21.216 200.609 20.978 200.964 20.502C201.328 20.0167 201.51 19.3867 201.51 18.612C201.51 17.828 201.328 17.1933 200.964 16.708C200.609 16.2227 200.138 15.98 199.55 15.98C198.971 15.98 198.5 16.2227 198.136 16.708C197.772 17.1933 197.59 17.828 197.59 18.612C197.59 19.3867 197.772 20.0167 198.136 20.502C198.5 20.978 198.971 21.216 199.55 21.216ZM204.492 22V15.196H205.444L205.542 16.176H205.584C205.882 15.8493 206.209 15.5787 206.564 15.364C206.918 15.14 207.296 15.028 207.698 15.028C208.22 15.028 208.626 15.1447 208.916 15.378C209.214 15.602 209.434 15.9193 209.574 16.33C209.928 15.9473 210.288 15.6347 210.652 15.392C211.016 15.1493 211.403 15.028 211.814 15.028C212.514 15.028 213.032 15.2567 213.368 15.714C213.713 16.162 213.886 16.82 213.886 17.688V22H212.738V17.842C212.738 17.2073 212.635 16.7453 212.43 16.456C212.224 16.1667 211.907 16.022 211.478 16.022C210.974 16.022 210.404 16.372 209.77 17.072V22H208.622V17.842C208.622 17.2073 208.519 16.7453 208.314 16.456C208.108 16.1667 207.786 16.022 207.348 16.022C206.844 16.022 206.274 16.372 205.64 17.072V22H204.492ZM9.148 42.87V33.196H10.1L10.198 33.98H10.24C10.548 33.7187 10.884 33.4947 11.248 33.308C11.6213 33.1213 12.0087 33.028 12.41 33.028C13.2873 33.028 13.9547 33.3453 14.412 33.98C14.8693 34.6053 15.098 35.4453 15.098 36.5C15.098 37.2653 14.958 37.9233 14.678 38.474C14.4073 39.0247 14.048 39.4447 13.6 39.734C13.1613 40.0233 12.6807 40.168 12.158 40.168C11.8407 40.168 11.5233 40.098 11.206 39.958C10.898 39.818 10.5853 39.6267 10.268 39.384L10.296 40.574V42.87H9.148ZM11.962 39.202C12.522 39.202 12.984 38.964 13.348 38.488C13.7213 38.0027 13.908 37.34 13.908 36.5C13.908 35.7533 13.768 35.1513 13.488 34.694C13.2173 34.2273 12.76 33.994 12.116 33.994C11.8267 33.994 11.5327 34.0733 11.234 34.232C10.9447 34.3907 10.632 34.6193 10.296 34.918V38.488C10.604 38.7493 10.9027 38.936 11.192 39.048C11.4813 39.1507 11.738 39.202 11.962 39.202ZM19.6716 40.168C19.065 40.168 18.5143 40.028 18.0196 39.748C17.525 39.4587 17.133 39.048 16.8436 38.516C16.5543 37.984 16.4096 37.3493 16.4096 36.612C16.4096 35.8653 16.5543 35.226 16.8436 34.694C17.1423 34.162 17.525 33.7513 17.9916 33.462C18.4583 33.1727 18.9483 33.028 19.4616 33.028C20.3296 33.028 20.997 33.3173 21.4636 33.896C21.9396 34.4747 22.1776 35.2493 22.1776 36.22C22.1776 36.3413 22.173 36.4627 22.1636 36.584C22.1636 36.696 22.1543 36.794 22.1356 36.878H17.5436C17.5903 37.5967 17.8143 38.1707 18.2156 38.6C18.6263 39.0293 19.1583 39.244 19.8116 39.244C20.1383 39.244 20.437 39.1973 20.7076 39.104C20.9876 39.0013 21.2536 38.8707 21.5056 38.712L21.9116 39.468C21.6223 39.6547 21.291 39.818 20.9176 39.958C20.5536 40.098 20.1383 40.168 19.6716 40.168ZM17.5296 36.052H21.1696C21.1696 35.3613 21.0203 34.8387 20.7216 34.484C20.4323 34.12 20.0216 33.938 19.4896 33.938C19.0136 33.938 18.5843 34.1247 18.2016 34.498C17.8283 34.862 17.6043 35.38 17.5296 36.052ZM23.8589 40V33.196H24.8109L24.9089 34.428H24.9509C25.1843 33.9987 25.4689 33.658 25.8049 33.406C26.1409 33.154 26.5003 33.028 26.8829 33.028C27.1536 33.028 27.3963 33.0747 27.6109 33.168L27.3869 34.176C27.2749 34.1387 27.1723 34.1107 27.0789 34.092C26.9856 34.0733 26.8689 34.064 26.7289 34.064C26.4396 34.064 26.1363 34.1807 25.8189 34.414C25.5109 34.6473 25.2403 35.0533 25.0069 35.632V40H23.8589ZM30.4358 40.168C29.9504 40.168 29.4884 40.0793 29.0498 39.902C28.6111 39.7153 28.2284 39.4913 27.9018 39.23L28.4758 38.46C28.7744 38.6933 29.0824 38.8893 29.3998 39.048C29.7171 39.1973 30.0764 39.272 30.4778 39.272C30.9258 39.272 31.2618 39.1693 31.4858 38.964C31.7098 38.7493 31.8218 38.4973 31.8218 38.208C31.8218 37.9747 31.7424 37.7787 31.5838 37.62C31.4344 37.4613 31.2384 37.3307 30.9958 37.228C30.7624 37.116 30.5198 37.0133 30.2678 36.92C29.9504 36.7987 29.6378 36.6633 29.3298 36.514C29.0218 36.3553 28.7698 36.1547 28.5738 35.912C28.3778 35.66 28.2798 35.3427 28.2798 34.96C28.2798 34.4093 28.4851 33.952 28.8958 33.588C29.3158 33.2147 29.8944 33.028 30.6318 33.028C31.0518 33.028 31.4438 33.1027 31.8078 33.252C32.1718 33.4013 32.4844 33.5833 32.7458 33.798L32.1858 34.526C31.9524 34.3487 31.7098 34.204 31.4578 34.092C31.2058 33.98 30.9304 33.924 30.6318 33.924C30.2024 33.924 29.8851 34.022 29.6798 34.218C29.4838 34.414 29.3858 34.6427 29.3858 34.904C29.3858 35.1187 29.4558 35.296 29.5958 35.436C29.7358 35.5667 29.9178 35.6833 30.1418 35.786C30.3658 35.8793 30.6038 35.9773 30.8558 36.08C31.1824 36.2013 31.5044 36.3413 31.8218 36.5C32.1391 36.6493 32.4004 36.8547 32.6058 37.116C32.8204 37.368 32.9278 37.7087 32.9278 38.138C32.9278 38.502 32.8298 38.838 32.6338 39.146C32.4471 39.454 32.1671 39.7013 31.7938 39.888C31.4298 40.0747 30.9771 40.168 30.4358 40.168ZM37.169 40.168C36.6183 40.168 36.1003 40.028 35.615 39.748C35.139 39.468 34.7517 39.062 34.453 38.53C34.1637 37.998 34.019 37.3587 34.019 36.612C34.019 35.8467 34.1637 35.198 34.453 34.666C34.7517 34.134 35.139 33.728 35.615 33.448C36.1003 33.168 36.6183 33.028 37.169 33.028C37.729 33.028 38.247 33.168 38.723 33.448C39.199 33.728 39.5817 34.134 39.871 34.666C40.1697 35.198 40.319 35.8467 40.319 36.612C40.319 37.3587 40.1697 37.998 39.871 38.53C39.5817 39.062 39.199 39.468 38.723 39.748C38.247 40.028 37.729 40.168 37.169 40.168ZM37.169 39.216C37.757 39.216 38.2283 38.978 38.583 38.502C38.947 38.0167 39.129 37.3867 39.129 36.612C39.129 35.828 38.947 35.1933 38.583 34.708C38.2283 34.2227 37.757 33.98 37.169 33.98C36.5903 33.98 36.119 34.2227 35.755 34.708C35.391 35.1933 35.209 35.828 35.209 36.612C35.209 37.3867 35.391 38.0167 35.755 38.502C36.119 38.978 36.5903 39.216 37.169 39.216ZM42.1109 40V33.196H43.0629L43.1609 34.176H43.2029C43.5296 33.8493 43.8749 33.5787 44.2389 33.364C44.6029 33.14 45.0182 33.028 45.4849 33.028C46.2036 33.028 46.7262 33.2567 47.0529 33.714C47.3889 34.162 47.5569 34.82 47.5569 35.688V40H46.4089V35.842C46.4089 35.2073 46.3062 34.7453 46.1009 34.456C45.8956 34.1667 45.5689 34.022 45.1209 34.022C44.7756 34.022 44.4629 34.1107 44.1829 34.288C43.9122 34.4653 43.6042 34.7267 43.2589 35.072V40H42.1109ZM51.3351 40.168C50.7658 40.168 50.2898 40 49.9071 39.664C49.5338 39.3187 49.3471 38.8427 49.3471 38.236C49.3471 37.4893 49.6785 36.92 50.3411 36.528C51.0131 36.1267 52.0725 35.8467 53.5191 35.688C53.5191 35.3987 53.4771 35.1233 53.3931 34.862C53.3185 34.6007 53.1785 34.3907 52.9731 34.232C52.7771 34.064 52.4925 33.98 52.1191 33.98C51.7271 33.98 51.3585 34.0547 51.0131 34.204C50.6678 34.3533 50.3598 34.5213 50.0891 34.708L49.6411 33.91C49.9585 33.7047 50.3458 33.5087 50.8031 33.322C51.2698 33.126 51.7738 33.028 52.3151 33.028C53.1458 33.028 53.7478 33.2847 54.1211 33.798C54.4945 34.302 54.6811 34.9787 54.6811 35.828V40H53.7291L53.6311 39.188H53.5891C53.2718 39.4493 52.9218 39.678 52.5391 39.874C52.1658 40.07 51.7645 40.168 51.3351 40.168ZM51.6711 39.244C51.9978 39.244 52.3058 39.1647 52.5951 39.006C52.8845 38.8473 53.1925 38.6233 53.5191 38.334V36.444C52.3898 36.584 51.5965 36.794 51.1391 37.074C50.6911 37.354 50.4671 37.7133 50.4671 38.152C50.4671 38.5347 50.5838 38.8147 50.8171 38.992C51.0505 39.16 51.3351 39.244 51.6711 39.244ZM62.3126 40.168C61.7152 40.168 61.1739 40.028 60.6886 39.748C60.2032 39.468 59.8206 39.062 59.5406 38.53C59.2606 37.998 59.1206 37.3587 59.1206 36.612C59.1206 35.8467 59.2699 35.198 59.5686 34.666C59.8766 34.134 60.2779 33.728 60.7726 33.448C61.2766 33.168 61.8179 33.028 62.3966 33.028C62.8446 33.028 63.2272 33.1073 63.5446 33.266C63.8712 33.4247 64.1512 33.6113 64.3846 33.826L63.7966 34.582C63.6006 34.4047 63.3906 34.26 63.1666 34.148C62.9519 34.036 62.7092 33.98 62.4386 33.98C62.0279 33.98 61.6592 34.092 61.3326 34.316C61.0152 34.5307 60.7632 34.8387 60.5766 35.24C60.3992 35.632 60.3106 36.0893 60.3106 36.612C60.3106 37.3867 60.5019 38.0167 60.8846 38.502C61.2766 38.978 61.7852 39.216 62.4106 39.216C62.7279 39.216 63.0219 39.1507 63.2926 39.02C63.5632 38.88 63.8012 38.7167 64.0066 38.53L64.5106 39.3C64.2026 39.5707 63.8619 39.7853 63.4886 39.944C63.1152 40.0933 62.7232 40.168 62.3126 40.168ZM67.4406 40.168C66.8713 40.168 66.3953 40 66.0126 39.664C65.6393 39.3187 65.4526 38.8427 65.4526 38.236C65.4526 37.4893 65.7839 36.92 66.4466 36.528C67.1186 36.1267 68.1779 35.8467 69.6246 35.688C69.6246 35.3987 69.5826 35.1233 69.4986 34.862C69.4239 34.6007 69.2839 34.3907 69.0786 34.232C68.8826 34.064 68.5979 33.98 68.2246 33.98C67.8326 33.98 67.4639 34.0547 67.1186 34.204C66.7733 34.3533 66.4653 34.5213 66.1946 34.708L65.7466 33.91C66.0639 33.7047 66.4513 33.5087 66.9086 33.322C67.3753 33.126 67.8793 33.028 68.4206 33.028C69.2513 33.028 69.8533 33.2847 70.2266 33.798C70.5999 34.302 70.7866 34.9787 70.7866 35.828V40H69.8346L69.7366 39.188H69.6946C69.3773 39.4493 69.0273 39.678 68.6446 39.874C68.2713 40.07 67.8699 40.168 67.4406 40.168ZM67.7766 39.244C68.1033 39.244 68.4113 39.1647 68.7006 39.006C68.9899 38.8473 69.2979 38.6233 69.6246 38.334V36.444C68.4953 36.584 67.7019 36.794 67.2446 37.074C66.7966 37.354 66.5726 37.7133 66.5726 38.152C66.5726 38.5347 66.6893 38.8147 66.9226 38.992C67.1559 39.16 67.4406 39.244 67.7766 39.244ZM72.9273 40V33.196H73.8793L73.9773 34.428H74.0193C74.2526 33.9987 74.5373 33.658 74.8733 33.406C75.2093 33.154 75.5686 33.028 75.9513 33.028C76.222 33.028 76.4646 33.0747 76.6793 33.168L76.4553 34.176C76.3433 34.1387 76.2406 34.1107 76.1473 34.092C76.054 34.0733 75.9373 34.064 75.7973 34.064C75.508 34.064 75.2046 34.1807 74.8873 34.414C74.5793 34.6473 74.3086 35.0533 74.0753 35.632V40H72.9273ZM79.9681 40.168C79.1188 40.168 78.4374 39.86 77.9241 39.244C77.4108 38.6187 77.1541 37.7413 77.1541 36.612C77.1541 35.8747 77.2894 35.24 77.5601 34.708C77.8401 34.1667 78.2041 33.7513 78.6521 33.462C79.1094 33.1727 79.5948 33.028 80.1081 33.028C80.5001 33.028 80.8408 33.098 81.1301 33.238C81.4194 33.378 81.7134 33.5693 82.0121 33.812L81.9561 32.65V30.032H83.1181V40H82.1661L82.0681 39.202H82.0261C81.7648 39.4633 81.4568 39.692 81.1021 39.888C80.7474 40.0747 80.3694 40.168 79.9681 40.168ZM80.2201 39.202C80.8174 39.202 81.3961 38.8893 81.9561 38.264V34.708C81.6668 34.4467 81.3868 34.2647 81.1161 34.162C80.8548 34.05 80.5841 33.994 80.3041 33.994C79.9401 33.994 79.6088 34.106 79.3101 34.33C79.0208 34.5447 78.7874 34.848 78.6101 35.24C78.4328 35.6227 78.3441 36.0753 78.3441 36.598C78.3441 37.41 78.5074 38.0493 78.8341 38.516C79.1608 38.9733 79.6228 39.202 80.2201 39.202ZM87.1877 40.168C86.7024 40.168 86.2404 40.0793 85.8017 39.902C85.3631 39.7153 84.9804 39.4913 84.6537 39.23L85.2277 38.46C85.5264 38.6933 85.8344 38.8893 86.1517 39.048C86.4691 39.1973 86.8284 39.272 87.2297 39.272C87.6777 39.272 88.0137 39.1693 88.2377 38.964C88.4617 38.7493 88.5737 38.4973 88.5737 38.208C88.5737 37.9747 88.4944 37.7787 88.3357 37.62C88.1864 37.4613 87.9904 37.3307 87.7477 37.228C87.5144 37.116 87.2717 37.0133 87.0197 36.92C86.7024 36.7987 86.3897 36.6633 86.0817 36.514C85.7737 36.3553 85.5217 36.1547 85.3257 35.912C85.1297 35.66 85.0317 35.3427 85.0317 34.96C85.0317 34.4093 85.2371 33.952 85.6477 33.588C86.0677 33.2147 86.6464 33.028 87.3837 33.028C87.8037 33.028 88.1957 33.1027 88.5597 33.252C88.9237 33.4013 89.2364 33.5833 89.4977 33.798L88.9377 34.526C88.7044 34.3487 88.4617 34.204 88.2097 34.092C87.9577 33.98 87.6824 33.924 87.3837 33.924C86.9544 33.924 86.6371 34.022 86.4317 34.218C86.2357 34.414 86.1377 34.6427 86.1377 34.904C86.1377 35.1187 86.2077 35.296 86.3477 35.436C86.4877 35.5667 86.6697 35.6833 86.8937 35.786C87.1177 35.8793 87.3557 35.9773 87.6077 36.08C87.9344 36.2013 88.2564 36.3413 88.5737 36.5C88.8911 36.6493 89.1524 36.8547 89.3577 37.116C89.5724 37.368 89.6797 37.7087 89.6797 38.138C89.6797 38.502 89.5817 38.838 89.3857 39.146C89.1991 39.454 88.9191 39.7013 88.5457 39.888C88.1817 40.0747 87.7291 40.168 87.1877 40.168ZM91.065 42.38L90.785 41.708C91.1863 41.5307 91.499 41.2927 91.723 40.994C91.947 40.7047 92.0543 40.3733 92.045 40C92.0263 40.0093 92.003 40.014 91.975 40.014C91.947 40.014 91.9236 40.014 91.905 40.014C91.681 40.014 91.485 39.9487 91.317 39.818C91.1583 39.678 91.079 39.4773 91.079 39.216C91.079 38.964 91.163 38.768 91.331 38.628C91.499 38.4787 91.6996 38.404 91.933 38.404C92.2316 38.404 92.465 38.5253 92.633 38.768C92.8103 39.0107 92.899 39.342 92.899 39.762C92.899 40.3593 92.7356 40.882 92.409 41.33C92.0823 41.7873 91.6343 42.1373 91.065 42.38ZM99.342 40.168C98.8567 40.168 98.3947 40.0793 97.956 39.902C97.5173 39.7153 97.1347 39.4913 96.808 39.23L97.382 38.46C97.6807 38.6933 97.9887 38.8893 98.306 39.048C98.6233 39.1973 98.9827 39.272 99.384 39.272C99.832 39.272 100.168 39.1693 100.392 38.964C100.616 38.7493 100.728 38.4973 100.728 38.208C100.728 37.9747 100.649 37.7787 100.49 37.62C100.341 37.4613 100.145 37.3307 99.902 37.228C99.6687 37.116 99.426 37.0133 99.174 36.92C98.8567 36.7987 98.544 36.6633 98.236 36.514C97.928 36.3553 97.676 36.1547 97.48 35.912C97.284 35.66 97.186 35.3427 97.186 34.96C97.186 34.4093 97.3913 33.952 97.802 33.588C98.222 33.2147 98.8007 33.028 99.538 33.028C99.958 33.028 100.35 33.1027 100.714 33.252C101.078 33.4013 101.391 33.5833 101.652 33.798L101.092 34.526C100.859 34.3487 100.616 34.204 100.364 34.092C100.112 33.98 99.8367 33.924 99.538 33.924C99.1087 33.924 98.7913 34.022 98.586 34.218C98.39 34.414 98.292 34.6427 98.292 34.904C98.292 35.1187 98.362 35.296 98.502 35.436C98.642 35.5667 98.824 35.6833 99.048 35.786C99.272 35.8793 99.51 35.9773 99.762 36.08C100.089 36.2013 100.411 36.3413 100.728 36.5C101.045 36.6493 101.307 36.8547 101.512 37.116C101.727 37.368 101.834 37.7087 101.834 38.138C101.834 38.502 101.736 38.838 101.54 39.146C101.353 39.454 101.073 39.7013 100.7 39.888C100.336 40.0747 99.8833 40.168 99.342 40.168ZM106.075 40.168C105.525 40.168 105.007 40.028 104.521 39.748C104.045 39.468 103.658 39.062 103.359 38.53C103.07 37.998 102.925 37.3587 102.925 36.612C102.925 35.8467 103.07 35.198 103.359 34.666C103.658 34.134 104.045 33.728 104.521 33.448C105.007 33.168 105.525 33.028 106.075 33.028C106.635 33.028 107.153 33.168 107.629 33.448C108.105 33.728 108.488 34.134 108.777 34.666C109.076 35.198 109.225 35.8467 109.225 36.612C109.225 37.3587 109.076 37.998 108.777 38.53C108.488 39.062 108.105 39.468 107.629 39.748C107.153 40.028 106.635 40.168 106.075 40.168ZM106.075 39.216C106.663 39.216 107.135 38.978 107.489 38.502C107.853 38.0167 108.035 37.3867 108.035 36.612C108.035 35.828 107.853 35.1933 107.489 34.708C107.135 34.2227 106.663 33.98 106.075 33.98C105.497 33.98 105.025 34.2227 104.661 34.708C104.297 35.1933 104.115 35.828 104.115 36.612C104.115 37.3867 104.297 38.0167 104.661 38.502C105.025 38.978 105.497 39.216 106.075 39.216ZM116.466 40.168C115.915 40.168 115.397 40.028 114.912 39.748C114.436 39.468 114.049 39.062 113.75 38.53C113.461 37.998 113.316 37.3587 113.316 36.612C113.316 35.8467 113.461 35.198 113.75 34.666C114.049 34.134 114.436 33.728 114.912 33.448C115.397 33.168 115.915 33.028 116.466 33.028C117.026 33.028 117.544 33.168 118.02 33.448C118.496 33.728 118.879 34.134 119.168 34.666C119.467 35.198 119.616 35.8467 119.616 36.612C119.616 37.3587 119.467 37.998 119.168 38.53C118.879 39.062 118.496 39.468 118.02 39.748C117.544 40.028 117.026 40.168 116.466 40.168ZM116.466 39.216C117.054 39.216 117.525 38.978 117.88 38.502C118.244 38.0167 118.426 37.3867 118.426 36.612C118.426 35.828 118.244 35.1933 117.88 34.708C117.525 34.2227 117.054 33.98 116.466 33.98C115.887 33.98 115.416 34.2227 115.052 34.708C114.688 35.1933 114.506 35.828 114.506 36.612C114.506 37.3867 114.688 38.0167 115.052 38.502C115.416 38.978 115.887 39.216 116.466 39.216ZM121.604 40V34.134H120.68V33.266L121.604 33.196V32.118C121.604 31.4273 121.762 30.8813 122.08 30.48C122.406 30.0693 122.91 29.864 123.592 29.864C123.806 29.864 124.012 29.8873 124.208 29.934C124.404 29.9713 124.576 30.0227 124.726 30.088L124.474 30.97C124.222 30.858 123.965 30.802 123.704 30.802C123.069 30.802 122.752 31.2407 122.752 32.118V33.196H125.244L125.384 31.292H126.336V33.196H128.184V34.134H126.336V37.914C126.336 38.334 126.415 38.6607 126.574 38.894C126.732 39.118 127.008 39.23 127.4 39.23C127.521 39.23 127.652 39.2113 127.792 39.174C127.932 39.1273 128.058 39.0853 128.17 39.048L128.394 39.916C128.207 39.9813 128.002 40.0373 127.778 40.084C127.563 40.14 127.348 40.168 127.134 40.168C126.406 40.168 125.897 39.958 125.608 39.538C125.328 39.118 125.188 38.572 125.188 37.9V34.134H122.752V40H121.604ZM132.287 40.168C131.68 40.168 131.13 40.028 130.635 39.748C130.14 39.4587 129.748 39.048 129.459 38.516C129.17 37.984 129.025 37.3493 129.025 36.612C129.025 35.8653 129.17 35.226 129.459 34.694C129.758 34.162 130.14 33.7513 130.607 33.462C131.074 33.1727 131.564 33.028 132.077 33.028C132.945 33.028 133.612 33.3173 134.079 33.896C134.555 34.4747 134.793 35.2493 134.793 36.22C134.793 36.3413 134.788 36.4627 134.779 36.584C134.779 36.696 134.77 36.794 134.751 36.878H130.159C130.206 37.5967 130.43 38.1707 130.831 38.6C131.242 39.0293 131.774 39.244 132.427 39.244C132.754 39.244 133.052 39.1973 133.323 39.104C133.603 39.0013 133.869 38.8707 134.121 38.712L134.527 39.468C134.238 39.6547 133.906 39.818 133.533 39.958C133.169 40.098 132.754 40.168 132.287 40.168ZM130.145 36.052H133.785C133.785 35.3613 133.636 34.8387 133.337 34.484C133.048 34.12 132.637 33.938 132.105 33.938C131.629 33.938 131.2 34.1247 130.817 34.498C130.444 34.862 130.22 35.38 130.145 36.052ZM136.474 40V33.196H137.426L137.524 34.176H137.566C137.893 33.8493 138.238 33.5787 138.602 33.364C138.966 33.14 139.382 33.028 139.848 33.028C140.567 33.028 141.09 33.2567 141.416 33.714C141.752 34.162 141.92 34.82 141.92 35.688V40H140.772V35.842C140.772 35.2073 140.67 34.7453 140.464 34.456C140.259 34.1667 139.932 34.022 139.484 34.022C139.139 34.022 138.826 34.1107 138.546 34.288C138.276 34.4653 137.968 34.7267 137.622 35.072V40H136.474ZM148.921 40.168C148.202 40.168 147.675 39.944 147.339 39.496C147.003 39.0387 146.835 38.376 146.835 37.508V33.196H147.997V37.354C147.997 37.9887 148.095 38.4507 148.291 38.74C148.496 39.0293 148.823 39.174 149.271 39.174C149.626 39.174 149.938 39.0853 150.209 38.908C150.489 38.7213 150.788 38.4273 151.105 38.026V33.196H152.253V40H151.301L151.203 38.936H151.161C150.844 39.3093 150.508 39.608 150.153 39.832C149.798 40.056 149.388 40.168 148.921 40.168ZM156.326 40.168C155.841 40.168 155.379 40.0793 154.94 39.902C154.502 39.7153 154.119 39.4913 153.792 39.23L154.366 38.46C154.665 38.6933 154.973 38.8893 155.29 39.048C155.608 39.1973 155.967 39.272 156.368 39.272C156.816 39.272 157.152 39.1693 157.376 38.964C157.6 38.7493 157.712 38.4973 157.712 38.208C157.712 37.9747 157.633 37.7787 157.474 37.62C157.325 37.4613 157.129 37.3307 156.886 37.228C156.653 37.116 156.41 37.0133 156.158 36.92C155.841 36.7987 155.528 36.6633 155.22 36.514C154.912 36.3553 154.66 36.1547 154.464 35.912C154.268 35.66 154.17 35.3427 154.17 34.96C154.17 34.4093 154.376 33.952 154.786 33.588C155.206 33.2147 155.785 33.028 156.522 33.028C156.942 33.028 157.334 33.1027 157.698 33.252C158.062 33.4013 158.375 33.5833 158.636 33.798L158.076 34.526C157.843 34.3487 157.6 34.204 157.348 34.092C157.096 33.98 156.821 33.924 156.522 33.924C156.093 33.924 155.776 34.022 155.57 34.218C155.374 34.414 155.276 34.6427 155.276 34.904C155.276 35.1187 155.346 35.296 155.486 35.436C155.626 35.5667 155.808 35.6833 156.032 35.786C156.256 35.8793 156.494 35.9773 156.746 36.08C157.073 36.2013 157.395 36.3413 157.712 36.5C158.03 36.6493 158.291 36.8547 158.496 37.116C158.711 37.368 158.818 37.7087 158.818 38.138C158.818 38.502 158.72 38.838 158.524 39.146C158.338 39.454 158.058 39.7013 157.684 39.888C157.32 40.0747 156.868 40.168 156.326 40.168ZM163.172 40.168C162.565 40.168 162.014 40.028 161.52 39.748C161.025 39.4587 160.633 39.048 160.344 38.516C160.054 37.984 159.91 37.3493 159.91 36.612C159.91 35.8653 160.054 35.226 160.344 34.694C160.642 34.162 161.025 33.7513 161.492 33.462C161.958 33.1727 162.448 33.028 162.962 33.028C163.83 33.028 164.497 33.3173 164.964 33.896C165.44 34.4747 165.678 35.2493 165.678 36.22C165.678 36.3413 165.673 36.4627 165.664 36.584C165.664 36.696 165.654 36.794 165.636 36.878H161.044C161.09 37.5967 161.314 38.1707 161.716 38.6C162.126 39.0293 162.658 39.244 163.312 39.244C163.638 39.244 163.937 39.1973 164.208 39.104C164.488 39.0013 164.754 38.8707 165.006 38.712L165.412 39.468C165.122 39.6547 164.791 39.818 164.418 39.958C164.054 40.098 163.638 40.168 163.172 40.168ZM161.03 36.052H164.67C164.67 35.3613 164.52 34.8387 164.222 34.484C163.932 34.12 163.522 33.938 162.99 33.938C162.514 33.938 162.084 34.1247 161.702 34.498C161.328 34.862 161.104 35.38 161.03 36.052ZM169.683 40.168C168.834 40.168 168.152 39.86 167.639 39.244C167.126 38.6187 166.869 37.7413 166.869 36.612C166.869 35.8747 167.004 35.24 167.275 34.708C167.555 34.1667 167.919 33.7513 168.367 33.462C168.824 33.1727 169.31 33.028 169.823 33.028C170.215 33.028 170.556 33.098 170.845 33.238C171.134 33.378 171.428 33.5693 171.727 33.812L171.671 32.65V30.032H172.833V40H171.881L171.783 39.202H171.741C171.48 39.4633 171.172 39.692 170.817 39.888C170.462 40.0747 170.084 40.168 169.683 40.168ZM169.935 39.202C170.532 39.202 171.111 38.8893 171.671 38.264V34.708C171.382 34.4467 171.102 34.2647 170.831 34.162C170.57 34.05 170.299 33.994 170.019 33.994C169.655 33.994 169.324 34.106 169.025 34.33C168.736 34.5447 168.502 34.848 168.325 35.24C168.148 35.6227 168.059 36.0753 168.059 36.598C168.059 37.41 168.222 38.0493 168.549 38.516C168.876 38.9733 169.338 39.202 169.935 39.202ZM177.927 40V33.196H179.075V40H177.927ZM178.515 31.796C178.291 31.796 178.105 31.7307 177.955 31.6C177.815 31.46 177.745 31.2733 177.745 31.04C177.745 30.816 177.815 30.634 177.955 30.494C178.105 30.354 178.291 30.284 178.515 30.284C178.739 30.284 178.921 30.354 179.061 30.494C179.211 30.634 179.285 30.816 179.285 31.04C179.285 31.2733 179.211 31.46 179.061 31.6C178.921 31.7307 178.739 31.796 178.515 31.796ZM181.373 40V33.196H182.325L182.423 34.176H182.465C182.791 33.8493 183.137 33.5787 183.501 33.364C183.865 33.14 184.28 33.028 184.747 33.028C185.465 33.028 185.988 33.2567 186.315 33.714C186.651 34.162 186.819 34.82 186.819 35.688V40H185.671V35.842C185.671 35.2073 185.568 34.7453 185.363 34.456C185.157 34.1667 184.831 34.022 184.383 34.022C184.037 34.022 183.725 34.1107 183.445 34.288C183.174 34.4653 182.866 34.7267 182.521 35.072V40H181.373ZM195.206 40.168C194.58 40.168 194.016 40.042 193.512 39.79C193.017 39.538 192.625 39.1227 192.336 38.544C192.046 37.9653 191.902 37.186 191.902 36.206V30.816H193.064V36.234C193.064 36.9713 193.157 37.5547 193.344 37.984C193.54 38.404 193.796 38.7027 194.114 38.88C194.44 39.0573 194.804 39.146 195.206 39.146C195.616 39.146 195.985 39.0573 196.312 38.88C196.638 38.7027 196.895 38.404 197.082 37.984C197.278 37.5547 197.376 36.9713 197.376 36.234V30.816H198.496V36.206C198.496 37.186 198.351 37.9653 198.062 38.544C197.772 39.1227 197.38 39.538 196.886 39.79C196.391 40.042 195.831 40.168 195.206 40.168ZM199.78 40L202.454 35.254L199.962 30.816H201.25L202.496 33.168C202.618 33.3733 202.73 33.5787 202.832 33.784C202.944 33.9893 203.07 34.2273 203.21 34.498H203.266C203.397 34.2273 203.509 33.9893 203.602 33.784C203.705 33.5787 203.812 33.3733 203.924 33.168L205.142 30.816H206.374L203.868 35.31L206.542 40H205.254L203.91 37.522C203.789 37.298 203.663 37.0693 203.532 36.836C203.411 36.5933 203.276 36.332 203.126 36.052H203.07C202.94 36.332 202.814 36.5933 202.692 36.836C202.571 37.0693 202.454 37.298 202.342 37.522L201.012 40H199.78ZM208.498 40.168C208.265 40.168 208.064 40.0887 207.896 39.93C207.737 39.762 207.658 39.552 207.658 39.3C207.658 39.0293 207.737 38.8147 207.896 38.656C208.064 38.488 208.265 38.404 208.498 38.404C208.722 38.404 208.913 38.488 209.072 38.656C209.24 38.8147 209.324 39.0293 209.324 39.3C209.324 39.552 209.24 39.762 209.072 39.93C208.913 40.0887 208.722 40.168 208.498 40.168Z" fill="black"/>
<line x1="7.5" y1="52" x2="7.5" y2="107" stroke="#288071" stroke-dasharray="2 2"/>
</svg>
