<svg width="1361" height="155" viewBox="0 0 1361 155" fill="none" xmlns="http://www.w3.org/2000/svg">
<path d="M8.09091 124V30.9091H45.3636C52.2121 30.9091 57.9242 31.9242 62.5 33.9545C67.0758 35.9848 70.5152 38.803 72.8182 42.4091C75.1212 45.9848 76.2727 50.1061 76.2727 54.7727C76.2727 58.4091 75.5455 61.6061 74.0909 64.3636C72.6364 67.0909 70.6364 69.3333 68.0909 71.0909C65.5758 72.8182 62.697 74.0455 59.4545 74.7727V75.6818C63 75.8333 66.3182 76.8333 69.4091 78.6818C72.5303 80.5303 75.0606 83.1212 77 86.4545C78.9394 89.7576 79.9091 93.697 79.9091 98.2727C79.9091 103.212 78.6818 107.621 76.2273 111.5C73.803 115.348 70.2121 118.394 65.4545 120.636C60.697 122.879 54.8333 124 47.8636 124H8.09091ZM27.7727 107.909H43.8182C49.303 107.909 53.303 106.864 55.8182 104.773C58.3333 102.652 59.5909 99.8333 59.5909 96.3182C59.5909 93.7424 58.9697 91.4697 57.7273 89.5C56.4849 87.5303 54.7121 85.9848 52.4091 84.8636C50.1364 83.7424 47.4242 83.1818 44.2727 83.1818H27.7727V107.909ZM27.7727 69.8636H42.3636C45.0606 69.8636 47.4545 69.3939 49.5455 68.4545C51.6667 67.4848 53.3333 66.1212 54.5455 64.3636C55.7879 62.6061 56.4091 60.5 56.4091 58.0455C56.4091 54.6818 55.2121 51.9697 52.8182 49.9091C50.4545 47.8485 47.0909 46.8182 42.7273 46.8182H27.7727V69.8636ZM123.898 125.364C116.837 125.364 110.731 123.864 105.58 120.864C100.458 117.833 96.5038 113.621 93.7159 108.227C90.928 102.803 89.5341 96.5152 89.5341 89.3636C89.5341 82.1515 90.928 75.8485 93.7159 70.4545C96.5038 65.0303 100.458 60.8182 105.58 57.8182C110.731 54.7879 116.837 53.2727 123.898 53.2727C130.958 53.2727 137.049 54.7879 142.17 57.8182C147.322 60.8182 151.292 65.0303 154.08 70.4545C156.867 75.8485 158.261 82.1515 158.261 89.3636C158.261 96.5152 156.867 102.803 154.08 108.227C151.292 113.621 147.322 117.833 142.17 120.864C137.049 123.864 130.958 125.364 123.898 125.364ZM123.989 110.364C127.201 110.364 129.883 109.455 132.034 107.636C134.186 105.788 135.807 103.273 136.898 100.091C138.019 96.9091 138.58 93.2879 138.58 89.2273C138.58 85.1667 138.019 81.5455 136.898 78.3636C135.807 75.1818 134.186 72.6667 132.034 70.8182C129.883 68.9697 127.201 68.0455 123.989 68.0455C120.746 68.0455 118.019 68.9697 115.807 70.8182C113.625 72.6667 111.973 75.1818 110.852 78.3636C109.761 81.5455 109.216 85.1667 109.216 89.2273C109.216 93.2879 109.761 96.9091 110.852 100.091C111.973 103.273 113.625 105.788 115.807 107.636C118.019 109.455 120.746 110.364 123.989 110.364ZM202.398 125.364C195.337 125.364 189.231 123.864 184.08 120.864C178.958 117.833 175.004 113.621 172.216 108.227C169.428 102.803 168.034 96.5152 168.034 89.3636C168.034 82.1515 169.428 75.8485 172.216 70.4545C175.004 65.0303 178.958 60.8182 184.08 57.8182C189.231 54.7879 195.337 53.2727 202.398 53.2727C209.458 53.2727 215.549 54.7879 220.67 57.8182C225.822 60.8182 229.792 65.0303 232.58 70.4545C235.367 75.8485 236.761 82.1515 236.761 89.3636C236.761 96.5152 235.367 102.803 232.58 108.227C229.792 113.621 225.822 117.833 220.67 120.864C215.549 123.864 209.458 125.364 202.398 125.364ZM202.489 110.364C205.701 110.364 208.383 109.455 210.534 107.636C212.686 105.788 214.307 103.273 215.398 100.091C216.519 96.9091 217.08 93.2879 217.08 89.2273C217.08 85.1667 216.519 81.5455 215.398 78.3636C214.307 75.1818 212.686 72.6667 210.534 70.8182C208.383 68.9697 205.701 68.0455 202.489 68.0455C199.246 68.0455 196.519 68.9697 194.307 70.8182C192.125 72.6667 190.473 75.1818 189.352 78.3636C188.261 81.5455 187.716 85.1667 187.716 89.2273C187.716 93.2879 188.261 96.9091 189.352 100.091C190.473 103.273 192.125 105.788 194.307 107.636C196.519 109.455 199.246 110.364 202.489 110.364ZM248.989 124V112.455L283.17 70.1364V69.6364H250.17V54.1818H306.489V66.7727L274.398 108.045V108.545H307.67V124H248.989Z" fill="#288071"/>
<line x1="353.5" y1="131" x2="353.5" y2="24" stroke="#288071" stroke-width="3"/>
<path d="M419.136 124H398.045L430.182 30.9091H455.545L487.636 124H466.545L443.227 52.1818H442.5L419.136 124ZM417.818 87.4091H467.636V102.773H417.818V87.4091ZM517.841 30.9091V124H498.477V30.9091H517.841ZM552.716 30.9091V124H533.352V30.9091H552.716ZM600.045 125.364C592.864 125.364 586.682 123.909 581.5 121C576.348 118.061 572.379 113.909 569.591 108.545C566.803 103.152 565.409 96.7727 565.409 89.4091C565.409 82.2273 566.803 75.9242 569.591 70.5C572.379 65.0758 576.303 60.8485 581.364 57.8182C586.455 54.7879 592.424 53.2727 599.273 53.2727C603.879 53.2727 608.167 54.0152 612.136 55.5C616.136 56.9545 619.621 59.1515 622.591 62.0909C625.591 65.0303 627.924 68.7273 629.591 73.1818C631.258 77.6061 632.091 82.7879 632.091 88.7273V94.0455H573.136V82.0455H613.864C613.864 79.2576 613.258 76.7879 612.045 74.6364C610.833 72.4848 609.152 70.803 607 69.5909C604.879 68.3485 602.409 67.7273 599.591 67.7273C596.652 67.7273 594.045 68.4091 591.773 69.7727C589.53 71.1061 587.773 72.9091 586.5 75.1818C585.227 77.4242 584.576 79.9242 584.545 82.6818V94.0909C584.545 97.5455 585.182 100.53 586.455 103.045C587.758 105.561 589.591 107.5 591.955 108.864C594.318 110.227 597.121 110.909 600.364 110.909C602.515 110.909 604.485 110.606 606.273 110C608.061 109.394 609.591 108.485 610.864 107.273C612.136 106.061 613.106 104.576 613.773 102.818L631.682 104C630.773 108.303 628.909 112.061 626.091 115.273C623.303 118.455 619.697 120.939 615.273 122.727C610.879 124.485 605.803 125.364 600.045 125.364ZM664.091 83.6364V124H644.727V54.1818H663.182V66.5H664C665.545 62.4394 668.136 59.2273 671.773 56.8636C675.409 54.4697 679.818 53.2727 685 53.2727C689.848 53.2727 694.076 54.3333 697.682 56.4545C701.288 58.5758 704.091 61.6061 706.091 65.5455C708.091 69.4545 709.091 74.1212 709.091 79.5455V124H689.727V83C689.758 78.7273 688.667 75.3939 686.455 73C684.242 70.5758 681.197 69.3636 677.318 69.3636C674.712 69.3636 672.409 69.9242 670.409 71.0455C668.439 72.1667 666.894 73.803 665.773 75.9545C664.682 78.0758 664.121 80.6364 664.091 83.6364Z" fill="#288071"/>
<line x1="755.5" y1="131" x2="755.5" y2="24" stroke="#288071" stroke-width="3"/>
<path d="M805.091 124V30.9091H824.773V69.3182H864.727V30.9091H884.364V124H864.727V85.5455H824.773V124H805.091ZM920.136 125.318C915.682 125.318 911.712 124.545 908.227 123C904.742 121.424 901.985 119.106 899.955 116.045C897.955 112.955 896.955 109.106 896.955 104.5C896.955 100.621 897.667 97.3636 899.091 94.7273C900.515 92.0909 902.455 89.9697 904.909 88.3636C907.364 86.7576 910.152 85.5455 913.273 84.7273C916.424 83.9091 919.727 83.3333 923.182 83C927.242 82.5758 930.515 82.1818 933 81.8182C935.485 81.4242 937.288 80.8485 938.409 80.0909C939.53 79.3333 940.091 78.2121 940.091 76.7273V76.4545C940.091 73.5758 939.182 71.3485 937.364 69.7727C935.576 68.197 933.03 67.4091 929.727 67.4091C926.242 67.4091 923.47 68.1818 921.409 69.7273C919.348 71.2424 917.985 73.1515 917.318 75.4545L899.409 74C900.318 69.7576 902.106 66.0909 904.773 63C907.439 59.8788 910.879 57.4848 915.091 55.8182C919.333 54.1212 924.242 53.2727 929.818 53.2727C933.697 53.2727 937.409 53.7273 940.955 54.6364C944.53 55.5455 947.697 56.9545 950.455 58.8636C953.242 60.7727 955.439 63.2273 957.045 66.2273C958.652 69.197 959.455 72.7576 959.455 76.9091V124H941.091V114.318H940.545C939.424 116.5 937.924 118.424 936.045 120.091C934.167 121.727 931.909 123.015 929.273 123.955C926.636 124.864 923.591 125.318 920.136 125.318ZM925.682 111.955C928.53 111.955 931.045 111.394 933.227 110.273C935.409 109.121 937.121 107.576 938.364 105.636C939.606 103.697 940.227 101.5 940.227 99.0455V91.6364C939.621 92.0303 938.788 92.3939 937.727 92.7273C936.697 93.0303 935.53 93.3182 934.227 93.5909C932.924 93.8333 931.621 94.0606 930.318 94.2727C929.015 94.4545 927.833 94.6212 926.773 94.7727C924.5 95.1061 922.515 95.6364 920.818 96.3636C919.121 97.0909 917.803 98.0758 916.864 99.3182C915.924 100.53 915.455 102.045 915.455 103.864C915.455 106.5 916.409 108.515 918.318 109.909C920.258 111.273 922.712 111.955 925.682 111.955ZM974.477 124V54.1818H992.932V66.5H993.75C995.205 62.4091 997.629 59.1818 1001.02 56.8182C1004.42 54.4545 1008.48 53.2727 1013.2 53.2727C1017.99 53.2727 1022.07 54.4697 1025.43 56.8636C1028.8 59.2273 1031.04 62.4394 1032.16 66.5H1032.89C1034.31 62.5 1036.89 59.303 1040.61 56.9091C1044.37 54.4848 1048.81 53.2727 1053.93 53.2727C1060.45 53.2727 1065.73 55.3485 1069.8 59.5C1073.89 63.6212 1075.93 69.4697 1075.93 77.0455V124H1056.61V80.8636C1056.61 76.9848 1055.58 74.0758 1053.52 72.1364C1051.46 70.197 1048.89 69.2273 1045.8 69.2273C1042.28 69.2273 1039.54 70.3485 1037.57 72.5909C1035.6 74.803 1034.61 77.7273 1034.61 81.3636V124H1015.84V80.4545C1015.84 77.0303 1014.86 74.303 1012.89 72.2727C1010.95 70.2424 1008.39 69.2273 1005.2 69.2273C1003.05 69.2273 1001.11 69.7727 999.386 70.8636C997.689 71.9242 996.341 73.4242 995.341 75.3636C994.341 77.2727 993.841 79.5152 993.841 82.0909V124H974.477ZM1091.23 124V54.1818H1110.59V124H1091.23ZM1100.95 45.1818C1098.08 45.1818 1095.61 44.2273 1093.55 42.3182C1091.52 40.3788 1090.5 38.0606 1090.5 35.3636C1090.5 32.697 1091.52 30.4091 1093.55 28.5C1095.61 26.5606 1098.08 25.5909 1100.95 25.5909C1103.83 25.5909 1106.29 26.5606 1108.32 28.5C1110.38 30.4091 1111.41 32.697 1111.41 35.3636C1111.41 38.0606 1110.38 40.3788 1108.32 42.3182C1106.29 44.2273 1103.83 45.1818 1100.95 45.1818ZM1145.47 30.9091V124H1126.1V30.9091H1145.47ZM1198.11 54.1818V68.7273H1156.07V54.1818H1198.11ZM1165.61 37.4545H1184.98V102.545C1184.98 104.333 1185.25 105.727 1185.8 106.727C1186.34 107.697 1187.1 108.379 1188.07 108.773C1189.07 109.167 1190.22 109.364 1191.52 109.364C1192.43 109.364 1193.34 109.288 1194.25 109.136C1195.16 108.955 1195.86 108.818 1196.34 108.727L1199.39 123.136C1198.42 123.439 1197.05 123.788 1195.3 124.182C1193.54 124.606 1191.4 124.864 1188.89 124.955C1184.22 125.136 1180.13 124.515 1176.61 123.091C1173.13 121.667 1170.42 119.455 1168.48 116.455C1166.54 113.455 1165.58 109.667 1165.61 105.091V37.4545ZM1241.52 125.364C1234.46 125.364 1228.36 123.864 1223.2 120.864C1218.08 117.833 1214.13 113.621 1211.34 108.227C1208.55 102.803 1207.16 96.5152 1207.16 89.3636C1207.16 82.1515 1208.55 75.8485 1211.34 70.4545C1214.13 65.0303 1218.08 60.8182 1223.2 57.8182C1228.36 54.7879 1234.46 53.2727 1241.52 53.2727C1248.58 53.2727 1254.67 54.7879 1259.8 57.8182C1264.95 60.8182 1268.92 65.0303 1271.7 70.4545C1274.49 75.8485 1275.89 82.1515 1275.89 89.3636C1275.89 96.5152 1274.49 102.803 1271.7 108.227C1268.92 113.621 1264.95 117.833 1259.8 120.864C1254.67 123.864 1248.58 125.364 1241.52 125.364ZM1241.61 110.364C1244.83 110.364 1247.51 109.455 1249.66 107.636C1251.81 105.788 1253.43 103.273 1254.52 100.091C1255.64 96.9091 1256.2 93.2879 1256.2 89.2273C1256.2 85.1667 1255.64 81.5455 1254.52 78.3636C1253.43 75.1818 1251.81 72.6667 1249.66 70.8182C1247.51 68.9697 1244.83 68.0455 1241.61 68.0455C1238.37 68.0455 1235.64 68.9697 1233.43 70.8182C1231.25 72.6667 1229.6 75.1818 1228.48 78.3636C1227.39 81.5455 1226.84 85.1667 1226.84 89.2273C1226.84 93.2879 1227.39 96.9091 1228.48 100.091C1229.6 103.273 1231.25 105.788 1233.43 107.636C1235.64 109.455 1238.37 110.364 1241.61 110.364ZM1307.84 83.6364V124H1288.48V54.1818H1306.93V66.5H1307.75C1309.3 62.4394 1311.89 59.2273 1315.52 56.8636C1319.16 54.4697 1323.57 53.2727 1328.75 53.2727C1333.6 53.2727 1337.83 54.3333 1341.43 56.4545C1345.04 58.5758 1347.84 61.6061 1349.84 65.5455C1351.84 69.4545 1352.84 74.1212 1352.84 79.5455V124H1333.48V83C1333.51 78.7273 1332.42 75.3939 1330.2 73C1327.99 70.5758 1324.95 69.3636 1321.07 69.3636C1318.46 69.3636 1316.16 69.9242 1314.16 71.0455C1312.19 72.1667 1310.64 73.803 1309.52 75.9545C1308.43 78.0758 1307.87 80.6364 1307.84 83.6364Z" fill="#288071"/>
</svg>
