<svg width="806" height="691" viewBox="0 0 806 691" fill="none" xmlns="http://www.w3.org/2000/svg" xmlns:xlink="http://www.w3.org/1999/xlink">
<rect width="806" height="691" fill="white"/>
<path d="M31.7045 61H25.517V43.5455H31.7557C33.5114 43.5455 35.0227 43.8949 36.2898 44.5938C37.5568 45.2869 38.5313 46.2841 39.2131 47.5852C39.9006 48.8864 40.2443 50.4432 40.2443 52.2557C40.2443 54.0739 39.9006 55.6364 39.2131 56.9432C38.5313 58.25 37.5511 59.2528 36.2727 59.9517C35 60.6506 33.4773 61 31.7045 61ZM29.2074 57.8381H31.5511C32.642 57.8381 33.5597 57.6449 34.304 57.2585C35.054 56.8665 35.6165 56.2614 35.9915 55.4432C36.3722 54.6193 36.5625 53.5568 36.5625 52.2557C36.5625 50.9659 36.3722 49.9119 35.9915 49.0938C35.6165 48.2756 35.0568 47.6733 34.3125 47.2869C33.5682 46.9006 32.6506 46.7074 31.5597 46.7074H29.2074V57.8381ZM42.9098 61V47.9091H46.5405V61H42.9098ZM44.7337 46.2216C44.1939 46.2216 43.7308 46.0426 43.3445 45.6847C42.9638 45.321 42.7734 44.8864 42.7734 44.3807C42.7734 43.8807 42.9638 43.4517 43.3445 43.0938C43.7308 42.7301 44.1939 42.5483 44.7337 42.5483C45.2734 42.5483 45.7337 42.7301 46.1143 43.0938C46.5007 43.4517 46.6939 43.8807 46.6939 44.3807C46.6939 44.8864 46.5007 45.321 46.1143 45.6847C45.7337 46.0426 45.2734 46.2216 44.7337 46.2216ZM54.2727 61.2131C53.2784 61.2131 52.3778 60.9574 51.571 60.446C50.7699 59.929 50.1335 59.1705 49.6619 58.1705C49.196 57.1648 48.9631 55.9318 48.9631 54.4716C48.9631 52.9716 49.2045 51.7244 49.6875 50.7301C50.1705 49.7301 50.8125 48.983 51.6136 48.4886C52.4205 47.9886 53.304 47.7386 54.2642 47.7386C54.9972 47.7386 55.608 47.8636 56.0966 48.1136C56.5909 48.358 56.9886 48.6648 57.2898 49.0341C57.5966 49.3977 57.8295 49.7557 57.9886 50.108H58.0994V43.5455H61.7216V61H58.142V58.9034H57.9886C57.8182 59.267 57.5767 59.6278 57.2642 59.9858C56.9574 60.3381 56.5568 60.6307 56.0625 60.8636C55.5739 61.0966 54.9773 61.2131 54.2727 61.2131ZM55.4233 58.3239C56.0085 58.3239 56.5028 58.1648 56.9062 57.8466C57.3153 57.5227 57.6278 57.071 57.8438 56.4915C58.0653 55.9119 58.1761 55.233 58.1761 54.4545C58.1761 53.6761 58.0682 53 57.8523 52.4261C57.6364 51.8523 57.3239 51.4091 56.9148 51.0966C56.5057 50.7841 56.0085 50.6278 55.4233 50.6278C54.8267 50.6278 54.3239 50.7898 53.9148 51.1136C53.5057 51.4375 53.196 51.8864 52.9858 52.4602C52.7756 53.0341 52.6705 53.6989 52.6705 54.4545C52.6705 55.2159 52.7756 55.8892 52.9858 56.4744C53.2017 57.054 53.5114 57.5085 53.9148 57.8381C54.3239 58.1619 54.8267 58.3239 55.4233 58.3239ZM72.5028 65.9091C72.0426 65.9091 71.6108 65.8722 71.2074 65.7983C70.8097 65.7301 70.4801 65.642 70.2188 65.5341L71.0369 62.8239C71.4631 62.9545 71.8466 63.0256 72.1875 63.0369C72.5341 63.0483 72.8324 62.9688 73.0824 62.7983C73.3381 62.6278 73.5455 62.3381 73.7045 61.929L73.9176 61.375L69.2216 47.9091H73.0398L75.75 57.5227H75.8864L78.6222 47.9091H82.4659L77.3778 62.4148C77.1335 63.1193 76.8011 63.733 76.3807 64.2557C75.9659 64.7841 75.4403 65.1903 74.804 65.4744C74.1676 65.7642 73.4006 65.9091 72.5028 65.9091ZM89.8168 61.2557C88.4929 61.2557 87.348 60.9744 86.3821 60.4119C85.4219 59.8437 84.6804 59.054 84.1577 58.0426C83.6349 57.0256 83.3736 55.8466 83.3736 54.5057C83.3736 53.1534 83.6349 51.9716 84.1577 50.9602C84.6804 49.9432 85.4219 49.1534 86.3821 48.5909C87.348 48.0227 88.4929 47.7386 89.8168 47.7386C91.1406 47.7386 92.2827 48.0227 93.2429 48.5909C94.2088 49.1534 94.9531 49.9432 95.4759 50.9602C95.9986 51.9716 96.2599 53.1534 96.2599 54.5057C96.2599 55.8466 95.9986 57.0256 95.4759 58.0426C94.9531 59.054 94.2088 59.8437 93.2429 60.4119C92.2827 60.9744 91.1406 61.2557 89.8168 61.2557ZM89.8338 58.4432C90.4361 58.4432 90.9389 58.2727 91.3423 57.9318C91.7457 57.5852 92.0497 57.1136 92.2543 56.517C92.4645 55.9205 92.5696 55.2415 92.5696 54.4801C92.5696 53.7188 92.4645 53.0398 92.2543 52.4432C92.0497 51.8466 91.7457 51.375 91.3423 51.0284C90.9389 50.6818 90.4361 50.5085 89.8338 50.5085C89.2259 50.5085 88.7145 50.6818 88.2997 51.0284C87.8906 51.375 87.581 51.8466 87.3707 52.4432C87.1662 53.0398 87.0639 53.7188 87.0639 54.4801C87.0639 55.2415 87.1662 55.9205 87.3707 56.517C87.581 57.1136 87.8906 57.5852 88.2997 57.9318C88.7145 58.2727 89.2259 58.4432 89.8338 58.4432ZM107.016 55.4261V47.9091H110.646V61H107.161V58.6222H107.024C106.729 59.3892 106.237 60.0057 105.55 60.4716C104.868 60.9375 104.036 61.1705 103.053 61.1705C102.178 61.1705 101.408 60.9716 100.743 60.5739C100.078 60.1761 99.5582 59.6108 99.1832 58.8778C98.8139 58.1449 98.6264 57.267 98.6207 56.2443V47.9091H102.251V55.5966C102.257 56.3693 102.464 56.9801 102.874 57.429C103.283 57.8778 103.831 58.1023 104.518 58.1023C104.956 58.1023 105.365 58.0028 105.746 57.804C106.126 57.5994 106.433 57.2983 106.666 56.9006C106.905 56.5028 107.021 56.0114 107.016 55.4261ZM125.02 61.2557C123.696 61.2557 122.551 60.9744 121.585 60.4119C120.625 59.8437 119.884 59.054 119.361 58.0426C118.838 57.0256 118.577 55.8466 118.577 54.5057C118.577 53.1534 118.838 51.9716 119.361 50.9602C119.884 49.9432 120.625 49.1534 121.585 48.5909C122.551 48.0227 123.696 47.7386 125.02 47.7386C126.344 47.7386 127.486 48.0227 128.446 48.5909C129.412 49.1534 130.156 49.9432 130.679 50.9602C131.202 51.9716 131.463 53.1534 131.463 54.5057C131.463 55.8466 131.202 57.0256 130.679 58.0426C130.156 59.054 129.412 59.8437 128.446 60.4119C127.486 60.9744 126.344 61.2557 125.02 61.2557ZM125.037 58.4432C125.639 58.4432 126.142 58.2727 126.545 57.9318C126.949 57.5852 127.253 57.1136 127.457 56.517C127.668 55.9205 127.773 55.2415 127.773 54.4801C127.773 53.7188 127.668 53.0398 127.457 52.4432C127.253 51.8466 126.949 51.375 126.545 51.0284C126.142 50.6818 125.639 50.5085 125.037 50.5085C124.429 50.5085 123.918 50.6818 123.503 51.0284C123.094 51.375 122.784 51.8466 122.574 52.4432C122.369 53.0398 122.267 53.7188 122.267 54.4801C122.267 55.2415 122.369 55.9205 122.574 56.517C122.784 57.1136 123.094 57.5852 123.503 57.9318C123.918 58.2727 124.429 58.4432 125.037 58.4432ZM133.824 61V47.9091H137.344V50.1932H137.48C137.719 49.3807 138.119 48.767 138.682 48.3523C139.244 47.9318 139.892 47.7216 140.625 47.7216C140.807 47.7216 141.003 47.733 141.213 47.7557C141.423 47.7784 141.608 47.8097 141.767 47.8494V51.071C141.597 51.0199 141.361 50.9744 141.06 50.9347C140.759 50.8949 140.483 50.875 140.233 50.875C139.699 50.875 139.222 50.9915 138.801 51.2244C138.386 51.4517 138.057 51.7699 137.812 52.179C137.574 52.5881 137.455 53.0597 137.455 53.5938V61H133.824ZM151.44 65.9091C150.98 65.9091 150.548 65.8722 150.145 65.7983C149.747 65.7301 149.418 65.642 149.156 65.5341L149.974 62.8239C150.401 62.9545 150.784 63.0256 151.125 63.0369C151.472 63.0483 151.77 62.9688 152.02 62.7983C152.276 62.6278 152.483 62.3381 152.642 61.929L152.855 61.375L148.159 47.9091H151.977L154.688 57.5227H154.824L157.56 47.9091H161.403L156.315 62.4148C156.071 63.1193 155.739 63.733 155.318 64.2557C154.903 64.7841 154.378 65.1903 153.741 65.4744C153.105 65.7642 152.338 65.9091 151.44 65.9091ZM168.754 61.2557C167.43 61.2557 166.286 60.9744 165.32 60.4119C164.359 59.8437 163.618 59.054 163.095 58.0426C162.572 57.0256 162.311 55.8466 162.311 54.5057C162.311 53.1534 162.572 51.9716 163.095 50.9602C163.618 49.9432 164.359 49.1534 165.32 48.5909C166.286 48.0227 167.43 47.7386 168.754 47.7386C170.078 47.7386 171.22 48.0227 172.18 48.5909C173.146 49.1534 173.891 49.9432 174.413 50.9602C174.936 51.9716 175.197 53.1534 175.197 54.5057C175.197 55.8466 174.936 57.0256 174.413 58.0426C173.891 59.054 173.146 59.8437 172.18 60.4119C171.22 60.9744 170.078 61.2557 168.754 61.2557ZM168.771 58.4432C169.374 58.4432 169.876 58.2727 170.28 57.9318C170.683 57.5852 170.987 57.1136 171.192 56.517C171.402 55.9205 171.507 55.2415 171.507 54.4801C171.507 53.7188 171.402 53.0398 171.192 52.4432C170.987 51.8466 170.683 51.375 170.28 51.0284C169.876 50.6818 169.374 50.5085 168.771 50.5085C168.163 50.5085 167.652 50.6818 167.237 51.0284C166.828 51.375 166.518 51.8466 166.308 52.4432C166.104 53.0398 166.001 53.7188 166.001 54.4801C166.001 55.2415 166.104 55.9205 166.308 56.517C166.518 57.1136 166.828 57.5852 167.237 57.9318C167.652 58.2727 168.163 58.4432 168.771 58.4432ZM185.953 55.4261V47.9091H189.584V61H186.098V58.6222H185.962C185.666 59.3892 185.175 60.0057 184.487 60.4716C183.805 60.9375 182.973 61.1705 181.99 61.1705C181.115 61.1705 180.345 60.9716 179.68 60.5739C179.016 60.1761 178.496 59.6108 178.121 58.8778C177.751 58.1449 177.564 57.267 177.558 56.2443V47.9091H181.189V55.5966C181.195 56.3693 181.402 56.9801 181.811 57.429C182.22 57.8778 182.768 58.1023 183.456 58.1023C183.893 58.1023 184.303 58.0028 184.683 57.804C185.064 57.5994 185.371 57.2983 185.604 56.9006C185.842 56.5028 185.959 56.0114 185.953 55.4261ZM192.488 61V47.9091H196.008V50.1932H196.144C196.383 49.3807 196.783 48.767 197.346 48.3523C197.908 47.9318 198.556 47.7216 199.289 47.7216C199.471 47.7216 199.667 47.733 199.877 47.7557C200.087 47.7784 200.272 47.8097 200.431 47.8494V51.071C200.261 51.0199 200.025 50.9744 199.724 50.9347C199.423 50.8949 199.147 50.875 198.897 50.875C198.363 50.875 197.886 50.9915 197.465 51.2244C197.05 51.4517 196.721 51.7699 196.477 52.179C196.238 52.5881 196.119 53.0597 196.119 53.5938V61H192.488ZM207.863 65.9091V47.9091H211.442V50.108H211.604C211.763 49.7557 211.994 49.3977 212.295 49.0341C212.602 48.6648 212.999 48.358 213.488 48.1136C213.982 47.8636 214.596 47.7386 215.329 47.7386C216.283 47.7386 217.164 47.9886 217.971 48.4886C218.778 48.983 219.423 49.7301 219.906 50.7301C220.388 51.7244 220.63 52.9716 220.63 54.4716C220.63 55.9318 220.394 57.1648 219.923 58.1705C219.457 59.1705 218.82 59.929 218.013 60.446C217.212 60.9574 216.315 61.2131 215.32 61.2131C214.616 61.2131 214.016 61.0966 213.522 60.8636C213.033 60.6307 212.633 60.3381 212.32 59.9858C212.008 59.6278 211.769 59.267 211.604 58.9034H211.494V65.9091H207.863ZM211.417 54.4545C211.417 55.233 211.525 55.9119 211.741 56.4915C211.957 57.071 212.269 57.5227 212.678 57.8466C213.087 58.1648 213.585 58.3239 214.17 58.3239C214.761 58.3239 215.261 58.1619 215.67 57.8381C216.079 57.5085 216.388 57.054 216.599 56.4744C216.815 55.8892 216.923 55.2159 216.923 54.4545C216.923 53.6989 216.817 53.0341 216.607 52.4602C216.397 51.8864 216.087 51.4375 215.678 51.1136C215.269 50.7898 214.766 50.6278 214.17 50.6278C213.579 50.6278 213.079 50.7841 212.67 51.0966C212.266 51.4091 211.957 51.8523 211.741 52.4261C211.525 53 211.417 53.6761 211.417 54.4545ZM226.783 61.2472C225.948 61.2472 225.204 61.1023 224.55 60.8125C223.897 60.517 223.38 60.0824 222.999 59.5085C222.624 58.929 222.437 58.2074 222.437 57.3438C222.437 56.6165 222.57 56.0057 222.837 55.5114C223.104 55.017 223.468 54.6193 223.928 54.3182C224.388 54.017 224.911 53.7898 225.496 53.6364C226.087 53.483 226.707 53.375 227.354 53.3125C228.116 53.233 228.729 53.1591 229.195 53.0909C229.661 53.017 229.999 52.9091 230.21 52.767C230.42 52.625 230.525 52.4148 230.525 52.1364V52.0852C230.525 51.5455 230.354 51.1278 230.013 50.8324C229.678 50.5369 229.201 50.3892 228.582 50.3892C227.928 50.3892 227.408 50.5341 227.022 50.8239C226.636 51.108 226.38 51.4659 226.255 51.8977L222.897 51.625C223.067 50.8295 223.403 50.142 223.903 49.5625C224.403 48.9773 225.048 48.5284 225.837 48.2159C226.633 47.8977 227.553 47.7386 228.599 47.7386C229.326 47.7386 230.022 47.8239 230.687 47.9943C231.357 48.1648 231.951 48.429 232.468 48.7869C232.991 49.1449 233.403 49.6051 233.704 50.1676C234.005 50.7244 234.156 51.392 234.156 52.1705V61H230.712V59.1847H230.61C230.4 59.5938 230.119 59.9545 229.766 60.267C229.414 60.5739 228.991 60.8153 228.496 60.9915C228.002 61.1619 227.431 61.2472 226.783 61.2472ZM227.823 58.7415C228.357 58.7415 228.829 58.6364 229.238 58.4261C229.647 58.2102 229.968 57.9205 230.201 57.5568C230.434 57.1932 230.55 56.7812 230.55 56.321V54.9318C230.437 55.0057 230.281 55.0739 230.082 55.1364C229.888 55.1932 229.67 55.2472 229.425 55.2983C229.181 55.3437 228.937 55.3864 228.692 55.4261C228.448 55.4602 228.227 55.4915 228.028 55.5199C227.602 55.5824 227.229 55.6818 226.911 55.8182C226.593 55.9545 226.346 56.1392 226.17 56.3722C225.994 56.5994 225.906 56.8835 225.906 57.2244C225.906 57.7188 226.085 58.0966 226.442 58.358C226.806 58.6136 227.266 58.7415 227.823 58.7415ZM236.972 61V47.9091H240.492V50.1932H240.629C240.867 49.3807 241.268 48.767 241.83 48.3523C242.393 47.9318 243.04 47.7216 243.773 47.7216C243.955 47.7216 244.151 47.733 244.362 47.7557C244.572 47.7784 244.756 47.8097 244.915 47.8494V51.071C244.745 51.0199 244.509 50.9744 244.208 50.9347C243.907 50.8949 243.631 50.875 243.381 50.875C242.847 50.875 242.37 50.9915 241.95 51.2244C241.535 51.4517 241.205 51.7699 240.961 52.179C240.722 52.5881 240.603 53.0597 240.603 53.5938V61H236.972ZM252.149 61.2557C250.803 61.2557 249.643 60.983 248.672 60.4375C247.706 59.8864 246.962 59.108 246.439 58.1023C245.916 57.0909 245.655 55.8949 245.655 54.5142C245.655 53.1676 245.916 51.9858 246.439 50.9688C246.962 49.9517 247.697 49.1591 248.646 48.5909C249.601 48.0227 250.72 47.7386 252.004 47.7386C252.868 47.7386 253.672 47.8778 254.416 48.1562C255.166 48.429 255.82 48.8409 256.376 49.392C256.939 49.9432 257.376 50.6364 257.689 51.4716C258.001 52.3011 258.158 53.2727 258.158 54.3864V55.3835H247.104V53.1335H254.74C254.74 52.6108 254.626 52.1477 254.399 51.7443C254.172 51.3409 253.857 51.0256 253.453 50.7983C253.055 50.5653 252.592 50.4489 252.064 50.4489C251.513 50.4489 251.024 50.5767 250.598 50.8324C250.178 51.0824 249.848 51.4205 249.609 51.8466C249.371 52.267 249.249 52.7358 249.243 53.2528V55.392C249.243 56.0398 249.362 56.5994 249.601 57.071C249.845 57.5426 250.189 57.9062 250.632 58.1619C251.075 58.4176 251.601 58.5455 252.209 58.5455C252.612 58.5455 252.982 58.4886 253.317 58.375C253.652 58.2614 253.939 58.0909 254.178 57.8636C254.416 57.6364 254.598 57.358 254.723 57.0284L258.081 57.25C257.911 58.0568 257.561 58.7614 257.033 59.3636C256.51 59.9602 255.834 60.4261 255.004 60.7614C254.18 61.0909 253.229 61.2557 252.149 61.2557ZM264.158 53.4318V61H260.527V47.9091H263.987V50.2188H264.141C264.43 49.4574 264.916 48.8551 265.598 48.4119C266.28 47.9631 267.107 47.7386 268.078 47.7386C268.987 47.7386 269.78 47.9375 270.456 48.3352C271.132 48.733 271.658 49.3011 272.033 50.0398C272.408 50.7727 272.595 51.6477 272.595 52.6648V61H268.964V53.3125C268.97 52.5114 268.766 51.8864 268.351 51.4375C267.936 50.983 267.365 50.7557 266.638 50.7557C266.149 50.7557 265.717 50.8608 265.342 51.071C264.973 51.2812 264.683 51.5881 264.473 51.9915C264.268 52.3892 264.163 52.8693 264.158 53.4318ZM282.42 47.9091V50.6364H274.536V47.9091H282.42ZM276.326 44.7727H279.957V56.9773C279.957 57.3125 280.008 57.5739 280.11 57.7614C280.212 57.9432 280.354 58.071 280.536 58.1449C280.724 58.2187 280.94 58.2557 281.184 58.2557C281.354 58.2557 281.525 58.2415 281.695 58.2131C281.866 58.179 281.996 58.1534 282.087 58.1364L282.658 60.8381C282.477 60.8949 282.221 60.9602 281.891 61.0341C281.562 61.1136 281.161 61.1619 280.69 61.179C279.815 61.2131 279.048 61.0966 278.388 60.8295C277.735 60.5625 277.227 60.1477 276.863 59.5852C276.499 59.0227 276.32 58.3125 276.326 57.4545V44.7727ZM295.513 51.642L292.189 51.8466C292.132 51.5625 292.01 51.3068 291.822 51.0795C291.635 50.8466 291.388 50.6619 291.081 50.5256C290.78 50.3835 290.419 50.3125 289.999 50.3125C289.436 50.3125 288.962 50.4318 288.575 50.6705C288.189 50.9034 287.996 51.2159 287.996 51.608C287.996 51.9205 288.121 52.1847 288.371 52.4006C288.621 52.6165 289.05 52.7898 289.658 52.9205L292.027 53.3977C293.3 53.6591 294.249 54.0795 294.874 54.6591C295.499 55.2386 295.811 56 295.811 56.9432C295.811 57.8011 295.558 58.554 295.053 59.2017C294.553 59.8494 293.865 60.3551 292.99 60.7188C292.121 61.0767 291.118 61.2557 289.982 61.2557C288.249 61.2557 286.868 60.8949 285.839 60.1733C284.817 59.446 284.217 58.4574 284.041 57.2074L287.612 57.0199C287.72 57.5483 287.982 57.9517 288.396 58.2301C288.811 58.5028 289.342 58.6392 289.99 58.6392C290.626 58.6392 291.138 58.517 291.524 58.2727C291.916 58.0227 292.115 57.7017 292.121 57.3097C292.115 56.9801 291.976 56.7102 291.703 56.5C291.43 56.2841 291.01 56.1193 290.442 56.0057L288.175 55.554C286.896 55.2983 285.945 54.8551 285.32 54.2244C284.7 53.5937 284.391 52.7898 284.391 51.8125C284.391 50.9716 284.618 50.2472 285.072 49.6392C285.533 49.0312 286.178 48.5625 287.007 48.233C287.842 47.9034 288.82 47.7386 289.939 47.7386C291.592 47.7386 292.893 48.0881 293.842 48.7869C294.797 49.4858 295.354 50.4375 295.513 51.642ZM303.652 61V47.9091H307.283V61H303.652ZM305.476 46.2216C304.936 46.2216 304.473 46.0426 304.087 45.6847C303.706 45.321 303.516 44.8864 303.516 44.3807C303.516 43.8807 303.706 43.4517 304.087 43.0938C304.473 42.7301 304.936 42.5483 305.476 42.5483C306.016 42.5483 306.476 42.7301 306.857 43.0938C307.243 43.4517 307.436 43.8807 307.436 44.3807C307.436 44.8864 307.243 45.321 306.857 45.6847C306.476 46.0426 306.016 46.2216 305.476 46.2216ZM310.191 61V47.9091H313.651V50.2188H313.805C314.077 49.4517 314.532 48.8466 315.168 48.4034C315.805 47.9602 316.566 47.7386 317.452 47.7386C318.35 47.7386 319.114 47.9631 319.745 48.4119C320.376 48.8551 320.796 49.4574 321.006 50.2188H321.143C321.41 49.4688 321.893 48.8693 322.592 48.4205C323.296 47.9659 324.129 47.7386 325.089 47.7386C326.31 47.7386 327.302 48.1278 328.063 48.9062C328.83 49.679 329.214 50.7756 329.214 52.196V61H325.592V52.9119C325.592 52.1847 325.398 51.6392 325.012 51.2756C324.626 50.9119 324.143 50.7301 323.563 50.7301C322.904 50.7301 322.39 50.9403 322.021 51.3608C321.651 51.7756 321.467 52.3239 321.467 53.0057V61H317.947V52.8352C317.947 52.1932 317.762 51.6818 317.393 51.3011C317.029 50.9205 316.549 50.7301 315.952 50.7301C315.549 50.7301 315.185 50.8324 314.862 51.0369C314.543 51.2358 314.29 51.517 314.103 51.8807C313.915 52.2386 313.822 52.6591 313.822 53.142V61H310.191ZM332.082 61V47.9091H335.542V50.2188H335.695C335.968 49.4517 336.423 48.8466 337.059 48.4034C337.695 47.9602 338.457 47.7386 339.343 47.7386C340.241 47.7386 341.005 47.9631 341.636 48.4119C342.266 48.8551 342.687 49.4574 342.897 50.2188H343.033C343.3 49.4688 343.783 48.8693 344.482 48.4205C345.187 47.9659 346.019 47.7386 346.979 47.7386C348.201 47.7386 349.192 48.1278 349.954 48.9062C350.721 49.679 351.104 50.7756 351.104 52.196V61H347.482V52.9119C347.482 52.1847 347.289 51.6392 346.903 51.2756C346.516 50.9119 346.033 50.7301 345.454 50.7301C344.795 50.7301 344.281 50.9403 343.911 51.3608C343.542 51.7756 343.357 52.3239 343.357 53.0057V61H339.837V52.8352C339.837 52.1932 339.653 51.6818 339.283 51.3011C338.92 50.9205 338.44 50.7301 337.843 50.7301C337.44 50.7301 337.076 50.8324 336.752 51.0369C336.434 51.2358 336.181 51.517 335.994 51.8807C335.806 52.2386 335.712 52.6591 335.712 53.142V61H332.082ZM353.972 61V47.9091H357.603V61H353.972ZM355.796 46.2216C355.256 46.2216 354.793 46.0426 354.407 45.6847C354.026 45.321 353.836 44.8864 353.836 44.3807C353.836 43.8807 354.026 43.4517 354.407 43.0938C354.793 42.7301 355.256 42.5483 355.796 42.5483C356.336 42.5483 356.796 42.7301 357.177 43.0938C357.563 43.4517 357.756 43.8807 357.756 44.3807C357.756 44.8864 357.563 45.321 357.177 45.6847C356.796 46.0426 356.336 46.2216 355.796 46.2216ZM366.409 66.1818C365.233 66.1818 364.224 66.0199 363.384 65.696C362.548 65.3778 361.884 64.9432 361.389 64.392C360.895 63.8409 360.574 63.2216 360.426 62.5341L363.784 62.0824C363.886 62.3438 364.048 62.5881 364.27 62.8153C364.491 63.0426 364.784 63.2244 365.148 63.3608C365.517 63.5028 365.966 63.5739 366.494 63.5739C367.284 63.5739 367.935 63.3807 368.446 62.9943C368.963 62.6136 369.222 61.9744 369.222 61.0767V58.6818H369.068C368.909 59.0455 368.67 59.3892 368.352 59.7131C368.034 60.0369 367.625 60.3011 367.125 60.5057C366.625 60.7102 366.028 60.8125 365.335 60.8125C364.352 60.8125 363.457 60.5852 362.651 60.1307C361.849 59.6705 361.21 58.9687 360.733 58.0256C360.261 57.0767 360.026 55.8778 360.026 54.429C360.026 52.946 360.267 51.7074 360.75 50.7131C361.233 49.7187 361.875 48.9744 362.676 48.4801C363.483 47.9858 364.366 47.7386 365.327 47.7386C366.06 47.7386 366.673 47.8636 367.168 48.1136C367.662 48.358 368.06 48.6648 368.361 49.0341C368.668 49.3977 368.903 49.7557 369.068 50.108H369.205V47.9091H372.81V61.1278C372.81 62.2415 372.537 63.1733 371.991 63.9233C371.446 64.6733 370.69 65.2358 369.724 65.6108C368.764 65.9915 367.659 66.1818 366.409 66.1818ZM366.486 58.0852C367.071 58.0852 367.565 57.9403 367.969 57.6506C368.378 57.3551 368.69 56.9347 368.906 56.3892C369.128 55.8381 369.239 55.179 369.239 54.4119C369.239 53.6449 369.131 52.9801 368.915 52.4176C368.699 51.8494 368.386 51.4091 367.977 51.0966C367.568 50.7841 367.071 50.6278 366.486 50.6278C365.889 50.6278 365.386 50.7898 364.977 51.1136C364.568 51.4318 364.259 51.875 364.048 52.4432C363.838 53.0114 363.733 53.6676 363.733 54.4119C363.733 55.1676 363.838 55.821 364.048 56.3722C364.264 56.9176 364.574 57.3409 364.977 57.642C365.386 57.9375 365.889 58.0852 366.486 58.0852ZM375.699 61V47.9091H379.219V50.1932H379.355C379.594 49.3807 379.994 48.767 380.557 48.3523C381.119 47.9318 381.767 47.7216 382.5 47.7216C382.682 47.7216 382.878 47.733 383.088 47.7557C383.298 47.7784 383.483 47.8097 383.642 47.8494V51.071C383.472 51.0199 383.236 50.9744 382.935 50.9347C382.634 50.8949 382.358 50.875 382.108 50.875C381.574 50.875 381.097 50.9915 380.676 51.2244C380.261 51.4517 379.932 51.7699 379.688 52.179C379.449 52.5881 379.33 53.0597 379.33 53.5938V61H375.699ZM388.877 61.2472C388.042 61.2472 387.298 61.1023 386.644 60.8125C385.991 60.517 385.474 60.0824 385.093 59.5085C384.718 58.929 384.531 58.2074 384.531 57.3438C384.531 56.6165 384.664 56.0057 384.931 55.5114C385.198 55.017 385.562 54.6193 386.022 54.3182C386.482 54.017 387.005 53.7898 387.59 53.6364C388.181 53.483 388.8 53.375 389.448 53.3125C390.21 53.233 390.823 53.1591 391.289 53.0909C391.755 53.017 392.093 52.9091 392.303 52.767C392.513 52.625 392.619 52.4148 392.619 52.1364V52.0852C392.619 51.5455 392.448 51.1278 392.107 50.8324C391.772 50.5369 391.295 50.3892 390.675 50.3892C390.022 50.3892 389.502 50.5341 389.116 50.8239C388.729 51.108 388.474 51.4659 388.349 51.8977L384.991 51.625C385.161 50.8295 385.496 50.142 385.996 49.5625C386.496 48.9773 387.141 48.5284 387.931 48.2159C388.727 47.8977 389.647 47.7386 390.692 47.7386C391.42 47.7386 392.116 47.8239 392.781 47.9943C393.451 48.1648 394.045 48.429 394.562 48.7869C395.085 49.1449 395.496 49.6051 395.798 50.1676C396.099 50.7244 396.249 51.392 396.249 52.1705V61H392.806V59.1847H392.704C392.494 59.5938 392.212 59.9545 391.86 60.267C391.508 60.5739 391.085 60.8153 390.59 60.9915C390.096 61.1619 389.525 61.2472 388.877 61.2472ZM389.917 58.7415C390.451 58.7415 390.923 58.6364 391.332 58.4261C391.741 58.2102 392.062 57.9205 392.295 57.5568C392.528 57.1932 392.644 56.7812 392.644 56.321V54.9318C392.531 55.0057 392.374 55.0739 392.175 55.1364C391.982 55.1932 391.763 55.2472 391.519 55.2983C391.275 55.3437 391.031 55.3864 390.786 55.4261C390.542 55.4602 390.32 55.4915 390.121 55.5199C389.695 55.5824 389.323 55.6818 389.005 55.8182C388.687 55.9545 388.44 56.1392 388.263 56.3722C388.087 56.5994 387.999 56.8835 387.999 57.2244C387.999 57.7188 388.178 58.0966 388.536 58.358C388.9 58.6136 389.36 58.7415 389.917 58.7415ZM406.029 47.9091V50.6364H398.146V47.9091H406.029ZM399.935 44.7727H403.566V56.9773C403.566 57.3125 403.617 57.5739 403.719 57.7614C403.822 57.9432 403.964 58.071 404.146 58.1449C404.333 58.2187 404.549 58.2557 404.793 58.2557C404.964 58.2557 405.134 58.2415 405.305 58.2131C405.475 58.179 405.606 58.1534 405.697 58.1364L406.268 60.8381C406.086 60.8949 405.83 60.9602 405.501 61.0341C405.171 61.1136 404.771 61.1619 404.299 61.179C403.424 61.2131 402.657 61.0966 401.998 60.8295C401.344 60.5625 400.836 60.1477 400.472 59.5852C400.109 59.0227 399.93 58.3125 399.935 57.4545V44.7727ZM414.219 61.2557C412.873 61.2557 411.714 60.983 410.742 60.4375C409.776 59.8864 409.032 59.108 408.509 58.1023C407.987 57.0909 407.725 55.8949 407.725 54.5142C407.725 53.1676 407.987 51.9858 408.509 50.9688C409.032 49.9517 409.768 49.1591 410.717 48.5909C411.671 48.0227 412.79 47.7386 414.075 47.7386C414.938 47.7386 415.742 47.8778 416.487 48.1562C417.237 48.429 417.89 48.8409 418.447 49.392C419.009 49.9432 419.447 50.6364 419.759 51.4716C420.072 52.3011 420.228 53.2727 420.228 54.3864V55.3835H409.174V53.1335H416.81C416.81 52.6108 416.697 52.1477 416.469 51.7443C416.242 51.3409 415.927 51.0256 415.523 50.7983C415.126 50.5653 414.663 50.4489 414.134 50.4489C413.583 50.4489 413.094 50.5767 412.668 50.8324C412.248 51.0824 411.918 51.4205 411.68 51.8466C411.441 52.267 411.319 52.7358 411.313 53.2528V55.392C411.313 56.0398 411.433 56.5994 411.671 57.071C411.915 57.5426 412.259 57.9062 412.702 58.1619C413.146 58.4176 413.671 58.5455 414.279 58.5455C414.683 58.5455 415.052 58.4886 415.387 58.375C415.722 58.2614 416.009 58.0909 416.248 57.8636C416.487 57.6364 416.668 57.358 416.793 57.0284L420.151 57.25C419.981 58.0568 419.631 58.7614 419.103 59.3636C418.58 59.9602 417.904 60.4261 417.075 60.7614C416.251 61.0909 415.299 61.2557 414.219 61.2557ZM435.115 47.9091V50.6364H427.232V47.9091H435.115ZM429.021 44.7727H432.652V56.9773C432.652 57.3125 432.703 57.5739 432.805 57.7614C432.908 57.9432 433.05 58.071 433.232 58.1449C433.419 58.2187 433.635 58.2557 433.879 58.2557C434.05 58.2557 434.22 58.2415 434.391 58.2131C434.561 58.179 434.692 58.1534 434.783 58.1364L435.354 60.8381C435.172 60.8949 434.916 60.9602 434.587 61.0341C434.257 61.1136 433.857 61.1619 433.385 61.179C432.51 61.2131 431.743 61.0966 431.084 60.8295C430.43 60.5625 429.922 60.1477 429.558 59.5852C429.195 59.0227 429.016 58.3125 429.021 57.4545V44.7727ZM443.254 61.2557C441.93 61.2557 440.786 60.9744 439.82 60.4119C438.859 59.8437 438.118 59.054 437.595 58.0426C437.072 57.0256 436.811 55.8466 436.811 54.5057C436.811 53.1534 437.072 51.9716 437.595 50.9602C438.118 49.9432 438.859 49.1534 439.82 48.5909C440.786 48.0227 441.93 47.7386 443.254 47.7386C444.578 47.7386 445.72 48.0227 446.68 48.5909C447.646 49.1534 448.391 49.9432 448.913 50.9602C449.436 51.9716 449.697 53.1534 449.697 54.5057C449.697 55.8466 449.436 57.0256 448.913 58.0426C448.391 59.054 447.646 59.8437 446.68 60.4119C445.72 60.9744 444.578 61.2557 443.254 61.2557ZM443.271 58.4432C443.874 58.4432 444.376 58.2727 444.78 57.9318C445.183 57.5852 445.487 57.1136 445.692 56.517C445.902 55.9205 446.007 55.2415 446.007 54.4801C446.007 53.7188 445.902 53.0398 445.692 52.4432C445.487 51.8466 445.183 51.375 444.78 51.0284C444.376 50.6818 443.874 50.5085 443.271 50.5085C442.663 50.5085 442.152 50.6818 441.737 51.0284C441.328 51.375 441.018 51.8466 440.808 52.4432C440.604 53.0398 440.501 53.7188 440.501 54.4801C440.501 55.2415 440.604 55.9205 440.808 56.517C441.018 57.1136 441.328 57.5852 441.737 57.9318C442.152 58.2727 442.663 58.4432 443.271 58.4432ZM461.346 61.2472C460.511 61.2472 459.766 61.1023 459.113 60.8125C458.46 60.517 457.942 60.0824 457.562 59.5085C457.187 58.929 456.999 58.2074 456.999 57.3438C456.999 56.6165 457.133 56.0057 457.4 55.5114C457.667 55.017 458.031 54.6193 458.491 54.3182C458.951 54.017 459.474 53.7898 460.059 53.6364C460.65 53.483 461.269 53.375 461.917 53.3125C462.678 53.233 463.292 53.1591 463.758 53.0909C464.224 53.017 464.562 52.9091 464.772 52.767C464.982 52.625 465.087 52.4148 465.087 52.1364V52.0852C465.087 51.5455 464.917 51.1278 464.576 50.8324C464.241 50.5369 463.763 50.3892 463.144 50.3892C462.491 50.3892 461.971 50.5341 461.585 50.8239C461.198 51.108 460.942 51.4659 460.817 51.8977L457.46 51.625C457.63 50.8295 457.965 50.142 458.465 49.5625C458.965 48.9773 459.61 48.5284 460.4 48.2159C461.195 47.8977 462.116 47.7386 463.161 47.7386C463.888 47.7386 464.585 47.8239 465.249 47.9943C465.92 48.1648 466.513 48.429 467.031 48.7869C467.553 49.1449 467.965 49.6051 468.266 50.1676C468.567 50.7244 468.718 51.392 468.718 52.1705V61H465.275V59.1847H465.173C464.962 59.5938 464.681 59.9545 464.329 60.267C463.977 60.5739 463.553 60.8153 463.059 60.9915C462.565 61.1619 461.994 61.2472 461.346 61.2472ZM462.386 58.7415C462.92 58.7415 463.391 58.6364 463.8 58.4261C464.21 58.2102 464.531 57.9205 464.763 57.5568C464.996 57.1932 465.113 56.7812 465.113 56.321V54.9318C464.999 55.0057 464.843 55.0739 464.644 55.1364C464.451 55.1932 464.232 55.2472 463.988 55.2983C463.744 55.3437 463.499 55.3864 463.255 55.4261C463.011 55.4602 462.789 55.4915 462.59 55.5199C462.164 55.5824 461.792 55.6818 461.474 55.8182C461.156 55.9545 460.908 56.1392 460.732 56.3722C460.556 56.5994 460.468 56.8835 460.468 57.2244C460.468 57.7188 460.647 58.0966 461.005 58.358C461.369 58.6136 461.829 58.7415 462.386 58.7415ZM475.165 53.4318V61H471.535V47.9091H474.995V50.2188H475.148C475.438 49.4574 475.924 48.8551 476.606 48.4119C477.288 47.9631 478.114 47.7386 479.086 47.7386C479.995 47.7386 480.788 47.9375 481.464 48.3352C482.14 48.733 482.665 49.3011 483.04 50.0398C483.415 50.7727 483.603 51.6477 483.603 52.6648V61H479.972V53.3125C479.978 52.5114 479.773 51.8864 479.359 51.4375C478.944 50.983 478.373 50.7557 477.646 50.7557C477.157 50.7557 476.725 50.8608 476.35 51.071C475.981 51.2812 475.691 51.5881 475.481 51.9915C475.276 52.3892 475.171 52.8693 475.165 53.4318ZM492.379 61.2557C491.055 61.2557 489.911 60.9744 488.945 60.4119C487.984 59.8437 487.243 59.054 486.72 58.0426C486.197 57.0256 485.936 55.8466 485.936 54.5057C485.936 53.1534 486.197 51.9716 486.72 50.9602C487.243 49.9432 487.984 49.1534 488.945 48.5909C489.911 48.0227 491.055 47.7386 492.379 47.7386C493.703 47.7386 494.845 48.0227 495.805 48.5909C496.771 49.1534 497.516 49.9432 498.038 50.9602C498.561 51.9716 498.822 53.1534 498.822 54.5057C498.822 55.8466 498.561 57.0256 498.038 58.0426C497.516 59.054 496.771 59.8437 495.805 60.4119C494.845 60.9744 493.703 61.2557 492.379 61.2557ZM492.396 58.4432C492.999 58.4432 493.501 58.2727 493.905 57.9318C494.308 57.5852 494.612 57.1136 494.817 56.517C495.027 55.9205 495.132 55.2415 495.132 54.4801C495.132 53.7188 495.027 53.0398 494.817 52.4432C494.612 51.8466 494.308 51.375 493.905 51.0284C493.501 50.6818 492.999 50.5085 492.396 50.5085C491.788 50.5085 491.277 50.6818 490.862 51.0284C490.453 51.375 490.143 51.8466 489.933 52.4432C489.729 53.0398 489.626 53.7188 489.626 54.4801C489.626 55.2415 489.729 55.9205 489.933 56.517C490.143 57.1136 490.453 57.5852 490.862 57.9318C491.277 58.2727 491.788 58.4432 492.396 58.4432ZM508.146 47.9091V50.6364H500.263V47.9091H508.146ZM502.053 44.7727H505.683V56.9773C505.683 57.3125 505.734 57.5739 505.837 57.7614C505.939 57.9432 506.081 58.071 506.263 58.1449C506.45 58.2187 506.666 58.2557 506.911 58.2557C507.081 58.2557 507.251 58.2415 507.422 58.2131C507.592 58.179 507.723 58.1534 507.814 58.1364L508.385 60.8381C508.203 60.8949 507.947 60.9602 507.618 61.0341C507.288 61.1136 506.888 61.1619 506.416 61.179C505.541 61.2131 504.774 61.0966 504.115 60.8295C503.462 60.5625 502.953 60.1477 502.589 59.5852C502.226 59.0227 502.047 58.3125 502.053 57.4545V44.7727ZM514.423 53.4318V61H510.793V43.5455H514.321V50.2188H514.474C514.77 49.446 515.247 48.8409 515.906 48.4034C516.565 47.9602 517.392 47.7386 518.386 47.7386C519.295 47.7386 520.088 47.9375 520.764 48.3352C521.446 48.7273 521.974 49.2926 522.349 50.0312C522.73 50.7642 522.918 51.642 522.912 52.6648V61H519.281V53.3125C519.287 52.5057 519.082 51.8778 518.668 51.429C518.259 50.9801 517.685 50.7557 516.946 50.7557C516.452 50.7557 516.014 50.8608 515.634 51.071C515.259 51.2812 514.963 51.5881 514.747 51.9915C514.537 52.3892 514.429 52.8693 514.423 53.4318ZM531.735 61.2557C530.388 61.2557 529.229 60.983 528.258 60.4375C527.292 59.8864 526.548 59.108 526.025 58.1023C525.502 57.0909 525.241 55.8949 525.241 54.5142C525.241 53.1676 525.502 51.9858 526.025 50.9688C526.548 49.9517 527.283 49.1591 528.232 48.5909C529.187 48.0227 530.306 47.7386 531.59 47.7386C532.454 47.7386 533.258 47.8778 534.002 48.1562C534.752 48.429 535.406 48.8409 535.962 49.392C536.525 49.9432 536.962 50.6364 537.275 51.4716C537.587 52.3011 537.744 53.2727 537.744 54.3864V55.3835H526.69V53.1335H534.326C534.326 52.6108 534.212 52.1477 533.985 51.7443C533.758 51.3409 533.442 51.0256 533.039 50.7983C532.641 50.5653 532.178 50.4489 531.65 50.4489C531.099 50.4489 530.61 50.5767 530.184 50.8324C529.763 51.0824 529.434 51.4205 529.195 51.8466C528.957 52.267 528.835 52.7358 528.829 53.2528V55.392C528.829 56.0398 528.948 56.5994 529.187 57.071C529.431 57.5426 529.775 57.9062 530.218 58.1619C530.661 58.4176 531.187 58.5455 531.795 58.5455C532.198 58.5455 532.567 58.4886 532.903 58.375C533.238 58.2614 533.525 58.0909 533.763 57.8636C534.002 57.6364 534.184 57.358 534.309 57.0284L537.667 57.25C537.496 58.0568 537.147 58.7614 536.619 59.3636C536.096 59.9602 535.42 60.4261 534.59 60.7614C533.766 61.0909 532.815 61.2557 531.735 61.2557ZM540.113 61V47.9091H543.633V50.1932H543.769C544.008 49.3807 544.408 48.767 544.971 48.3523C545.533 47.9318 546.181 47.7216 546.914 47.7216C547.096 47.7216 547.292 47.733 547.502 47.7557C547.712 47.7784 547.897 47.8097 548.056 47.8494V51.071C547.886 51.0199 547.65 50.9744 547.349 50.9347C547.048 50.8949 546.772 50.875 546.522 50.875C545.988 50.875 545.511 50.9915 545.09 51.2244C544.675 51.4517 544.346 51.7699 544.102 52.179C543.863 52.5881 543.744 53.0597 543.744 53.5938V61H540.113ZM555.556 61V43.5455H567.317V46.5881H559.246V50.7472H566.712V53.7898H559.246V57.9574H567.352V61H555.556ZM573.814 53.4318V61H570.183V47.9091H573.643V50.2188H573.797C574.087 49.4574 574.572 48.8551 575.254 48.4119C575.936 47.9631 576.763 47.7386 577.734 47.7386C578.643 47.7386 579.436 47.9375 580.112 48.3352C580.788 48.733 581.314 49.3011 581.689 50.0398C582.064 50.7727 582.251 51.6477 582.251 52.6648V61H578.621V53.3125C578.626 52.5114 578.422 51.8864 578.007 51.4375C577.592 50.983 577.021 50.7557 576.294 50.7557C575.805 50.7557 575.374 50.8608 574.999 51.071C574.629 51.2812 574.339 51.5881 574.129 51.9915C573.925 52.3892 573.82 52.8693 573.814 53.4318ZM591.011 66.1818C589.835 66.1818 588.826 66.0199 587.985 65.696C587.15 65.3778 586.485 64.9432 585.991 64.392C585.496 63.8409 585.175 63.2216 585.028 62.5341L588.386 62.0824C588.488 62.3438 588.65 62.5881 588.871 62.8153C589.093 63.0426 589.386 63.2244 589.749 63.3608C590.119 63.5028 590.567 63.5739 591.096 63.5739C591.886 63.5739 592.536 63.3807 593.048 62.9943C593.565 62.6136 593.823 61.9744 593.823 61.0767V58.6818H593.67C593.511 59.0455 593.272 59.3892 592.954 59.7131C592.636 60.0369 592.227 60.3011 591.727 60.5057C591.227 60.7102 590.63 60.8125 589.937 60.8125C588.954 60.8125 588.059 60.5852 587.252 60.1307C586.451 59.6705 585.812 58.9687 585.335 58.0256C584.863 57.0767 584.627 55.8778 584.627 54.429C584.627 52.946 584.869 51.7074 585.352 50.7131C585.835 49.7187 586.477 48.9744 587.278 48.4801C588.085 47.9858 588.968 47.7386 589.928 47.7386C590.661 47.7386 591.275 47.8636 591.769 48.1136C592.263 48.358 592.661 48.6648 592.962 49.0341C593.269 49.3977 593.505 49.7557 593.67 50.108H593.806V47.9091H597.411V61.1278C597.411 62.2415 597.138 63.1733 596.593 63.9233C596.048 64.6733 595.292 65.2358 594.326 65.6108C593.366 65.9915 592.261 66.1818 591.011 66.1818ZM591.087 58.0852C591.673 58.0852 592.167 57.9403 592.57 57.6506C592.979 57.3551 593.292 56.9347 593.508 56.3892C593.729 55.8381 593.84 55.179 593.84 54.4119C593.84 53.6449 593.732 52.9801 593.516 52.4176C593.3 51.8494 592.988 51.4091 592.579 51.0966C592.17 50.7841 591.673 50.6278 591.087 50.6278C590.491 50.6278 589.988 50.7898 589.579 51.1136C589.17 51.4318 588.86 51.875 588.65 52.4432C588.44 53.0114 588.335 53.6676 588.335 54.4119C588.335 55.1676 588.44 55.821 588.65 56.3722C588.866 56.9176 589.175 57.3409 589.579 57.642C589.988 57.9375 590.491 58.0852 591.087 58.0852ZM603.931 43.5455V61H600.3V43.5455H603.931ZM606.839 61V47.9091H610.47V61H606.839ZM608.663 46.2216C608.124 46.2216 607.661 46.0426 607.274 45.6847C606.893 45.321 606.703 44.8864 606.703 44.3807C606.703 43.8807 606.893 43.4517 607.274 43.0938C607.661 42.7301 608.124 42.5483 608.663 42.5483C609.203 42.5483 609.663 42.7301 610.044 43.0938C610.43 43.4517 610.624 43.8807 610.624 44.3807C610.624 44.8864 610.43 45.321 610.044 45.6847C609.663 46.0426 609.203 46.2216 608.663 46.2216ZM624.271 51.642L620.947 51.8466C620.89 51.5625 620.768 51.3068 620.58 51.0795C620.393 50.8466 620.146 50.6619 619.839 50.5256C619.538 50.3835 619.177 50.3125 618.756 50.3125C618.194 50.3125 617.719 50.4318 617.333 50.6705C616.947 50.9034 616.754 51.2159 616.754 51.608C616.754 51.9205 616.879 52.1847 617.129 52.4006C617.379 52.6165 617.808 52.7898 618.415 52.9205L620.785 53.3977C622.058 53.6591 623.006 54.0795 623.631 54.6591C624.256 55.2386 624.569 56 624.569 56.9432C624.569 57.8011 624.316 58.554 623.81 59.2017C623.31 59.8494 622.623 60.3551 621.748 60.7188C620.879 61.0767 619.876 61.2557 618.739 61.2557C617.006 61.2557 615.626 60.8949 614.597 60.1733C613.575 59.446 612.975 58.4574 612.799 57.2074L616.37 57.0199C616.478 57.5483 616.739 57.9517 617.154 58.2301C617.569 58.5028 618.1 58.6392 618.748 58.6392C619.384 58.6392 619.896 58.517 620.282 58.2727C620.674 58.0227 620.873 57.7017 620.879 57.3097C620.873 56.9801 620.734 56.7102 620.461 56.5C620.188 56.2841 619.768 56.1193 619.2 56.0057L616.933 55.554C615.654 55.2983 614.702 54.8551 614.077 54.2244C613.458 53.5937 613.148 52.7898 613.148 51.8125C613.148 50.9716 613.376 50.2472 613.83 49.6392C614.29 49.0312 614.935 48.5625 615.765 48.233C616.6 47.9034 617.577 47.7386 618.697 47.7386C620.35 47.7386 621.651 48.0881 622.6 48.7869C623.555 49.4858 624.112 50.4375 624.271 51.642ZM630.486 53.4318V61H626.855V43.5455H630.384V50.2188H630.537C630.832 49.446 631.31 48.8409 631.969 48.4034C632.628 47.9602 633.455 47.7386 634.449 47.7386C635.358 47.7386 636.151 47.9375 636.827 48.3352C637.509 48.7273 638.037 49.2926 638.412 50.0312C638.793 50.7642 638.98 51.642 638.974 52.6648V61H635.344V53.3125C635.349 52.5057 635.145 51.8778 634.73 51.429C634.321 50.9801 633.747 50.7557 633.009 50.7557C632.514 50.7557 632.077 50.8608 631.696 51.071C631.321 51.2812 631.026 51.5881 630.81 51.9915C630.599 52.3892 630.491 52.8693 630.486 53.4318ZM652.21 61.2131C651.216 61.2131 650.315 60.9574 649.509 60.446C648.707 59.929 648.071 59.1705 647.599 58.1705C647.134 57.1648 646.901 55.9318 646.901 54.4716C646.901 52.9716 647.142 51.7244 647.625 50.7301C648.108 49.7301 648.75 48.983 649.551 48.4886C650.358 47.9886 651.241 47.7386 652.202 47.7386C652.935 47.7386 653.545 47.8636 654.034 48.1136C654.528 48.358 654.926 48.6648 655.227 49.0341C655.534 49.3977 655.767 49.7557 655.926 50.108H656.037V43.5455H659.659V61H656.08V58.9034H655.926C655.756 59.267 655.514 59.6278 655.202 59.9858C654.895 60.3381 654.494 60.6307 654 60.8636C653.511 61.0966 652.915 61.2131 652.21 61.2131ZM653.361 58.3239C653.946 58.3239 654.44 58.1648 654.844 57.8466C655.253 57.5227 655.565 57.071 655.781 56.4915C656.003 55.9119 656.114 55.233 656.114 54.4545C656.114 53.6761 656.006 53 655.79 52.4261C655.574 51.8523 655.261 51.4091 654.852 51.0966C654.443 50.7841 653.946 50.6278 653.361 50.6278C652.764 50.6278 652.261 50.7898 651.852 51.1136C651.443 51.4375 651.134 51.8864 650.923 52.4602C650.713 53.0341 650.608 53.6989 650.608 54.4545C650.608 55.2159 650.713 55.8892 650.923 56.4744C651.139 57.054 651.449 57.5085 651.852 57.8381C652.261 58.1619 652.764 58.3239 653.361 58.3239ZM668.559 61.2557C667.235 61.2557 666.09 60.9744 665.124 60.4119C664.164 59.8437 663.423 59.054 662.9 58.0426C662.377 57.0256 662.116 55.8466 662.116 54.5057C662.116 53.1534 662.377 51.9716 662.9 50.9602C663.423 49.9432 664.164 49.1534 665.124 48.5909C666.09 48.0227 667.235 47.7386 668.559 47.7386C669.883 47.7386 671.025 48.0227 671.985 48.5909C672.951 49.1534 673.695 49.9432 674.218 50.9602C674.741 51.9716 675.002 53.1534 675.002 54.5057C675.002 55.8466 674.741 57.0256 674.218 58.0426C673.695 59.054 672.951 59.8437 671.985 60.4119C671.025 60.9744 669.883 61.2557 668.559 61.2557ZM668.576 58.4432C669.178 58.4432 669.681 58.2727 670.085 57.9318C670.488 57.5852 670.792 57.1136 670.996 56.517C671.207 55.9205 671.312 55.2415 671.312 54.4801C671.312 53.7188 671.207 53.0398 670.996 52.4432C670.792 51.8466 670.488 51.375 670.085 51.0284C669.681 50.6818 669.178 50.5085 668.576 50.5085C667.968 50.5085 667.457 50.6818 667.042 51.0284C666.633 51.375 666.323 51.8466 666.113 52.4432C665.908 53.0398 665.806 53.7188 665.806 54.4801C665.806 55.2415 665.908 55.9205 666.113 56.517C666.323 57.1136 666.633 57.5852 667.042 57.9318C667.457 58.2727 667.968 58.4432 668.576 58.4432ZM677.363 61V47.9091H680.823V50.2188H680.977C681.249 49.4517 681.704 48.8466 682.34 48.4034C682.977 47.9602 683.738 47.7386 684.624 47.7386C685.522 47.7386 686.286 47.9631 686.917 48.4119C687.548 48.8551 687.968 49.4574 688.178 50.2188H688.315C688.582 49.4688 689.065 48.8693 689.763 48.4205C690.468 47.9659 691.3 47.7386 692.261 47.7386C693.482 47.7386 694.474 48.1278 695.235 48.9062C696.002 49.679 696.386 50.7756 696.386 52.196V61H692.763V52.9119C692.763 52.1847 692.57 51.6392 692.184 51.2756C691.798 50.9119 691.315 50.7301 690.735 50.7301C690.076 50.7301 689.562 50.9403 689.192 51.3608C688.823 51.7756 688.638 52.3239 688.638 53.0057V61H685.119V52.8352C685.119 52.1932 684.934 51.6818 684.565 51.3011C684.201 50.9205 683.721 50.7301 683.124 50.7301C682.721 50.7301 682.357 50.8324 682.033 51.0369C681.715 51.2358 681.462 51.517 681.275 51.8807C681.087 52.2386 680.994 52.6591 680.994 53.142V61H677.363ZM699.254 61V47.9091H702.884V61H699.254ZM701.077 46.2216C700.538 46.2216 700.075 46.0426 699.688 45.6847C699.308 45.321 699.117 44.8864 699.117 44.3807C699.117 43.8807 699.308 43.4517 699.688 43.0938C700.075 42.7301 700.538 42.5483 701.077 42.5483C701.617 42.5483 702.077 42.7301 702.458 43.0938C702.844 43.4517 703.038 43.8807 703.038 44.3807C703.038 44.8864 702.844 45.321 702.458 45.6847C702.077 46.0426 701.617 46.2216 701.077 46.2216ZM709.423 53.4318V61H705.793V47.9091H709.253V50.2188H709.406C709.696 49.4574 710.182 48.8551 710.864 48.4119C711.545 47.9631 712.372 47.7386 713.344 47.7386C714.253 47.7386 715.045 47.9375 715.722 48.3352C716.398 48.733 716.923 49.3011 717.298 50.0398C717.673 50.7727 717.861 51.6477 717.861 52.6648V61H714.23V53.3125C714.236 52.5114 714.031 51.8864 713.616 51.4375C713.202 50.983 712.631 50.7557 711.903 50.7557C711.415 50.7557 710.983 50.8608 710.608 51.071C710.239 51.2812 709.949 51.5881 709.739 51.9915C709.534 52.3892 709.429 52.8693 709.423 53.4318ZM724.455 61.2472C723.62 61.2472 722.876 61.1023 722.222 60.8125C721.569 60.517 721.052 60.0824 720.671 59.5085C720.296 58.929 720.109 58.2074 720.109 57.3438C720.109 56.6165 720.242 56.0057 720.509 55.5114C720.776 55.017 721.14 54.6193 721.6 54.3182C722.06 54.017 722.583 53.7898 723.168 53.6364C723.759 53.483 724.379 53.375 725.026 53.3125C725.788 53.233 726.401 53.1591 726.867 53.0909C727.333 53.017 727.671 52.9091 727.881 52.767C728.092 52.625 728.197 52.4148 728.197 52.1364V52.0852C728.197 51.5455 728.026 51.1278 727.685 50.8324C727.35 50.5369 726.873 50.3892 726.254 50.3892C725.6 50.3892 725.08 50.5341 724.694 50.8239C724.308 51.108 724.052 51.4659 723.927 51.8977L720.569 51.625C720.739 50.8295 721.075 50.142 721.575 49.5625C722.075 48.9773 722.719 48.5284 723.509 48.2159C724.305 47.8977 725.225 47.7386 726.271 47.7386C726.998 47.7386 727.694 47.8239 728.359 47.9943C729.029 48.1648 729.623 48.429 730.14 48.7869C730.663 49.1449 731.075 49.6051 731.376 50.1676C731.677 50.7244 731.827 51.392 731.827 52.1705V61H728.384V59.1847H728.282C728.072 59.5938 727.79 59.9545 727.438 60.267C727.086 60.5739 726.663 60.8153 726.168 60.9915C725.674 61.1619 725.103 61.2472 724.455 61.2472ZM725.495 58.7415C726.029 58.7415 726.501 58.6364 726.91 58.4261C727.319 58.2102 727.64 57.9205 727.873 57.5568C728.106 57.1932 728.222 56.7812 728.222 56.321V54.9318C728.109 55.0057 727.952 55.0739 727.754 55.1364C727.56 55.1932 727.342 55.2472 727.097 55.2983C726.853 55.3437 726.609 55.3864 726.364 55.4261C726.12 55.4602 725.898 55.4915 725.7 55.5199C725.273 55.5824 724.901 55.6818 724.583 55.8182C724.265 55.9545 724.018 56.1392 723.842 56.3722C723.665 56.5994 723.577 56.8835 723.577 57.2244C723.577 57.7188 723.756 58.0966 724.114 58.358C724.478 58.6136 724.938 58.7415 725.495 58.7415ZM738.275 53.4318V61H734.644V47.9091H738.104V50.2188H738.258C738.548 49.4574 739.033 48.8551 739.715 48.4119C740.397 47.9631 741.224 47.7386 742.195 47.7386C743.104 47.7386 743.897 47.9375 744.573 48.3352C745.249 48.733 745.775 49.3011 746.15 50.0398C746.525 50.7727 746.712 51.6477 746.712 52.6648V61H743.082V53.3125C743.087 52.5114 742.883 51.8864 742.468 51.4375C742.053 50.983 741.482 50.7557 740.755 50.7557C740.266 50.7557 739.835 50.8608 739.46 51.071C739.09 51.2812 738.8 51.5881 738.59 51.9915C738.386 52.3892 738.281 52.8693 738.275 53.4318ZM756.537 47.9091V50.6364H748.653V47.9091H756.537ZM750.443 44.7727H754.074V56.9773C754.074 57.3125 754.125 57.5739 754.227 57.7614C754.33 57.9432 754.472 58.071 754.653 58.1449C754.841 58.2187 755.057 58.2557 755.301 58.2557C755.472 58.2557 755.642 58.2415 755.812 58.2131C755.983 58.179 756.114 58.1534 756.205 58.1364L756.776 60.8381C756.594 60.8949 756.338 60.9602 756.009 61.0341C755.679 61.1136 755.278 61.1619 754.807 61.179C753.932 61.2131 753.165 61.0966 752.506 60.8295C751.852 60.5625 751.344 60.1477 750.98 59.5852C750.616 59.0227 750.438 58.3125 750.443 57.4545V44.7727ZM31.3636 90.2557C30.0227 90.2557 28.8693 89.9716 27.9034 89.4034C26.9432 88.8295 26.2045 88.0341 25.6875 87.017C25.1761 86 24.9205 84.8295 24.9205 83.5057C24.9205 82.1648 25.179 80.9886 25.696 79.9773C26.2188 78.9602 26.9602 78.1676 27.9205 77.5994C28.8807 77.0256 30.0227 76.7386 31.3466 76.7386C32.4886 76.7386 33.4886 76.946 34.3466 77.3608C35.2045 77.7756 35.8835 78.358 36.3835 79.108C36.8835 79.858 37.1591 80.7386 37.2102 81.75H33.7841C33.6875 81.0966 33.4318 80.571 33.017 80.1733C32.608 79.7699 32.071 79.5682 31.4062 79.5682C30.8438 79.5682 30.3523 79.7216 29.9318 80.0284C29.517 80.3295 29.1932 80.7699 28.9602 81.3494C28.7273 81.929 28.6108 82.6307 28.6108 83.4545C28.6108 84.2898 28.7244 85 28.9517 85.5852C29.1847 86.1705 29.5114 86.6165 29.9318 86.9233C30.3523 87.2301 30.8438 87.3835 31.4062 87.3835C31.821 87.3835 32.1932 87.2983 32.5227 87.1278C32.858 86.9574 33.1335 86.7102 33.3494 86.3864C33.571 86.0568 33.7159 85.6619 33.7841 85.2017H37.2102C37.1534 86.2017 36.8807 87.0824 36.392 87.8438C35.9091 88.5994 35.2415 89.1903 34.3892 89.6165C33.5369 90.0426 32.5284 90.2557 31.3636 90.2557ZM45.4496 90.2557C44.1257 90.2557 42.9808 89.9744 42.0149 89.4119C41.0547 88.8437 40.3132 88.054 39.7905 87.0426C39.2678 86.0256 39.0064 84.8466 39.0064 83.5057C39.0064 82.1534 39.2678 80.9716 39.7905 79.9602C40.3132 78.9432 41.0547 78.1534 42.0149 77.5909C42.9808 77.0227 44.1257 76.7386 45.4496 76.7386C46.7734 76.7386 47.9155 77.0227 48.8757 77.5909C49.8416 78.1534 50.5859 78.9432 51.1087 79.9602C51.6314 80.9716 51.8928 82.1534 51.8928 83.5057C51.8928 84.8466 51.6314 86.0256 51.1087 87.0426C50.5859 88.054 49.8416 88.8437 48.8757 89.4119C47.9155 89.9744 46.7734 90.2557 45.4496 90.2557ZM45.4666 87.4432C46.0689 87.4432 46.5717 87.2727 46.9751 86.9318C47.3786 86.5852 47.6825 86.1136 47.8871 85.517C48.0973 84.9205 48.2024 84.2415 48.2024 83.4801C48.2024 82.7188 48.0973 82.0398 47.8871 81.4432C47.6825 80.8466 47.3786 80.375 46.9751 80.0284C46.5717 79.6818 46.0689 79.5085 45.4666 79.5085C44.8587 79.5085 44.3473 79.6818 43.9325 80.0284C43.5234 80.375 43.2138 80.8466 43.0036 81.4432C42.799 82.0398 42.6967 82.7188 42.6967 83.4801C42.6967 84.2415 42.799 84.9205 43.0036 85.517C43.2138 86.1136 43.5234 86.5852 43.9325 86.9318C44.3473 87.2727 44.8587 87.4432 45.4666 87.4432ZM62.6484 84.4261V76.9091H66.2791V90H62.7933V87.6222H62.657C62.3615 88.3892 61.87 89.0057 61.1825 89.4716C60.5007 89.9375 59.6683 90.1705 58.6854 90.1705C57.8104 90.1705 57.0405 89.9716 56.3757 89.5739C55.7109 89.1761 55.1911 88.6108 54.8161 87.8778C54.4467 87.1449 54.2592 86.267 54.2536 85.2443V76.9091H57.8842V84.5966C57.8899 85.3693 58.0973 85.9801 58.5064 86.429C58.9155 86.8778 59.4638 87.1023 60.1513 87.1023C60.5888 87.1023 60.9979 87.0028 61.3786 86.804C61.7592 86.5994 62.0661 86.2983 62.299 85.9006C62.5376 85.5028 62.6541 85.0114 62.6484 84.4261ZM72.8139 82.4318V90H69.1832V76.9091H72.6435V79.2188H72.7969C73.0866 78.4574 73.5724 77.8551 74.2543 77.4119C74.9361 76.9631 75.7628 76.7386 76.7344 76.7386C77.6435 76.7386 78.4361 76.9375 79.1122 77.3352C79.7884 77.733 80.3139 78.3011 80.6889 79.0398C81.0639 79.7727 81.2514 80.6477 81.2514 81.6648V90H77.6207V82.3125C77.6264 81.5114 77.4219 80.8864 77.0071 80.4375C76.5923 79.983 76.0213 79.7557 75.294 79.7557C74.8054 79.7557 74.3736 79.8608 73.9986 80.071C73.6293 80.2812 73.3395 80.5881 73.1293 80.9915C72.9247 81.3892 72.8196 81.8693 72.8139 82.4318ZM91.076 76.9091V79.6364H83.1925V76.9091H91.076ZM84.9822 73.7727H88.6129V85.9773C88.6129 86.3125 88.6641 86.5739 88.7663 86.7614C88.8686 86.9432 89.0107 87.071 89.1925 87.1449C89.38 87.2187 89.5959 87.2557 89.8402 87.2557C90.0107 87.2557 90.1811 87.2415 90.3516 87.2131C90.522 87.179 90.6527 87.1534 90.7436 87.1364L91.3146 89.8381C91.1328 89.8949 90.8771 89.9602 90.5476 90.0341C90.218 90.1136 89.8175 90.1619 89.3459 90.179C88.4709 90.2131 87.7038 90.0966 87.0447 89.8295C86.3913 89.5625 85.8828 89.1477 85.5192 88.5852C85.1555 88.0227 84.9766 87.3125 84.9822 86.4545V73.7727ZM93.4411 90V76.9091H96.9609V79.1932H97.0973C97.3359 78.3807 97.7365 77.767 98.299 77.3523C98.8615 76.9318 99.5092 76.7216 100.242 76.7216C100.424 76.7216 100.62 76.733 100.83 76.7557C101.04 76.7784 101.225 76.8097 101.384 76.8494V80.071C101.214 80.0199 100.978 79.9744 100.677 79.9347C100.376 79.8949 100.1 79.875 99.8501 79.875C99.3161 79.875 98.8388 79.9915 98.4183 80.2244C98.0036 80.4517 97.674 80.7699 97.4297 81.179C97.1911 81.5881 97.0717 82.0597 97.0717 82.5938V90H93.4411ZM105.901 94.9091C105.441 94.9091 105.009 94.8722 104.606 94.7983C104.208 94.7301 103.879 94.642 103.617 94.5341L104.435 91.8239C104.862 91.9545 105.245 92.0256 105.586 92.0369C105.933 92.0483 106.231 91.9688 106.481 91.7983C106.737 91.6278 106.944 91.3381 107.103 90.929L107.316 90.375L102.62 76.9091H106.438L109.148 86.5227H109.285L112.021 76.9091H115.864L110.776 91.4148C110.532 92.1193 110.2 92.733 109.779 93.2557C109.364 93.7841 108.839 94.1903 108.202 94.4744C107.566 94.7642 106.799 94.9091 105.901 94.9091ZM120.842 84.767V84.4773C120.847 83.483 120.935 82.6903 121.106 82.0994C121.282 81.5085 121.538 81.0312 121.873 80.6676C122.208 80.304 122.612 79.9744 123.083 79.679C123.435 79.4517 123.751 79.2159 124.029 78.9716C124.308 78.7273 124.529 78.4574 124.694 78.1619C124.859 77.8608 124.941 77.5256 124.941 77.1562C124.941 76.7642 124.847 76.4205 124.66 76.125C124.472 75.8295 124.219 75.6023 123.901 75.4432C123.589 75.2841 123.242 75.2045 122.862 75.2045C122.492 75.2045 122.143 75.2869 121.813 75.4517C121.484 75.6108 121.214 75.8494 121.004 76.1676C120.793 76.4801 120.68 76.8693 120.663 77.3352H117.185C117.214 76.1989 117.487 75.2614 118.004 74.5227C118.521 73.7784 119.205 73.2244 120.058 72.8608C120.91 72.4915 121.85 72.3068 122.879 72.3068C124.009 72.3068 125.009 72.4943 125.879 72.8693C126.748 73.2386 127.43 73.7756 127.924 74.4801C128.418 75.1847 128.665 76.0341 128.665 77.0284C128.665 77.6932 128.555 78.2841 128.333 78.8011C128.117 79.3125 127.813 79.767 127.421 80.1648C127.029 80.5568 126.566 80.9119 126.032 81.2301C125.583 81.4972 125.214 81.7756 124.924 82.0653C124.64 82.3551 124.427 82.6903 124.285 83.071C124.148 83.4517 124.077 83.9205 124.072 84.4773V84.767H120.842ZM122.529 90.2216C121.961 90.2216 121.475 90.0227 121.072 89.625C120.674 89.2216 120.478 88.7386 120.484 88.1761C120.478 87.6193 120.674 87.142 121.072 86.7443C121.475 86.3466 121.961 86.1477 122.529 86.1477C123.069 86.1477 123.543 86.3466 123.952 86.7443C124.362 87.142 124.569 87.6193 124.575 88.1761C124.569 88.5511 124.469 88.8949 124.276 89.2074C124.089 89.5142 123.842 89.7614 123.535 89.9489C123.228 90.1307 122.893 90.2216 122.529 90.2216Z" fill="black"/>
<circle cx="402.771" cy="361" r="216" fill="#AAC8C2" stroke="#288071" stroke-width="2"/>
<g filter="url(#filter0_d_2850_44059)">
<path d="M397.77 370V147V146H399.77C441.682 146.389 470.321 152.575 507.77 174C524.433 183.534 533.267 189.585 547.77 202C568.311 223.161 578.414 235.411 591.77 258.5L591.822 258.612C600.156 276.512 604.845 286.582 611.27 305.5C619.445 349.36 621.585 373.695 611.27 415.5C602.871 443.109 597.893 458.345 581.77 478L397.77 370Z" style="mix-blend-mode:color-dodge" shape-rendering="crispEdges"/>
<path d="M397.77 370V147V146H399.77C441.682 146.389 470.321 152.575 507.77 174C524.433 183.534 533.267 189.585 547.77 202C568.311 223.161 578.414 235.411 591.77 258.5L591.822 258.612C600.156 276.512 604.845 286.582 611.27 305.5C619.445 349.36 621.585 373.695 611.27 415.5C602.871 443.109 597.893 458.345 581.77 478L397.77 370Z" stroke="#288071" stroke-width="3" shape-rendering="crispEdges"/>
</g>
<rect x="550.271" y="144.5" width="135" height="47" fill="white"/>
<rect x="550.271" y="144.5" width="135" height="47" stroke="#288071" stroke-width="3"/>
<path d="M575.476 177.239C574.351 177.239 573.348 177.045 572.468 176.659C571.593 176.273 570.896 175.736 570.379 175.048C569.868 174.355 569.59 173.551 569.544 172.636H571.692C571.737 173.199 571.931 173.685 572.271 174.094C572.612 174.497 573.058 174.81 573.61 175.031C574.161 175.253 574.771 175.364 575.442 175.364C576.192 175.364 576.857 175.233 577.436 174.972C578.016 174.71 578.47 174.347 578.8 173.881C579.129 173.415 579.294 172.875 579.294 172.261C579.294 171.619 579.135 171.054 578.817 170.565C578.499 170.071 578.033 169.685 577.419 169.406C576.806 169.128 576.056 168.989 575.169 168.989H573.771V167.114H575.169C575.862 167.114 576.47 166.989 576.993 166.739C577.521 166.489 577.933 166.136 578.229 165.682C578.53 165.227 578.681 164.693 578.681 164.08C578.681 163.489 578.55 162.974 578.289 162.537C578.027 162.099 577.658 161.759 577.181 161.514C576.709 161.27 576.152 161.148 575.51 161.148C574.908 161.148 574.34 161.259 573.806 161.48C573.277 161.696 572.845 162.011 572.51 162.426C572.175 162.835 571.993 163.33 571.965 163.909H569.919C569.953 162.994 570.229 162.193 570.746 161.506C571.263 160.812 571.939 160.273 572.774 159.886C573.615 159.5 574.539 159.307 575.544 159.307C576.624 159.307 577.55 159.526 578.323 159.963C579.095 160.395 579.689 160.966 580.104 161.676C580.519 162.386 580.726 163.153 580.726 163.977C580.726 164.96 580.468 165.798 579.95 166.491C579.439 167.185 578.743 167.665 577.862 167.932V168.068C578.965 168.25 579.825 168.719 580.445 169.474C581.064 170.224 581.374 171.153 581.374 172.261C581.374 173.21 581.115 174.062 580.598 174.818C580.087 175.568 579.388 176.159 578.502 176.591C577.615 177.023 576.607 177.239 575.476 177.239ZM590.757 177.239C589.632 177.239 588.629 177.045 587.749 176.659C586.874 176.273 586.178 175.736 585.661 175.048C585.149 174.355 584.871 173.551 584.825 172.636H586.973C587.019 173.199 587.212 173.685 587.553 174.094C587.894 174.497 588.34 174.81 588.891 175.031C589.442 175.253 590.053 175.364 590.723 175.364C591.473 175.364 592.138 175.233 592.718 174.972C593.297 174.71 593.752 174.347 594.081 173.881C594.411 173.415 594.575 172.875 594.575 172.261C594.575 171.619 594.416 171.054 594.098 170.565C593.78 170.071 593.314 169.685 592.7 169.406C592.087 169.128 591.337 168.989 590.45 168.989H589.053V167.114H590.45C591.144 167.114 591.752 166.989 592.274 166.739C592.803 166.489 593.215 166.136 593.51 165.682C593.811 165.227 593.962 164.693 593.962 164.08C593.962 163.489 593.831 162.974 593.57 162.537C593.308 162.099 592.939 161.759 592.462 161.514C591.99 161.27 591.433 161.148 590.791 161.148C590.189 161.148 589.621 161.259 589.087 161.48C588.558 161.696 588.127 162.011 587.791 162.426C587.456 162.835 587.274 163.33 587.246 163.909H585.2C585.235 162.994 585.51 162.193 586.027 161.506C586.544 160.812 587.22 160.273 588.056 159.886C588.896 159.5 589.82 159.307 590.825 159.307C591.905 159.307 592.831 159.526 593.604 159.963C594.377 160.395 594.97 160.966 595.385 161.676C595.8 162.386 596.007 163.153 596.007 163.977C596.007 164.96 595.749 165.798 595.232 166.491C594.72 167.185 594.024 167.665 593.144 167.932V168.068C594.246 168.25 595.107 168.719 595.726 169.474C596.345 170.224 596.655 171.153 596.655 172.261C596.655 173.21 596.396 174.062 595.879 174.818C595.368 175.568 594.669 176.159 593.783 176.591C592.896 177.023 591.888 177.239 590.757 177.239ZM609.039 173.727V172.807C609.039 172.17 609.169 171.588 609.431 171.06C609.698 170.526 610.084 170.099 610.59 169.781C611.101 169.457 611.72 169.295 612.448 169.295C613.186 169.295 613.806 169.457 614.306 169.781C614.806 170.099 615.183 170.526 615.439 171.06C615.695 171.588 615.823 172.17 615.823 172.807V173.727C615.823 174.364 615.692 174.949 615.431 175.483C615.175 176.011 614.794 176.437 614.289 176.761C613.789 177.08 613.175 177.239 612.448 177.239C611.709 177.239 611.087 177.08 610.581 176.761C610.075 176.437 609.692 176.011 609.431 175.483C609.169 174.949 609.039 174.364 609.039 173.727ZM610.777 172.807V173.727C610.777 174.256 610.902 174.73 611.152 175.151C611.402 175.565 611.834 175.773 612.448 175.773C613.044 175.773 613.465 175.565 613.709 175.151C613.959 174.73 614.084 174.256 614.084 173.727V172.807C614.084 172.278 613.965 171.807 613.726 171.392C613.487 170.972 613.061 170.761 612.448 170.761C611.851 170.761 611.422 170.972 611.161 171.392C610.905 171.807 610.777 172.278 610.777 172.807ZM600.345 163.739V162.818C600.345 162.182 600.476 161.599 600.737 161.071C601.004 160.537 601.391 160.111 601.896 159.793C602.408 159.469 603.027 159.307 603.754 159.307C604.493 159.307 605.112 159.469 605.612 159.793C606.112 160.111 606.49 160.537 606.746 161.071C607.002 161.599 607.129 162.182 607.129 162.818V163.739C607.129 164.375 606.999 164.96 606.737 165.494C606.482 166.023 606.101 166.449 605.595 166.773C605.095 167.091 604.482 167.25 603.754 167.25C603.016 167.25 602.394 167.091 601.888 166.773C601.382 166.449 600.999 166.023 600.737 165.494C600.476 164.96 600.345 164.375 600.345 163.739ZM602.084 162.818V163.739C602.084 164.267 602.209 164.741 602.459 165.162C602.709 165.577 603.141 165.784 603.754 165.784C604.351 165.784 604.771 165.577 605.016 165.162C605.266 164.741 605.391 164.267 605.391 163.739V162.818C605.391 162.29 605.271 161.818 605.033 161.403C604.794 160.983 604.368 160.773 603.754 160.773C603.158 160.773 602.729 160.983 602.468 161.403C602.212 161.818 602.084 162.29 602.084 162.818ZM600.993 177L612.993 159.545H614.936L602.936 177H600.993ZM625.198 159.545H627.618L632.459 167.693H632.664L637.504 159.545H639.925L633.618 169.807V177H631.504V169.807L625.198 159.545ZM646.023 177.273C644.762 177.273 643.673 176.994 642.759 176.438C641.85 175.875 641.148 175.091 640.654 174.085C640.165 173.074 639.921 171.898 639.921 170.557C639.921 169.216 640.165 168.034 640.654 167.011C641.148 165.983 641.835 165.182 642.716 164.608C643.602 164.028 644.637 163.739 645.818 163.739C646.5 163.739 647.173 163.852 647.838 164.08C648.503 164.307 649.108 164.676 649.654 165.188C650.199 165.693 650.634 166.364 650.958 167.199C651.281 168.034 651.443 169.062 651.443 170.284V171.136H641.352V169.398H649.398C649.398 168.659 649.25 168 648.955 167.42C648.665 166.841 648.25 166.384 647.71 166.048C647.176 165.713 646.546 165.545 645.818 165.545C645.017 165.545 644.324 165.744 643.739 166.142C643.159 166.534 642.713 167.045 642.401 167.676C642.088 168.307 641.932 168.983 641.932 169.705V170.864C641.932 171.852 642.102 172.69 642.443 173.378C642.79 174.06 643.27 174.58 643.884 174.938C644.497 175.29 645.21 175.466 646.023 175.466C646.551 175.466 647.029 175.392 647.455 175.244C647.887 175.091 648.259 174.864 648.571 174.562C648.884 174.256 649.125 173.875 649.296 173.42L651.239 173.966C651.034 174.625 650.691 175.205 650.208 175.705C649.725 176.199 649.128 176.585 648.418 176.864C647.708 177.136 646.909 177.273 646.023 177.273ZM663.776 166.841L661.969 167.352C661.855 167.051 661.688 166.759 661.466 166.474C661.25 166.185 660.955 165.946 660.58 165.759C660.205 165.571 659.725 165.477 659.139 165.477C658.338 165.477 657.671 165.662 657.137 166.031C656.608 166.395 656.344 166.858 656.344 167.42C656.344 167.92 656.526 168.315 656.889 168.605C657.253 168.895 657.821 169.136 658.594 169.33L660.537 169.807C661.708 170.091 662.58 170.526 663.154 171.111C663.727 171.69 664.014 172.437 664.014 173.352C664.014 174.102 663.798 174.773 663.367 175.364C662.941 175.955 662.344 176.42 661.577 176.761C660.81 177.102 659.918 177.273 658.901 177.273C657.566 177.273 656.46 176.983 655.585 176.403C654.71 175.824 654.156 174.977 653.923 173.864L655.833 173.386C656.014 174.091 656.358 174.619 656.864 174.972C657.375 175.324 658.043 175.5 658.867 175.5C659.804 175.5 660.548 175.301 661.1 174.903C661.656 174.5 661.935 174.017 661.935 173.455C661.935 173 661.776 172.619 661.458 172.312C661.139 172 660.651 171.767 659.992 171.614L657.81 171.102C656.611 170.818 655.73 170.378 655.168 169.781C654.611 169.179 654.333 168.426 654.333 167.523C654.333 166.784 654.54 166.131 654.955 165.562C655.375 164.994 655.946 164.548 656.668 164.224C657.395 163.901 658.219 163.739 659.139 163.739C660.435 163.739 661.452 164.023 662.191 164.591C662.935 165.159 663.463 165.909 663.776 166.841Z" fill="black"/>
<path d="M551.771 228.5H601.771V190" stroke="black" stroke-width="3"/>
<g filter="url(#filter1_d_2850_44059)">
<path d="M396 146.04C383.349 145.785 376.221 146.744 363.488 149.033C336.09 155.347 320.696 160.996 293.963 174.968C248.261 204.124 231.119 226 206.931 269.236C191.127 312.121 183.654 336.261 188.425 380.461C191.89 421.172 201.482 449.267 218.936 473L397 370.486L396 147.537" stroke="#288071" stroke-width="3"/>
</g>
<line x1="325.707" y1="186.293" x2="382.707" y2="243.293" stroke="#717182" stroke-width="2"/>
<line x1="289.479" y1="198.293" x2="381.479" y2="290.293" stroke="#717182" stroke-width="2"/>
<line x1="298.479" y1="186.293" x2="390.479" y2="278.293" stroke="#717182" stroke-width="2"/>
<line x1="279.479" y1="215.293" x2="392.479" y2="328.293" stroke="#717182" stroke-width="2"/>
<line x1="259.479" y1="221.293" x2="372.479" y2="334.293" stroke="#717182" stroke-width="2"/>
<line x1="247.479" y1="233.293" x2="378.479" y2="364.293" stroke="#717182" stroke-width="2"/>
<line x1="235.479" y1="244.293" x2="367.479" y2="376.293" stroke="#717182" stroke-width="2"/>
<line x1="222.479" y1="254.293" x2="351.479" y2="383.293" stroke="#717182" stroke-width="2"/>
<line x1="212.479" y1="272.293" x2="325.479" y2="385.293" stroke="#717182" stroke-width="2"/>
<line x1="202.479" y1="290.293" x2="315.479" y2="403.293" stroke="#717182" stroke-width="2"/>
<line x1="199.479" y1="311.293" x2="285.479" y2="397.293" stroke="#717182" stroke-width="2"/>
<line x1="202.479" y1="340.293" x2="288.479" y2="426.293" stroke="#717182" stroke-width="2"/>
<line x1="202.479" y1="391.293" x2="250.479" y2="439.293" stroke="#717182" stroke-width="2"/>
<line x1="202.479" y1="415.293" x2="236.479" y2="449.293" stroke="#717182" stroke-width="2"/>
<line x1="354.479" y1="164.293" x2="388.479" y2="198.293" stroke="#717182" stroke-width="2"/>
<line x1="200.479" y1="364.293" x2="270.479" y2="434.293" stroke="#717182" stroke-width="2"/>
<line x1="344.479" y1="176.293" x2="389.479" y2="221.293" stroke="#717182" stroke-width="2"/>
<rect x="125.271" y="171.5" width="135" height="47" fill="white"/>
<rect x="125.271" y="171.5" width="135" height="47" stroke="#288071" stroke-width="3"/>
<path d="M154.476 204.239C153.351 204.239 152.348 204.045 151.468 203.659C150.593 203.273 149.896 202.736 149.379 202.048C148.868 201.355 148.59 200.551 148.544 199.636H150.692C150.737 200.199 150.931 200.685 151.271 201.094C151.612 201.497 152.058 201.81 152.61 202.031C153.161 202.253 153.771 202.364 154.442 202.364C155.192 202.364 155.857 202.233 156.436 201.972C157.016 201.71 157.47 201.347 157.8 200.881C158.129 200.415 158.294 199.875 158.294 199.261C158.294 198.619 158.135 198.054 157.817 197.565C157.499 197.071 157.033 196.685 156.419 196.406C155.806 196.128 155.056 195.989 154.169 195.989H152.771V194.114H154.169C154.862 194.114 155.47 193.989 155.993 193.739C156.521 193.489 156.933 193.136 157.229 192.682C157.53 192.227 157.681 191.693 157.681 191.08C157.681 190.489 157.55 189.974 157.289 189.537C157.027 189.099 156.658 188.759 156.181 188.514C155.709 188.27 155.152 188.148 154.51 188.148C153.908 188.148 153.34 188.259 152.806 188.48C152.277 188.696 151.845 189.011 151.51 189.426C151.175 189.835 150.993 190.33 150.965 190.909H148.919C148.953 189.994 149.229 189.193 149.746 188.506C150.263 187.812 150.939 187.273 151.774 186.886C152.615 186.5 153.539 186.307 154.544 186.307C155.624 186.307 156.55 186.526 157.323 186.963C158.095 187.395 158.689 187.966 159.104 188.676C159.519 189.386 159.726 190.153 159.726 190.977C159.726 191.96 159.468 192.798 158.95 193.491C158.439 194.185 157.743 194.665 156.862 194.932V195.068C157.965 195.25 158.825 195.719 159.445 196.474C160.064 197.224 160.374 198.153 160.374 199.261C160.374 200.21 160.115 201.062 159.598 201.818C159.087 202.568 158.388 203.159 157.502 203.591C156.615 204.023 155.607 204.239 154.476 204.239ZM169.757 204.239C168.632 204.239 167.629 204.045 166.749 203.659C165.874 203.273 165.178 202.736 164.661 202.048C164.149 201.355 163.871 200.551 163.825 199.636H165.973C166.019 200.199 166.212 200.685 166.553 201.094C166.894 201.497 167.34 201.81 167.891 202.031C168.442 202.253 169.053 202.364 169.723 202.364C170.473 202.364 171.138 202.233 171.718 201.972C172.297 201.71 172.752 201.347 173.081 200.881C173.411 200.415 173.575 199.875 173.575 199.261C173.575 198.619 173.416 198.054 173.098 197.565C172.78 197.071 172.314 196.685 171.7 196.406C171.087 196.128 170.337 195.989 169.45 195.989H168.053V194.114H169.45C170.144 194.114 170.752 193.989 171.274 193.739C171.803 193.489 172.215 193.136 172.51 192.682C172.811 192.227 172.962 191.693 172.962 191.08C172.962 190.489 172.831 189.974 172.57 189.537C172.308 189.099 171.939 188.759 171.462 188.514C170.99 188.27 170.433 188.148 169.791 188.148C169.189 188.148 168.621 188.259 168.087 188.48C167.558 188.696 167.127 189.011 166.791 189.426C166.456 189.835 166.274 190.33 166.246 190.909H164.2C164.235 189.994 164.51 189.193 165.027 188.506C165.544 187.812 166.22 187.273 167.056 186.886C167.896 186.5 168.82 186.307 169.825 186.307C170.905 186.307 171.831 186.526 172.604 186.963C173.377 187.395 173.97 187.966 174.385 188.676C174.8 189.386 175.007 190.153 175.007 190.977C175.007 191.96 174.749 192.798 174.232 193.491C173.72 194.185 173.024 194.665 172.144 194.932V195.068C173.246 195.25 174.107 195.719 174.726 196.474C175.345 197.224 175.655 198.153 175.655 199.261C175.655 200.21 175.396 201.062 174.879 201.818C174.368 202.568 173.669 203.159 172.783 203.591C171.896 204.023 170.888 204.239 169.757 204.239ZM188.039 200.727V199.807C188.039 199.17 188.169 198.588 188.431 198.06C188.698 197.526 189.084 197.099 189.59 196.781C190.101 196.457 190.72 196.295 191.448 196.295C192.186 196.295 192.806 196.457 193.306 196.781C193.806 197.099 194.183 197.526 194.439 198.06C194.695 198.588 194.823 199.17 194.823 199.807V200.727C194.823 201.364 194.692 201.949 194.431 202.483C194.175 203.011 193.794 203.437 193.289 203.761C192.789 204.08 192.175 204.239 191.448 204.239C190.709 204.239 190.087 204.08 189.581 203.761C189.075 203.437 188.692 203.011 188.431 202.483C188.169 201.949 188.039 201.364 188.039 200.727ZM189.777 199.807V200.727C189.777 201.256 189.902 201.73 190.152 202.151C190.402 202.565 190.834 202.773 191.448 202.773C192.044 202.773 192.465 202.565 192.709 202.151C192.959 201.73 193.084 201.256 193.084 200.727V199.807C193.084 199.278 192.965 198.807 192.726 198.392C192.487 197.972 192.061 197.761 191.448 197.761C190.851 197.761 190.422 197.972 190.161 198.392C189.905 198.807 189.777 199.278 189.777 199.807ZM179.345 190.739V189.818C179.345 189.182 179.476 188.599 179.737 188.071C180.004 187.537 180.391 187.111 180.896 186.793C181.408 186.469 182.027 186.307 182.754 186.307C183.493 186.307 184.112 186.469 184.612 186.793C185.112 187.111 185.49 187.537 185.746 188.071C186.002 188.599 186.129 189.182 186.129 189.818V190.739C186.129 191.375 185.999 191.96 185.737 192.494C185.482 193.023 185.101 193.449 184.595 193.773C184.095 194.091 183.482 194.25 182.754 194.25C182.016 194.25 181.394 194.091 180.888 193.773C180.382 193.449 179.999 193.023 179.737 192.494C179.476 191.96 179.345 191.375 179.345 190.739ZM181.084 189.818V190.739C181.084 191.267 181.209 191.741 181.459 192.162C181.709 192.577 182.141 192.784 182.754 192.784C183.351 192.784 183.771 192.577 184.016 192.162C184.266 191.741 184.391 191.267 184.391 190.739V189.818C184.391 189.29 184.271 188.818 184.033 188.403C183.794 187.983 183.368 187.773 182.754 187.773C182.158 187.773 181.729 187.983 181.468 188.403C181.212 188.818 181.084 189.29 181.084 189.818ZM179.993 204L191.993 186.545H193.936L181.936 204H179.993ZM219.539 186.545V204H217.493L207.982 190.295H207.811V204H205.698V186.545H207.743L217.289 200.284H217.459V186.545H219.539ZM228.813 204.273C227.632 204.273 226.595 203.991 225.703 203.429C224.816 202.866 224.123 202.08 223.623 201.068C223.129 200.057 222.882 198.875 222.882 197.523C222.882 196.159 223.129 194.969 223.623 193.952C224.123 192.935 224.816 192.145 225.703 191.582C226.595 191.02 227.632 190.739 228.813 190.739C229.995 190.739 231.029 191.02 231.916 191.582C232.808 192.145 233.501 192.935 233.995 193.952C234.495 194.969 234.745 196.159 234.745 197.523C234.745 198.875 234.495 200.057 233.995 201.068C233.501 202.08 232.808 202.866 231.916 203.429C231.029 203.991 229.995 204.273 228.813 204.273ZM228.813 202.466C229.711 202.466 230.45 202.236 231.029 201.776C231.609 201.315 232.038 200.71 232.316 199.96C232.595 199.21 232.734 198.398 232.734 197.523C232.734 196.648 232.595 195.832 232.316 195.077C232.038 194.321 231.609 193.71 231.029 193.244C230.45 192.778 229.711 192.545 228.813 192.545C227.916 192.545 227.177 192.778 226.597 193.244C226.018 193.71 225.589 194.321 225.311 195.077C225.032 195.832 224.893 196.648 224.893 197.523C224.893 198.398 225.032 199.21 225.311 199.96C225.589 200.71 226.018 201.315 226.597 201.776C227.177 202.236 227.916 202.466 228.813 202.466Z" fill="black"/>
<path d="M258.771 255.5H208.771V217" stroke="black" stroke-width="3"/>
<path d="M282.476 497.239C281.351 497.239 280.348 497.045 279.468 496.659C278.593 496.273 277.896 495.736 277.379 495.048C276.868 494.355 276.59 493.551 276.544 492.636H278.692C278.737 493.199 278.931 493.685 279.271 494.094C279.612 494.497 280.058 494.81 280.61 495.031C281.161 495.253 281.771 495.364 282.442 495.364C283.192 495.364 283.857 495.233 284.436 494.972C285.016 494.71 285.47 494.347 285.8 493.881C286.129 493.415 286.294 492.875 286.294 492.261C286.294 491.619 286.135 491.054 285.817 490.565C285.499 490.071 285.033 489.685 284.419 489.406C283.806 489.128 283.056 488.989 282.169 488.989H280.771V487.114H282.169C282.862 487.114 283.47 486.989 283.993 486.739C284.521 486.489 284.933 486.136 285.229 485.682C285.53 485.227 285.681 484.693 285.681 484.08C285.681 483.489 285.55 482.974 285.289 482.537C285.027 482.099 284.658 481.759 284.181 481.514C283.709 481.27 283.152 481.148 282.51 481.148C281.908 481.148 281.34 481.259 280.806 481.48C280.277 481.696 279.845 482.011 279.51 482.426C279.175 482.835 278.993 483.33 278.965 483.909H276.919C276.953 482.994 277.229 482.193 277.746 481.506C278.263 480.812 278.939 480.273 279.774 479.886C280.615 479.5 281.539 479.307 282.544 479.307C283.624 479.307 284.55 479.526 285.323 479.963C286.095 480.395 286.689 480.966 287.104 481.676C287.519 482.386 287.726 483.153 287.726 483.977C287.726 484.96 287.468 485.798 286.95 486.491C286.439 487.185 285.743 487.665 284.862 487.932V488.068C285.965 488.25 286.825 488.719 287.445 489.474C288.064 490.224 288.374 491.153 288.374 492.261C288.374 493.21 288.115 494.062 287.598 494.818C287.087 495.568 286.388 496.159 285.502 496.591C284.615 497.023 283.607 497.239 282.476 497.239ZM291.45 493.42V491.682L299.121 479.545H300.382V482.239H299.53L293.735 491.409V491.545H304.064V493.42H291.45ZM299.666 497V492.892V492.082V479.545H301.678V497H299.666ZM316.156 493.727V492.807C316.156 492.17 316.286 491.588 316.548 491.06C316.815 490.526 317.201 490.099 317.707 489.781C318.218 489.457 318.838 489.295 319.565 489.295C320.303 489.295 320.923 489.457 321.423 489.781C321.923 490.099 322.301 490.526 322.556 491.06C322.812 491.588 322.94 492.17 322.94 492.807V493.727C322.94 494.364 322.809 494.949 322.548 495.483C322.292 496.011 321.911 496.437 321.406 496.761C320.906 497.08 320.292 497.239 319.565 497.239C318.826 497.239 318.204 497.08 317.698 496.761C317.193 496.437 316.809 496.011 316.548 495.483C316.286 494.949 316.156 494.364 316.156 493.727ZM317.894 492.807V493.727C317.894 494.256 318.019 494.73 318.269 495.151C318.519 495.565 318.951 495.773 319.565 495.773C320.161 495.773 320.582 495.565 320.826 495.151C321.076 494.73 321.201 494.256 321.201 493.727V492.807C321.201 492.278 321.082 491.807 320.843 491.392C320.605 490.972 320.178 490.761 319.565 490.761C318.968 490.761 318.539 490.972 318.278 491.392C318.022 491.807 317.894 492.278 317.894 492.807ZM307.463 483.739V482.818C307.463 482.182 307.593 481.599 307.855 481.071C308.122 480.537 308.508 480.111 309.014 479.793C309.525 479.469 310.144 479.307 310.872 479.307C311.61 479.307 312.23 479.469 312.73 479.793C313.23 480.111 313.607 480.537 313.863 481.071C314.119 481.599 314.247 482.182 314.247 482.818V483.739C314.247 484.375 314.116 484.96 313.855 485.494C313.599 486.023 313.218 486.449 312.713 486.773C312.213 487.091 311.599 487.25 310.872 487.25C310.133 487.25 309.511 487.091 309.005 486.773C308.499 486.449 308.116 486.023 307.855 485.494C307.593 484.96 307.463 484.375 307.463 483.739ZM309.201 482.818V483.739C309.201 484.267 309.326 484.741 309.576 485.162C309.826 485.577 310.258 485.784 310.872 485.784C311.468 485.784 311.889 485.577 312.133 485.162C312.383 484.741 312.508 484.267 312.508 483.739V482.818C312.508 482.29 312.389 481.818 312.15 481.403C311.911 480.983 311.485 480.773 310.872 480.773C310.275 480.773 309.846 480.983 309.585 481.403C309.329 481.818 309.201 482.29 309.201 482.818ZM308.11 497L320.11 479.545H322.053L310.053 497H308.11ZM333.815 497V479.545H339.713C341.082 479.545 342.201 479.793 343.07 480.287C343.945 480.776 344.593 481.438 345.014 482.273C345.434 483.108 345.644 484.04 345.644 485.068C345.644 486.097 345.434 487.031 345.014 487.872C344.599 488.713 343.957 489.384 343.088 489.884C342.218 490.378 341.105 490.625 339.747 490.625H335.519V488.75H339.678C340.616 488.75 341.369 488.588 341.937 488.264C342.505 487.94 342.917 487.503 343.173 486.952C343.434 486.395 343.565 485.767 343.565 485.068C343.565 484.369 343.434 483.744 343.173 483.193C342.917 482.642 342.502 482.21 341.928 481.898C341.355 481.58 340.593 481.42 339.644 481.42H335.928V497H333.815ZM348.776 497V483.909H350.72V485.886H350.856C351.095 485.239 351.526 484.713 352.151 484.31C352.776 483.906 353.481 483.705 354.265 483.705C354.413 483.705 354.597 483.707 354.819 483.713C355.041 483.719 355.208 483.727 355.322 483.739V485.784C355.254 485.767 355.097 485.741 354.853 485.707C354.615 485.668 354.362 485.648 354.095 485.648C353.458 485.648 352.89 485.781 352.39 486.048C351.896 486.31 351.504 486.673 351.214 487.139C350.93 487.599 350.788 488.125 350.788 488.716V497H348.776ZM362.796 497.273C361.535 497.273 360.447 496.994 359.532 496.438C358.623 495.875 357.921 495.091 357.427 494.085C356.938 493.074 356.694 491.898 356.694 490.557C356.694 489.216 356.938 488.034 357.427 487.011C357.921 485.983 358.609 485.182 359.49 484.608C360.376 484.028 361.41 483.739 362.592 483.739C363.274 483.739 363.947 483.852 364.612 484.08C365.276 484.307 365.882 484.676 366.427 485.188C366.972 485.693 367.407 486.364 367.731 487.199C368.055 488.034 368.217 489.062 368.217 490.284V491.136H358.126V489.398H366.171C366.171 488.659 366.024 488 365.728 487.42C365.438 486.841 365.024 486.384 364.484 486.048C363.95 485.713 363.319 485.545 362.592 485.545C361.791 485.545 361.097 485.744 360.512 486.142C359.933 486.534 359.487 487.045 359.174 487.676C358.862 488.307 358.705 488.983 358.705 489.705V490.864C358.705 491.852 358.876 492.69 359.217 493.378C359.563 494.06 360.044 494.58 360.657 494.938C361.271 495.29 361.984 495.466 362.796 495.466C363.325 495.466 363.802 495.392 364.228 495.244C364.66 495.091 365.032 494.864 365.345 494.562C365.657 494.256 365.899 493.875 366.069 493.42L368.012 493.966C367.808 494.625 367.464 495.205 366.981 495.705C366.498 496.199 365.901 496.585 365.191 496.864C364.481 497.136 363.683 497.273 362.796 497.273ZM377.106 483.909V485.614H370.049V483.909H377.106ZM372.163 497V482.102C372.163 481.352 372.339 480.727 372.691 480.227C373.044 479.727 373.501 479.352 374.063 479.102C374.626 478.852 375.22 478.727 375.845 478.727C376.339 478.727 376.742 478.767 377.055 478.847C377.367 478.926 377.6 479 377.754 479.068L377.174 480.807C377.072 480.773 376.93 480.73 376.748 480.679C376.572 480.628 376.339 480.602 376.049 480.602C375.384 480.602 374.904 480.77 374.609 481.105C374.319 481.44 374.174 481.932 374.174 482.58V497H372.163ZM384.874 497.273C383.613 497.273 382.525 496.994 381.61 496.438C380.701 495.875 379.999 495.091 379.505 494.085C379.017 493.074 378.772 491.898 378.772 490.557C378.772 489.216 379.017 488.034 379.505 487.011C379.999 485.983 380.687 485.182 381.568 484.608C382.454 484.028 383.488 483.739 384.67 483.739C385.352 483.739 386.025 483.852 386.69 484.08C387.355 484.307 387.96 484.676 388.505 485.188C389.051 485.693 389.485 486.364 389.809 487.199C390.133 488.034 390.295 489.062 390.295 490.284V491.136H380.204V489.398H388.249C388.249 488.659 388.102 488 387.806 487.42C387.517 486.841 387.102 486.384 386.562 486.048C386.028 485.713 385.397 485.545 384.67 485.545C383.869 485.545 383.176 485.744 382.59 486.142C382.011 486.534 381.565 487.045 381.252 487.676C380.94 488.307 380.784 488.983 380.784 489.705V490.864C380.784 491.852 380.954 492.69 381.295 493.378C381.642 494.06 382.122 494.58 382.735 494.938C383.349 495.29 384.062 495.466 384.874 495.466C385.403 495.466 385.88 495.392 386.306 495.244C386.738 495.091 387.11 494.864 387.423 494.562C387.735 494.256 387.977 493.875 388.147 493.42L390.09 493.966C389.886 494.625 389.542 495.205 389.059 495.705C388.576 496.199 387.98 496.585 387.269 496.864C386.559 497.136 385.761 497.273 384.874 497.273ZM393.355 497V483.909H395.298V485.886H395.434C395.673 485.239 396.105 484.713 396.73 484.31C397.355 483.906 398.059 483.705 398.843 483.705C398.991 483.705 399.176 483.707 399.397 483.713C399.619 483.719 399.786 483.727 399.9 483.739V485.784C399.832 485.767 399.676 485.741 399.431 485.707C399.193 485.668 398.94 485.648 398.673 485.648C398.036 485.648 397.468 485.781 396.968 486.048C396.474 486.31 396.082 486.673 395.792 487.139C395.508 487.599 395.366 488.125 395.366 488.716V497H393.355ZM411.046 489.125V497H409.034V483.909H410.977V485.955H411.148C411.455 485.29 411.921 484.756 412.546 484.352C413.171 483.943 413.977 483.739 414.966 483.739C415.852 483.739 416.628 483.92 417.293 484.284C417.958 484.642 418.475 485.188 418.844 485.92C419.213 486.648 419.398 487.568 419.398 488.682V497H417.387V488.818C417.387 487.79 417.119 486.989 416.585 486.415C416.051 485.835 415.318 485.545 414.387 485.545C413.744 485.545 413.171 485.685 412.665 485.963C412.165 486.241 411.77 486.648 411.48 487.182C411.191 487.716 411.046 488.364 411.046 489.125ZM428.392 497.273C427.21 497.273 426.173 496.991 425.281 496.429C424.394 495.866 423.701 495.08 423.201 494.068C422.707 493.057 422.46 491.875 422.46 490.523C422.46 489.159 422.707 487.969 423.201 486.952C423.701 485.935 424.394 485.145 425.281 484.582C426.173 484.02 427.21 483.739 428.392 483.739C429.573 483.739 430.607 484.02 431.494 484.582C432.386 485.145 433.079 485.935 433.573 486.952C434.073 487.969 434.323 489.159 434.323 490.523C434.323 491.875 434.073 493.057 433.573 494.068C433.079 495.08 432.386 495.866 431.494 496.429C430.607 496.991 429.573 497.273 428.392 497.273ZM428.392 495.466C429.289 495.466 430.028 495.236 430.607 494.776C431.187 494.315 431.616 493.71 431.894 492.96C432.173 492.21 432.312 491.398 432.312 490.523C432.312 489.648 432.173 488.832 431.894 488.077C431.616 487.321 431.187 486.71 430.607 486.244C430.028 485.778 429.289 485.545 428.392 485.545C427.494 485.545 426.755 485.778 426.176 486.244C425.596 486.71 425.167 487.321 424.889 488.077C424.61 488.832 424.471 489.648 424.471 490.523C424.471 491.398 424.61 492.21 424.889 492.96C425.167 493.71 425.596 494.315 426.176 494.776C426.755 495.236 427.494 495.466 428.392 495.466ZM443.087 483.909V485.614H436.303V483.909H443.087ZM438.28 480.773H440.291V493.25C440.291 493.818 440.374 494.244 440.539 494.528C440.709 494.807 440.925 494.994 441.186 495.091C441.453 495.182 441.735 495.227 442.03 495.227C442.252 495.227 442.433 495.216 442.575 495.193C442.718 495.165 442.831 495.142 442.916 495.125L443.325 496.932C443.189 496.983 442.999 497.034 442.754 497.085C442.51 497.142 442.2 497.17 441.825 497.17C441.257 497.17 440.7 497.048 440.155 496.804C439.615 496.56 439.166 496.188 438.808 495.688C438.456 495.188 438.28 494.557 438.28 493.795V480.773ZM458.556 483.909V485.614H451.771V483.909H458.556ZM453.749 480.773H455.76V493.25C455.76 493.818 455.843 494.244 456.007 494.528C456.178 494.807 456.394 494.994 456.655 495.091C456.922 495.182 457.203 495.227 457.499 495.227C457.72 495.227 457.902 495.216 458.044 495.193C458.186 495.165 458.3 495.142 458.385 495.125L458.794 496.932C458.658 496.983 458.468 497.034 458.223 497.085C457.979 497.142 457.669 497.17 457.294 497.17C456.726 497.17 456.169 497.048 455.624 496.804C455.084 496.56 454.635 496.188 454.277 495.688C453.925 495.188 453.749 494.557 453.749 493.795V480.773ZM466.759 497.273C465.577 497.273 464.54 496.991 463.648 496.429C462.762 495.866 462.068 495.08 461.568 494.068C461.074 493.057 460.827 491.875 460.827 490.523C460.827 489.159 461.074 487.969 461.568 486.952C462.068 485.935 462.762 485.145 463.648 484.582C464.54 484.02 465.577 483.739 466.759 483.739C467.941 483.739 468.975 484.02 469.861 484.582C470.753 485.145 471.446 485.935 471.941 486.952C472.441 487.969 472.691 489.159 472.691 490.523C472.691 491.875 472.441 493.057 471.941 494.068C471.446 495.08 470.753 495.866 469.861 496.429C468.975 496.991 467.941 497.273 466.759 497.273ZM466.759 495.466C467.656 495.466 468.395 495.236 468.975 494.776C469.554 494.315 469.983 493.71 470.262 492.96C470.54 492.21 470.679 491.398 470.679 490.523C470.679 489.648 470.54 488.832 470.262 488.077C469.983 487.321 469.554 486.71 468.975 486.244C468.395 485.778 467.656 485.545 466.759 485.545C465.861 485.545 465.122 485.778 464.543 486.244C463.963 486.71 463.534 487.321 463.256 488.077C462.977 488.832 462.838 489.648 462.838 490.523C462.838 491.398 462.977 492.21 463.256 492.96C463.534 493.71 463.963 494.315 464.543 494.776C465.122 495.236 465.861 495.466 466.759 495.466ZM491.784 486.841L489.977 487.352C489.863 487.051 489.695 486.759 489.474 486.474C489.258 486.185 488.963 485.946 488.588 485.759C488.213 485.571 487.732 485.477 487.147 485.477C486.346 485.477 485.678 485.662 485.144 486.031C484.616 486.395 484.352 486.858 484.352 487.42C484.352 487.92 484.534 488.315 484.897 488.605C485.261 488.895 485.829 489.136 486.602 489.33L488.545 489.807C489.715 490.091 490.588 490.526 491.161 491.111C491.735 491.69 492.022 492.437 492.022 493.352C492.022 494.102 491.806 494.773 491.374 495.364C490.948 495.955 490.352 496.42 489.585 496.761C488.818 497.102 487.926 497.273 486.909 497.273C485.573 497.273 484.468 496.983 483.593 496.403C482.718 495.824 482.164 494.977 481.931 493.864L483.84 493.386C484.022 494.091 484.366 494.619 484.872 494.972C485.383 495.324 486.051 495.5 486.874 495.5C487.812 495.5 488.556 495.301 489.107 494.903C489.664 494.5 489.943 494.017 489.943 493.455C489.943 493 489.784 492.619 489.465 492.312C489.147 492 488.659 491.767 487.999 491.614L485.818 491.102C484.619 490.818 483.738 490.378 483.176 489.781C482.619 489.179 482.34 488.426 482.34 487.523C482.34 486.784 482.548 486.131 482.963 485.562C483.383 484.994 483.954 484.548 484.676 484.224C485.403 483.901 486.227 483.739 487.147 483.739C488.443 483.739 489.46 484.023 490.198 484.591C490.943 485.159 491.471 485.909 491.784 486.841ZM498.902 497.307C498.073 497.307 497.32 497.151 496.644 496.838C495.968 496.52 495.431 496.062 495.033 495.466C494.635 494.864 494.436 494.136 494.436 493.284C494.436 492.534 494.584 491.926 494.879 491.46C495.175 490.989 495.57 490.619 496.064 490.352C496.558 490.085 497.104 489.886 497.7 489.756C498.303 489.619 498.908 489.511 499.516 489.432C500.311 489.33 500.956 489.253 501.45 489.202C501.95 489.145 502.314 489.051 502.541 488.92C502.774 488.79 502.891 488.562 502.891 488.239V488.17C502.891 487.33 502.661 486.676 502.2 486.21C501.746 485.744 501.056 485.511 500.129 485.511C499.169 485.511 498.416 485.722 497.871 486.142C497.325 486.562 496.942 487.011 496.72 487.489L494.811 486.807C495.152 486.011 495.607 485.392 496.175 484.949C496.749 484.5 497.374 484.187 498.05 484.011C498.732 483.83 499.402 483.739 500.061 483.739C500.482 483.739 500.965 483.79 501.51 483.892C502.061 483.989 502.593 484.19 503.104 484.497C503.621 484.804 504.05 485.267 504.391 485.886C504.732 486.506 504.902 487.335 504.902 488.375V497H502.891V495.227H502.789C502.652 495.511 502.425 495.815 502.107 496.139C501.789 496.463 501.365 496.739 500.837 496.966C500.308 497.193 499.664 497.307 498.902 497.307ZM499.209 495.5C500.004 495.5 500.675 495.344 501.22 495.031C501.771 494.719 502.186 494.315 502.465 493.821C502.749 493.327 502.891 492.807 502.891 492.261V490.42C502.806 490.523 502.618 490.616 502.328 490.702C502.044 490.781 501.715 490.852 501.34 490.915C500.97 490.972 500.61 491.023 500.257 491.068C499.911 491.108 499.629 491.142 499.414 491.17C498.891 491.239 498.402 491.349 497.948 491.503C497.499 491.651 497.135 491.875 496.857 492.176C496.584 492.472 496.448 492.875 496.448 493.386C496.448 494.085 496.706 494.614 497.223 494.972C497.746 495.324 498.408 495.5 499.209 495.5ZM509.4 501.909C509.059 501.909 508.755 501.881 508.488 501.824C508.221 501.773 508.036 501.722 507.934 501.67L508.445 499.898C508.934 500.023 509.366 500.068 509.741 500.034C510.116 500 510.448 499.832 510.738 499.531C511.034 499.236 511.303 498.756 511.548 498.091L511.923 497.068L507.082 483.909H509.264L512.877 494.341H513.014L516.627 483.909H518.809L513.252 498.909C513.002 499.585 512.693 500.145 512.323 500.588C511.954 501.037 511.525 501.369 511.036 501.585C510.553 501.801 510.008 501.909 509.4 501.909Z" fill="black"/>
<defs>
<filter id="filter0_d_2850_44059" x="392.27" y="144.5" width="231.457" height="343.443" filterUnits="userSpaceOnUse" color-interpolation-filters="sRGB">
<feFlood flood-opacity="0" result="BackgroundImageFix"/>
<feColorMatrix in="SourceAlpha" type="matrix" values="0 0 0 0 0 0 0 0 0 0 0 0 0 0 0 0 0 0 127 0" result="hardAlpha"/>
<feOffset dy="4"/>
<feGaussianBlur stdDeviation="2"/>
<feComposite in2="hardAlpha" operator="out"/>
<feColorMatrix type="matrix" values="0 0 0 0 0 0 0 0 0 0 0 0 0 0 0 0 0 0 0.25 0"/>
<feBlend mode="normal" in2="BackgroundImageFix" result="effect1_dropShadow_2850_44059"/>
<feBlend mode="normal" in="SourceGraphic" in2="effect1_dropShadow_2850_44059" result="shape"/>
</filter>
<filter id="filter1_d_2850_44059" x="181.5" y="144.5" width="221.004" height="338.469" filterUnits="userSpaceOnUse" color-interpolation-filters="sRGB">
<feFlood flood-opacity="0" result="BackgroundImageFix"/>
<feColorMatrix in="SourceAlpha" type="matrix" values="0 0 0 0 0 0 0 0 0 0 0 0 0 0 0 0 0 0 127 0" result="hardAlpha"/>
<feOffset dy="4"/>
<feGaussianBlur stdDeviation="2"/>
<feComposite in2="hardAlpha" operator="out"/>
<feColorMatrix type="matrix" values="0 0 0 0 0 0 0 0 0 0 0 0 0 0 0 0 0 0 0.25 0"/>
<feBlend mode="normal" in2="BackgroundImageFix" result="effect1_dropShadow_2850_44059"/>
<feBlend mode="normal" in="SourceGraphic" in2="effect1_dropShadow_2850_44059" result="shape"/>
</filter>
</defs>
</svg>
