<svg width="806" height="691" viewBox="0 0 806 691" fill="none" xmlns="http://www.w3.org/2000/svg" xmlns:xlink="http://www.w3.org/1999/xlink">
<rect width="806" height="691" fill="white"/>
<path d="M29.2074 43.5455V61H25.517V43.5455H29.2074ZM39.2152 47.9091V50.6364H31.1357V47.9091H39.2152ZM32.9851 61V46.9631C32.9851 46.0142 33.1697 45.2273 33.5391 44.6023C33.9141 43.9773 34.4254 43.5085 35.0732 43.196C35.7209 42.8835 36.4567 42.7273 37.2805 42.7273C37.8374 42.7273 38.3459 42.7699 38.8061 42.8551C39.272 42.9403 39.6186 43.017 39.8459 43.0852L39.1982 45.8125C39.0561 45.767 38.88 45.7244 38.6697 45.6847C38.4652 45.6449 38.255 45.625 38.0391 45.625C37.505 45.625 37.1328 45.75 36.9226 46C36.7124 46.2443 36.6072 46.5881 36.6072 47.0312V61H32.9851ZM49.2294 65.9091C48.7692 65.9091 48.3374 65.8722 47.9339 65.7983C47.5362 65.7301 47.2067 65.642 46.9453 65.5341L47.7635 62.8239C48.1896 62.9545 48.5732 63.0256 48.9141 63.0369C49.2607 63.0483 49.5589 62.9688 49.8089 62.7983C50.0646 62.6278 50.272 62.3381 50.4311 61.929L50.6442 61.375L45.9482 47.9091H49.7663L52.4766 57.5227H52.6129L55.3487 47.9091H59.1925L54.1044 62.4148C53.8601 63.1193 53.5277 63.733 53.1072 64.2557C52.6925 64.7841 52.1669 65.1903 51.5305 65.4744C50.8942 65.7642 50.1271 65.9091 49.2294 65.9091ZM66.5433 61.2557C65.2195 61.2557 64.0746 60.9744 63.1087 60.4119C62.1484 59.8437 61.407 59.054 60.8842 58.0426C60.3615 57.0256 60.1001 55.8466 60.1001 54.5057C60.1001 53.1534 60.3615 51.9716 60.8842 50.9602C61.407 49.9432 62.1484 49.1534 63.1087 48.5909C64.0746 48.0227 65.2195 47.7386 66.5433 47.7386C67.8672 47.7386 69.0092 48.0227 69.9695 48.5909C70.9354 49.1534 71.6797 49.9432 72.2024 50.9602C72.7251 51.9716 72.9865 53.1534 72.9865 54.5057C72.9865 55.8466 72.7251 57.0256 72.2024 58.0426C71.6797 59.054 70.9354 59.8437 69.9695 60.4119C69.0092 60.9744 67.8672 61.2557 66.5433 61.2557ZM66.5604 58.4432C67.1626 58.4432 67.6655 58.2727 68.0689 57.9318C68.4723 57.5852 68.7763 57.1136 68.9808 56.517C69.1911 55.9205 69.2962 55.2415 69.2962 54.4801C69.2962 53.7188 69.1911 53.0398 68.9808 52.4432C68.7763 51.8466 68.4723 51.375 68.0689 51.0284C67.6655 50.6818 67.1626 50.5085 66.5604 50.5085C65.9524 50.5085 65.4411 50.6818 65.0263 51.0284C64.6172 51.375 64.3075 51.8466 64.0973 52.4432C63.8928 53.0398 63.7905 53.7188 63.7905 54.4801C63.7905 55.2415 63.8928 55.9205 64.0973 56.517C64.3075 57.1136 64.6172 57.5852 65.0263 57.9318C65.4411 58.2727 65.9524 58.4432 66.5604 58.4432ZM83.7422 55.4261V47.9091H87.3729V61H83.8871V58.6222H83.7507C83.4553 59.3892 82.9638 60.0057 82.2763 60.4716C81.5945 60.9375 80.7621 61.1705 79.7791 61.1705C78.9041 61.1705 78.1342 60.9716 77.4695 60.5739C76.8047 60.1761 76.2848 59.6108 75.9098 58.8778C75.5405 58.1449 75.353 57.267 75.3473 56.2443V47.9091H78.978V55.5966C78.9837 56.3693 79.1911 56.9801 79.6001 57.429C80.0092 57.8778 80.5575 58.1023 81.245 58.1023C81.6825 58.1023 82.0916 58.0028 82.4723 57.804C82.853 57.5994 83.1598 57.2983 83.3928 56.9006C83.6314 56.5028 83.7479 56.0114 83.7422 55.4261ZM99.4624 53.4318V61H95.8317V43.5455H99.3601V50.2188H99.5135C99.8089 49.446 100.286 48.8409 100.945 48.4034C101.604 47.9602 102.431 47.7386 103.425 47.7386C104.335 47.7386 105.127 47.9375 105.803 48.3352C106.485 48.7273 107.013 49.2926 107.388 50.0312C107.769 50.7642 107.957 51.642 107.951 52.6648V61H104.32V53.3125C104.326 52.5057 104.121 51.8778 103.707 51.429C103.298 50.9801 102.724 50.7557 101.985 50.7557C101.491 50.7557 101.053 50.8608 100.673 51.071C100.298 51.2812 100.002 51.5881 99.7862 51.9915C99.576 52.3892 99.468 52.8693 99.4624 53.4318ZM114.541 61.2472C113.706 61.2472 112.962 61.1023 112.308 60.8125C111.655 60.517 111.138 60.0824 110.757 59.5085C110.382 58.929 110.195 58.2074 110.195 57.3438C110.195 56.6165 110.328 56.0057 110.595 55.5114C110.862 55.017 111.226 54.6193 111.686 54.3182C112.146 54.017 112.669 53.7898 113.254 53.6364C113.845 53.483 114.464 53.375 115.112 53.3125C115.874 53.233 116.487 53.1591 116.953 53.0909C117.419 53.017 117.757 52.9091 117.967 52.767C118.178 52.625 118.283 52.4148 118.283 52.1364V52.0852C118.283 51.5455 118.112 51.1278 117.771 50.8324C117.436 50.5369 116.959 50.3892 116.339 50.3892C115.686 50.3892 115.166 50.5341 114.78 50.8239C114.393 51.108 114.138 51.4659 114.013 51.8977L110.655 51.625C110.825 50.8295 111.161 50.142 111.661 49.5625C112.161 48.9773 112.805 48.5284 113.595 48.2159C114.391 47.8977 115.311 47.7386 116.357 47.7386C117.084 47.7386 117.78 47.8239 118.445 47.9943C119.115 48.1648 119.709 48.429 120.226 48.7869C120.749 49.1449 121.161 49.6051 121.462 50.1676C121.763 50.7244 121.913 51.392 121.913 52.1705V61H118.47V59.1847H118.368C118.158 59.5938 117.876 59.9545 117.524 60.267C117.172 60.5739 116.749 60.8153 116.254 60.9915C115.76 61.1619 115.189 61.2472 114.541 61.2472ZM115.581 58.7415C116.115 58.7415 116.587 58.6364 116.996 58.4261C117.405 58.2102 117.726 57.9205 117.959 57.5568C118.192 57.1932 118.308 56.7812 118.308 56.321V54.9318C118.195 55.0057 118.038 55.0739 117.839 55.1364C117.646 55.1932 117.428 55.2472 117.183 55.2983C116.939 55.3437 116.695 55.3864 116.45 55.4261C116.206 55.4602 115.984 55.4915 115.786 55.5199C115.359 55.5824 114.987 55.6818 114.669 55.8182C114.351 55.9545 114.104 56.1392 113.928 56.3722C113.751 56.5994 113.663 56.8835 113.663 57.2244C113.663 57.7188 113.842 58.0966 114.2 58.358C114.564 58.6136 115.024 58.7415 115.581 58.7415ZM136.466 47.9091L131.889 61H127.798L123.222 47.9091H127.057L129.776 57.2756H129.912L132.622 47.9091H136.466ZM143.868 61.2557C142.521 61.2557 141.362 60.983 140.391 60.4375C139.425 59.8864 138.68 59.108 138.158 58.1023C137.635 57.0909 137.374 55.8949 137.374 54.5142C137.374 53.1676 137.635 51.9858 138.158 50.9688C138.68 49.9517 139.416 49.1591 140.365 48.5909C141.32 48.0227 142.439 47.7386 143.723 47.7386C144.587 47.7386 145.391 47.8778 146.135 48.1562C146.885 48.429 147.538 48.8409 148.095 49.392C148.658 49.9432 149.095 50.6364 149.408 51.4716C149.72 52.3011 149.876 53.2727 149.876 54.3864V55.3835H138.822V53.1335H146.459C146.459 52.6108 146.345 52.1477 146.118 51.7443C145.891 51.3409 145.575 51.0256 145.172 50.7983C144.774 50.5653 144.311 50.4489 143.783 50.4489C143.232 50.4489 142.743 50.5767 142.317 50.8324C141.896 51.0824 141.567 51.4205 141.328 51.8466C141.089 52.267 140.967 52.7358 140.962 53.2528V55.392C140.962 56.0398 141.081 56.5994 141.32 57.071C141.564 57.5426 141.908 57.9062 142.351 58.1619C142.794 58.4176 143.32 58.5455 143.928 58.5455C144.331 58.5455 144.7 58.4886 145.036 58.375C145.371 58.2614 145.658 58.0909 145.896 57.8636C146.135 57.6364 146.317 57.358 146.442 57.0284L149.8 57.25C149.629 58.0568 149.28 58.7614 148.751 59.3636C148.229 59.9602 147.553 60.4261 146.723 60.7614C145.899 61.0909 144.947 61.2557 143.868 61.2557ZM161.431 53.4318V61H157.8V47.9091H161.261V50.2188H161.414C161.704 49.4574 162.19 48.8551 162.871 48.4119C163.553 47.9631 164.38 47.7386 165.352 47.7386C166.261 47.7386 167.053 47.9375 167.729 48.3352C168.406 48.733 168.931 49.3011 169.306 50.0398C169.681 50.7727 169.869 51.6477 169.869 52.6648V61H166.238V53.3125C166.244 52.5114 166.039 51.8864 165.624 51.4375C165.21 50.983 164.638 50.7557 163.911 50.7557C163.423 50.7557 162.991 50.8608 162.616 51.071C162.246 51.2812 161.957 51.5881 161.746 51.9915C161.542 52.3892 161.437 52.8693 161.431 53.4318ZM178.645 61.2557C177.321 61.2557 176.176 60.9744 175.21 60.4119C174.25 59.8437 173.509 59.054 172.986 58.0426C172.463 57.0256 172.202 55.8466 172.202 54.5057C172.202 53.1534 172.463 51.9716 172.986 50.9602C173.509 49.9432 174.25 49.1534 175.21 48.5909C176.176 48.0227 177.321 47.7386 178.645 47.7386C179.969 47.7386 181.111 48.0227 182.071 48.5909C183.037 49.1534 183.781 49.9432 184.304 50.9602C184.827 51.9716 185.088 53.1534 185.088 54.5057C185.088 55.8466 184.827 57.0256 184.304 58.0426C183.781 59.054 183.037 59.8437 182.071 60.4119C181.111 60.9744 179.969 61.2557 178.645 61.2557ZM178.662 58.4432C179.264 58.4432 179.767 58.2727 180.17 57.9318C180.574 57.5852 180.878 57.1136 181.082 56.517C181.293 55.9205 181.398 55.2415 181.398 54.4801C181.398 53.7188 181.293 53.0398 181.082 52.4432C180.878 51.8466 180.574 51.375 180.17 51.0284C179.767 50.6818 179.264 50.5085 178.662 50.5085C178.054 50.5085 177.543 50.6818 177.128 51.0284C176.719 51.375 176.409 51.8466 176.199 52.4432C175.994 53.0398 175.892 53.7188 175.892 54.4801C175.892 55.2415 175.994 55.9205 176.199 56.517C176.409 57.1136 176.719 57.5852 177.128 57.9318C177.543 58.2727 178.054 58.4432 178.662 58.4432ZM194.412 47.9091V50.6364H186.528V47.9091H194.412ZM188.318 44.7727H191.949V56.9773C191.949 57.3125 192 57.5739 192.102 57.7614C192.205 57.9432 192.347 58.071 192.528 58.1449C192.716 58.2187 192.932 58.2557 193.176 58.2557C193.347 58.2557 193.517 58.2415 193.688 58.2131C193.858 58.179 193.989 58.1534 194.08 58.1364L194.651 60.8381C194.469 60.8949 194.213 60.9602 193.884 61.0341C193.554 61.1136 193.153 61.1619 192.682 61.179C191.807 61.2131 191.04 61.0966 190.381 60.8295C189.727 60.5625 189.219 60.1477 188.855 59.5852C188.491 59.0227 188.313 58.3125 188.318 57.4545V44.7727ZM210.727 55.4261V47.9091H214.357V61H210.871V58.6222H210.735C210.44 59.3892 209.948 60.0057 209.261 60.4716C208.579 60.9375 207.746 61.1705 206.763 61.1705C205.888 61.1705 205.119 60.9716 204.454 60.5739C203.789 60.1761 203.269 59.6108 202.894 58.8778C202.525 58.1449 202.337 57.267 202.332 56.2443V47.9091H205.962V55.5966C205.968 56.3693 206.175 56.9801 206.585 57.429C206.994 57.8778 207.542 58.1023 208.229 58.1023C208.667 58.1023 209.076 58.0028 209.457 57.804C209.837 57.5994 210.144 57.2983 210.377 56.9006C210.616 56.5028 210.732 56.0114 210.727 55.4261ZM228.153 51.642L224.83 51.8466C224.773 51.5625 224.651 51.3068 224.463 51.0795C224.276 50.8466 224.028 50.6619 223.722 50.5256C223.42 50.3835 223.06 50.3125 222.639 50.3125C222.077 50.3125 221.602 50.4318 221.216 50.6705C220.83 50.9034 220.636 51.2159 220.636 51.608C220.636 51.9205 220.761 52.1847 221.011 52.4006C221.261 52.6165 221.69 52.7898 222.298 52.9205L224.668 53.3977C225.94 53.6591 226.889 54.0795 227.514 54.6591C228.139 55.2386 228.452 56 228.452 56.9432C228.452 57.8011 228.199 58.554 227.693 59.2017C227.193 59.8494 226.506 60.3551 225.631 60.7188C224.761 61.0767 223.759 61.2557 222.622 61.2557C220.889 61.2557 219.509 60.8949 218.48 60.1733C217.457 59.446 216.858 58.4574 216.682 57.2074L220.253 57.0199C220.361 57.5483 220.622 57.9517 221.037 58.2301C221.452 58.5028 221.983 58.6392 222.631 58.6392C223.267 58.6392 223.778 58.517 224.165 58.2727C224.557 58.0227 224.756 57.7017 224.761 57.3097C224.756 56.9801 224.616 56.7102 224.344 56.5C224.071 56.2841 223.651 56.1193 223.082 56.0057L220.815 55.554C219.537 55.2983 218.585 54.8551 217.96 54.2244C217.341 53.5937 217.031 52.7898 217.031 51.8125C217.031 50.9716 217.259 50.2472 217.713 49.6392C218.173 49.0312 218.818 48.5625 219.648 48.233C220.483 47.9034 221.46 47.7386 222.58 47.7386C224.233 47.7386 225.534 48.0881 226.483 48.7869C227.438 49.4858 227.994 50.4375 228.153 51.642ZM236.704 61.2557C235.357 61.2557 234.198 60.983 233.227 60.4375C232.261 59.8864 231.516 59.108 230.994 58.1023C230.471 57.0909 230.21 55.8949 230.21 54.5142C230.21 53.1676 230.471 51.9858 230.994 50.9688C231.516 49.9517 232.252 49.1591 233.201 48.5909C234.156 48.0227 235.275 47.7386 236.559 47.7386C237.423 47.7386 238.227 47.8778 238.971 48.1562C239.721 48.429 240.374 48.8409 240.931 49.392C241.494 49.9432 241.931 50.6364 242.244 51.4716C242.556 52.3011 242.712 53.2727 242.712 54.3864V55.3835H231.658V53.1335H239.295C239.295 52.6108 239.181 52.1477 238.954 51.7443C238.727 51.3409 238.411 51.0256 238.008 50.7983C237.61 50.5653 237.147 50.4489 236.619 50.4489C236.067 50.4489 235.579 50.5767 235.153 50.8324C234.732 51.0824 234.403 51.4205 234.164 51.8466C233.925 52.267 233.803 52.7358 233.798 53.2528V55.392C233.798 56.0398 233.917 56.5994 234.156 57.071C234.4 57.5426 234.744 57.9062 235.187 58.1619C235.63 58.4176 236.156 58.5455 236.763 58.5455C237.167 58.5455 237.536 58.4886 237.871 58.375C238.207 58.2614 238.494 58.0909 238.732 57.8636C238.971 57.6364 239.153 57.358 239.278 57.0284L242.636 57.25C242.465 58.0568 242.116 58.7614 241.587 59.3636C241.065 59.9602 240.388 60.4261 239.559 60.7614C238.735 61.0909 237.783 61.2557 236.704 61.2557ZM249.906 61.2131C248.911 61.2131 248.011 60.9574 247.204 60.446C246.403 59.929 245.766 59.1705 245.295 58.1705C244.829 57.1648 244.596 55.9318 244.596 54.4716C244.596 52.9716 244.837 51.7244 245.32 50.7301C245.803 49.7301 246.445 48.983 247.246 48.4886C248.053 47.9886 248.937 47.7386 249.897 47.7386C250.63 47.7386 251.241 47.8636 251.729 48.1136C252.224 48.358 252.621 48.6648 252.923 49.0341C253.229 49.3977 253.462 49.7557 253.621 50.108H253.732V43.5455H257.354V61H253.775V58.9034H253.621C253.451 59.267 253.21 59.6278 252.897 59.9858C252.59 60.3381 252.19 60.6307 251.695 60.8636C251.207 61.0966 250.61 61.2131 249.906 61.2131ZM251.056 58.3239C251.641 58.3239 252.136 58.1648 252.539 57.8466C252.948 57.5227 253.261 57.071 253.477 56.4915C253.698 55.9119 253.809 55.233 253.809 54.4545C253.809 53.6761 253.701 53 253.485 52.4261C253.269 51.8523 252.957 51.4091 252.548 51.0966C252.138 50.7841 251.641 50.6278 251.056 50.6278C250.46 50.6278 249.957 50.7898 249.548 51.1136C249.138 51.4375 248.829 51.8864 248.619 52.4602C248.408 53.0341 248.303 53.6989 248.303 54.4545C248.303 55.2159 248.408 55.8892 248.619 56.4744C248.835 57.054 249.144 57.5085 249.548 57.8381C249.957 58.1619 250.46 58.3239 251.056 58.3239ZM265.894 61V47.9091H269.354V50.2188H269.508C269.781 49.4517 270.235 48.8466 270.871 48.4034C271.508 47.9602 272.269 47.7386 273.156 47.7386C274.053 47.7386 274.817 47.9631 275.448 48.4119C276.079 48.8551 276.499 49.4574 276.71 50.2188H276.846C277.113 49.4688 277.596 48.8693 278.295 48.4205C278.999 47.9659 279.832 47.7386 280.792 47.7386C282.013 47.7386 283.005 48.1278 283.766 48.9062C284.533 49.679 284.917 50.7756 284.917 52.196V61H281.295V52.9119C281.295 52.1847 281.102 51.6392 280.715 51.2756C280.329 50.9119 279.846 50.7301 279.266 50.7301C278.607 50.7301 278.093 50.9403 277.724 51.3608C277.354 51.7756 277.17 52.3239 277.17 53.0057V61H273.65V52.8352C273.65 52.1932 273.465 51.6818 273.096 51.3011C272.732 50.9205 272.252 50.7301 271.656 50.7301C271.252 50.7301 270.888 50.8324 270.565 51.0369C270.246 51.2358 269.994 51.517 269.806 51.8807C269.619 52.2386 269.525 52.6591 269.525 53.142V61H265.894ZM293.7 61.2557C292.376 61.2557 291.231 60.9744 290.265 60.4119C289.305 59.8437 288.563 59.054 288.04 58.0426C287.518 57.0256 287.256 55.8466 287.256 54.5057C287.256 53.1534 287.518 51.9716 288.04 50.9602C288.563 49.9432 289.305 49.1534 290.265 48.5909C291.231 48.0227 292.376 47.7386 293.7 47.7386C295.023 47.7386 296.165 48.0227 297.126 48.5909C298.092 49.1534 298.836 49.9432 299.359 50.9602C299.881 51.9716 300.143 53.1534 300.143 54.5057C300.143 55.8466 299.881 57.0256 299.359 58.0426C298.836 59.054 298.092 59.8437 297.126 60.4119C296.165 60.9744 295.023 61.2557 293.7 61.2557ZM293.717 58.4432C294.319 58.4432 294.822 58.2727 295.225 57.9318C295.629 57.5852 295.933 57.1136 296.137 56.517C296.347 55.9205 296.452 55.2415 296.452 54.4801C296.452 53.7188 296.347 53.0398 296.137 52.4432C295.933 51.8466 295.629 51.375 295.225 51.0284C294.822 50.6818 294.319 50.5085 293.717 50.5085C293.109 50.5085 292.597 50.6818 292.183 51.0284C291.773 51.375 291.464 51.8466 291.254 52.4432C291.049 53.0398 290.947 53.7188 290.947 54.4801C290.947 55.2415 291.049 55.9205 291.254 56.517C291.464 57.1136 291.773 57.5852 292.183 57.9318C292.597 58.2727 293.109 58.4432 293.717 58.4432ZM302.572 61V43.5455H306.202V50.108H306.313C306.472 49.7557 306.702 49.3977 307.004 49.0341C307.31 48.6648 307.708 48.358 308.197 48.1136C308.691 47.8636 309.305 47.7386 310.038 47.7386C310.992 47.7386 311.873 47.9886 312.68 48.4886C313.487 48.983 314.131 49.7301 314.614 50.7301C315.097 51.7244 315.339 52.9716 315.339 54.4716C315.339 55.9318 315.103 57.1648 314.631 58.1705C314.165 59.1705 313.529 59.929 312.722 60.446C311.921 60.9574 311.023 61.2131 310.029 61.2131C309.325 61.2131 308.725 61.0966 308.231 60.8636C307.742 60.6307 307.342 60.3381 307.029 59.9858C306.717 59.6278 306.478 59.267 306.313 58.9034H306.151V61H302.572ZM306.126 54.4545C306.126 55.233 306.234 55.9119 306.45 56.4915C306.665 57.071 306.978 57.5227 307.387 57.8466C307.796 58.1648 308.293 58.3239 308.879 58.3239C309.469 58.3239 309.969 58.1619 310.379 57.8381C310.788 57.5085 311.097 57.054 311.308 56.4744C311.523 55.8892 311.631 55.2159 311.631 54.4545C311.631 53.6989 311.526 53.0341 311.316 52.4602C311.106 51.8864 310.796 51.4375 310.387 51.1136C309.978 50.7898 309.475 50.6278 308.879 50.6278C308.288 50.6278 307.788 50.7841 307.379 51.0966C306.975 51.4091 306.665 51.8523 306.45 52.4261C306.234 53 306.126 53.6761 306.126 54.4545ZM317.761 61V47.9091H321.392V61H317.761ZM319.585 46.2216C319.045 46.2216 318.582 46.0426 318.196 45.6847C317.815 45.321 317.625 44.8864 317.625 44.3807C317.625 43.8807 317.815 43.4517 318.196 43.0938C318.582 42.7301 319.045 42.5483 319.585 42.5483C320.125 42.5483 320.585 42.7301 320.966 43.0938C321.352 43.4517 321.545 43.8807 321.545 44.3807C321.545 44.8864 321.352 45.321 320.966 45.6847C320.585 46.0426 320.125 46.2216 319.585 46.2216ZM327.931 43.5455V61H324.3V43.5455H327.931ZM336.805 61.2557C335.459 61.2557 334.3 60.983 333.328 60.4375C332.362 59.8864 331.618 59.108 331.095 58.1023C330.572 57.0909 330.311 55.8949 330.311 54.5142C330.311 53.1676 330.572 51.9858 331.095 50.9688C331.618 49.9517 332.354 49.1591 333.303 48.5909C334.257 48.0227 335.376 47.7386 336.661 47.7386C337.524 47.7386 338.328 47.8778 339.072 48.1562C339.822 48.429 340.476 48.8409 341.033 49.392C341.595 49.9432 342.033 50.6364 342.345 51.4716C342.658 52.3011 342.814 53.2727 342.814 54.3864V55.3835H331.76V53.1335H339.396C339.396 52.6108 339.283 52.1477 339.055 51.7443C338.828 51.3409 338.513 51.0256 338.109 50.7983C337.712 50.5653 337.249 50.4489 336.72 50.4489C336.169 50.4489 335.68 50.5767 335.254 50.8324C334.834 51.0824 334.504 51.4205 334.266 51.8466C334.027 52.267 333.905 52.7358 333.899 53.2528V55.392C333.899 56.0398 334.018 56.5994 334.257 57.071C334.501 57.5426 334.845 57.9062 335.288 58.1619C335.732 58.4176 336.257 58.5455 336.865 58.5455C337.268 58.5455 337.638 58.4886 337.973 58.375C338.308 58.2614 338.595 58.0909 338.834 57.8636C339.072 57.6364 339.254 57.358 339.379 57.0284L342.737 57.25C342.567 58.0568 342.217 58.7614 341.689 59.3636C341.166 59.9602 340.49 60.4261 339.661 60.7614C338.837 61.0909 337.885 61.2557 336.805 61.2557ZM354.369 43.5455V61H350.738V43.5455H354.369ZM361.01 61.2472C360.175 61.2472 359.43 61.1023 358.777 60.8125C358.124 60.517 357.607 60.0824 357.226 59.5085C356.851 58.929 356.663 58.2074 356.663 57.3438C356.663 56.6165 356.797 56.0057 357.064 55.5114C357.331 55.017 357.695 54.6193 358.155 54.3182C358.615 54.017 359.138 53.7898 359.723 53.6364C360.314 53.483 360.933 53.375 361.581 53.3125C362.342 53.233 362.956 53.1591 363.422 53.0909C363.888 53.017 364.226 52.9091 364.436 52.767C364.646 52.625 364.751 52.4148 364.751 52.1364V52.0852C364.751 51.5455 364.581 51.1278 364.24 50.8324C363.905 50.5369 363.428 50.3892 362.808 50.3892C362.155 50.3892 361.635 50.5341 361.249 50.8239C360.862 51.108 360.607 51.4659 360.482 51.8977L357.124 51.625C357.294 50.8295 357.629 50.142 358.129 49.5625C358.629 48.9773 359.274 48.5284 360.064 48.2159C360.859 47.8977 361.78 47.7386 362.825 47.7386C363.553 47.7386 364.249 47.8239 364.913 47.9943C365.584 48.1648 366.178 48.429 366.695 48.7869C367.217 49.1449 367.629 49.6051 367.93 50.1676C368.232 50.7244 368.382 51.392 368.382 52.1705V61H364.939V59.1847H364.837C364.626 59.5938 364.345 59.9545 363.993 60.267C363.641 60.5739 363.217 60.8153 362.723 60.9915C362.229 61.1619 361.658 61.2472 361.01 61.2472ZM362.05 58.7415C362.584 58.7415 363.055 58.6364 363.464 58.4261C363.874 58.2102 364.195 57.9205 364.428 57.5568C364.661 57.1932 364.777 56.7812 364.777 56.321V54.9318C364.663 55.0057 364.507 55.0739 364.308 55.1364C364.115 55.1932 363.896 55.2472 363.652 55.2983C363.408 55.3437 363.163 55.3864 362.919 55.4261C362.675 55.4602 362.453 55.4915 362.254 55.5199C361.828 55.5824 361.456 55.6818 361.138 55.8182C360.82 55.9545 360.572 56.1392 360.396 56.3722C360.22 56.5994 360.132 56.8835 360.132 57.2244C360.132 57.7188 360.311 58.0966 360.669 58.358C361.033 58.6136 361.493 58.7415 362.05 58.7415ZM374.83 53.4318V61H371.199V47.9091H374.659V50.2188H374.812C375.102 49.4574 375.588 48.8551 376.27 48.4119C376.952 47.9631 377.778 47.7386 378.75 47.7386C379.659 47.7386 380.452 47.9375 381.128 48.3352C381.804 48.733 382.33 49.3011 382.705 50.0398C383.08 50.7727 383.267 51.6477 383.267 52.6648V61H379.636V53.3125C379.642 52.5114 379.438 51.8864 379.023 51.4375C378.608 50.983 378.037 50.7557 377.31 50.7557C376.821 50.7557 376.389 50.8608 376.014 51.071C375.645 51.2812 375.355 51.5881 375.145 51.9915C374.94 52.3892 374.835 52.8693 374.83 53.4318ZM392.026 66.1818C390.85 66.1818 389.842 66.0199 389.001 65.696C388.165 65.3778 387.501 64.9432 387.006 64.392C386.512 63.8409 386.191 63.2216 386.043 62.5341L389.401 62.0824C389.504 62.3438 389.665 62.5881 389.887 62.8153C390.109 63.0426 390.401 63.2244 390.765 63.3608C391.134 63.5028 391.583 63.5739 392.112 63.5739C392.901 63.5739 393.552 63.3807 394.063 62.9943C394.58 62.6136 394.839 61.9744 394.839 61.0767V58.6818H394.685C394.526 59.0455 394.288 59.3892 393.969 59.7131C393.651 60.0369 393.242 60.3011 392.742 60.5057C392.242 60.7102 391.646 60.8125 390.952 60.8125C389.969 60.8125 389.075 60.5852 388.268 60.1307C387.467 59.6705 386.827 58.9687 386.35 58.0256C385.879 57.0767 385.643 55.8778 385.643 54.429C385.643 52.946 385.884 51.7074 386.367 50.7131C386.85 49.7187 387.492 48.9744 388.293 48.4801C389.1 47.9858 389.984 47.7386 390.944 47.7386C391.677 47.7386 392.29 47.8636 392.785 48.1136C393.279 48.358 393.677 48.6648 393.978 49.0341C394.285 49.3977 394.521 49.7557 394.685 50.108H394.822V47.9091H398.427V61.1278C398.427 62.2415 398.154 63.1733 397.609 63.9233C397.063 64.6733 396.308 65.2358 395.342 65.6108C394.381 65.9915 393.276 66.1818 392.026 66.1818ZM392.103 58.0852C392.688 58.0852 393.183 57.9403 393.586 57.6506C393.995 57.3551 394.308 56.9347 394.523 56.3892C394.745 55.8381 394.856 55.179 394.856 54.4119C394.856 53.6449 394.748 52.9801 394.532 52.4176C394.316 51.8494 394.004 51.4091 393.594 51.0966C393.185 50.7841 392.688 50.6278 392.103 50.6278C391.506 50.6278 391.004 50.7898 390.594 51.1136C390.185 51.4318 389.876 51.875 389.665 52.4432C389.455 53.0114 389.35 53.6676 389.35 54.4119C389.35 55.1676 389.455 55.821 389.665 56.3722C389.881 56.9176 390.191 57.3409 390.594 57.642C391.004 57.9375 391.506 58.0852 392.103 58.0852ZM409.711 55.4261V47.9091H413.342V61H409.856V58.6222H409.719C409.424 59.3892 408.933 60.0057 408.245 60.4716C407.563 60.9375 406.731 61.1705 405.748 61.1705C404.873 61.1705 404.103 60.9716 403.438 60.5739C402.773 60.1761 402.254 59.6108 401.879 58.8778C401.509 58.1449 401.322 57.267 401.316 56.2443V47.9091H404.947V55.5966C404.952 56.3693 405.16 56.9801 405.569 57.429C405.978 57.8778 406.526 58.1023 407.214 58.1023C407.651 58.1023 408.06 58.0028 408.441 57.804C408.822 57.5994 409.129 57.2983 409.362 56.9006C409.6 56.5028 409.717 56.0114 409.711 55.4261ZM419.979 61.2472C419.143 61.2472 418.399 61.1023 417.746 60.8125C417.092 60.517 416.575 60.0824 416.195 59.5085C415.82 58.929 415.632 58.2074 415.632 57.3438C415.632 56.6165 415.766 56.0057 416.033 55.5114C416.3 55.017 416.663 54.6193 417.124 54.3182C417.584 54.017 418.107 53.7898 418.692 53.6364C419.283 53.483 419.902 53.375 420.55 53.3125C421.311 53.233 421.925 53.1591 422.391 53.0909C422.857 53.017 423.195 52.9091 423.405 52.767C423.615 52.625 423.72 52.4148 423.72 52.1364V52.0852C423.72 51.5455 423.55 51.1278 423.209 50.8324C422.874 50.5369 422.396 50.3892 421.777 50.3892C421.124 50.3892 420.604 50.5341 420.217 50.8239C419.831 51.108 419.575 51.4659 419.45 51.8977L416.092 51.625C416.263 50.8295 416.598 50.142 417.098 49.5625C417.598 48.9773 418.243 48.5284 419.033 48.2159C419.828 47.8977 420.749 47.7386 421.794 47.7386C422.521 47.7386 423.217 47.8239 423.882 47.9943C424.553 48.1648 425.146 48.429 425.663 48.7869C426.186 49.1449 426.598 49.6051 426.899 50.1676C427.2 50.7244 427.351 51.392 427.351 52.1705V61H423.908V59.1847H423.805C423.595 59.5938 423.314 59.9545 422.962 60.267C422.609 60.5739 422.186 60.8153 421.692 60.9915C421.197 61.1619 420.626 61.2472 419.979 61.2472ZM421.018 58.7415C421.553 58.7415 422.024 58.6364 422.433 58.4261C422.842 58.2102 423.163 57.9205 423.396 57.5568C423.629 57.1932 423.746 56.7812 423.746 56.321V54.9318C423.632 55.0057 423.476 55.0739 423.277 55.1364C423.084 55.1932 422.865 55.2472 422.621 55.2983C422.376 55.3437 422.132 55.3864 421.888 55.4261C421.643 55.4602 421.422 55.4915 421.223 55.5199C420.797 55.5824 420.425 55.6818 420.107 55.8182C419.788 55.9545 419.541 56.1392 419.365 56.3722C419.189 56.5994 419.101 56.8835 419.101 57.2244C419.101 57.7188 419.28 58.0966 419.638 58.358C420.001 58.6136 420.462 58.7415 421.018 58.7415ZM436.065 66.1818C434.889 66.1818 433.881 66.0199 433.04 65.696C432.205 65.3778 431.54 64.9432 431.045 64.392C430.551 63.8409 430.23 63.2216 430.082 62.5341L433.44 62.0824C433.543 62.3438 433.705 62.5881 433.926 62.8153C434.148 63.0426 434.44 63.2244 434.804 63.3608C435.173 63.5028 435.622 63.5739 436.151 63.5739C436.94 63.5739 437.591 63.3807 438.102 62.9943C438.619 62.6136 438.878 61.9744 438.878 61.0767V58.6818H438.724C438.565 59.0455 438.327 59.3892 438.009 59.7131C437.69 60.0369 437.281 60.3011 436.781 60.5057C436.281 60.7102 435.685 60.8125 434.991 60.8125C434.009 60.8125 433.114 60.5852 432.307 60.1307C431.506 59.6705 430.866 58.9687 430.389 58.0256C429.918 57.0767 429.682 55.8778 429.682 54.429C429.682 52.946 429.923 51.7074 430.406 50.7131C430.889 49.7187 431.531 48.9744 432.332 48.4801C433.139 47.9858 434.023 47.7386 434.983 47.7386C435.716 47.7386 436.33 47.8636 436.824 48.1136C437.318 48.358 437.716 48.6648 438.017 49.0341C438.324 49.3977 438.56 49.7557 438.724 50.108H438.861V47.9091H442.466V61.1278C442.466 62.2415 442.193 63.1733 441.648 63.9233C441.102 64.6733 440.347 65.2358 439.381 65.6108C438.42 65.9915 437.315 66.1818 436.065 66.1818ZM436.142 58.0852C436.727 58.0852 437.222 57.9403 437.625 57.6506C438.034 57.3551 438.347 56.9347 438.562 56.3892C438.784 55.8381 438.895 55.179 438.895 54.4119C438.895 53.6449 438.787 52.9801 438.571 52.4176C438.355 51.8494 438.043 51.4091 437.634 51.0966C437.224 50.7841 436.727 50.6278 436.142 50.6278C435.545 50.6278 435.043 50.7898 434.634 51.1136C434.224 51.4318 433.915 51.875 433.705 52.4432C433.494 53.0114 433.389 53.6676 433.389 54.4119C433.389 55.1676 433.494 55.821 433.705 56.3722C433.92 56.9176 434.23 57.3409 434.634 57.642C435.043 57.9375 435.545 58.0852 436.142 58.0852ZM451.321 61.2557C449.974 61.2557 448.815 60.983 447.844 60.4375C446.878 59.8864 446.134 59.108 445.611 58.1023C445.088 57.0909 444.827 55.8949 444.827 54.5142C444.827 53.1676 445.088 51.9858 445.611 50.9688C446.134 49.9517 446.869 49.1591 447.818 48.5909C448.773 48.0227 449.892 47.7386 451.176 47.7386C452.04 47.7386 452.844 47.8778 453.588 48.1562C454.338 48.429 454.991 48.8409 455.548 49.392C456.111 49.9432 456.548 50.6364 456.861 51.4716C457.173 52.3011 457.33 53.2727 457.33 54.3864V55.3835H446.276V53.1335H453.912C453.912 52.6108 453.798 52.1477 453.571 51.7443C453.344 51.3409 453.028 51.0256 452.625 50.7983C452.227 50.5653 451.764 50.4489 451.236 50.4489C450.685 50.4489 450.196 50.5767 449.77 50.8324C449.349 51.0824 449.02 51.4205 448.781 51.8466C448.543 52.267 448.42 52.7358 448.415 53.2528V55.392C448.415 56.0398 448.534 56.5994 448.773 57.071C449.017 57.5426 449.361 57.9062 449.804 58.1619C450.247 58.4176 450.773 58.5455 451.381 58.5455C451.784 58.5455 452.153 58.4886 452.489 58.375C452.824 58.2614 453.111 58.0909 453.349 57.8636C453.588 57.6364 453.77 57.358 453.895 57.0284L457.253 57.25C457.082 58.0568 456.733 58.7614 456.205 59.3636C455.682 59.9602 455.006 60.4261 454.176 60.7614C453.352 61.0909 452.401 61.2557 451.321 61.2557ZM468.987 61.2472C468.151 61.2472 467.407 61.1023 466.754 60.8125C466.1 60.517 465.583 60.0824 465.202 59.5085C464.827 58.929 464.64 58.2074 464.64 57.3438C464.64 56.6165 464.773 56.0057 465.04 55.5114C465.308 55.017 465.671 54.6193 466.131 54.3182C466.592 54.017 467.114 53.7898 467.7 53.6364C468.29 53.483 468.91 53.375 469.558 53.3125C470.319 53.233 470.933 53.1591 471.398 53.0909C471.864 53.017 472.202 52.9091 472.413 52.767C472.623 52.625 472.728 52.4148 472.728 52.1364V52.0852C472.728 51.5455 472.558 51.1278 472.217 50.8324C471.881 50.5369 471.404 50.3892 470.785 50.3892C470.131 50.3892 469.612 50.5341 469.225 50.8239C468.839 51.108 468.583 51.4659 468.458 51.8977L465.1 51.625C465.271 50.8295 465.606 50.142 466.106 49.5625C466.606 48.9773 467.251 48.5284 468.04 48.2159C468.836 47.8977 469.756 47.7386 470.802 47.7386C471.529 47.7386 472.225 47.8239 472.89 47.9943C473.56 48.1648 474.154 48.429 474.671 48.7869C475.194 49.1449 475.606 49.6051 475.907 50.1676C476.208 50.7244 476.359 51.392 476.359 52.1705V61H472.915V59.1847H472.813C472.603 59.5938 472.322 59.9545 471.969 60.267C471.617 60.5739 471.194 60.8153 470.7 60.9915C470.205 61.1619 469.634 61.2472 468.987 61.2472ZM470.026 58.7415C470.56 58.7415 471.032 58.6364 471.441 58.4261C471.85 58.2102 472.171 57.9205 472.404 57.5568C472.637 57.1932 472.754 56.7812 472.754 56.321V54.9318C472.64 55.0057 472.484 55.0739 472.285 55.1364C472.092 55.1932 471.873 55.2472 471.629 55.2983C471.384 55.3437 471.14 55.3864 470.896 55.4261C470.651 55.4602 470.43 55.4915 470.231 55.5199C469.805 55.5824 469.433 55.6818 469.114 55.8182C468.796 55.9545 468.549 56.1392 468.373 56.3722C468.197 56.5994 468.109 56.8835 468.109 57.2244C468.109 57.7188 468.288 58.0966 468.646 58.358C469.009 58.6136 469.469 58.7415 470.026 58.7415ZM479.175 65.9091V47.9091H482.755V50.108H482.917C483.076 49.7557 483.306 49.3977 483.607 49.0341C483.914 48.6648 484.312 48.358 484.8 48.1136C485.295 47.8636 485.908 47.7386 486.641 47.7386C487.596 47.7386 488.477 47.9886 489.283 48.4886C490.09 48.983 490.735 49.7301 491.218 50.7301C491.701 51.7244 491.942 52.9716 491.942 54.4716C491.942 55.9318 491.707 57.1648 491.235 58.1705C490.769 59.1705 490.133 59.929 489.326 60.446C488.525 60.9574 487.627 61.2131 486.633 61.2131C485.928 61.2131 485.329 61.0966 484.835 60.8636C484.346 60.6307 483.945 60.3381 483.633 59.9858C483.32 59.6278 483.082 59.267 482.917 58.9034H482.806V65.9091H479.175ZM482.729 54.4545C482.729 55.233 482.837 55.9119 483.053 56.4915C483.269 57.071 483.582 57.5227 483.991 57.8466C484.4 58.1648 484.897 58.3239 485.482 58.3239C486.073 58.3239 486.573 58.1619 486.982 57.8381C487.391 57.5085 487.701 57.054 487.911 56.4744C488.127 55.8892 488.235 55.2159 488.235 54.4545C488.235 53.6989 488.13 53.0341 487.92 52.4602C487.71 51.8864 487.4 51.4375 486.991 51.1136C486.582 50.7898 486.079 50.6278 485.482 50.6278C484.891 50.6278 484.391 50.7841 483.982 51.0966C483.579 51.4091 483.269 51.8523 483.053 52.4261C482.837 53 482.729 53.6761 482.729 54.4545ZM494.363 65.9091V47.9091H497.942V50.108H498.104C498.263 49.7557 498.494 49.3977 498.795 49.0341C499.102 48.6648 499.499 48.358 499.988 48.1136C500.482 47.8636 501.096 47.7386 501.829 47.7386C502.783 47.7386 503.664 47.9886 504.471 48.4886C505.278 48.983 505.923 49.7301 506.406 50.7301C506.888 51.7244 507.13 52.9716 507.13 54.4716C507.13 55.9318 506.894 57.1648 506.423 58.1705C505.957 59.1705 505.32 59.929 504.513 60.446C503.712 60.9574 502.815 61.2131 501.82 61.2131C501.116 61.2131 500.516 61.0966 500.022 60.8636C499.533 60.6307 499.133 60.3381 498.82 59.9858C498.508 59.6278 498.269 59.267 498.104 58.9034H497.994V65.9091H494.363ZM497.917 54.4545C497.917 55.233 498.025 55.9119 498.241 56.4915C498.457 57.071 498.769 57.5227 499.178 57.8466C499.587 58.1648 500.085 58.3239 500.67 58.3239C501.261 58.3239 501.761 58.1619 502.17 57.8381C502.579 57.5085 502.888 57.054 503.099 56.4744C503.315 55.8892 503.423 55.2159 503.423 54.4545C503.423 53.6989 503.317 53.0341 503.107 52.4602C502.897 51.8864 502.587 51.4375 502.178 51.1136C501.769 50.7898 501.266 50.6278 500.67 50.6278C500.079 50.6278 499.579 50.7841 499.17 51.0966C498.766 51.4091 498.457 51.8523 498.241 52.4261C498.025 53 497.917 53.6761 497.917 54.4545ZM520.442 51.642L517.119 51.8466C517.062 51.5625 516.94 51.3068 516.752 51.0795C516.565 50.8466 516.317 50.6619 516.011 50.5256C515.71 50.3835 515.349 50.3125 514.928 50.3125C514.366 50.3125 513.891 50.4318 513.505 50.6705C513.119 50.9034 512.925 51.2159 512.925 51.608C512.925 51.9205 513.05 52.1847 513.3 52.4006C513.55 52.6165 513.979 52.7898 514.587 52.9205L516.957 53.3977C518.229 53.6591 519.178 54.0795 519.803 54.6591C520.428 55.2386 520.741 56 520.741 56.9432C520.741 57.8011 520.488 58.554 519.982 59.2017C519.482 59.8494 518.795 60.3551 517.92 60.7188C517.05 61.0767 516.048 61.2557 514.911 61.2557C513.178 61.2557 511.798 60.8949 510.769 60.1733C509.746 59.446 509.147 58.4574 508.971 57.2074L512.542 57.0199C512.65 57.5483 512.911 57.9517 513.326 58.2301C513.741 58.5028 514.272 58.6392 514.92 58.6392C515.556 58.6392 516.067 58.517 516.454 58.2727C516.846 58.0227 517.045 57.7017 517.05 57.3097C517.045 56.9801 516.906 56.7102 516.633 56.5C516.36 56.2841 515.94 56.1193 515.371 56.0057L513.104 55.554C511.826 55.2983 510.874 54.8551 510.249 54.2244C509.63 53.5937 509.32 52.7898 509.32 51.8125C509.32 50.9716 509.548 50.2472 510.002 49.6392C510.462 49.0312 511.107 48.5625 511.937 48.233C512.772 47.9034 513.749 47.7386 514.869 47.7386C516.522 47.7386 517.823 48.0881 518.772 48.7869C519.727 49.4858 520.283 50.4375 520.442 51.642ZM526.973 58.6136L526.879 59.5511C526.805 60.3011 526.663 61.0483 526.453 61.7926C526.249 62.5426 526.033 63.2216 525.805 63.8295C525.584 64.4375 525.405 64.9148 525.268 65.2614H522.916C523.001 64.9261 523.118 64.4574 523.266 63.8551C523.413 63.2585 523.553 62.5881 523.683 61.8438C523.814 61.0994 523.896 60.3409 523.93 59.5682L523.973 58.6136H526.973ZM537.609 61L534.047 47.9091H537.72L539.749 56.7045H539.868L541.982 47.9091H545.587L547.734 56.6534H547.845L549.839 47.9091H553.504L549.95 61H546.107L543.857 52.767H543.695L541.445 61H537.609ZM559.072 53.4318V61H555.441V43.5455H558.969V50.2188H559.123C559.418 49.446 559.896 48.8409 560.555 48.4034C561.214 47.9602 562.04 47.7386 563.035 47.7386C563.944 47.7386 564.737 47.9375 565.413 48.3352C566.094 48.7273 566.623 49.2926 566.998 50.0312C567.379 50.7642 567.566 51.642 567.56 52.6648V61H563.93V53.3125C563.935 52.5057 563.731 51.8778 563.316 51.429C562.907 50.9801 562.333 50.7557 561.594 50.7557C561.1 50.7557 560.663 50.8608 560.282 51.071C559.907 51.2812 559.612 51.5881 559.396 51.9915C559.185 52.3892 559.077 52.8693 559.072 53.4318ZM574.151 61.2472C573.315 61.2472 572.571 61.1023 571.918 60.8125C571.264 60.517 570.747 60.0824 570.366 59.5085C569.991 58.929 569.804 58.2074 569.804 57.3438C569.804 56.6165 569.938 56.0057 570.205 55.5114C570.472 55.017 570.835 54.6193 571.295 54.3182C571.756 54.017 572.278 53.7898 572.864 53.6364C573.455 53.483 574.074 53.375 574.722 53.3125C575.483 53.233 576.097 53.1591 576.562 53.0909C577.028 53.017 577.366 52.9091 577.577 52.767C577.787 52.625 577.892 52.4148 577.892 52.1364V52.0852C577.892 51.5455 577.722 51.1278 577.381 50.8324C577.045 50.5369 576.568 50.3892 575.949 50.3892C575.295 50.3892 574.776 50.5341 574.389 50.8239C574.003 51.108 573.747 51.4659 573.622 51.8977L570.264 51.625C570.435 50.8295 570.77 50.142 571.27 49.5625C571.77 48.9773 572.415 48.5284 573.205 48.2159C574 47.8977 574.92 47.7386 575.966 47.7386C576.693 47.7386 577.389 47.8239 578.054 47.9943C578.724 48.1648 579.318 48.429 579.835 48.7869C580.358 49.1449 580.77 49.6051 581.071 50.1676C581.372 50.7244 581.523 51.392 581.523 52.1705V61H578.08V59.1847H577.977C577.767 59.5938 577.486 59.9545 577.134 60.267C576.781 60.5739 576.358 60.8153 575.864 60.9915C575.369 61.1619 574.798 61.2472 574.151 61.2472ZM575.19 58.7415C575.724 58.7415 576.196 58.6364 576.605 58.4261C577.014 58.2102 577.335 57.9205 577.568 57.5568C577.801 57.1932 577.918 56.7812 577.918 56.321V54.9318C577.804 55.0057 577.648 55.0739 577.449 55.1364C577.256 55.1932 577.037 55.2472 576.793 55.2983C576.548 55.3437 576.304 55.3864 576.06 55.4261C575.815 55.4602 575.594 55.4915 575.395 55.5199C574.969 55.5824 574.597 55.6818 574.278 55.8182C573.96 55.9545 573.713 56.1392 573.537 56.3722C573.361 56.5994 573.273 56.8835 573.273 57.2244C573.273 57.7188 573.452 58.0966 573.81 58.358C574.173 58.6136 574.634 58.7415 575.19 58.7415ZM591.303 47.9091V50.6364H583.419V47.9091H591.303ZM585.209 44.7727H588.839V56.9773C588.839 57.3125 588.891 57.5739 588.993 57.7614C589.095 57.9432 589.237 58.071 589.419 58.1449C589.607 58.2187 589.822 58.2557 590.067 58.2557C590.237 58.2557 590.408 58.2415 590.578 58.2131C590.749 58.179 590.879 58.1534 590.97 58.1364L591.541 60.8381C591.359 60.8949 591.104 60.9602 590.774 61.0341C590.445 61.1136 590.044 61.1619 589.572 61.179C588.697 61.2131 587.93 61.0966 587.271 60.8295C586.618 60.5625 586.109 60.1477 585.746 59.5852C585.382 59.0227 585.203 58.3125 585.209 57.4545V44.7727ZM605.137 61.2557C603.813 61.2557 602.668 60.9744 601.702 60.4119C600.742 59.8437 600.001 59.054 599.478 58.0426C598.955 57.0256 598.694 55.8466 598.694 54.5057C598.694 53.1534 598.955 51.9716 599.478 50.9602C600.001 49.9432 600.742 49.1534 601.702 48.5909C602.668 48.0227 603.813 47.7386 605.137 47.7386C606.461 47.7386 607.603 48.0227 608.563 48.5909C609.529 49.1534 610.273 49.9432 610.796 50.9602C611.319 51.9716 611.58 53.1534 611.58 54.5057C611.58 55.8466 611.319 57.0256 610.796 58.0426C610.273 59.054 609.529 59.8437 608.563 60.4119C607.603 60.9744 606.461 61.2557 605.137 61.2557ZM605.154 58.4432C605.756 58.4432 606.259 58.2727 606.663 57.9318C607.066 57.5852 607.37 57.1136 607.575 56.517C607.785 55.9205 607.89 55.2415 607.89 54.4801C607.89 53.7188 607.785 53.0398 607.575 52.4432C607.37 51.8466 607.066 51.375 606.663 51.0284C606.259 50.6818 605.756 50.5085 605.154 50.5085C604.546 50.5085 604.035 50.6818 603.62 51.0284C603.211 51.375 602.901 51.8466 602.691 52.4432C602.487 53.0398 602.384 53.7188 602.384 54.4801C602.384 55.2415 602.487 55.9205 602.691 56.517C602.901 57.1136 603.211 57.5852 603.62 57.9318C604.035 58.2727 604.546 58.4432 605.154 58.4432ZM620.904 47.9091V50.6364H613.021V47.9091H620.904ZM614.81 44.7727H618.441V56.9773C618.441 57.3125 618.492 57.5739 618.594 57.7614C618.697 57.9432 618.839 58.071 619.021 58.1449C619.208 58.2187 619.424 58.2557 619.668 58.2557C619.839 58.2557 620.009 58.2415 620.18 58.2131C620.35 58.179 620.481 58.1534 620.572 58.1364L621.143 60.8381C620.961 60.8949 620.705 60.9602 620.376 61.0341C620.046 61.1136 619.646 61.1619 619.174 61.179C618.299 61.2131 617.532 61.0966 616.873 60.8295C616.219 60.5625 615.711 60.1477 615.347 59.5852C614.984 59.0227 614.805 58.3125 614.81 57.4545V44.7727ZM627.181 53.4318V61H623.55V43.5455H627.079V50.2188H627.232C627.528 49.446 628.005 48.8409 628.664 48.4034C629.323 47.9602 630.15 47.7386 631.144 47.7386C632.053 47.7386 632.846 47.9375 633.522 48.3352C634.204 48.7273 634.732 49.2926 635.107 50.0312C635.488 50.7642 635.675 51.642 635.67 52.6648V61H632.039V53.3125C632.045 52.5057 631.84 51.8778 631.425 51.429C631.016 50.9801 630.442 50.7557 629.704 50.7557C629.21 50.7557 628.772 50.8608 628.391 51.071C628.016 51.2812 627.721 51.5881 627.505 51.9915C627.295 52.3892 627.187 52.8693 627.181 53.4318ZM644.493 61.2557C643.146 61.2557 641.987 60.983 641.016 60.4375C640.05 59.8864 639.305 59.108 638.783 58.1023C638.26 57.0909 637.999 55.8949 637.999 54.5142C637.999 53.1676 638.26 51.9858 638.783 50.9688C639.305 49.9517 640.041 49.1591 640.99 48.5909C641.945 48.0227 643.064 47.7386 644.348 47.7386C645.212 47.7386 646.016 47.8778 646.76 48.1562C647.51 48.429 648.163 48.8409 648.72 49.392C649.283 49.9432 649.72 50.6364 650.033 51.4716C650.345 52.3011 650.501 53.2727 650.501 54.3864V55.3835H639.447V53.1335H647.084C647.084 52.6108 646.97 52.1477 646.743 51.7443C646.516 51.3409 646.2 51.0256 645.797 50.7983C645.399 50.5653 644.936 50.4489 644.408 50.4489C643.857 50.4489 643.368 50.5767 642.942 50.8324C642.521 51.0824 642.192 51.4205 641.953 51.8466C641.714 52.267 641.592 52.7358 641.587 53.2528V55.392C641.587 56.0398 641.706 56.5994 641.945 57.071C642.189 57.5426 642.533 57.9062 642.976 58.1619C643.419 58.4176 643.945 58.5455 644.553 58.5455C644.956 58.5455 645.325 58.4886 645.661 58.375C645.996 58.2614 646.283 58.0909 646.521 57.8636C646.76 57.6364 646.942 57.358 647.067 57.0284L650.425 57.25C650.254 58.0568 649.905 58.7614 649.376 59.3636C648.854 59.9602 648.178 60.4261 647.348 60.7614C646.524 61.0909 645.572 61.2557 644.493 61.2557ZM652.871 61V47.9091H656.391V50.1932H656.527C656.766 49.3807 657.166 48.767 657.729 48.3523C658.291 47.9318 658.939 47.7216 659.672 47.7216C659.854 47.7216 660.05 47.733 660.26 47.7557C660.47 47.7784 660.655 47.8097 660.814 47.8494V51.071C660.643 51.0199 660.408 50.9744 660.107 50.9347C659.805 50.8949 659.53 50.875 659.28 50.875C658.746 50.875 658.268 50.9915 657.848 51.2244C657.433 51.4517 657.104 51.7699 656.859 52.179C656.621 52.5881 656.501 53.0597 656.501 53.5938V61H652.871ZM675.209 47.9091V50.6364H667.325V47.9091H675.209ZM669.115 44.7727H672.746V56.9773C672.746 57.3125 672.797 57.5739 672.899 57.7614C673.001 57.9432 673.143 58.071 673.325 58.1449C673.513 58.2187 673.729 58.2557 673.973 58.2557C674.143 58.2557 674.314 58.2415 674.484 58.2131C674.655 58.179 674.786 58.1534 674.876 58.1364L675.447 60.8381C675.266 60.8949 675.01 60.9602 674.68 61.0341C674.351 61.1136 673.95 61.1619 673.479 61.179C672.604 61.2131 671.837 61.0966 671.178 60.8295C670.524 60.5625 670.016 60.1477 669.652 59.5852C669.288 59.0227 669.109 58.3125 669.115 57.4545V44.7727ZM683.348 61.2557C682.024 61.2557 680.879 60.9744 679.913 60.4119C678.953 59.8437 678.212 59.054 677.689 58.0426C677.166 57.0256 676.905 55.8466 676.905 54.5057C676.905 53.1534 677.166 51.9716 677.689 50.9602C678.212 49.9432 678.953 49.1534 679.913 48.5909C680.879 48.0227 682.024 47.7386 683.348 47.7386C684.672 47.7386 685.814 48.0227 686.774 48.5909C687.74 49.1534 688.484 49.9432 689.007 50.9602C689.53 51.9716 689.791 53.1534 689.791 54.5057C689.791 55.8466 689.53 57.0256 689.007 58.0426C688.484 59.054 687.74 59.8437 686.774 60.4119C685.814 60.9744 684.672 61.2557 683.348 61.2557ZM683.365 58.4432C683.967 58.4432 684.47 58.2727 684.874 57.9318C685.277 57.5852 685.581 57.1136 685.786 56.517C685.996 55.9205 686.101 55.2415 686.101 54.4801C686.101 53.7188 685.996 53.0398 685.786 52.4432C685.581 51.8466 685.277 51.375 684.874 51.0284C684.47 50.6818 683.967 50.5085 683.365 50.5085C682.757 50.5085 682.246 50.6818 681.831 51.0284C681.422 51.375 681.112 51.8466 680.902 52.4432C680.697 53.0398 680.595 53.7188 680.595 54.4801C680.595 55.2415 680.697 55.9205 680.902 56.517C681.112 57.1136 681.422 57.5852 681.831 57.9318C682.246 58.2727 682.757 58.4432 683.365 58.4432ZM698.067 61.2557C696.743 61.2557 695.598 60.9744 694.632 60.4119C693.672 59.8437 692.93 59.054 692.408 58.0426C691.885 57.0256 691.624 55.8466 691.624 54.5057C691.624 53.1534 691.885 51.9716 692.408 50.9602C692.93 49.9432 693.672 49.1534 694.632 48.5909C695.598 48.0227 696.743 47.7386 698.067 47.7386C699.391 47.7386 700.533 48.0227 701.493 48.5909C702.459 49.1534 703.203 49.9432 703.726 50.9602C704.249 51.9716 704.51 53.1534 704.51 54.5057C704.51 55.8466 704.249 57.0256 703.726 58.0426C703.203 59.054 702.459 59.8437 701.493 60.4119C700.533 60.9744 699.391 61.2557 698.067 61.2557ZM698.084 58.4432C698.686 58.4432 699.189 58.2727 699.592 57.9318C699.996 57.5852 700.3 57.1136 700.504 56.517C700.714 55.9205 700.82 55.2415 700.82 54.4801C700.82 53.7188 700.714 53.0398 700.504 52.4432C700.3 51.8466 699.996 51.375 699.592 51.0284C699.189 50.6818 698.686 50.5085 698.084 50.5085C697.476 50.5085 696.964 50.6818 696.55 51.0284C696.141 51.375 695.831 51.8466 695.621 52.4432C695.416 53.0398 695.314 53.7188 695.314 54.4801C695.314 55.2415 695.416 55.9205 695.621 56.517C695.831 57.1136 696.141 57.5852 696.55 57.9318C696.964 58.2727 697.476 58.4432 698.084 58.4432ZM710.501 43.5455V61H706.871V43.5455H710.501ZM724.302 51.642L720.978 51.8466C720.921 51.5625 720.799 51.3068 720.612 51.0795C720.424 50.8466 720.177 50.6619 719.87 50.5256C719.569 50.3835 719.208 50.3125 718.788 50.3125C718.225 50.3125 717.751 50.4318 717.364 50.6705C716.978 50.9034 716.785 51.2159 716.785 51.608C716.785 51.9205 716.91 52.1847 717.16 52.4006C717.41 52.6165 717.839 52.7898 718.447 52.9205L720.816 53.3977C722.089 53.6591 723.038 54.0795 723.663 54.6591C724.288 55.2386 724.6 56 724.6 56.9432C724.6 57.8011 724.347 58.554 723.842 59.2017C723.342 59.8494 722.654 60.3551 721.779 60.7188C720.91 61.0767 719.907 61.2557 718.771 61.2557C717.038 61.2557 715.657 60.8949 714.629 60.1733C713.606 59.446 713.006 58.4574 712.83 57.2074L716.401 57.0199C716.509 57.5483 716.771 57.9517 717.185 58.2301C717.6 58.5028 718.131 58.6392 718.779 58.6392C719.415 58.6392 719.927 58.517 720.313 58.2727C720.705 58.0227 720.904 57.7017 720.91 57.3097C720.904 56.9801 720.765 56.7102 720.492 56.5C720.219 56.2841 719.799 56.1193 719.231 56.0057L716.964 55.554C715.685 55.2983 714.734 54.8551 714.109 54.2244C713.489 53.5937 713.18 52.7898 713.18 51.8125C713.18 50.9716 713.407 50.2472 713.862 49.6392C714.322 49.0312 714.967 48.5625 715.796 48.233C716.631 47.9034 717.609 47.7386 718.728 47.7386C720.381 47.7386 721.683 48.0881 722.631 48.7869C723.586 49.4858 724.143 50.4375 724.302 51.642ZM29.0795 82.4318V90H25.4489V72.5455H28.9773V79.2188H29.1307C29.4261 78.446 29.9034 77.8409 30.5625 77.4034C31.2216 76.9602 32.0483 76.7386 33.0426 76.7386C33.9517 76.7386 34.7443 76.9375 35.4205 77.3352C36.1023 77.7273 36.6307 78.2926 37.0057 79.0312C37.3864 79.7642 37.5739 80.642 37.5682 81.6648V90H33.9375V82.3125C33.9432 81.5057 33.7386 80.8778 33.3239 80.429C32.9148 79.9801 32.3409 79.7557 31.6023 79.7557C31.108 79.7557 30.6705 79.8608 30.2898 80.071C29.9148 80.2812 29.6193 80.5881 29.4034 80.9915C29.1932 81.3892 29.0852 81.8693 29.0795 82.4318ZM44.1584 90.2472C43.3232 90.2472 42.5788 90.1023 41.9254 89.8125C41.272 89.517 40.755 89.0824 40.3743 88.5085C39.9993 87.929 39.8118 87.2074 39.8118 86.3438C39.8118 85.6165 39.9453 85.0057 40.2124 84.5114C40.4794 84.017 40.843 83.6193 41.3033 83.3182C41.7635 83.017 42.2862 82.7898 42.8714 82.6364C43.4624 82.483 44.0817 82.375 44.7294 82.3125C45.4908 82.233 46.1044 82.1591 46.5703 82.0909C47.0362 82.017 47.3743 81.9091 47.5845 81.767C47.7947 81.625 47.8999 81.4148 47.8999 81.1364V81.0852C47.8999 80.5455 47.7294 80.1278 47.3885 79.8324C47.0533 79.5369 46.576 79.3892 45.9567 79.3892C45.3033 79.3892 44.7834 79.5341 44.397 79.8239C44.0107 80.108 43.755 80.4659 43.63 80.8977L40.272 80.625C40.4425 79.8295 40.7777 79.142 41.2777 78.5625C41.7777 77.9773 42.4226 77.5284 43.2124 77.2159C44.0078 76.8977 44.9283 76.7386 45.9737 76.7386C46.701 76.7386 47.397 76.8239 48.0618 76.9943C48.7322 77.1648 49.326 77.429 49.843 77.7869C50.3658 78.1449 50.7777 78.6051 51.0788 79.1676C51.38 79.7244 51.5305 80.392 51.5305 81.1705V90H48.0874V88.1847H47.9851C47.7749 88.5938 47.4936 88.9545 47.1413 89.267C46.7891 89.5739 46.3658 89.8153 45.8714 89.9915C45.3771 90.1619 44.8061 90.2472 44.1584 90.2472ZM45.1982 87.7415C45.7322 87.7415 46.2038 87.6364 46.6129 87.4261C47.022 87.2102 47.343 86.9205 47.576 86.5568C47.8089 86.1932 47.9254 85.7812 47.9254 85.321V83.9318C47.8118 84.0057 47.6555 84.0739 47.4567 84.1364C47.2635 84.1932 47.0447 84.2472 46.8004 84.2983C46.5561 84.3437 46.3118 84.3864 46.0675 84.4261C45.8232 84.4602 45.6016 84.4915 45.4027 84.5199C44.9766 84.5824 44.6044 84.6818 44.2862 84.8182C43.968 84.9545 43.7209 85.1392 43.5447 85.3722C43.3686 85.5994 43.2805 85.8835 43.2805 86.2244C43.2805 86.7188 43.4595 87.0966 43.8175 87.358C44.1811 87.6136 44.6413 87.7415 45.1982 87.7415ZM66.0831 76.9091L61.5064 90H57.4155L52.8388 76.9091H56.674L59.3928 86.2756H59.5291L62.2393 76.9091H66.0831ZM73.4851 90.2557C72.1385 90.2557 70.9794 89.983 70.0078 89.4375C69.0419 88.8864 68.2976 88.108 67.7749 87.1023C67.2521 86.0909 66.9908 84.8949 66.9908 83.5142C66.9908 82.1676 67.2521 80.9858 67.7749 79.9688C68.2976 78.9517 69.0334 78.1591 69.9822 77.5909C70.9368 77.0227 72.0561 76.7386 73.3402 76.7386C74.2038 76.7386 75.0078 76.8778 75.7521 77.1562C76.5021 77.429 77.1555 77.8409 77.7124 78.392C78.2749 78.9432 78.7124 79.6364 79.0249 80.4716C79.3374 81.3011 79.4936 82.2727 79.4936 83.3864V84.3835H68.4396V82.1335H76.076C76.076 81.6108 75.9624 81.1477 75.7351 80.7443C75.5078 80.3409 75.1925 80.0256 74.7891 79.7983C74.3913 79.5653 73.9283 79.4489 73.3999 79.4489C72.8487 79.4489 72.3601 79.5767 71.9339 79.8324C71.5135 80.0824 71.1839 80.4205 70.9453 80.8466C70.7067 81.267 70.5845 81.7358 70.5788 82.2528V84.392C70.5788 85.0398 70.6982 85.5994 70.9368 86.071C71.1811 86.5426 71.5249 86.9062 71.968 87.1619C72.4112 87.4176 72.9368 87.5455 73.5447 87.5455C73.9482 87.5455 74.3175 87.4886 74.6527 87.375C74.9879 87.2614 75.2749 87.0909 75.5135 86.8636C75.7521 86.6364 75.9339 86.358 76.0589 86.0284L79.4169 86.25C79.2464 87.0568 78.897 87.7614 78.3686 88.3636C77.8459 88.9602 77.1697 89.4261 76.3402 89.7614C75.5163 90.0909 74.5646 90.2557 73.4851 90.2557ZM89.6591 94.9091C89.1989 94.9091 88.767 94.8722 88.3636 94.7983C87.9659 94.7301 87.6364 94.642 87.375 94.5341L88.1932 91.8239C88.6193 91.9545 89.0028 92.0256 89.3438 92.0369C89.6903 92.0483 89.9886 91.9688 90.2386 91.7983C90.4943 91.6278 90.7017 91.3381 90.8608 90.929L91.0739 90.375L86.3778 76.9091H90.196L92.9062 86.5227H93.0426L95.7784 76.9091H99.6222L94.5341 91.4148C94.2898 92.1193 93.9574 92.733 93.5369 93.2557C93.1222 93.7841 92.5966 94.1903 91.9602 94.4744C91.3239 94.7642 90.5568 94.9091 89.6591 94.9091ZM106.973 90.2557C105.649 90.2557 104.504 89.9744 103.538 89.4119C102.578 88.8437 101.837 88.054 101.314 87.0426C100.791 86.0256 100.53 84.8466 100.53 83.5057C100.53 82.1534 100.791 80.9716 101.314 79.9602C101.837 78.9432 102.578 78.1534 103.538 77.5909C104.504 77.0227 105.649 76.7386 106.973 76.7386C108.297 76.7386 109.439 77.0227 110.399 77.5909C111.365 78.1534 112.109 78.9432 112.632 79.9602C113.155 80.9716 113.416 82.1534 113.416 83.5057C113.416 84.8466 113.155 86.0256 112.632 87.0426C112.109 88.054 111.365 88.8437 110.399 89.4119C109.439 89.9744 108.297 90.2557 106.973 90.2557ZM106.99 87.4432C107.592 87.4432 108.095 87.2727 108.499 86.9318C108.902 86.5852 109.206 86.1136 109.411 85.517C109.621 84.9205 109.726 84.2415 109.726 83.4801C109.726 82.7188 109.621 82.0398 109.411 81.4432C109.206 80.8466 108.902 80.375 108.499 80.0284C108.095 79.6818 107.592 79.5085 106.99 79.5085C106.382 79.5085 105.871 79.6818 105.456 80.0284C105.047 80.375 104.737 80.8466 104.527 81.4432C104.322 82.0398 104.22 82.7188 104.22 83.4801C104.22 84.2415 104.322 84.9205 104.527 85.517C104.737 86.1136 105.047 86.5852 105.456 86.9318C105.871 87.2727 106.382 87.4432 106.99 87.4432ZM124.172 84.4261V76.9091H127.803V90H124.317V87.6222H124.18C123.885 88.3892 123.393 89.0057 122.706 89.4716C122.024 89.9375 121.192 90.1705 120.209 90.1705C119.334 90.1705 118.564 89.9716 117.899 89.5739C117.234 89.1761 116.714 88.6108 116.339 87.8778C115.97 87.1449 115.783 86.267 115.777 85.2443V76.9091H119.408V84.5966C119.413 85.3693 119.621 85.9801 120.03 86.429C120.439 86.8778 120.987 87.1023 121.675 87.1023C122.112 87.1023 122.521 87.0028 122.902 86.804C123.283 86.5994 123.589 86.2983 123.822 85.9006C124.061 85.5028 124.178 85.0114 124.172 84.4261ZM144.656 84.4261V76.9091H148.287V90H144.801V87.6222H144.665C144.369 88.3892 143.878 89.0057 143.19 89.4716C142.509 89.9375 141.676 90.1705 140.693 90.1705C139.818 90.1705 139.048 89.9716 138.384 89.5739C137.719 89.1761 137.199 88.6108 136.824 87.8778C136.455 87.1449 136.267 86.267 136.261 85.2443V76.9091H139.892V84.5966C139.898 85.3693 140.105 85.9801 140.514 86.429C140.923 86.8778 141.472 87.1023 142.159 87.1023C142.597 87.1023 143.006 87.0028 143.386 86.804C143.767 86.5994 144.074 86.2983 144.307 85.9006C144.545 85.5028 144.662 85.0114 144.656 84.4261ZM162.083 80.642L158.759 80.8466C158.702 80.5625 158.58 80.3068 158.393 80.0795C158.205 79.8466 157.958 79.6619 157.651 79.5256C157.35 79.3835 156.989 79.3125 156.569 79.3125C156.006 79.3125 155.532 79.4318 155.146 79.6705C154.759 79.9034 154.566 80.2159 154.566 80.608C154.566 80.9205 154.691 81.1847 154.941 81.4006C155.191 81.6165 155.62 81.7898 156.228 81.9205L158.597 82.3977C159.87 82.6591 160.819 83.0795 161.444 83.6591C162.069 84.2386 162.381 85 162.381 85.9432C162.381 86.8011 162.129 87.554 161.623 88.2017C161.123 88.8494 160.435 89.3551 159.56 89.7188C158.691 90.0767 157.688 90.2557 156.552 90.2557C154.819 90.2557 153.438 89.8949 152.41 89.1733C151.387 88.446 150.788 87.4574 150.612 86.2074L154.183 86.0199C154.29 86.5483 154.552 86.9517 154.967 87.2301C155.381 87.5028 155.913 87.6392 156.56 87.6392C157.197 87.6392 157.708 87.517 158.094 87.2727C158.487 87.0227 158.685 86.7017 158.691 86.3097C158.685 85.9801 158.546 85.7102 158.273 85.5C158.001 85.2841 157.58 85.1193 157.012 85.0057L154.745 84.554C153.467 84.2983 152.515 83.8551 151.89 83.2244C151.271 82.5937 150.961 81.7898 150.961 80.8125C150.961 79.9716 151.188 79.2472 151.643 78.6392C152.103 78.0312 152.748 77.5625 153.577 77.233C154.413 76.9034 155.39 76.7386 156.509 76.7386C158.163 76.7386 159.464 77.0881 160.413 77.7869C161.367 78.4858 161.924 79.4375 162.083 80.642ZM170.634 90.2557C169.287 90.2557 168.128 89.983 167.156 89.4375C166.19 88.8864 165.446 88.108 164.923 87.1023C164.401 86.0909 164.139 84.8949 164.139 83.5142C164.139 82.1676 164.401 80.9858 164.923 79.9688C165.446 78.9517 166.182 78.1591 167.131 77.5909C168.085 77.0227 169.205 76.7386 170.489 76.7386C171.352 76.7386 172.156 76.8778 172.901 77.1562C173.651 77.429 174.304 77.8409 174.861 78.392C175.423 78.9432 175.861 79.6364 176.173 80.4716C176.486 81.3011 176.642 82.2727 176.642 83.3864V84.3835H165.588V82.1335H173.224C173.224 81.6108 173.111 81.1477 172.884 80.7443C172.656 80.3409 172.341 80.0256 171.938 79.7983C171.54 79.5653 171.077 79.4489 170.548 79.4489C169.997 79.4489 169.509 79.5767 169.082 79.8324C168.662 80.0824 168.332 80.4205 168.094 80.8466C167.855 81.267 167.733 81.7358 167.727 82.2528V84.392C167.727 85.0398 167.847 85.5994 168.085 86.071C168.33 86.5426 168.673 86.9062 169.116 87.1619C169.56 87.4176 170.085 87.5455 170.693 87.5455C171.097 87.5455 171.466 87.4886 171.801 87.375C172.136 87.2614 172.423 87.0909 172.662 86.8636C172.901 86.6364 173.082 86.358 173.207 86.0284L176.565 86.25C176.395 87.0568 176.045 87.7614 175.517 88.3636C174.994 88.9602 174.318 89.4261 173.489 89.7614C172.665 90.0909 171.713 90.2557 170.634 90.2557ZM183.835 90.2131C182.841 90.2131 181.94 89.9574 181.134 89.446C180.332 88.929 179.696 88.1705 179.224 87.1705C178.759 86.1648 178.526 84.9318 178.526 83.4716C178.526 81.9716 178.767 80.7244 179.25 79.7301C179.733 78.7301 180.375 77.983 181.176 77.4886C181.983 76.9886 182.866 76.7386 183.827 76.7386C184.56 76.7386 185.17 76.8636 185.659 77.1136C186.153 77.358 186.551 77.6648 186.852 78.0341C187.159 78.3977 187.392 78.7557 187.551 79.108H187.662V72.5455H191.284V90H187.705V87.9034H187.551C187.381 88.267 187.139 88.6278 186.827 88.9858C186.52 89.3381 186.119 89.6307 185.625 89.8636C185.136 90.0966 184.54 90.2131 183.835 90.2131ZM184.986 87.3239C185.571 87.3239 186.065 87.1648 186.469 86.8466C186.878 86.5227 187.19 86.071 187.406 85.4915C187.628 84.9119 187.739 84.233 187.739 83.4545C187.739 82.6761 187.631 82 187.415 81.4261C187.199 80.8523 186.886 80.4091 186.477 80.0966C186.068 79.7841 185.571 79.6278 184.986 79.6278C184.389 79.6278 183.886 79.7898 183.477 80.1136C183.068 80.4375 182.759 80.8864 182.548 81.4602C182.338 82.0341 182.233 82.6989 182.233 83.4545C182.233 84.2159 182.338 84.8892 182.548 85.4744C182.764 86.054 183.074 86.5085 183.477 86.8381C183.886 87.1619 184.389 87.3239 184.986 87.3239ZM206.787 76.9091V79.6364H198.903V76.9091H206.787ZM200.693 73.7727H204.324V85.9773C204.324 86.3125 204.375 86.5739 204.477 86.7614C204.58 86.9432 204.722 87.071 204.903 87.1449C205.091 87.2187 205.307 87.2557 205.551 87.2557C205.722 87.2557 205.892 87.2415 206.062 87.2131C206.233 87.179 206.364 87.1534 206.455 87.1364L207.026 89.8381C206.844 89.8949 206.588 89.9602 206.259 90.0341C205.929 90.1136 205.528 90.1619 205.057 90.179C204.182 90.2131 203.415 90.0966 202.756 89.8295C202.102 89.5625 201.594 89.1477 201.23 88.5852C200.866 88.0227 200.688 87.3125 200.693 86.4545V73.7727ZM214.926 90.2557C213.602 90.2557 212.457 89.9744 211.491 89.4119C210.531 88.8437 209.79 88.054 209.267 87.0426C208.744 86.0256 208.483 84.8466 208.483 83.5057C208.483 82.1534 208.744 80.9716 209.267 79.9602C209.79 78.9432 210.531 78.1534 211.491 77.5909C212.457 77.0227 213.602 76.7386 214.926 76.7386C216.25 76.7386 217.392 77.0227 218.352 77.5909C219.318 78.1534 220.062 78.9432 220.585 79.9602C221.108 80.9716 221.369 82.1534 221.369 83.5057C221.369 84.8466 221.108 86.0256 220.585 87.0426C220.062 88.054 219.318 88.8437 218.352 89.4119C217.392 89.9744 216.25 90.2557 214.926 90.2557ZM214.943 87.4432C215.545 87.4432 216.048 87.2727 216.452 86.9318C216.855 86.5852 217.159 86.1136 217.364 85.517C217.574 84.9205 217.679 84.2415 217.679 83.4801C217.679 82.7188 217.574 82.0398 217.364 81.4432C217.159 80.8466 216.855 80.375 216.452 80.0284C216.048 79.6818 215.545 79.5085 214.943 79.5085C214.335 79.5085 213.824 79.6818 213.409 80.0284C213 80.375 212.69 80.8466 212.48 81.4432C212.276 82.0398 212.173 82.7188 212.173 83.4801C212.173 84.2415 212.276 84.9205 212.48 85.517C212.69 86.1136 213 86.5852 213.409 86.9318C213.824 87.2727 214.335 87.4432 214.943 87.4432ZM232.915 72.5455V90H229.285V72.5455H232.915ZM241.79 90.2557C240.443 90.2557 239.284 89.983 238.312 89.4375C237.347 88.8864 236.602 88.108 236.08 87.1023C235.557 86.0909 235.295 84.8949 235.295 83.5142C235.295 82.1676 235.557 80.9858 236.08 79.9688C236.602 78.9517 237.338 78.1591 238.287 77.5909C239.241 77.0227 240.361 76.7386 241.645 76.7386C242.509 76.7386 243.313 76.8778 244.057 77.1562C244.807 77.429 245.46 77.8409 246.017 78.392C246.58 78.9432 247.017 79.6364 247.33 80.4716C247.642 81.3011 247.798 82.2727 247.798 83.3864V84.3835H236.744V82.1335H244.381C244.381 81.6108 244.267 81.1477 244.04 80.7443C243.813 80.3409 243.497 80.0256 243.094 79.7983C242.696 79.5653 242.233 79.4489 241.705 79.4489C241.153 79.4489 240.665 79.5767 240.239 79.8324C239.818 80.0824 239.489 80.4205 239.25 80.8466C239.011 81.267 238.889 81.7358 238.884 82.2528V84.392C238.884 85.0398 239.003 85.5994 239.241 86.071C239.486 86.5426 239.83 86.9062 240.273 87.1619C240.716 87.4176 241.241 87.5455 241.849 87.5455C242.253 87.5455 242.622 87.4886 242.957 87.375C243.293 87.2614 243.58 87.0909 243.818 86.8636C244.057 86.6364 244.239 86.358 244.364 86.0284L247.722 86.25C247.551 87.0568 247.202 87.7614 246.673 88.3636C246.151 88.9602 245.474 89.4261 244.645 89.7614C243.821 90.0909 242.869 90.2557 241.79 90.2557ZM253.901 90.2472C253.065 90.2472 252.321 90.1023 251.668 89.8125C251.014 89.517 250.497 89.0824 250.116 88.5085C249.741 87.929 249.554 87.2074 249.554 86.3438C249.554 85.6165 249.688 85.0057 249.955 84.5114C250.222 84.017 250.585 83.6193 251.045 83.3182C251.506 83.017 252.028 82.7898 252.614 82.6364C253.205 82.483 253.824 82.375 254.472 82.3125C255.233 82.233 255.847 82.1591 256.312 82.0909C256.778 82.017 257.116 81.9091 257.327 81.767C257.537 81.625 257.642 81.4148 257.642 81.1364V81.0852C257.642 80.5455 257.472 80.1278 257.131 79.8324C256.795 79.5369 256.318 79.3892 255.699 79.3892C255.045 79.3892 254.526 79.5341 254.139 79.8239C253.753 80.108 253.497 80.4659 253.372 80.8977L250.014 80.625C250.185 79.8295 250.52 79.142 251.02 78.5625C251.52 77.9773 252.165 77.5284 252.955 77.2159C253.75 76.8977 254.67 76.7386 255.716 76.7386C256.443 76.7386 257.139 76.8239 257.804 76.9943C258.474 77.1648 259.068 77.429 259.585 77.7869C260.108 78.1449 260.52 78.6051 260.821 79.1676C261.122 79.7244 261.273 80.392 261.273 81.1705V90H257.83V88.1847H257.727C257.517 88.5938 257.236 88.9545 256.884 89.267C256.531 89.5739 256.108 89.8153 255.614 89.9915C255.119 90.1619 254.548 90.2472 253.901 90.2472ZM254.94 87.7415C255.474 87.7415 255.946 87.6364 256.355 87.4261C256.764 87.2102 257.085 86.9205 257.318 86.5568C257.551 86.1932 257.668 85.7812 257.668 85.321V83.9318C257.554 84.0057 257.398 84.0739 257.199 84.1364C257.006 84.1932 256.787 84.2472 256.543 84.2983C256.298 84.3437 256.054 84.3864 255.81 84.4261C255.565 84.4602 255.344 84.4915 255.145 84.5199C254.719 84.5824 254.347 84.6818 254.028 84.8182C253.71 84.9545 253.463 85.1392 253.287 85.3722C253.111 85.5994 253.023 85.8835 253.023 86.2244C253.023 86.7188 253.202 87.0966 253.56 87.358C253.923 87.6136 254.384 87.7415 254.94 87.7415ZM264.089 90V76.9091H267.609V79.1932H267.746C267.984 78.3807 268.385 77.767 268.947 77.3523C269.51 76.9318 270.158 76.7216 270.891 76.7216C271.072 76.7216 271.268 76.733 271.479 76.7557C271.689 76.7784 271.874 76.8097 272.033 76.8494V80.071C271.862 80.0199 271.626 79.9744 271.325 79.9347C271.024 79.8949 270.749 79.875 270.499 79.875C269.964 79.875 269.487 79.9915 269.067 80.2244C268.652 80.4517 268.322 80.7699 268.078 81.179C267.839 81.5881 267.72 82.0597 267.72 82.5938V90H264.089ZM277.54 82.4318V90H273.91V76.9091H277.37V79.2188H277.523C277.813 78.4574 278.299 77.8551 278.981 77.4119C279.663 76.9631 280.489 76.7386 281.461 76.7386C282.37 76.7386 283.163 76.9375 283.839 77.3352C284.515 77.733 285.04 78.3011 285.415 79.0398C285.79 79.7727 285.978 80.6477 285.978 81.6648V90H282.347V82.3125C282.353 81.5114 282.148 80.8864 281.734 80.4375C281.319 79.983 280.748 79.7557 280.021 79.7557C279.532 79.7557 279.1 79.8608 278.725 80.071C278.356 80.2812 278.066 80.5881 277.856 80.9915C277.651 81.3892 277.546 81.8693 277.54 82.4318ZM298.127 90.2472C297.292 90.2472 296.548 90.1023 295.894 89.8125C295.241 89.517 294.724 89.0824 294.343 88.5085C293.968 87.929 293.781 87.2074 293.781 86.3438C293.781 85.6165 293.914 85.0057 294.181 84.5114C294.448 84.017 294.812 83.6193 295.272 83.3182C295.732 83.017 296.255 82.7898 296.84 82.6364C297.431 82.483 298.05 82.375 298.698 82.3125C299.46 82.233 300.073 82.1591 300.539 82.0909C301.005 82.017 301.343 81.9091 301.553 81.767C301.763 81.625 301.869 81.4148 301.869 81.1364V81.0852C301.869 80.5455 301.698 80.1278 301.357 79.8324C301.022 79.5369 300.545 79.3892 299.925 79.3892C299.272 79.3892 298.752 79.5341 298.366 79.8239C297.979 80.108 297.724 80.4659 297.599 80.8977L294.241 80.625C294.411 79.8295 294.746 79.142 295.246 78.5625C295.746 77.9773 296.391 77.5284 297.181 77.2159C297.977 76.8977 298.897 76.7386 299.942 76.7386C300.67 76.7386 301.366 76.8239 302.031 76.9943C302.701 77.1648 303.295 77.429 303.812 77.7869C304.335 78.1449 304.746 78.6051 305.048 79.1676C305.349 79.7244 305.499 80.392 305.499 81.1705V90H302.056V88.1847H301.954C301.744 88.5938 301.462 88.9545 301.11 89.267C300.758 89.5739 300.335 89.8153 299.84 89.9915C299.346 90.1619 298.775 90.2472 298.127 90.2472ZM299.167 87.7415C299.701 87.7415 300.173 87.6364 300.582 87.4261C300.991 87.2102 301.312 86.9205 301.545 86.5568C301.778 86.1932 301.894 85.7812 301.894 85.321V83.9318C301.781 84.0057 301.624 84.0739 301.425 84.1364C301.232 84.1932 301.013 84.2472 300.769 84.2983C300.525 84.3437 300.281 84.3864 300.036 84.4261C299.792 84.4602 299.57 84.4915 299.371 84.5199C298.945 84.5824 298.573 84.6818 298.255 84.8182C297.937 84.9545 297.69 85.1392 297.513 85.3722C297.337 85.5994 297.249 85.8835 297.249 86.2244C297.249 86.7188 297.428 87.0966 297.786 87.358C298.15 87.6136 298.61 87.7415 299.167 87.7415ZM317.501 82.4318V90H313.871V76.9091H317.331V79.2188H317.484C317.774 78.4574 318.26 77.8551 318.942 77.4119C319.624 76.9631 320.45 76.7386 321.422 76.7386C322.331 76.7386 323.124 76.9375 323.8 77.3352C324.476 77.733 325.001 78.3011 325.376 79.0398C325.751 79.7727 325.939 80.6477 325.939 81.6648V90H322.308V82.3125C322.314 81.5114 322.109 80.8864 321.695 80.4375C321.28 79.983 320.709 79.7557 319.982 79.7557C319.493 79.7557 319.061 79.8608 318.686 80.071C318.317 80.2812 318.027 80.5881 317.817 80.9915C317.612 81.3892 317.507 81.8693 317.501 82.4318ZM334.766 90.2557C333.42 90.2557 332.261 89.983 331.289 89.4375C330.323 88.8864 329.579 88.108 329.056 87.1023C328.533 86.0909 328.272 84.8949 328.272 83.5142C328.272 82.1676 328.533 80.9858 329.056 79.9688C329.579 78.9517 330.315 78.1591 331.263 77.5909C332.218 77.0227 333.337 76.7386 334.621 76.7386C335.485 76.7386 336.289 76.8778 337.033 77.1562C337.783 77.429 338.437 77.8409 338.994 78.392C339.556 78.9432 339.994 79.6364 340.306 80.4716C340.619 81.3011 340.775 82.2727 340.775 83.3864V84.3835H329.721V82.1335H337.357C337.357 81.6108 337.244 81.1477 337.016 80.7443C336.789 80.3409 336.474 80.0256 336.07 79.7983C335.673 79.5653 335.21 79.4489 334.681 79.4489C334.13 79.4489 333.641 79.5767 333.215 79.8324C332.795 80.0824 332.465 80.4205 332.227 80.8466C331.988 81.267 331.866 81.7358 331.86 82.2528V84.392C331.86 85.0398 331.979 85.5994 332.218 86.071C332.462 86.5426 332.806 86.9062 333.249 87.1619C333.692 87.4176 334.218 87.5455 334.826 87.5455C335.229 87.5455 335.599 87.4886 335.934 87.375C336.269 87.2614 336.556 87.0909 336.795 86.8636C337.033 86.6364 337.215 86.358 337.34 86.0284L340.698 86.25C340.528 87.0568 340.178 87.7614 339.65 88.3636C339.127 88.9602 338.451 89.4261 337.621 89.7614C336.798 90.0909 335.846 90.2557 334.766 90.2557ZM345.633 90L342.07 76.9091H345.744L347.772 85.7045H347.891L350.005 76.9091H353.61L355.758 85.6534H355.869L357.863 76.9091H361.528L357.974 90H354.13L351.88 81.767H351.718L349.468 90H345.633ZM372.65 72.5455V90H369.019V72.5455H372.65ZM379.291 90.2472C378.456 90.2472 377.712 90.1023 377.058 89.8125C376.405 89.517 375.888 89.0824 375.507 88.5085C375.132 87.929 374.945 87.2074 374.945 86.3438C374.945 85.6165 375.078 85.0057 375.345 84.5114C375.612 84.017 375.976 83.6193 376.436 83.3182C376.896 83.017 377.419 82.7898 378.004 82.6364C378.595 82.483 379.214 82.375 379.862 82.3125C380.624 82.233 381.237 82.1591 381.703 82.0909C382.169 82.017 382.507 81.9091 382.717 81.767C382.928 81.625 383.033 81.4148 383.033 81.1364V81.0852C383.033 80.5455 382.862 80.1278 382.521 79.8324C382.186 79.5369 381.709 79.3892 381.089 79.3892C380.436 79.3892 379.916 79.5341 379.53 79.8239C379.143 80.108 378.888 80.4659 378.763 80.8977L375.405 80.625C375.575 79.8295 375.911 79.142 376.411 78.5625C376.911 77.9773 377.555 77.5284 378.345 77.2159C379.141 76.8977 380.061 76.7386 381.107 76.7386C381.834 76.7386 382.53 76.8239 383.195 76.9943C383.865 77.1648 384.459 77.429 384.976 77.7869C385.499 78.1449 385.911 78.6051 386.212 79.1676C386.513 79.7244 386.663 80.392 386.663 81.1705V90H383.22V88.1847H383.118C382.908 88.5938 382.626 88.9545 382.274 89.267C381.922 89.5739 381.499 89.8153 381.004 89.9915C380.51 90.1619 379.939 90.2472 379.291 90.2472ZM380.331 87.7415C380.865 87.7415 381.337 87.6364 381.746 87.4261C382.155 87.2102 382.476 86.9205 382.709 86.5568C382.942 86.1932 383.058 85.7812 383.058 85.321V83.9318C382.945 84.0057 382.788 84.0739 382.589 84.1364C382.396 84.1932 382.178 84.2472 381.933 84.2983C381.689 84.3437 381.445 84.3864 381.2 84.4261C380.956 84.4602 380.734 84.4915 380.536 84.5199C380.109 84.5824 379.737 84.6818 379.419 84.8182C379.101 84.9545 378.854 85.1392 378.678 85.3722C378.501 85.5994 378.413 85.8835 378.413 86.2244C378.413 86.7188 378.592 87.0966 378.95 87.358C379.314 87.6136 379.774 87.7415 380.331 87.7415ZM393.111 82.4318V90H389.48V76.9091H392.94V79.2188H393.094C393.384 78.4574 393.869 77.8551 394.551 77.4119C395.233 76.9631 396.06 76.7386 397.031 76.7386C397.94 76.7386 398.733 76.9375 399.409 77.3352C400.085 77.733 400.611 78.3011 400.986 79.0398C401.361 79.7727 401.548 80.6477 401.548 81.6648V90H397.918V82.3125C397.923 81.5114 397.719 80.8864 397.304 80.4375C396.889 79.983 396.318 79.7557 395.591 79.7557C395.102 79.7557 394.67 79.8608 394.295 80.071C393.926 80.2812 393.636 80.5881 393.426 80.9915C393.222 81.3892 393.116 81.8693 393.111 82.4318ZM410.308 95.1818C409.131 95.1818 408.123 95.0199 407.282 94.696C406.447 94.3778 405.782 93.9432 405.288 93.392C404.793 92.8409 404.472 92.2216 404.325 91.5341L407.683 91.0824C407.785 91.3438 407.947 91.5881 408.168 91.8153C408.39 92.0426 408.683 92.2244 409.046 92.3608C409.415 92.5028 409.864 92.5739 410.393 92.5739C411.183 92.5739 411.833 92.3807 412.344 91.9943C412.862 91.6136 413.12 90.9744 413.12 90.0767V87.6818H412.967C412.808 88.0455 412.569 88.3892 412.251 88.7131C411.933 89.0369 411.523 89.3011 411.023 89.5057C410.523 89.7102 409.927 89.8125 409.234 89.8125C408.251 89.8125 407.356 89.5852 406.549 89.1307C405.748 88.6705 405.109 87.9687 404.631 87.0256C404.16 86.0767 403.924 84.8778 403.924 83.429C403.924 81.946 404.165 80.7074 404.648 79.7131C405.131 78.7187 405.773 77.9744 406.575 77.4801C407.381 76.9858 408.265 76.7386 409.225 76.7386C409.958 76.7386 410.572 76.8636 411.066 77.1136C411.56 77.358 411.958 77.6648 412.259 78.0341C412.566 78.3977 412.802 78.7557 412.967 79.108H413.103V76.9091H416.708V90.1278C416.708 91.2415 416.435 92.1733 415.89 92.9233C415.344 93.6733 414.589 94.2358 413.623 94.6108C412.663 94.9915 411.558 95.1818 410.308 95.1818ZM410.384 87.0852C410.969 87.0852 411.464 86.9403 411.867 86.6506C412.276 86.3551 412.589 85.9347 412.805 85.3892C413.026 84.8381 413.137 84.179 413.137 83.4119C413.137 82.6449 413.029 81.9801 412.813 81.4176C412.597 80.8494 412.285 80.4091 411.876 80.0966C411.467 79.7841 410.969 79.6278 410.384 79.6278C409.788 79.6278 409.285 79.7898 408.876 80.1136C408.467 80.4318 408.157 80.875 407.947 81.4432C407.737 82.0114 407.631 82.6676 407.631 83.4119C407.631 84.1676 407.737 84.821 407.947 85.3722C408.163 85.9176 408.472 86.3409 408.876 86.642C409.285 86.9375 409.788 87.0852 410.384 87.0852ZM427.992 84.4261V76.9091H431.623V90H428.137V87.6222H428.001C427.705 88.3892 427.214 89.0057 426.526 89.4716C425.844 89.9375 425.012 90.1705 424.029 90.1705C423.154 90.1705 422.384 89.9716 421.719 89.5739C421.055 89.1761 420.535 88.6108 420.16 87.8778C419.79 87.1449 419.603 86.267 419.597 85.2443V76.9091H423.228V84.5966C423.234 85.3693 423.441 85.9801 423.85 86.429C424.259 86.8778 424.808 87.1023 425.495 87.1023C425.933 87.1023 426.342 87.0028 426.722 86.804C427.103 86.5994 427.41 86.2983 427.643 85.9006C427.881 85.5028 427.998 85.0114 427.992 84.4261ZM438.26 90.2472C437.425 90.2472 436.68 90.1023 436.027 89.8125C435.374 89.517 434.857 89.0824 434.476 88.5085C434.101 87.929 433.913 87.2074 433.913 86.3438C433.913 85.6165 434.047 85.0057 434.314 84.5114C434.581 84.017 434.945 83.6193 435.405 83.3182C435.865 83.017 436.388 82.7898 436.973 82.6364C437.564 82.483 438.183 82.375 438.831 82.3125C439.592 82.233 440.206 82.1591 440.672 82.0909C441.138 82.017 441.476 81.9091 441.686 81.767C441.896 81.625 442.001 81.4148 442.001 81.1364V81.0852C442.001 80.5455 441.831 80.1278 441.49 79.8324C441.155 79.5369 440.678 79.3892 440.058 79.3892C439.405 79.3892 438.885 79.5341 438.499 79.8239C438.112 80.108 437.857 80.4659 437.732 80.8977L434.374 80.625C434.544 79.8295 434.879 79.142 435.379 78.5625C435.879 77.9773 436.524 77.5284 437.314 77.2159C438.109 76.8977 439.03 76.7386 440.075 76.7386C440.803 76.7386 441.499 76.8239 442.163 76.9943C442.834 77.1648 443.428 77.429 443.945 77.7869C444.467 78.1449 444.879 78.6051 445.18 79.1676C445.482 79.7244 445.632 80.392 445.632 81.1705V90H442.189V88.1847H442.087C441.876 88.5938 441.595 88.9545 441.243 89.267C440.891 89.5739 440.467 89.8153 439.973 89.9915C439.479 90.1619 438.908 90.2472 438.26 90.2472ZM439.3 87.7415C439.834 87.7415 440.305 87.6364 440.714 87.4261C441.124 87.2102 441.445 86.9205 441.678 86.5568C441.911 86.1932 442.027 85.7812 442.027 85.321V83.9318C441.913 84.0057 441.757 84.0739 441.558 84.1364C441.365 84.1932 441.146 84.2472 440.902 84.2983C440.658 84.3437 440.413 84.3864 440.169 84.4261C439.925 84.4602 439.703 84.4915 439.504 84.5199C439.078 84.5824 438.706 84.6818 438.388 84.8182C438.07 84.9545 437.822 85.1392 437.646 85.3722C437.47 85.5994 437.382 85.8835 437.382 86.2244C437.382 86.7188 437.561 87.0966 437.919 87.358C438.283 87.6136 438.743 87.7415 439.3 87.7415ZM454.347 95.1818C453.17 95.1818 452.162 95.0199 451.321 94.696C450.486 94.3778 449.821 93.9432 449.327 93.392C448.832 92.8409 448.511 92.2216 448.364 91.5341L451.722 91.0824C451.824 91.3438 451.986 91.5881 452.207 91.8153C452.429 92.0426 452.722 92.2244 453.085 92.3608C453.455 92.5028 453.903 92.5739 454.432 92.5739C455.222 92.5739 455.872 92.3807 456.384 91.9943C456.901 91.6136 457.159 90.9744 457.159 90.0767V87.6818H457.006C456.847 88.0455 456.608 88.3892 456.29 88.7131C455.972 89.0369 455.562 89.3011 455.062 89.5057C454.562 89.7102 453.966 89.8125 453.273 89.8125C452.29 89.8125 451.395 89.5852 450.588 89.1307C449.787 88.6705 449.148 87.9687 448.67 87.0256C448.199 86.0767 447.963 84.8778 447.963 83.429C447.963 81.946 448.205 80.7074 448.688 79.7131C449.17 78.7187 449.813 77.9744 450.614 77.4801C451.42 76.9858 452.304 76.7386 453.264 76.7386C453.997 76.7386 454.611 76.8636 455.105 77.1136C455.599 77.358 455.997 77.6648 456.298 78.0341C456.605 78.3977 456.841 78.7557 457.006 79.108H457.142V76.9091H460.747V90.1278C460.747 91.2415 460.474 92.1733 459.929 92.9233C459.384 93.6733 458.628 94.2358 457.662 94.6108C456.702 94.9915 455.597 95.1818 454.347 95.1818ZM454.423 87.0852C455.009 87.0852 455.503 86.9403 455.906 86.6506C456.315 86.3551 456.628 85.9347 456.844 85.3892C457.065 84.8381 457.176 84.179 457.176 83.4119C457.176 82.6449 457.068 81.9801 456.852 81.4176C456.636 80.8494 456.324 80.4091 455.915 80.0966C455.506 79.7841 455.009 79.6278 454.423 79.6278C453.827 79.6278 453.324 79.7898 452.915 80.1136C452.506 80.4318 452.196 80.875 451.986 81.4432C451.776 82.0114 451.67 82.6676 451.67 83.4119C451.67 84.1676 451.776 84.821 451.986 85.3722C452.202 85.9176 452.511 86.3409 452.915 86.642C453.324 86.9375 453.827 87.0852 454.423 87.0852ZM469.602 90.2557C468.256 90.2557 467.097 89.983 466.125 89.4375C465.159 88.8864 464.415 88.108 463.892 87.1023C463.369 86.0909 463.108 84.8949 463.108 83.5142C463.108 82.1676 463.369 80.9858 463.892 79.9688C464.415 78.9517 465.151 78.1591 466.099 77.5909C467.054 77.0227 468.173 76.7386 469.457 76.7386C470.321 76.7386 471.125 76.8778 471.869 77.1562C472.619 77.429 473.273 77.8409 473.83 78.392C474.392 78.9432 474.83 79.6364 475.142 80.4716C475.455 81.3011 475.611 82.2727 475.611 83.3864V84.3835H464.557V82.1335H472.193C472.193 81.6108 472.08 81.1477 471.852 80.7443C471.625 80.3409 471.31 80.0256 470.906 79.7983C470.509 79.5653 470.045 79.4489 469.517 79.4489C468.966 79.4489 468.477 79.5767 468.051 79.8324C467.631 80.0824 467.301 80.4205 467.062 80.8466C466.824 81.267 466.702 81.7358 466.696 82.2528V84.392C466.696 85.0398 466.815 85.5994 467.054 86.071C467.298 86.5426 467.642 86.9062 468.085 87.1619C468.528 87.4176 469.054 87.5455 469.662 87.5455C470.065 87.5455 470.435 87.4886 470.77 87.375C471.105 87.2614 471.392 87.0909 471.631 86.8636C471.869 86.6364 472.051 86.358 472.176 86.0284L475.534 86.25C475.364 87.0568 475.014 87.7614 474.486 88.3636C473.963 88.9602 473.287 89.4261 472.457 89.7614C471.634 90.0909 470.682 90.2557 469.602 90.2557ZM481.099 84.767V84.4773C481.105 83.483 481.193 82.6903 481.364 82.0994C481.54 81.5085 481.795 81.0312 482.131 80.6676C482.466 80.304 482.869 79.9744 483.341 79.679C483.693 79.4517 484.009 79.2159 484.287 78.9716C484.565 78.7273 484.787 78.4574 484.952 78.1619C485.116 77.8608 485.199 77.5256 485.199 77.1562C485.199 76.7642 485.105 76.4205 484.918 76.125C484.73 75.8295 484.477 75.6023 484.159 75.4432C483.847 75.2841 483.5 75.2045 483.119 75.2045C482.75 75.2045 482.401 75.2869 482.071 75.4517C481.741 75.6108 481.472 75.8494 481.261 76.1676C481.051 76.4801 480.938 76.8693 480.92 77.3352H477.443C477.472 76.1989 477.744 75.2614 478.261 74.5227C478.778 73.7784 479.463 73.2244 480.315 72.8608C481.168 72.4915 482.108 72.3068 483.136 72.3068C484.267 72.3068 485.267 72.4943 486.136 72.8693C487.006 73.2386 487.688 73.7756 488.182 74.4801C488.676 75.1847 488.923 76.0341 488.923 77.0284C488.923 77.6932 488.813 78.2841 488.591 78.8011C488.375 79.3125 488.071 79.767 487.679 80.1648C487.287 80.5568 486.824 80.9119 486.29 81.2301C485.841 81.4972 485.472 81.7756 485.182 82.0653C484.898 82.3551 484.685 82.6903 484.543 83.071C484.406 83.4517 484.335 83.9205 484.33 84.4773V84.767H481.099ZM482.787 90.2216C482.219 90.2216 481.733 90.0227 481.33 89.625C480.932 89.2216 480.736 88.7386 480.741 88.1761C480.736 87.6193 480.932 87.142 481.33 86.7443C481.733 86.3466 482.219 86.1477 482.787 86.1477C483.327 86.1477 483.801 86.3466 484.21 86.7443C484.619 87.142 484.827 87.6193 484.832 88.1761C484.827 88.5511 484.727 88.8949 484.534 89.2074C484.347 89.5142 484.099 89.7614 483.793 89.9489C483.486 90.1307 483.151 90.2216 482.787 90.2216Z" fill="black"/>
<circle cx="402.771" cy="361" r="216" fill="#AAC8C2" stroke="#288071" stroke-width="2"/>
<g filter="url(#filter0_d_2849_44044)">
<path d="M397.771 370V147V146H399.771C441.684 146.389 470.323 152.575 507.771 174C524.435 183.534 533.269 189.585 547.771 202C568.313 223.161 578.416 235.411 591.771 258.5L591.824 258.612C600.158 276.512 604.847 286.582 611.271 305.5C619.447 349.36 621.587 373.695 611.271 415.5C602.873 443.109 597.895 458.345 581.771 478L397.771 370Z" style="mix-blend-mode:color-dodge" shape-rendering="crispEdges"/>
<path d="M397.771 370V147V146H399.771C441.684 146.389 470.323 152.575 507.771 174C524.435 183.534 533.269 189.585 547.771 202C568.313 223.161 578.416 235.411 591.771 258.5L591.824 258.612C600.158 276.512 604.847 286.582 611.271 305.5C619.447 349.36 621.587 373.695 611.271 415.5C602.873 443.109 597.895 458.345 581.771 478L397.771 370Z" stroke="#288071" stroke-width="3" shape-rendering="crispEdges"/>
</g>
<path d="M274.374 418.239C273.658 418.227 272.942 418.091 272.226 417.83C271.51 417.568 270.857 417.128 270.266 416.509C269.675 415.884 269.2 415.04 268.843 413.977C268.485 412.909 268.306 411.568 268.306 409.955C268.306 408.409 268.45 407.04 268.74 405.847C269.03 404.648 269.45 403.639 270.002 402.821C270.553 401.997 271.218 401.372 271.996 400.946C272.78 400.52 273.664 400.307 274.646 400.307C275.624 400.307 276.493 400.503 277.254 400.895C278.021 401.281 278.646 401.821 279.129 402.514C279.612 403.207 279.925 404.006 280.067 404.909H277.987C277.794 404.125 277.419 403.474 276.862 402.957C276.306 402.44 275.567 402.182 274.646 402.182C273.294 402.182 272.229 402.77 271.45 403.946C270.678 405.122 270.289 406.773 270.283 408.898H270.419C270.737 408.415 271.115 408.003 271.553 407.662C271.996 407.315 272.485 407.048 273.019 406.861C273.553 406.673 274.118 406.58 274.715 406.58C275.715 406.58 276.629 406.83 277.459 407.33C278.289 407.824 278.953 408.509 279.453 409.384C279.953 410.253 280.203 411.25 280.203 412.375C280.203 413.455 279.962 414.443 279.479 415.341C278.996 416.233 278.317 416.943 277.442 417.472C276.573 417.994 275.55 418.25 274.374 418.239ZM274.374 416.364C275.09 416.364 275.732 416.185 276.3 415.827C276.874 415.469 277.325 414.989 277.655 414.386C277.99 413.784 278.158 413.114 278.158 412.375C278.158 411.653 277.996 410.997 277.672 410.406C277.354 409.81 276.914 409.335 276.351 408.983C275.794 408.631 275.158 408.455 274.442 408.455C273.902 408.455 273.399 408.562 272.933 408.778C272.468 408.989 272.058 409.278 271.706 409.648C271.36 410.017 271.087 410.44 270.888 410.918C270.689 411.389 270.59 411.886 270.59 412.409C270.59 413.102 270.752 413.75 271.075 414.352C271.405 414.955 271.854 415.44 272.422 415.81C272.996 416.179 273.646 416.364 274.374 416.364ZM284.1 418L291.907 402.557V402.42H282.907V400.545H294.089V402.523L286.316 418H284.1ZM306.164 414.727V413.807C306.164 413.17 306.294 412.588 306.556 412.06C306.823 411.526 307.209 411.099 307.715 410.781C308.226 410.457 308.845 410.295 309.573 410.295C310.311 410.295 310.931 410.457 311.431 410.781C311.931 411.099 312.308 411.526 312.564 412.06C312.82 412.588 312.948 413.17 312.948 413.807V414.727C312.948 415.364 312.817 415.949 312.556 416.483C312.3 417.011 311.919 417.437 311.414 417.761C310.914 418.08 310.3 418.239 309.573 418.239C308.834 418.239 308.212 418.08 307.706 417.761C307.2 417.437 306.817 417.011 306.556 416.483C306.294 415.949 306.164 415.364 306.164 414.727ZM307.902 413.807V414.727C307.902 415.256 308.027 415.73 308.277 416.151C308.527 416.565 308.959 416.773 309.573 416.773C310.169 416.773 310.59 416.565 310.834 416.151C311.084 415.73 311.209 415.256 311.209 414.727V413.807C311.209 413.278 311.09 412.807 310.851 412.392C310.612 411.972 310.186 411.761 309.573 411.761C308.976 411.761 308.547 411.972 308.286 412.392C308.03 412.807 307.902 413.278 307.902 413.807ZM297.47 404.739V403.818C297.47 403.182 297.601 402.599 297.862 402.071C298.129 401.537 298.516 401.111 299.021 400.793C299.533 400.469 300.152 400.307 300.879 400.307C301.618 400.307 302.237 400.469 302.737 400.793C303.237 401.111 303.615 401.537 303.871 402.071C304.127 402.599 304.254 403.182 304.254 403.818V404.739C304.254 405.375 304.124 405.96 303.862 406.494C303.607 407.023 303.226 407.449 302.72 407.773C302.22 408.091 301.607 408.25 300.879 408.25C300.141 408.25 299.519 408.091 299.013 407.773C298.507 407.449 298.124 407.023 297.862 406.494C297.601 405.96 297.47 405.375 297.47 404.739ZM299.209 403.818V404.739C299.209 405.267 299.334 405.741 299.584 406.162C299.834 406.577 300.266 406.784 300.879 406.784C301.476 406.784 301.896 406.577 302.141 406.162C302.391 405.741 302.516 405.267 302.516 404.739V403.818C302.516 403.29 302.396 402.818 302.158 402.403C301.919 401.983 301.493 401.773 300.879 401.773C300.283 401.773 299.854 401.983 299.593 402.403C299.337 402.818 299.209 403.29 299.209 403.818ZM298.118 418L310.118 400.545H312.061L300.061 418H298.118ZM326.993 418L322.22 400.545H324.368L328.016 414.761H328.186L331.902 400.545H334.289L338.004 414.761H338.175L341.823 400.545H343.97L339.198 418H337.016L333.164 404.091H333.027L329.175 418H326.993ZM350.601 418.273C349.34 418.273 348.252 417.994 347.337 417.438C346.428 416.875 345.726 416.091 345.232 415.085C344.743 414.074 344.499 412.898 344.499 411.557C344.499 410.216 344.743 409.034 345.232 408.011C345.726 406.983 346.414 406.182 347.294 405.608C348.181 405.028 349.215 404.739 350.396 404.739C351.078 404.739 351.752 404.852 352.416 405.08C353.081 405.307 353.686 405.676 354.232 406.188C354.777 406.693 355.212 407.364 355.536 408.199C355.86 409.034 356.021 410.062 356.021 411.284V412.136H345.931V410.398H353.976C353.976 409.659 353.828 409 353.533 408.42C353.243 407.841 352.828 407.384 352.289 407.048C351.754 406.713 351.124 406.545 350.396 406.545C349.595 406.545 348.902 406.744 348.317 407.142C347.737 407.534 347.291 408.045 346.979 408.676C346.666 409.307 346.51 409.983 346.51 410.705V411.864C346.51 412.852 346.681 413.69 347.021 414.378C347.368 415.06 347.848 415.58 348.462 415.938C349.075 416.29 349.789 416.466 350.601 416.466C351.129 416.466 351.607 416.392 352.033 416.244C352.465 416.091 352.837 415.864 353.149 415.562C353.462 415.256 353.703 414.875 353.874 414.42L355.817 414.966C355.612 415.625 355.269 416.205 354.786 416.705C354.303 417.199 353.706 417.585 352.996 417.864C352.286 418.136 351.487 418.273 350.601 418.273ZM359.354 418V400.545H361.365V406.989H361.536C361.683 406.761 361.888 406.472 362.149 406.119C362.416 405.761 362.797 405.443 363.291 405.165C363.791 404.881 364.468 404.739 365.32 404.739C366.422 404.739 367.394 405.014 368.235 405.565C369.075 406.116 369.732 406.898 370.203 407.909C370.675 408.92 370.911 410.114 370.911 411.489C370.911 412.875 370.675 414.077 370.203 415.094C369.732 416.105 369.078 416.889 368.243 417.446C367.408 417.997 366.445 418.273 365.354 418.273C364.513 418.273 363.84 418.134 363.334 417.855C362.828 417.571 362.439 417.25 362.166 416.892C361.894 416.528 361.683 416.227 361.536 415.989H361.297V418H359.354ZM361.331 411.455C361.331 412.443 361.476 413.315 361.766 414.071C362.056 414.821 362.479 415.409 363.036 415.835C363.593 416.256 364.274 416.466 365.081 416.466C365.922 416.466 366.624 416.244 367.186 415.801C367.754 415.352 368.181 414.75 368.465 413.994C368.754 413.233 368.899 412.386 368.899 411.455C368.899 410.534 368.757 409.705 368.473 408.966C368.195 408.222 367.771 407.634 367.203 407.202C366.641 406.764 365.933 406.545 365.081 406.545C364.263 406.545 363.575 406.753 363.019 407.168C362.462 407.577 362.041 408.151 361.757 408.889C361.473 409.622 361.331 410.477 361.331 411.455ZM383.26 407.841L381.453 408.352C381.34 408.051 381.172 407.759 380.95 407.474C380.735 407.185 380.439 406.946 380.064 406.759C379.689 406.571 379.209 406.477 378.624 406.477C377.823 406.477 377.155 406.662 376.621 407.031C376.093 407.395 375.828 407.858 375.828 408.42C375.828 408.92 376.01 409.315 376.374 409.605C376.737 409.895 377.306 410.136 378.078 410.33L380.021 410.807C381.192 411.091 382.064 411.526 382.638 412.111C383.212 412.69 383.499 413.437 383.499 414.352C383.499 415.102 383.283 415.773 382.851 416.364C382.425 416.955 381.828 417.42 381.061 417.761C380.294 418.102 379.402 418.273 378.385 418.273C377.05 418.273 375.945 417.983 375.07 417.403C374.195 416.824 373.641 415.977 373.408 414.864L375.317 414.386C375.499 415.091 375.843 415.619 376.348 415.972C376.86 416.324 377.527 416.5 378.351 416.5C379.289 416.5 380.033 416.301 380.584 415.903C381.141 415.5 381.419 415.017 381.419 414.455C381.419 414 381.26 413.619 380.942 413.312C380.624 413 380.135 412.767 379.476 412.614L377.294 412.102C376.095 411.818 375.215 411.378 374.652 410.781C374.095 410.179 373.817 409.426 373.817 408.523C373.817 407.784 374.024 407.131 374.439 406.562C374.86 405.994 375.431 405.548 376.152 405.224C376.879 404.901 377.703 404.739 378.624 404.739C379.919 404.739 380.936 405.023 381.675 405.591C382.419 406.159 382.948 406.909 383.26 407.841ZM386.526 418V404.909H388.538V418H386.526ZM387.549 402.727C387.157 402.727 386.819 402.594 386.535 402.327C386.257 402.06 386.117 401.739 386.117 401.364C386.117 400.989 386.257 400.668 386.535 400.401C386.819 400.134 387.157 400 387.549 400C387.941 400 388.276 400.134 388.555 400.401C388.839 400.668 388.981 400.989 388.981 401.364C388.981 401.739 388.839 402.06 388.555 402.327C388.276 402.594 387.941 402.727 387.549 402.727ZM397.915 404.909V406.614H391.131V404.909H397.915ZM393.108 401.773H395.119V414.25C395.119 414.818 395.202 415.244 395.367 415.528C395.537 415.807 395.753 415.994 396.014 416.091C396.281 416.182 396.563 416.227 396.858 416.227C397.08 416.227 397.262 416.216 397.404 416.193C397.546 416.165 397.659 416.142 397.744 416.125L398.154 417.932C398.017 417.983 397.827 418.034 397.583 418.085C397.338 418.142 397.029 418.17 396.654 418.17C396.085 418.17 395.529 418.048 394.983 417.804C394.443 417.56 393.994 417.188 393.637 416.688C393.284 416.188 393.108 415.557 393.108 414.795V401.773ZM406.289 418.273C405.027 418.273 403.939 417.994 403.024 417.438C402.115 416.875 401.414 416.091 400.919 415.085C400.431 414.074 400.186 412.898 400.186 411.557C400.186 410.216 400.431 409.034 400.919 408.011C401.414 406.983 402.101 406.182 402.982 405.608C403.868 405.028 404.902 404.739 406.084 404.739C406.766 404.739 407.439 404.852 408.104 405.08C408.769 405.307 409.374 405.676 409.919 406.188C410.465 406.693 410.899 407.364 411.223 408.199C411.547 409.034 411.709 410.062 411.709 411.284V412.136H401.618V410.398H409.664C409.664 409.659 409.516 409 409.22 408.42C408.931 407.841 408.516 407.384 407.976 407.048C407.442 406.713 406.811 406.545 406.084 406.545C405.283 406.545 404.59 406.744 404.004 407.142C403.425 407.534 402.979 408.045 402.666 408.676C402.354 409.307 402.198 409.983 402.198 410.705V411.864C402.198 412.852 402.368 413.69 402.709 414.378C403.056 415.06 403.536 415.58 404.149 415.938C404.763 416.29 405.476 416.466 406.289 416.466C406.817 416.466 407.294 416.392 407.72 416.244C408.152 416.091 408.524 415.864 408.837 415.562C409.149 415.256 409.391 414.875 409.561 414.42L411.504 414.966C411.3 415.625 410.956 416.205 410.473 416.705C409.99 417.199 409.394 417.585 408.683 417.864C407.973 418.136 407.175 418.273 406.289 418.273ZM424.041 407.841L422.235 408.352C422.121 408.051 421.953 407.759 421.732 407.474C421.516 407.185 421.22 406.946 420.845 406.759C420.47 406.571 419.99 406.477 419.405 406.477C418.604 406.477 417.936 406.662 417.402 407.031C416.874 407.395 416.61 407.858 416.61 408.42C416.61 408.92 416.791 409.315 417.155 409.605C417.519 409.895 418.087 410.136 418.86 410.33L420.803 410.807C421.973 411.091 422.845 411.526 423.419 412.111C423.993 412.69 424.28 413.437 424.28 414.352C424.28 415.102 424.064 415.773 423.632 416.364C423.206 416.955 422.61 417.42 421.843 417.761C421.075 418.102 420.183 418.273 419.166 418.273C417.831 418.273 416.726 417.983 415.851 417.403C414.976 416.824 414.422 415.977 414.189 414.864L416.098 414.386C416.28 415.091 416.624 415.619 417.129 415.972C417.641 416.324 418.308 416.5 419.132 416.5C420.07 416.5 420.814 416.301 421.365 415.903C421.922 415.5 422.2 415.017 422.2 414.455C422.2 414 422.041 413.619 421.723 413.312C421.405 413 420.916 412.767 420.257 412.614L418.075 412.102C416.877 411.818 415.996 411.378 415.433 410.781C414.877 410.179 414.598 409.426 414.598 408.523C414.598 407.784 414.806 407.131 415.22 406.562C415.641 405.994 416.212 405.548 416.933 405.224C417.661 404.901 418.485 404.739 419.405 404.739C420.7 404.739 421.718 405.023 422.456 405.591C423.2 406.159 423.729 406.909 424.041 407.841Z" fill="black"/>
<rect x="550.271" y="144.5" width="135" height="47" fill="white"/>
<rect x="550.271" y="144.5" width="135" height="47" stroke="#288071" stroke-width="3"/>
<path d="M563.476 177.239C562.351 177.239 561.348 177.045 560.468 176.659C559.593 176.273 558.896 175.736 558.379 175.048C557.868 174.355 557.59 173.551 557.544 172.636H559.692C559.737 173.199 559.931 173.685 560.271 174.094C560.612 174.497 561.058 174.81 561.61 175.031C562.161 175.253 562.771 175.364 563.442 175.364C564.192 175.364 564.857 175.233 565.436 174.972C566.016 174.71 566.47 174.347 566.8 173.881C567.129 173.415 567.294 172.875 567.294 172.261C567.294 171.619 567.135 171.054 566.817 170.565C566.499 170.071 566.033 169.685 565.419 169.406C564.806 169.128 564.056 168.989 563.169 168.989H561.771V167.114H563.169C563.862 167.114 564.47 166.989 564.993 166.739C565.521 166.489 565.933 166.136 566.229 165.682C566.53 165.227 566.681 164.693 566.681 164.08C566.681 163.489 566.55 162.974 566.289 162.537C566.027 162.099 565.658 161.759 565.181 161.514C564.709 161.27 564.152 161.148 563.51 161.148C562.908 161.148 562.34 161.259 561.806 161.48C561.277 161.696 560.845 162.011 560.51 162.426C560.175 162.835 559.993 163.33 559.965 163.909H557.919C557.953 162.994 558.229 162.193 558.746 161.506C559.263 160.812 559.939 160.273 560.774 159.886C561.615 159.5 562.539 159.307 563.544 159.307C564.624 159.307 565.55 159.526 566.323 159.963C567.095 160.395 567.689 160.966 568.104 161.676C568.519 162.386 568.726 163.153 568.726 163.977C568.726 164.96 568.468 165.798 567.95 166.491C567.439 167.185 566.743 167.665 565.862 167.932V168.068C566.965 168.25 567.825 168.719 568.445 169.474C569.064 170.224 569.374 171.153 569.374 172.261C569.374 173.21 569.115 174.062 568.598 174.818C568.087 175.568 567.388 176.159 566.502 176.591C565.615 177.023 564.607 177.239 563.476 177.239ZM578.757 177.239C577.632 177.239 576.629 177.045 575.749 176.659C574.874 176.273 574.178 175.736 573.661 175.048C573.149 174.355 572.871 173.551 572.825 172.636H574.973C575.019 173.199 575.212 173.685 575.553 174.094C575.894 174.497 576.34 174.81 576.891 175.031C577.442 175.253 578.053 175.364 578.723 175.364C579.473 175.364 580.138 175.233 580.718 174.972C581.297 174.71 581.752 174.347 582.081 173.881C582.411 173.415 582.575 172.875 582.575 172.261C582.575 171.619 582.416 171.054 582.098 170.565C581.78 170.071 581.314 169.685 580.7 169.406C580.087 169.128 579.337 168.989 578.45 168.989H577.053V167.114H578.45C579.144 167.114 579.752 166.989 580.274 166.739C580.803 166.489 581.215 166.136 581.51 165.682C581.811 165.227 581.962 164.693 581.962 164.08C581.962 163.489 581.831 162.974 581.57 162.537C581.308 162.099 580.939 161.759 580.462 161.514C579.99 161.27 579.433 161.148 578.791 161.148C578.189 161.148 577.621 161.259 577.087 161.48C576.558 161.696 576.127 162.011 575.791 162.426C575.456 162.835 575.274 163.33 575.246 163.909H573.2C573.235 162.994 573.51 162.193 574.027 161.506C574.544 160.812 575.22 160.273 576.056 159.886C576.896 159.5 577.82 159.307 578.825 159.307C579.905 159.307 580.831 159.526 581.604 159.963C582.377 160.395 582.97 160.966 583.385 161.676C583.8 162.386 584.007 163.153 584.007 163.977C584.007 164.96 583.749 165.798 583.232 166.491C582.72 167.185 582.024 167.665 581.144 167.932V168.068C582.246 168.25 583.107 168.719 583.726 169.474C584.345 170.224 584.655 171.153 584.655 172.261C584.655 173.21 584.396 174.062 583.879 174.818C583.368 175.568 582.669 176.159 581.783 176.591C580.896 177.023 579.888 177.239 578.757 177.239ZM597.039 173.727V172.807C597.039 172.17 597.169 171.588 597.431 171.06C597.698 170.526 598.084 170.099 598.59 169.781C599.101 169.457 599.72 169.295 600.448 169.295C601.186 169.295 601.806 169.457 602.306 169.781C602.806 170.099 603.183 170.526 603.439 171.06C603.695 171.588 603.823 172.17 603.823 172.807V173.727C603.823 174.364 603.692 174.949 603.431 175.483C603.175 176.011 602.794 176.437 602.289 176.761C601.789 177.08 601.175 177.239 600.448 177.239C599.709 177.239 599.087 177.08 598.581 176.761C598.075 176.437 597.692 176.011 597.431 175.483C597.169 174.949 597.039 174.364 597.039 173.727ZM598.777 172.807V173.727C598.777 174.256 598.902 174.73 599.152 175.151C599.402 175.565 599.834 175.773 600.448 175.773C601.044 175.773 601.465 175.565 601.709 175.151C601.959 174.73 602.084 174.256 602.084 173.727V172.807C602.084 172.278 601.965 171.807 601.726 171.392C601.487 170.972 601.061 170.761 600.448 170.761C599.851 170.761 599.422 170.972 599.161 171.392C598.905 171.807 598.777 172.278 598.777 172.807ZM588.345 163.739V162.818C588.345 162.182 588.476 161.599 588.737 161.071C589.004 160.537 589.391 160.111 589.896 159.793C590.408 159.469 591.027 159.307 591.754 159.307C592.493 159.307 593.112 159.469 593.612 159.793C594.112 160.111 594.49 160.537 594.746 161.071C595.002 161.599 595.129 162.182 595.129 162.818V163.739C595.129 164.375 594.999 164.96 594.737 165.494C594.482 166.023 594.101 166.449 593.595 166.773C593.095 167.091 592.482 167.25 591.754 167.25C591.016 167.25 590.394 167.091 589.888 166.773C589.382 166.449 588.999 166.023 588.737 165.494C588.476 164.96 588.345 164.375 588.345 163.739ZM590.084 162.818V163.739C590.084 164.267 590.209 164.741 590.459 165.162C590.709 165.577 591.141 165.784 591.754 165.784C592.351 165.784 592.771 165.577 593.016 165.162C593.266 164.741 593.391 164.267 593.391 163.739V162.818C593.391 162.29 593.271 161.818 593.033 161.403C592.794 160.983 592.368 160.773 591.754 160.773C591.158 160.773 590.729 160.983 590.468 161.403C590.212 161.818 590.084 162.29 590.084 162.818ZM588.993 177L600.993 159.545H602.936L590.936 177H588.993ZM629.425 168.273C629.425 170.114 629.093 171.705 628.428 173.045C627.763 174.386 626.851 175.42 625.692 176.148C624.533 176.875 623.209 177.239 621.72 177.239C620.232 177.239 618.908 176.875 617.749 176.148C616.59 175.42 615.678 174.386 615.013 173.045C614.348 171.705 614.016 170.114 614.016 168.273C614.016 166.432 614.348 164.841 615.013 163.5C615.678 162.159 616.59 161.125 617.749 160.398C618.908 159.67 620.232 159.307 621.72 159.307C623.209 159.307 624.533 159.67 625.692 160.398C626.851 161.125 627.763 162.159 628.428 163.5C629.093 164.841 629.425 166.432 629.425 168.273ZM627.379 168.273C627.379 166.761 627.127 165.486 626.621 164.446C626.121 163.406 625.442 162.619 624.584 162.085C623.732 161.551 622.777 161.284 621.72 161.284C620.664 161.284 619.706 161.551 618.848 162.085C617.996 162.619 617.317 163.406 616.811 164.446C616.311 165.486 616.061 166.761 616.061 168.273C616.061 169.784 616.311 171.06 616.811 172.099C617.317 173.139 617.996 173.926 618.848 174.46C619.706 174.994 620.664 175.261 621.72 175.261C622.777 175.261 623.732 174.994 624.584 174.46C625.442 173.926 626.121 173.139 626.621 172.099C627.127 171.06 627.379 169.784 627.379 168.273ZM638.399 163.909V165.614H631.615V163.909H638.399ZM633.593 160.773H635.604V173.25C635.604 173.818 635.686 174.244 635.851 174.528C636.021 174.807 636.237 174.994 636.499 175.091C636.766 175.182 637.047 175.227 637.343 175.227C637.564 175.227 637.746 175.216 637.888 175.193C638.03 175.165 638.144 175.142 638.229 175.125L638.638 176.932C638.502 176.983 638.311 177.034 638.067 177.085C637.823 177.142 637.513 177.17 637.138 177.17C636.57 177.17 636.013 177.048 635.468 176.804C634.928 176.56 634.479 176.188 634.121 175.688C633.769 175.188 633.593 174.557 633.593 173.795V160.773ZM643.718 169.125V177H641.706V159.545H643.718V165.955H643.888C644.195 165.278 644.655 164.741 645.269 164.344C645.888 163.94 646.712 163.739 647.74 163.739C648.632 163.739 649.414 163.918 650.084 164.276C650.754 164.628 651.274 165.17 651.644 165.903C652.019 166.631 652.206 167.557 652.206 168.682V177H650.195V168.818C650.195 167.778 649.925 166.974 649.385 166.406C648.851 165.832 648.11 165.545 647.161 165.545C646.502 165.545 645.911 165.685 645.388 165.963C644.871 166.241 644.462 166.648 644.161 167.182C643.865 167.716 643.718 168.364 643.718 169.125ZM661.374 177.273C660.113 177.273 659.025 176.994 658.11 176.438C657.201 175.875 656.499 175.091 656.005 174.085C655.517 173.074 655.272 171.898 655.272 170.557C655.272 169.216 655.517 168.034 656.005 167.011C656.499 165.983 657.187 165.182 658.068 164.608C658.954 164.028 659.988 163.739 661.17 163.739C661.852 163.739 662.525 163.852 663.19 164.08C663.855 164.307 664.46 164.676 665.005 165.188C665.551 165.693 665.985 166.364 666.309 167.199C666.633 168.034 666.795 169.062 666.795 170.284V171.136H656.704V169.398H664.749C664.749 168.659 664.602 168 664.306 167.42C664.017 166.841 663.602 166.384 663.062 166.048C662.528 165.713 661.897 165.545 661.17 165.545C660.369 165.545 659.676 165.744 659.09 166.142C658.511 166.534 658.065 167.045 657.752 167.676C657.44 168.307 657.284 168.983 657.284 169.705V170.864C657.284 171.852 657.454 172.69 657.795 173.378C658.142 174.06 658.622 174.58 659.235 174.938C659.849 175.29 660.562 175.466 661.374 175.466C661.903 175.466 662.38 175.392 662.806 175.244C663.238 175.091 663.61 174.864 663.923 174.562C664.235 174.256 664.477 173.875 664.647 173.42L666.59 173.966C666.386 174.625 666.042 175.205 665.559 175.705C665.076 176.199 664.48 176.585 663.769 176.864C663.059 177.136 662.261 177.273 661.374 177.273ZM669.855 177V163.909H671.798V165.886H671.934C672.173 165.239 672.605 164.713 673.23 164.31C673.855 163.906 674.559 163.705 675.343 163.705C675.491 163.705 675.676 163.707 675.897 163.713C676.119 163.719 676.286 163.727 676.4 163.739V165.784C676.332 165.767 676.176 165.741 675.931 165.707C675.693 165.668 675.44 165.648 675.173 165.648C674.536 165.648 673.968 165.781 673.468 166.048C672.974 166.31 672.582 166.673 672.292 167.139C672.008 167.599 671.866 168.125 671.866 168.716V177H669.855Z" fill="black"/>
<path d="M551.771 228.5H601.771V190" stroke="black" stroke-width="3"/>
<defs>
<filter id="filter0_d_2849_44044" x="389.171" y="144.4" width="231.657" height="343.643" filterUnits="userSpaceOnUse" color-interpolation-filters="sRGB">
<feFlood flood-opacity="0" result="BackgroundImageFix"/>
<feColorMatrix in="SourceAlpha" type="matrix" values="0 0 0 0 0 0 0 0 0 0 0 0 0 0 0 0 0 0 127 0" result="hardAlpha"/>
<feOffset dx="-3" dy="4"/>
<feGaussianBlur stdDeviation="2.05"/>
<feComposite in2="hardAlpha" operator="out"/>
<feColorMatrix type="matrix" values="0 0 0 0 0 0 0 0 0 0 0 0 0 0 0 0 0 0 0.25 0"/>
<feBlend mode="normal" in2="BackgroundImageFix" result="effect1_dropShadow_2849_44044"/>
<feBlend mode="normal" in="SourceGraphic" in2="effect1_dropShadow_2849_44044" result="shape"/>
</filter>
</defs>
</svg>
