<svg width="806" height="691" viewBox="0 0 806 691" fill="none" xmlns="http://www.w3.org/2000/svg" xmlns:xlink="http://www.w3.org/1999/xlink">
<rect width="806" height="691" fill="white"/>
<path d="M29.446 61L24.4517 43.5455H28.483L31.3722 55.6733H31.517L34.7045 43.5455H38.1562L41.3352 55.6989H41.4886L44.3778 43.5455H48.4091L43.4148 61H39.8182L36.4943 49.5881H36.358L33.0426 61H29.446ZM53.9467 53.4318V61H50.3161V43.5455H53.8445V50.2188H53.9979C54.2933 49.446 54.7706 48.8409 55.4297 48.4034C56.0888 47.9602 56.9155 47.7386 57.9098 47.7386C58.8189 47.7386 59.6115 47.9375 60.2876 48.3352C60.9695 48.7273 61.4979 49.2926 61.8729 50.0312C62.2536 50.7642 62.4411 51.642 62.4354 52.6648V61H58.8047V53.3125C58.8104 52.5057 58.6058 51.8778 58.1911 51.429C57.782 50.9801 57.2081 50.7557 56.4695 50.7557C55.9751 50.7557 55.5376 50.8608 55.157 51.071C54.782 51.2812 54.4865 51.5881 54.2706 51.9915C54.0604 52.3892 53.9524 52.8693 53.9467 53.4318ZM67.0653 65.9091C66.6051 65.9091 66.1733 65.8722 65.7699 65.7983C65.3722 65.7301 65.0426 65.642 64.7812 65.5341L65.5994 62.8239C66.0256 62.9545 66.4091 63.0256 66.75 63.0369C67.0966 63.0483 67.3949 62.9688 67.6449 62.7983C67.9006 62.6278 68.108 62.3381 68.267 61.929L68.4801 61.375L63.7841 47.9091H67.6023L70.3125 57.5227H70.4489L73.1847 47.9091H77.0284L71.9403 62.4148C71.696 63.1193 71.3636 63.733 70.9432 64.2557C70.5284 64.7841 70.0028 65.1903 69.3665 65.4744C68.7301 65.7642 67.9631 65.9091 67.0653 65.9091ZM88.174 61.2472C87.3388 61.2472 86.5945 61.1023 85.9411 60.8125C85.2876 60.517 84.7706 60.0824 84.3899 59.5085C84.0149 58.929 83.8274 58.2074 83.8274 57.3438C83.8274 56.6165 83.9609 56.0057 84.228 55.5114C84.495 55.017 84.8587 54.6193 85.3189 54.3182C85.7791 54.017 86.3018 53.7898 86.8871 53.6364C87.478 53.483 88.0973 53.375 88.745 53.3125C89.5064 53.233 90.12 53.1591 90.5859 53.0909C91.0518 53.017 91.3899 52.9091 91.6001 52.767C91.8104 52.625 91.9155 52.4148 91.9155 52.1364V52.0852C91.9155 51.5455 91.745 51.1278 91.4041 50.8324C91.0689 50.5369 90.5916 50.3892 89.9723 50.3892C89.3189 50.3892 88.799 50.5341 88.4126 50.8239C88.0263 51.108 87.7706 51.4659 87.6456 51.8977L84.2876 51.625C84.4581 50.8295 84.7933 50.142 85.2933 49.5625C85.7933 48.9773 86.4382 48.5284 87.228 48.2159C88.0234 47.8977 88.9439 47.7386 89.9893 47.7386C90.7166 47.7386 91.4126 47.8239 92.0774 47.9943C92.7479 48.1648 93.3416 48.429 93.8587 48.7869C94.3814 49.1449 94.7933 49.6051 95.0945 50.1676C95.3956 50.7244 95.5462 51.392 95.5462 52.1705V61H92.103V59.1847H92.0007C91.7905 59.5938 91.5092 59.9545 91.157 60.267C90.8047 60.5739 90.3814 60.8153 89.8871 60.9915C89.3928 61.1619 88.8217 61.2472 88.174 61.2472ZM89.2138 58.7415C89.7479 58.7415 90.2195 58.6364 90.6286 58.4261C91.0376 58.2102 91.3587 57.9205 91.5916 57.5568C91.8246 57.1932 91.9411 56.7812 91.9411 56.321V54.9318C91.8274 55.0057 91.6712 55.0739 91.4723 55.1364C91.2791 55.1932 91.0604 55.2472 90.8161 55.2983C90.5717 55.3437 90.3274 55.3864 90.0831 55.4261C89.8388 55.4602 89.6172 55.4915 89.4183 55.5199C88.9922 55.5824 88.62 55.6818 88.3018 55.8182C87.9837 55.9545 87.7365 56.1392 87.5604 56.3722C87.3842 56.5994 87.2962 56.8835 87.2962 57.2244C87.2962 57.7188 87.4751 58.0966 87.8331 58.358C88.1967 58.6136 88.657 58.7415 89.2138 58.7415ZM98.3629 61V47.9091H101.883V50.1932H102.019C102.258 49.3807 102.658 48.767 103.221 48.3523C103.783 47.9318 104.431 47.7216 105.164 47.7216C105.346 47.7216 105.542 47.733 105.752 47.7557C105.962 47.7784 106.147 47.8097 106.306 47.8494V51.071C106.136 51.0199 105.9 50.9744 105.599 50.9347C105.298 50.8949 105.022 50.875 104.772 50.875C104.238 50.875 103.761 50.9915 103.34 51.2244C102.925 51.4517 102.596 51.7699 102.352 52.179C102.113 52.5881 101.994 53.0597 101.994 53.5938V61H98.3629ZM113.54 61.2557C112.193 61.2557 111.034 60.983 110.062 60.4375C109.097 59.8864 108.352 59.108 107.83 58.1023C107.307 57.0909 107.045 55.8949 107.045 54.5142C107.045 53.1676 107.307 51.9858 107.83 50.9688C108.352 49.9517 109.088 49.1591 110.037 48.5909C110.991 48.0227 112.111 47.7386 113.395 47.7386C114.259 47.7386 115.063 47.8778 115.807 48.1562C116.557 48.429 117.21 48.8409 117.767 49.392C118.33 49.9432 118.767 50.6364 119.08 51.4716C119.392 52.3011 119.548 53.2727 119.548 54.3864V55.3835H108.494V53.1335H116.131C116.131 52.6108 116.017 52.1477 115.79 51.7443C115.563 51.3409 115.247 51.0256 114.844 50.7983C114.446 50.5653 113.983 50.4489 113.455 50.4489C112.903 50.4489 112.415 50.5767 111.989 50.8324C111.568 51.0824 111.239 51.4205 111 51.8466C110.761 52.267 110.639 52.7358 110.634 53.2528V55.392C110.634 56.0398 110.753 56.5994 110.991 57.071C111.236 57.5426 111.58 57.9062 112.023 58.1619C112.466 58.4176 112.991 58.5455 113.599 58.5455C114.003 58.5455 114.372 58.4886 114.707 58.375C115.043 58.2614 115.33 58.0909 115.568 57.8636C115.807 57.6364 115.989 57.358 116.114 57.0284L119.472 57.25C119.301 58.0568 118.952 58.7614 118.423 59.3636C117.901 59.9602 117.224 60.4261 116.395 60.7614C115.571 61.0909 114.619 61.2557 113.54 61.2557ZM129.714 65.9091C129.254 65.9091 128.822 65.8722 128.418 65.7983C128.021 65.7301 127.691 65.642 127.43 65.5341L128.248 62.8239C128.674 62.9545 129.058 63.0256 129.398 63.0369C129.745 63.0483 130.043 62.9688 130.293 62.7983C130.549 62.6278 130.756 62.3381 130.915 61.929L131.129 61.375L126.433 47.9091H130.251L132.961 57.5227H133.097L135.833 47.9091H139.677L134.589 62.4148C134.344 63.1193 134.012 63.733 133.592 64.2557C133.177 64.7841 132.651 65.1903 132.015 65.4744C131.379 65.7642 130.612 65.9091 129.714 65.9091ZM147.028 61.2557C145.704 61.2557 144.559 60.9744 143.593 60.4119C142.633 59.8437 141.891 59.054 141.369 58.0426C140.846 57.0256 140.585 55.8466 140.585 54.5057C140.585 53.1534 140.846 51.9716 141.369 50.9602C141.891 49.9432 142.633 49.1534 143.593 48.5909C144.559 48.0227 145.704 47.7386 147.028 47.7386C148.352 47.7386 149.494 48.0227 150.454 48.5909C151.42 49.1534 152.164 49.9432 152.687 50.9602C153.21 51.9716 153.471 53.1534 153.471 54.5057C153.471 55.8466 153.21 57.0256 152.687 58.0426C152.164 59.054 151.42 59.8437 150.454 60.4119C149.494 60.9744 148.352 61.2557 147.028 61.2557ZM147.045 58.4432C147.647 58.4432 148.15 58.2727 148.553 57.9318C148.957 57.5852 149.261 57.1136 149.465 56.517C149.675 55.9205 149.781 55.2415 149.781 54.4801C149.781 53.7188 149.675 53.0398 149.465 52.4432C149.261 51.8466 148.957 51.375 148.553 51.0284C148.15 50.6818 147.647 50.5085 147.045 50.5085C146.437 50.5085 145.925 50.6818 145.511 51.0284C145.102 51.375 144.792 51.8466 144.582 52.4432C144.377 53.0398 144.275 53.7188 144.275 54.4801C144.275 55.2415 144.377 55.9205 144.582 56.517C144.792 57.1136 145.102 57.5852 145.511 57.9318C145.925 58.2727 146.437 58.4432 147.045 58.4432ZM164.227 55.4261V47.9091H167.857V61H164.371V58.6222H164.235C163.94 59.3892 163.448 60.0057 162.761 60.4716C162.079 60.9375 161.246 61.1705 160.263 61.1705C159.388 61.1705 158.619 60.9716 157.954 60.5739C157.289 60.1761 156.769 59.6108 156.394 58.8778C156.025 58.1449 155.837 57.267 155.832 56.2443V47.9091H159.462V55.5966C159.468 56.3693 159.675 56.9801 160.085 57.429C160.494 57.8778 161.042 58.1023 161.729 58.1023C162.167 58.1023 162.576 58.0028 162.957 57.804C163.337 57.5994 163.644 57.2983 163.877 56.9006C164.116 56.5028 164.232 56.0114 164.227 55.4261ZM176.316 61V47.9091H179.947V61H176.316ZM178.14 46.2216C177.6 46.2216 177.137 46.0426 176.751 45.6847C176.37 45.321 176.18 44.8864 176.18 44.3807C176.18 43.8807 176.37 43.4517 176.751 43.0938C177.137 42.7301 177.6 42.5483 178.14 42.5483C178.68 42.5483 179.14 42.7301 179.521 43.0938C179.907 43.4517 180.1 43.8807 180.1 44.3807C180.1 44.8864 179.907 45.321 179.521 45.6847C179.14 46.0426 178.68 46.2216 178.14 46.2216ZM186.486 53.4318V61H182.855V47.9091H186.315V50.2188H186.469C186.759 49.4574 187.244 48.8551 187.926 48.4119C188.608 47.9631 189.435 47.7386 190.406 47.7386C191.315 47.7386 192.108 47.9375 192.784 48.3352C193.46 48.733 193.986 49.3011 194.361 50.0398C194.736 50.7727 194.923 51.6477 194.923 52.6648V61H191.293V53.3125C191.298 52.5114 191.094 51.8864 190.679 51.4375C190.264 50.983 189.693 50.7557 188.966 50.7557C188.477 50.7557 188.045 50.8608 187.67 51.071C187.301 51.2812 187.011 51.5881 186.801 51.9915C186.597 52.3892 186.491 52.8693 186.486 53.4318ZM204.748 47.9091V50.6364H196.864V47.9091H204.748ZM198.654 44.7727H202.285V56.9773C202.285 57.3125 202.336 57.5739 202.438 57.7614C202.54 57.9432 202.683 58.071 202.864 58.1449C203.052 58.2187 203.268 58.2557 203.512 58.2557C203.683 58.2557 203.853 58.2415 204.023 58.2131C204.194 58.179 204.325 58.1534 204.415 58.1364L204.987 60.8381C204.805 60.8949 204.549 60.9602 204.219 61.0341C203.89 61.1136 203.489 61.1619 203.018 61.179C202.143 61.2131 201.376 61.0966 200.717 60.8295C200.063 60.5625 199.555 60.1477 199.191 59.5852C198.827 59.0227 198.648 58.3125 198.654 57.4545V44.7727ZM212.938 61.2557C211.592 61.2557 210.433 60.983 209.461 60.4375C208.495 59.8864 207.751 59.108 207.228 58.1023C206.705 57.0909 206.444 55.8949 206.444 54.5142C206.444 53.1676 206.705 51.9858 207.228 50.9688C207.751 49.9517 208.487 49.1591 209.435 48.5909C210.39 48.0227 211.509 47.7386 212.793 47.7386C213.657 47.7386 214.461 47.8778 215.205 48.1562C215.955 48.429 216.609 48.8409 217.165 49.392C217.728 49.9432 218.165 50.6364 218.478 51.4716C218.79 52.3011 218.947 53.2727 218.947 54.3864V55.3835H207.893V53.1335H215.529C215.529 52.6108 215.415 52.1477 215.188 51.7443C214.961 51.3409 214.646 51.0256 214.242 50.7983C213.844 50.5653 213.381 50.4489 212.853 50.4489C212.302 50.4489 211.813 50.5767 211.387 50.8324C210.967 51.0824 210.637 51.4205 210.398 51.8466C210.16 52.267 210.038 52.7358 210.032 53.2528V55.392C210.032 56.0398 210.151 56.5994 210.39 57.071C210.634 57.5426 210.978 57.9062 211.421 58.1619C211.864 58.4176 212.39 58.5455 212.998 58.5455C213.401 58.5455 213.771 58.4886 214.106 58.375C214.441 58.2614 214.728 58.0909 214.967 57.8636C215.205 57.6364 215.387 57.358 215.512 57.0284L218.87 57.25C218.7 58.0568 218.35 58.7614 217.822 59.3636C217.299 59.9602 216.623 60.4261 215.793 60.7614C214.969 61.0909 214.018 61.2557 212.938 61.2557ZM221.316 61V47.9091H224.836V50.1932H224.972C225.211 49.3807 225.612 48.767 226.174 48.3523C226.737 47.9318 227.384 47.7216 228.117 47.7216C228.299 47.7216 228.495 47.733 228.705 47.7557C228.915 47.7784 229.1 47.8097 229.259 47.8494V51.071C229.089 51.0199 228.853 50.9744 228.552 50.9347C228.251 50.8949 227.975 50.875 227.725 50.875C227.191 50.875 226.714 50.9915 226.293 51.2244C225.879 51.4517 225.549 51.7699 225.305 52.179C225.066 52.5881 224.947 53.0597 224.947 53.5938V61H221.316ZM236.493 61.2557C235.146 61.2557 233.987 60.983 233.016 60.4375C232.05 59.8864 231.305 59.108 230.783 58.1023C230.26 57.0909 229.999 55.8949 229.999 54.5142C229.999 53.1676 230.26 51.9858 230.783 50.9688C231.305 49.9517 232.041 49.1591 232.99 48.5909C233.945 48.0227 235.064 47.7386 236.348 47.7386C237.212 47.7386 238.016 47.8778 238.76 48.1562C239.51 48.429 240.163 48.8409 240.72 49.392C241.283 49.9432 241.72 50.6364 242.033 51.4716C242.345 52.3011 242.501 53.2727 242.501 54.3864V55.3835H231.447V53.1335H239.084C239.084 52.6108 238.97 52.1477 238.743 51.7443C238.516 51.3409 238.2 51.0256 237.797 50.7983C237.399 50.5653 236.936 50.4489 236.408 50.4489C235.857 50.4489 235.368 50.5767 234.942 50.8324C234.521 51.0824 234.192 51.4205 233.953 51.8466C233.714 52.267 233.592 52.7358 233.587 53.2528V55.392C233.587 56.0398 233.706 56.5994 233.945 57.071C234.189 57.5426 234.533 57.9062 234.976 58.1619C235.419 58.4176 235.945 58.5455 236.553 58.5455C236.956 58.5455 237.325 58.4886 237.661 58.375C237.996 58.2614 238.283 58.0909 238.521 57.8636C238.76 57.6364 238.942 57.358 239.067 57.0284L242.425 57.25C242.254 58.0568 241.905 58.7614 241.376 59.3636C240.854 59.9602 240.178 60.4261 239.348 60.7614C238.524 61.0909 237.572 61.2557 236.493 61.2557ZM255.763 51.642L252.439 51.8466C252.382 51.5625 252.26 51.3068 252.072 51.0795C251.885 50.8466 251.638 50.6619 251.331 50.5256C251.03 50.3835 250.669 50.3125 250.249 50.3125C249.686 50.3125 249.212 50.4318 248.825 50.6705C248.439 50.9034 248.246 51.2159 248.246 51.608C248.246 51.9205 248.371 52.1847 248.621 52.4006C248.871 52.6165 249.3 52.7898 249.908 52.9205L252.277 53.3977C253.55 53.6591 254.499 54.0795 255.124 54.6591C255.749 55.2386 256.061 56 256.061 56.9432C256.061 57.8011 255.808 58.554 255.303 59.2017C254.803 59.8494 254.115 60.3551 253.24 60.7188C252.371 61.0767 251.368 61.2557 250.232 61.2557C248.499 61.2557 247.118 60.8949 246.089 60.1733C245.067 59.446 244.467 58.4574 244.291 57.2074L247.862 57.0199C247.97 57.5483 248.232 57.9517 248.646 58.2301C249.061 58.5028 249.592 58.6392 250.24 58.6392C250.876 58.6392 251.388 58.517 251.774 58.2727C252.166 58.0227 252.365 57.7017 252.371 57.3097C252.365 56.9801 252.226 56.7102 251.953 56.5C251.68 56.2841 251.26 56.1193 250.692 56.0057L248.425 55.554C247.146 55.2983 246.195 54.8551 245.57 54.2244C244.95 53.5937 244.641 52.7898 244.641 51.8125C244.641 50.9716 244.868 50.2472 245.322 49.6392C245.783 49.0312 246.428 48.5625 247.257 48.233C248.092 47.9034 249.07 47.7386 250.189 47.7386C251.842 47.7386 253.143 48.0881 254.092 48.7869C255.047 49.4858 255.604 50.4375 255.763 51.642ZM265.31 47.9091V50.6364H257.427V47.9091H265.31ZM259.217 44.7727H262.847V56.9773C262.847 57.3125 262.898 57.5739 263.001 57.7614C263.103 57.9432 263.245 58.071 263.427 58.1449C263.614 58.2187 263.83 58.2557 264.075 58.2557C264.245 58.2557 264.415 58.2415 264.586 58.2131C264.756 58.179 264.887 58.1534 264.978 58.1364L265.549 60.8381C265.367 60.8949 265.112 60.9602 264.782 61.0341C264.452 61.1136 264.052 61.1619 263.58 61.179C262.705 61.2131 261.938 61.0966 261.279 60.8295C260.626 60.5625 260.117 60.1477 259.754 59.5852C259.39 59.0227 259.211 58.3125 259.217 57.4545V44.7727ZM273.501 61.2557C272.154 61.2557 270.995 60.983 270.023 60.4375C269.058 59.8864 268.313 59.108 267.79 58.1023C267.268 57.0909 267.006 55.8949 267.006 54.5142C267.006 53.1676 267.268 51.9858 267.79 50.9688C268.313 49.9517 269.049 49.1591 269.998 48.5909C270.952 48.0227 272.072 47.7386 273.356 47.7386C274.219 47.7386 275.023 47.8778 275.768 48.1562C276.518 48.429 277.171 48.8409 277.728 49.392C278.29 49.9432 278.728 50.6364 279.04 51.4716C279.353 52.3011 279.509 53.2727 279.509 54.3864V55.3835H268.455V53.1335H276.092C276.092 52.6108 275.978 52.1477 275.751 51.7443C275.523 51.3409 275.208 51.0256 274.805 50.7983C274.407 50.5653 273.944 50.4489 273.415 50.4489C272.864 50.4489 272.376 50.5767 271.95 50.8324C271.529 51.0824 271.2 51.4205 270.961 51.8466C270.722 52.267 270.6 52.7358 270.594 53.2528V55.392C270.594 56.0398 270.714 56.5994 270.952 57.071C271.197 57.5426 271.54 57.9062 271.984 58.1619C272.427 58.4176 272.952 58.5455 273.56 58.5455C273.964 58.5455 274.333 58.4886 274.668 58.375C275.004 58.2614 275.29 58.0909 275.529 57.8636C275.768 57.6364 275.95 57.358 276.075 57.0284L279.433 57.25C279.262 58.0568 278.913 58.7614 278.384 59.3636C277.862 59.9602 277.185 60.4261 276.356 60.7614C275.532 61.0909 274.58 61.2557 273.501 61.2557ZM286.702 61.2131C285.708 61.2131 284.808 60.9574 284.001 60.446C283.2 59.929 282.563 59.1705 282.092 58.1705C281.626 57.1648 281.393 55.9318 281.393 54.4716C281.393 52.9716 281.634 51.7244 282.117 50.7301C282.6 49.7301 283.242 48.983 284.043 48.4886C284.85 47.9886 285.734 47.7386 286.694 47.7386C287.427 47.7386 288.038 47.8636 288.526 48.1136C289.021 48.358 289.418 48.6648 289.719 49.0341C290.026 49.3977 290.259 49.7557 290.418 50.108H290.529V43.5455H294.151V61H290.572V58.9034H290.418C290.248 59.267 290.006 59.6278 289.694 59.9858C289.387 60.3381 288.987 60.6307 288.492 60.8636C288.004 61.0966 287.407 61.2131 286.702 61.2131ZM287.853 58.3239C288.438 58.3239 288.933 58.1648 289.336 57.8466C289.745 57.5227 290.058 57.071 290.273 56.4915C290.495 55.9119 290.606 55.233 290.606 54.4545C290.606 53.6761 290.498 53 290.282 52.4261C290.066 51.8523 289.754 51.4091 289.344 51.0966C288.935 50.7841 288.438 50.6278 287.853 50.6278C287.256 50.6278 286.754 50.7898 286.344 51.1136C285.935 51.4375 285.626 51.8864 285.415 52.4602C285.205 53.0341 285.1 53.6989 285.1 54.4545C285.1 55.2159 285.205 55.8892 285.415 56.4744C285.631 57.054 285.941 57.5085 286.344 57.8381C286.754 58.1619 287.256 58.3239 287.853 58.3239ZM302.691 61V47.9091H306.322V61H302.691ZM304.515 46.2216C303.975 46.2216 303.512 46.0426 303.126 45.6847C302.745 45.321 302.555 44.8864 302.555 44.3807C302.555 43.8807 302.745 43.4517 303.126 43.0938C303.512 42.7301 303.975 42.5483 304.515 42.5483C305.055 42.5483 305.515 42.7301 305.896 43.0938C306.282 43.4517 306.475 43.8807 306.475 44.3807C306.475 44.8864 306.282 45.321 305.896 45.6847C305.515 46.0426 305.055 46.2216 304.515 46.2216ZM312.861 53.4318V61H309.23V47.9091H312.69V50.2188H312.844C313.134 49.4574 313.619 48.8551 314.301 48.4119C314.983 47.9631 315.81 47.7386 316.781 47.7386C317.69 47.7386 318.483 47.9375 319.159 48.3352C319.835 48.733 320.361 49.3011 320.736 50.0398C321.111 50.7727 321.298 51.6477 321.298 52.6648V61H317.668V53.3125C317.673 52.5114 317.469 51.8864 317.054 51.4375C316.639 50.983 316.068 50.7557 315.341 50.7557C314.852 50.7557 314.42 50.8608 314.045 51.071C313.676 51.2812 313.386 51.5881 313.176 51.9915C312.972 52.3892 312.866 52.8693 312.861 53.4318ZM333.345 43.5455V61H329.714V43.5455H333.345ZM342.219 61.2557C340.873 61.2557 339.714 60.983 338.742 60.4375C337.776 59.8864 337.032 59.108 336.509 58.1023C335.987 57.0909 335.725 55.8949 335.725 54.5142C335.725 53.1676 335.987 51.9858 336.509 50.9688C337.032 49.9517 337.768 49.1591 338.717 48.5909C339.671 48.0227 340.79 47.7386 342.075 47.7386C342.938 47.7386 343.742 47.8778 344.487 48.1562C345.237 48.429 345.89 48.8409 346.447 49.392C347.009 49.9432 347.447 50.6364 347.759 51.4716C348.072 52.3011 348.228 53.2727 348.228 54.3864V55.3835H337.174V53.1335H344.81C344.81 52.6108 344.697 52.1477 344.469 51.7443C344.242 51.3409 343.927 51.0256 343.523 50.7983C343.126 50.5653 342.663 50.4489 342.134 50.4489C341.583 50.4489 341.094 50.5767 340.668 50.8324C340.248 51.0824 339.918 51.4205 339.68 51.8466C339.441 52.267 339.319 52.7358 339.313 53.2528V55.392C339.313 56.0398 339.433 56.5994 339.671 57.071C339.915 57.5426 340.259 57.9062 340.702 58.1619C341.146 58.4176 341.671 58.5455 342.279 58.5455C342.683 58.5455 343.052 58.4886 343.387 58.375C343.722 58.2614 344.009 58.0909 344.248 57.8636C344.487 57.6364 344.668 57.358 344.793 57.0284L348.151 57.25C347.981 58.0568 347.631 58.7614 347.103 59.3636C346.58 59.9602 345.904 60.4261 345.075 60.7614C344.251 61.0909 343.299 61.2557 342.219 61.2557ZM354.33 61.2472C353.495 61.2472 352.751 61.1023 352.097 60.8125C351.444 60.517 350.927 60.0824 350.546 59.5085C350.171 58.929 349.984 58.2074 349.984 57.3438C349.984 56.6165 350.117 56.0057 350.384 55.5114C350.651 55.017 351.015 54.6193 351.475 54.3182C351.935 54.017 352.458 53.7898 353.043 53.6364C353.634 53.483 354.254 53.375 354.901 53.3125C355.663 53.233 356.276 53.1591 356.742 53.0909C357.208 53.017 357.546 52.9091 357.756 52.767C357.967 52.625 358.072 52.4148 358.072 52.1364V52.0852C358.072 51.5455 357.901 51.1278 357.56 50.8324C357.225 50.5369 356.748 50.3892 356.129 50.3892C355.475 50.3892 354.955 50.5341 354.569 50.8239C354.183 51.108 353.927 51.4659 353.802 51.8977L350.444 51.625C350.614 50.8295 350.95 50.142 351.45 49.5625C351.95 48.9773 352.594 48.5284 353.384 48.2159C354.18 47.8977 355.1 47.7386 356.146 47.7386C356.873 47.7386 357.569 47.8239 358.234 47.9943C358.904 48.1648 359.498 48.429 360.015 48.7869C360.538 49.1449 360.95 49.6051 361.251 50.1676C361.552 50.7244 361.702 51.392 361.702 52.1705V61H358.259V59.1847H358.157C357.947 59.5938 357.665 59.9545 357.313 60.267C356.961 60.5739 356.538 60.8153 356.043 60.9915C355.549 61.1619 354.978 61.2472 354.33 61.2472ZM355.37 58.7415C355.904 58.7415 356.376 58.6364 356.785 58.4261C357.194 58.2102 357.515 57.9205 357.748 57.5568C357.981 57.1932 358.097 56.7812 358.097 56.321V54.9318C357.984 55.0057 357.827 55.0739 357.629 55.1364C357.435 55.1932 357.217 55.2472 356.972 55.2983C356.728 55.3437 356.484 55.3864 356.239 55.4261C355.995 55.4602 355.773 55.4915 355.575 55.5199C355.148 55.5824 354.776 55.6818 354.458 55.8182C354.14 55.9545 353.893 56.1392 353.717 56.3722C353.54 56.5994 353.452 56.8835 353.452 57.2244C353.452 57.7188 353.631 58.0966 353.989 58.358C354.353 58.6136 354.813 58.7415 355.37 58.7415ZM364.519 61V47.9091H368.039V50.1932H368.175C368.414 49.3807 368.815 48.767 369.377 48.3523C369.94 47.9318 370.587 47.7216 371.32 47.7216C371.502 47.7216 371.698 47.733 371.908 47.7557C372.119 47.7784 372.303 47.8097 372.462 47.8494V51.071C372.292 51.0199 372.056 50.9744 371.755 50.9347C371.454 50.8949 371.178 50.875 370.928 50.875C370.394 50.875 369.917 50.9915 369.496 51.2244C369.082 51.4517 368.752 51.7699 368.508 52.179C368.269 52.5881 368.15 53.0597 368.15 53.5938V61H364.519ZM377.97 53.4318V61H374.339V47.9091H377.8V50.2188H377.953C378.243 49.4574 378.729 48.8551 379.411 48.4119C380.092 47.9631 380.919 47.7386 381.891 47.7386C382.8 47.7386 383.592 47.9375 384.268 48.3352C384.945 48.733 385.47 49.3011 385.845 50.0398C386.22 50.7727 386.408 51.6477 386.408 52.6648V61H382.777V53.3125C382.783 52.5114 382.578 51.8864 382.163 51.4375C381.749 50.983 381.178 50.7557 380.45 50.7557C379.962 50.7557 379.53 50.8608 379.155 51.071C378.786 51.2812 378.496 51.5881 378.286 51.9915C378.081 52.3892 377.976 52.8693 377.97 53.4318ZM389.269 61V47.9091H392.9V61H389.269ZM391.093 46.2216C390.553 46.2216 390.09 46.0426 389.704 45.6847C389.323 45.321 389.133 44.8864 389.133 44.3807C389.133 43.8807 389.323 43.4517 389.704 43.0938C390.09 42.7301 390.553 42.5483 391.093 42.5483C391.633 42.5483 392.093 42.7301 392.474 43.0938C392.86 43.4517 393.053 43.8807 393.053 44.3807C393.053 44.8864 392.86 45.321 392.474 45.6847C392.093 46.0426 391.633 46.2216 391.093 46.2216ZM399.439 53.4318V61H395.808V47.9091H399.268V50.2188H399.422C399.712 49.4574 400.197 48.8551 400.879 48.4119C401.561 47.9631 402.388 47.7386 403.359 47.7386C404.268 47.7386 405.061 47.9375 405.737 48.3352C406.413 48.733 406.939 49.3011 407.314 50.0398C407.689 50.7727 407.876 51.6477 407.876 52.6648V61H404.246V53.3125C404.251 52.5114 404.047 51.8864 403.632 51.4375C403.217 50.983 402.646 50.7557 401.919 50.7557C401.43 50.7557 400.999 50.8608 400.624 51.071C400.254 51.2812 399.964 51.5881 399.754 51.9915C399.55 52.3892 399.445 52.8693 399.439 53.4318ZM416.636 66.1818C415.46 66.1818 414.451 66.0199 413.61 65.696C412.775 65.3778 412.11 64.9432 411.616 64.392C411.121 63.8409 410.8 63.2216 410.653 62.5341L414.011 62.0824C414.113 62.3438 414.275 62.5881 414.496 62.8153C414.718 63.0426 415.011 63.2244 415.374 63.3608C415.744 63.5028 416.192 63.5739 416.721 63.5739C417.511 63.5739 418.161 63.3807 418.673 62.9943C419.19 62.6136 419.448 61.9744 419.448 61.0767V58.6818H419.295C419.136 59.0455 418.897 59.3892 418.579 59.7131C418.261 60.0369 417.852 60.3011 417.352 60.5057C416.852 60.7102 416.255 60.8125 415.562 60.8125C414.579 60.8125 413.684 60.5852 412.877 60.1307C412.076 59.6705 411.437 58.9687 410.96 58.0256C410.488 57.0767 410.252 55.8778 410.252 54.429C410.252 52.946 410.494 51.7074 410.977 50.7131C411.46 49.7187 412.102 48.9744 412.903 48.4801C413.71 47.9858 414.593 47.7386 415.553 47.7386C416.286 47.7386 416.9 47.8636 417.394 48.1136C417.888 48.358 418.286 48.6648 418.587 49.0341C418.894 49.3977 419.13 49.7557 419.295 50.108H419.431V47.9091H423.036V61.1278C423.036 62.2415 422.763 63.1733 422.218 63.9233C421.673 64.6733 420.917 65.2358 419.951 65.6108C418.991 65.9915 417.886 66.1818 416.636 66.1818ZM416.712 58.0852C417.298 58.0852 417.792 57.9403 418.195 57.6506C418.604 57.3551 418.917 56.9347 419.133 56.3892C419.354 55.8381 419.465 55.179 419.465 54.4119C419.465 53.6449 419.357 52.9801 419.141 52.4176C418.925 51.8494 418.613 51.4091 418.204 51.0966C417.795 50.7841 417.298 50.6278 416.712 50.6278C416.116 50.6278 415.613 50.7898 415.204 51.1136C414.795 51.4318 414.485 51.875 414.275 52.4432C414.065 53.0114 413.96 53.6676 413.96 54.4119C413.96 55.1676 414.065 55.821 414.275 56.3722C414.491 56.9176 414.8 57.3409 415.204 57.642C415.613 57.9375 416.116 58.0852 416.712 58.0852ZM435.213 61.2472C434.378 61.2472 433.634 61.1023 432.98 60.8125C432.327 60.517 431.81 60.0824 431.429 59.5085C431.054 58.929 430.866 58.2074 430.866 57.3438C430.866 56.6165 431 56.0057 431.267 55.5114C431.534 55.017 431.898 54.6193 432.358 54.3182C432.818 54.017 433.341 53.7898 433.926 53.6364C434.517 53.483 435.136 53.375 435.784 53.3125C436.545 53.233 437.159 53.1591 437.625 53.0909C438.091 53.017 438.429 52.9091 438.639 52.767C438.849 52.625 438.955 52.4148 438.955 52.1364V52.0852C438.955 51.5455 438.784 51.1278 438.443 50.8324C438.108 50.5369 437.631 50.3892 437.011 50.3892C436.358 50.3892 435.838 50.5341 435.452 50.8239C435.065 51.108 434.81 51.4659 434.685 51.8977L431.327 51.625C431.497 50.8295 431.832 50.142 432.332 49.5625C432.832 48.9773 433.477 48.5284 434.267 48.2159C435.063 47.8977 435.983 47.7386 437.028 47.7386C437.756 47.7386 438.452 47.8239 439.116 47.9943C439.787 48.1648 440.381 48.429 440.898 48.7869C441.42 49.1449 441.832 49.6051 442.134 50.1676C442.435 50.7244 442.585 51.392 442.585 52.1705V61H439.142V59.1847H439.04C438.83 59.5938 438.548 59.9545 438.196 60.267C437.844 60.5739 437.42 60.8153 436.926 60.9915C436.432 61.1619 435.861 61.2472 435.213 61.2472ZM436.253 58.7415C436.787 58.7415 437.259 58.6364 437.668 58.4261C438.077 58.2102 438.398 57.9205 438.631 57.5568C438.864 57.1932 438.98 56.7812 438.98 56.321V54.9318C438.866 55.0057 438.71 55.0739 438.511 55.1364C438.318 55.1932 438.099 55.2472 437.855 55.2983C437.611 55.3437 437.366 55.3864 437.122 55.4261C436.878 55.4602 436.656 55.4915 436.457 55.5199C436.031 55.5824 435.659 55.6818 435.341 55.8182C435.023 55.9545 434.776 56.1392 434.599 56.3722C434.423 56.5994 434.335 56.8835 434.335 57.2244C434.335 57.7188 434.514 58.0966 434.872 58.358C435.236 58.6136 435.696 58.7415 436.253 58.7415ZM449.033 53.4318V61H445.402V47.9091H448.862V50.2188H449.016C449.305 49.4574 449.791 48.8551 450.473 48.4119C451.155 47.9631 451.982 47.7386 452.953 47.7386C453.862 47.7386 454.655 47.9375 455.331 48.3352C456.007 48.733 456.533 49.3011 456.908 50.0398C457.283 50.7727 457.47 51.6477 457.47 52.6648V61H453.839V53.3125C453.845 52.5114 453.641 51.8864 453.226 51.4375C452.811 50.983 452.24 50.7557 451.513 50.7557C451.024 50.7557 450.592 50.8608 450.217 51.071C449.848 51.2812 449.558 51.5881 449.348 51.9915C449.143 52.3892 449.038 52.8693 449.033 53.4318ZM466.246 61.2557C464.923 61.2557 463.778 60.9744 462.812 60.4119C461.852 59.8437 461.11 59.054 460.587 58.0426C460.065 57.0256 459.803 55.8466 459.803 54.5057C459.803 53.1534 460.065 51.9716 460.587 50.9602C461.11 49.9432 461.852 49.1534 462.812 48.5909C463.778 48.0227 464.923 47.7386 466.246 47.7386C467.57 47.7386 468.712 48.0227 469.673 48.5909C470.638 49.1534 471.383 49.9432 471.906 50.9602C472.428 51.9716 472.69 53.1534 472.69 54.5057C472.69 55.8466 472.428 57.0256 471.906 58.0426C471.383 59.054 470.638 59.8437 469.673 60.4119C468.712 60.9744 467.57 61.2557 466.246 61.2557ZM466.263 58.4432C466.866 58.4432 467.369 58.2727 467.772 57.9318C468.175 57.5852 468.479 57.1136 468.684 56.517C468.894 55.9205 468.999 55.2415 468.999 54.4801C468.999 53.7188 468.894 53.0398 468.684 52.4432C468.479 51.8466 468.175 51.375 467.772 51.0284C467.369 50.6818 466.866 50.5085 466.263 50.5085C465.656 50.5085 465.144 50.6818 464.729 51.0284C464.32 51.375 464.011 51.8466 463.8 52.4432C463.596 53.0398 463.494 53.7188 463.494 54.4801C463.494 55.2415 463.596 55.9205 463.8 56.517C464.011 57.1136 464.32 57.5852 464.729 57.9318C465.144 58.2727 465.656 58.4432 466.263 58.4432ZM482.013 47.9091V50.6364H474.13V47.9091H482.013ZM475.92 44.7727H479.55V56.9773C479.55 57.3125 479.602 57.5739 479.704 57.7614C479.806 57.9432 479.948 58.071 480.13 58.1449C480.317 58.2187 480.533 58.2557 480.778 58.2557C480.948 58.2557 481.119 58.2415 481.289 58.2131C481.46 58.179 481.59 58.1534 481.681 58.1364L482.252 60.8381C482.07 60.8949 481.815 60.9602 481.485 61.0341C481.156 61.1136 480.755 61.1619 480.283 61.179C479.408 61.2131 478.641 61.0966 477.982 60.8295C477.329 60.5625 476.82 60.1477 476.457 59.5852C476.093 59.0227 475.914 58.3125 475.92 57.4545V44.7727ZM488.29 53.4318V61H484.66V43.5455H488.188V50.2188H488.342C488.637 49.446 489.114 48.8409 489.773 48.4034C490.433 47.9602 491.259 47.7386 492.254 47.7386C493.163 47.7386 493.955 47.9375 494.631 48.3352C495.313 48.7273 495.842 49.2926 496.217 50.0312C496.597 50.7642 496.785 51.642 496.779 52.6648V61H493.148V53.3125C493.154 52.5057 492.95 51.8778 492.535 51.429C492.126 50.9801 491.552 50.7557 490.813 50.7557C490.319 50.7557 489.881 50.8608 489.501 51.071C489.126 51.2812 488.83 51.5881 488.614 51.9915C488.404 52.3892 488.296 52.8693 488.29 53.4318ZM505.602 61.2557C504.256 61.2557 503.097 60.983 502.125 60.4375C501.159 59.8864 500.415 59.108 499.892 58.1023C499.369 57.0909 499.108 55.8949 499.108 54.5142C499.108 53.1676 499.369 51.9858 499.892 50.9688C500.415 49.9517 501.151 49.1591 502.099 48.5909C503.054 48.0227 504.173 47.7386 505.457 47.7386C506.321 47.7386 507.125 47.8778 507.869 48.1562C508.619 48.429 509.273 48.8409 509.83 49.392C510.392 49.9432 510.83 50.6364 511.142 51.4716C511.455 52.3011 511.611 53.2727 511.611 54.3864V55.3835H500.557V53.1335H508.193C508.193 52.6108 508.08 52.1477 507.852 51.7443C507.625 51.3409 507.31 51.0256 506.906 50.7983C506.509 50.5653 506.045 50.4489 505.517 50.4489C504.966 50.4489 504.477 50.5767 504.051 50.8324C503.631 51.0824 503.301 51.4205 503.062 51.8466C502.824 52.267 502.702 52.7358 502.696 53.2528V55.392C502.696 56.0398 502.815 56.5994 503.054 57.071C503.298 57.5426 503.642 57.9062 504.085 58.1619C504.528 58.4176 505.054 58.5455 505.662 58.5455C506.065 58.5455 506.435 58.4886 506.77 58.375C507.105 58.2614 507.392 58.0909 507.631 57.8636C507.869 57.6364 508.051 57.358 508.176 57.0284L511.534 57.25C511.364 58.0568 511.014 58.7614 510.486 59.3636C509.963 59.9602 509.287 60.4261 508.457 60.7614C507.634 61.0909 506.682 61.2557 505.602 61.2557ZM513.98 61V47.9091H517.5V50.1932H517.636C517.875 49.3807 518.276 48.767 518.838 48.3523C519.401 47.9318 520.048 47.7216 520.781 47.7216C520.963 47.7216 521.159 47.733 521.369 47.7557C521.58 47.7784 521.764 47.8097 521.923 47.8494V51.071C521.753 51.0199 521.517 50.9744 521.216 50.9347C520.915 50.8949 520.639 50.875 520.389 50.875C519.855 50.875 519.378 50.9915 518.957 51.2244C518.543 51.4517 518.213 51.7699 517.969 52.179C517.73 52.5881 517.611 53.0597 517.611 53.5938V61H513.98ZM532.986 43.5455V61H529.355V43.5455H532.986ZM539.627 61.2472C538.792 61.2472 538.048 61.1023 537.394 60.8125C536.741 60.517 536.224 60.0824 535.843 59.5085C535.468 58.929 535.281 58.2074 535.281 57.3438C535.281 56.6165 535.414 56.0057 535.681 55.5114C535.948 55.017 536.312 54.6193 536.772 54.3182C537.232 54.017 537.755 53.7898 538.34 53.6364C538.931 53.483 539.55 53.375 540.198 53.3125C540.96 53.233 541.573 53.1591 542.039 53.0909C542.505 53.017 542.843 52.9091 543.053 52.767C543.263 52.625 543.369 52.4148 543.369 52.1364V52.0852C543.369 51.5455 543.198 51.1278 542.857 50.8324C542.522 50.5369 542.045 50.3892 541.425 50.3892C540.772 50.3892 540.252 50.5341 539.866 50.8239C539.479 51.108 539.224 51.4659 539.099 51.8977L535.741 51.625C535.911 50.8295 536.246 50.142 536.746 49.5625C537.246 48.9773 537.891 48.5284 538.681 48.2159C539.477 47.8977 540.397 47.7386 541.442 47.7386C542.17 47.7386 542.866 47.8239 543.531 47.9943C544.201 48.1648 544.795 48.429 545.312 48.7869C545.835 49.1449 546.246 49.6051 546.548 50.1676C546.849 50.7244 546.999 51.392 546.999 52.1705V61H543.556V59.1847H543.454C543.244 59.5938 542.962 59.9545 542.61 60.267C542.258 60.5739 541.835 60.8153 541.34 60.9915C540.846 61.1619 540.275 61.2472 539.627 61.2472ZM540.667 58.7415C541.201 58.7415 541.673 58.6364 542.082 58.4261C542.491 58.2102 542.812 57.9205 543.045 57.5568C543.278 57.1932 543.394 56.7812 543.394 56.321V54.9318C543.281 55.0057 543.124 55.0739 542.925 55.1364C542.732 55.1932 542.513 55.2472 542.269 55.2983C542.025 55.3437 541.781 55.3864 541.536 55.4261C541.292 55.4602 541.07 55.4915 540.871 55.5199C540.445 55.5824 540.073 55.6818 539.755 55.8182C539.437 55.9545 539.19 56.1392 539.013 56.3722C538.837 56.5994 538.749 56.8835 538.749 57.2244C538.749 57.7188 538.928 58.0966 539.286 58.358C539.65 58.6136 540.11 58.7415 540.667 58.7415ZM553.447 53.4318V61H549.816V47.9091H553.276V50.2188H553.43C553.719 49.4574 554.205 48.8551 554.887 48.4119C555.569 47.9631 556.396 47.7386 557.367 47.7386C558.276 47.7386 559.069 47.9375 559.745 48.3352C560.421 48.733 560.947 49.3011 561.322 50.0398C561.697 50.7727 561.884 51.6477 561.884 52.6648V61H558.254V53.3125C558.259 52.5114 558.055 51.8864 557.64 51.4375C557.225 50.983 556.654 50.7557 555.927 50.7557C555.438 50.7557 555.006 50.8608 554.631 51.071C554.262 51.2812 553.972 51.5881 553.762 51.9915C553.558 52.3892 553.452 52.8693 553.447 53.4318ZM570.643 66.1818C569.467 66.1818 568.459 66.0199 567.618 65.696C566.783 65.3778 566.118 64.9432 565.624 64.392C565.129 63.8409 564.808 63.2216 564.661 62.5341L568.018 62.0824C568.121 62.3438 568.283 62.5881 568.504 62.8153C568.726 63.0426 569.018 63.2244 569.382 63.3608C569.751 63.5028 570.2 63.5739 570.729 63.5739C571.518 63.5739 572.169 63.3807 572.68 62.9943C573.197 62.6136 573.456 61.9744 573.456 61.0767V58.6818H573.303C573.143 59.0455 572.905 59.3892 572.587 59.7131C572.268 60.0369 571.859 60.3011 571.359 60.5057C570.859 60.7102 570.263 60.8125 569.57 60.8125C568.587 60.8125 567.692 60.5852 566.885 60.1307C566.084 59.6705 565.445 58.9687 564.967 58.0256C564.496 57.0767 564.26 55.8778 564.26 54.429C564.26 52.946 564.501 51.7074 564.984 50.7131C565.467 49.7187 566.109 48.9744 566.911 48.4801C567.717 47.9858 568.601 47.7386 569.561 47.7386C570.294 47.7386 570.908 47.8636 571.402 48.1136C571.896 48.358 572.294 48.6648 572.595 49.0341C572.902 49.3977 573.138 49.7557 573.303 50.108H573.439V47.9091H577.044V61.1278C577.044 62.2415 576.771 63.1733 576.226 63.9233C575.68 64.6733 574.925 65.2358 573.959 65.6108C572.999 65.9915 571.893 66.1818 570.643 66.1818ZM570.72 58.0852C571.305 58.0852 571.8 57.9403 572.203 57.6506C572.612 57.3551 572.925 56.9347 573.141 56.3892C573.362 55.8381 573.473 55.179 573.473 54.4119C573.473 53.6449 573.365 52.9801 573.149 52.4176C572.933 51.8494 572.621 51.4091 572.212 51.0966C571.803 50.7841 571.305 50.6278 570.72 50.6278C570.124 50.6278 569.621 50.7898 569.212 51.1136C568.803 51.4318 568.493 51.875 568.283 52.4432C568.072 53.0114 567.967 53.6676 567.967 54.4119C567.967 55.1676 568.072 55.821 568.283 56.3722C568.499 56.9176 568.808 57.3409 569.212 57.642C569.621 57.9375 570.124 58.0852 570.72 58.0852ZM588.328 55.4261V47.9091H591.959V61H588.473V58.6222H588.337C588.041 59.3892 587.55 60.0057 586.862 60.4716C586.18 60.9375 585.348 61.1705 584.365 61.1705C583.49 61.1705 582.72 60.9716 582.055 60.5739C581.391 60.1761 580.871 59.6108 580.496 58.8778C580.126 58.1449 579.939 57.267 579.933 56.2443V47.9091H583.564V55.5966C583.57 56.3693 583.777 56.9801 584.186 57.429C584.595 57.8778 585.143 58.1023 585.831 58.1023C586.268 58.1023 586.678 58.0028 587.058 57.804C587.439 57.5994 587.746 57.2983 587.979 56.9006C588.217 56.5028 588.334 56.0114 588.328 55.4261ZM598.596 61.2472C597.761 61.2472 597.016 61.1023 596.363 60.8125C595.71 60.517 595.192 60.0824 594.812 59.5085C594.437 58.929 594.249 58.2074 594.249 57.3438C594.249 56.6165 594.383 56.0057 594.65 55.5114C594.917 55.017 595.281 54.6193 595.741 54.3182C596.201 54.017 596.724 53.7898 597.309 53.6364C597.9 53.483 598.519 53.375 599.167 53.3125C599.928 53.233 600.542 53.1591 601.008 53.0909C601.474 53.017 601.812 52.9091 602.022 52.767C602.232 52.625 602.337 52.4148 602.337 52.1364V52.0852C602.337 51.5455 602.167 51.1278 601.826 50.8324C601.491 50.5369 601.013 50.3892 600.394 50.3892C599.741 50.3892 599.221 50.5341 598.835 50.8239C598.448 51.108 598.192 51.4659 598.067 51.8977L594.71 51.625C594.88 50.8295 595.215 50.142 595.715 49.5625C596.215 48.9773 596.86 48.5284 597.65 48.2159C598.445 47.8977 599.366 47.7386 600.411 47.7386C601.138 47.7386 601.835 47.8239 602.499 47.9943C603.17 48.1648 603.763 48.429 604.281 48.7869C604.803 49.1449 605.215 49.6051 605.516 50.1676C605.817 50.7244 605.968 51.392 605.968 52.1705V61H602.525V59.1847H602.423C602.212 59.5938 601.931 59.9545 601.579 60.267C601.227 60.5739 600.803 60.8153 600.309 60.9915C599.815 61.1619 599.244 61.2472 598.596 61.2472ZM599.636 58.7415C600.17 58.7415 600.641 58.6364 601.05 58.4261C601.46 58.2102 601.781 57.9205 602.013 57.5568C602.246 57.1932 602.363 56.7812 602.363 56.321V54.9318C602.249 55.0057 602.093 55.0739 601.894 55.1364C601.701 55.1932 601.482 55.2472 601.238 55.2983C600.994 55.3437 600.749 55.3864 600.505 55.4261C600.261 55.4602 600.039 55.4915 599.84 55.5199C599.414 55.5824 599.042 55.6818 598.724 55.8182C598.406 55.9545 598.158 56.1392 597.982 56.3722C597.806 56.5994 597.718 56.8835 597.718 57.2244C597.718 57.7188 597.897 58.0966 598.255 58.358C598.619 58.6136 599.079 58.7415 599.636 58.7415ZM614.683 66.1818C613.506 66.1818 612.498 66.0199 611.657 65.696C610.822 65.3778 610.157 64.9432 609.663 64.392C609.168 63.8409 608.847 63.2216 608.7 62.5341L612.058 62.0824C612.16 62.3438 612.322 62.5881 612.543 62.8153C612.765 63.0426 613.058 63.2244 613.421 63.3608C613.79 63.5028 614.239 63.5739 614.768 63.5739C615.558 63.5739 616.208 63.3807 616.719 62.9943C617.237 62.6136 617.495 61.9744 617.495 61.0767V58.6818H617.342C617.183 59.0455 616.944 59.3892 616.626 59.7131C616.308 60.0369 615.898 60.3011 615.398 60.5057C614.898 60.7102 614.302 60.8125 613.609 60.8125C612.626 60.8125 611.731 60.5852 610.924 60.1307C610.123 59.6705 609.484 58.9687 609.006 58.0256C608.535 57.0767 608.299 55.8778 608.299 54.429C608.299 52.946 608.54 51.7074 609.023 50.7131C609.506 49.7187 610.148 48.9744 610.95 48.4801C611.756 47.9858 612.64 47.7386 613.6 47.7386C614.333 47.7386 614.947 47.8636 615.441 48.1136C615.935 48.358 616.333 48.6648 616.634 49.0341C616.941 49.3977 617.177 49.7557 617.342 50.108H617.478V47.9091H621.083V61.1278C621.083 62.2415 620.81 63.1733 620.265 63.9233C619.719 64.6733 618.964 65.2358 617.998 65.6108C617.038 65.9915 615.933 66.1818 614.683 66.1818ZM614.759 58.0852C615.344 58.0852 615.839 57.9403 616.242 57.6506C616.651 57.3551 616.964 56.9347 617.18 56.3892C617.401 55.8381 617.512 55.179 617.512 54.4119C617.512 53.6449 617.404 52.9801 617.188 52.4176C616.972 51.8494 616.66 51.4091 616.251 51.0966C615.842 50.7841 615.344 50.6278 614.759 50.6278C614.163 50.6278 613.66 50.7898 613.251 51.1136C612.842 51.4318 612.532 51.875 612.322 52.4432C612.112 53.0114 612.006 53.6676 612.006 54.4119C612.006 55.1676 612.112 55.821 612.322 56.3722C612.538 56.9176 612.847 57.3409 613.251 57.642C613.66 57.9375 614.163 58.0852 614.759 58.0852ZM629.938 61.2557C628.592 61.2557 627.433 60.983 626.461 60.4375C625.495 59.8864 624.751 59.108 624.228 58.1023C623.705 57.0909 623.444 55.8949 623.444 54.5142C623.444 53.1676 623.705 51.9858 624.228 50.9688C624.751 49.9517 625.487 49.1591 626.435 48.5909C627.39 48.0227 628.509 47.7386 629.793 47.7386C630.657 47.7386 631.461 47.8778 632.205 48.1562C632.955 48.429 633.609 48.8409 634.165 49.392C634.728 49.9432 635.165 50.6364 635.478 51.4716C635.79 52.3011 635.947 53.2727 635.947 54.3864V55.3835H624.893V53.1335H632.529C632.529 52.6108 632.415 52.1477 632.188 51.7443C631.961 51.3409 631.646 51.0256 631.242 50.7983C630.844 50.5653 630.381 50.4489 629.853 50.4489C629.302 50.4489 628.813 50.5767 628.387 50.8324C627.967 51.0824 627.637 51.4205 627.398 51.8466C627.16 52.267 627.038 52.7358 627.032 53.2528V55.392C627.032 56.0398 627.151 56.5994 627.39 57.071C627.634 57.5426 627.978 57.9062 628.421 58.1619C628.864 58.4176 629.39 58.5455 629.998 58.5455C630.401 58.5455 630.771 58.4886 631.106 58.375C631.441 58.2614 631.728 58.0909 631.967 57.8636C632.205 57.6364 632.387 57.358 632.512 57.0284L635.87 57.25C635.7 58.0568 635.35 58.7614 634.822 59.3636C634.299 59.9602 633.623 60.4261 632.793 60.7614C631.969 61.0909 631.018 61.2557 629.938 61.2557ZM641.435 55.767V55.4773C641.441 54.483 641.529 53.6903 641.7 53.0994C641.876 52.5085 642.131 52.0312 642.467 51.6676C642.802 51.304 643.205 50.9744 643.677 50.679C644.029 50.4517 644.344 50.2159 644.623 49.9716C644.901 49.7273 645.123 49.4574 645.288 49.1619C645.452 48.8608 645.535 48.5256 645.535 48.1562C645.535 47.7642 645.441 47.4205 645.254 47.125C645.066 46.8295 644.813 46.6023 644.495 46.4432C644.183 46.2841 643.836 46.2045 643.455 46.2045C643.086 46.2045 642.737 46.2869 642.407 46.4517C642.077 46.6108 641.808 46.8494 641.597 47.1676C641.387 47.4801 641.273 47.8693 641.256 48.3352H637.779C637.808 47.1989 638.08 46.2614 638.597 45.5227C639.114 44.7784 639.799 44.2244 640.651 43.8608C641.504 43.4915 642.444 43.3068 643.472 43.3068C644.603 43.3068 645.603 43.4943 646.472 43.8693C647.342 44.2386 648.023 44.7756 648.518 45.4801C649.012 46.1847 649.259 47.0341 649.259 48.0284C649.259 48.6932 649.148 49.2841 648.927 49.8011C648.711 50.3125 648.407 50.767 648.015 51.1648C647.623 51.5568 647.16 51.9119 646.626 52.2301C646.177 52.4972 645.808 52.7756 645.518 53.0653C645.234 53.3551 645.021 53.6903 644.879 54.071C644.742 54.4517 644.671 54.9205 644.665 55.4773V55.767H641.435ZM643.123 61.2216C642.555 61.2216 642.069 61.0227 641.665 60.625C641.268 60.2216 641.072 59.7386 641.077 59.1761C641.072 58.6193 641.268 58.142 641.665 57.7443C642.069 57.3466 642.555 57.1477 643.123 57.1477C643.663 57.1477 644.137 57.3466 644.546 57.7443C644.955 58.142 645.163 58.6193 645.168 59.1761C645.163 59.5511 645.063 59.8949 644.87 60.2074C644.683 60.5142 644.435 60.7614 644.129 60.9489C643.822 61.1307 643.487 61.2216 643.123 61.2216Z" fill="black"/>
<circle cx="402.771" cy="336" r="216" fill="#AAC8C2" stroke="#288071" stroke-width="2"/>
<g filter="url(#filter0_d_2851_44147)">
<path d="M397.771 345V122V121H399.771C441.684 121.389 470.323 127.575 507.771 149C524.435 158.534 533.269 164.585 547.771 177C568.313 198.161 578.416 210.411 591.771 233.5L591.824 233.612C600.158 251.512 604.847 261.582 611.271 280.5C619.447 324.36 621.587 348.695 611.271 390.5C602.873 418.109 597.895 433.345 581.771 453L397.771 345Z" style="mix-blend-mode:color-dodge" shape-rendering="crispEdges"/>
<path d="M397.771 345V122V121H399.771C441.684 121.389 470.323 127.575 507.771 149C524.435 158.534 533.269 164.585 547.771 177C568.313 198.161 578.416 210.411 591.771 233.5L591.824 233.612C600.158 251.512 604.847 261.582 611.271 280.5C619.447 324.36 621.587 348.695 611.271 390.5C602.873 418.109 597.895 433.345 581.771 453L397.771 345Z" stroke="#288071" stroke-width="3" shape-rendering="crispEdges"/>
</g>
<path d="M232.602 359.239C231.886 359.227 231.17 359.091 230.455 358.83C229.739 358.568 229.085 358.128 228.494 357.509C227.903 356.884 227.429 356.04 227.071 354.977C226.713 353.909 226.534 352.568 226.534 350.955C226.534 349.409 226.679 348.04 226.969 346.847C227.259 345.648 227.679 344.639 228.23 343.821C228.781 342.997 229.446 342.372 230.224 341.946C231.009 341.52 231.892 341.307 232.875 341.307C233.852 341.307 234.722 341.503 235.483 341.895C236.25 342.281 236.875 342.821 237.358 343.514C237.841 344.207 238.153 345.006 238.295 345.909H236.216C236.023 345.125 235.648 344.474 235.091 343.957C234.534 343.44 233.795 343.182 232.875 343.182C231.523 343.182 230.457 343.77 229.679 344.946C228.906 346.122 228.517 347.773 228.511 349.898H228.648C228.966 349.415 229.344 349.003 229.781 348.662C230.224 348.315 230.713 348.048 231.247 347.861C231.781 347.673 232.347 347.58 232.943 347.58C233.943 347.58 234.858 347.83 235.688 348.33C236.517 348.824 237.182 349.509 237.682 350.384C238.182 351.253 238.432 352.25 238.432 353.375C238.432 354.455 238.19 355.443 237.707 356.341C237.224 357.233 236.545 357.943 235.67 358.472C234.801 358.994 233.778 359.25 232.602 359.239ZM232.602 357.364C233.318 357.364 233.96 357.185 234.528 356.827C235.102 356.469 235.554 355.989 235.884 355.386C236.219 354.784 236.386 354.114 236.386 353.375C236.386 352.653 236.224 351.997 235.901 351.406C235.582 350.81 235.142 350.335 234.58 349.983C234.023 349.631 233.386 349.455 232.67 349.455C232.131 349.455 231.628 349.562 231.162 349.778C230.696 349.989 230.287 350.278 229.935 350.648C229.588 351.017 229.315 351.44 229.116 351.918C228.918 352.389 228.818 352.886 228.818 353.409C228.818 354.102 228.98 354.75 229.304 355.352C229.634 355.955 230.082 356.44 230.651 356.81C231.224 357.179 231.875 357.364 232.602 357.364ZM247.477 359.239C246.192 359.239 245.099 358.889 244.195 358.19C243.292 357.486 242.602 356.466 242.124 355.131C241.647 353.79 241.408 352.17 241.408 350.273C241.408 348.386 241.647 346.776 242.124 345.44C242.607 344.099 243.3 343.077 244.204 342.372C245.113 341.662 246.204 341.307 247.477 341.307C248.749 341.307 249.837 341.662 250.741 342.372C251.65 343.077 252.343 344.099 252.82 345.44C253.303 346.776 253.545 348.386 253.545 350.273C253.545 352.17 253.306 353.79 252.829 355.131C252.352 356.466 251.661 357.486 250.758 358.19C249.854 358.889 248.761 359.239 247.477 359.239ZM247.477 357.364C248.749 357.364 249.738 356.75 250.442 355.523C251.147 354.295 251.499 352.545 251.499 350.273C251.499 348.761 251.337 347.474 251.013 346.412C250.695 345.349 250.235 344.54 249.633 343.983C249.036 343.426 248.317 343.148 247.477 343.148C246.215 343.148 245.229 343.77 244.519 345.014C243.809 346.253 243.454 348.006 243.454 350.273C243.454 351.784 243.613 353.068 243.931 354.125C244.249 355.182 244.707 355.986 245.303 356.537C245.906 357.088 246.63 357.364 247.477 357.364ZM265.681 355.727V354.807C265.681 354.17 265.812 353.588 266.073 353.06C266.34 352.526 266.727 352.099 267.232 351.781C267.744 351.457 268.363 351.295 269.09 351.295C269.829 351.295 270.448 351.457 270.948 351.781C271.448 352.099 271.826 352.526 272.082 353.06C272.337 353.588 272.465 354.17 272.465 354.807V355.727C272.465 356.364 272.335 356.949 272.073 357.483C271.817 358.011 271.437 358.437 270.931 358.761C270.431 359.08 269.817 359.239 269.09 359.239C268.352 359.239 267.729 359.08 267.224 358.761C266.718 358.437 266.335 358.011 266.073 357.483C265.812 356.949 265.681 356.364 265.681 355.727ZM267.42 354.807V355.727C267.42 356.256 267.545 356.73 267.795 357.151C268.045 357.565 268.477 357.773 269.09 357.773C269.687 357.773 270.107 357.565 270.352 357.151C270.602 356.73 270.727 356.256 270.727 355.727V354.807C270.727 354.278 270.607 353.807 270.369 353.392C270.13 352.972 269.704 352.761 269.09 352.761C268.494 352.761 268.065 352.972 267.803 353.392C267.548 353.807 267.42 354.278 267.42 354.807ZM256.988 345.739V344.818C256.988 344.182 257.119 343.599 257.38 343.071C257.647 342.537 258.033 342.111 258.539 341.793C259.05 341.469 259.67 341.307 260.397 341.307C261.136 341.307 261.755 341.469 262.255 341.793C262.755 342.111 263.133 342.537 263.388 343.071C263.644 343.599 263.772 344.182 263.772 344.818V345.739C263.772 346.375 263.641 346.96 263.38 347.494C263.124 348.023 262.744 348.449 262.238 348.773C261.738 349.091 261.124 349.25 260.397 349.25C259.658 349.25 259.036 349.091 258.531 348.773C258.025 348.449 257.641 348.023 257.38 347.494C257.119 346.96 256.988 346.375 256.988 345.739ZM258.727 344.818V345.739C258.727 346.267 258.852 346.741 259.102 347.162C259.352 347.577 259.783 347.784 260.397 347.784C260.994 347.784 261.414 347.577 261.658 347.162C261.908 346.741 262.033 346.267 262.033 345.739V344.818C262.033 344.29 261.914 343.818 261.675 343.403C261.437 342.983 261.011 342.773 260.397 342.773C259.8 342.773 259.371 342.983 259.11 343.403C258.854 343.818 258.727 344.29 258.727 344.818ZM257.636 359L269.636 341.545H271.579L259.579 359H257.636ZM283.34 359V341.545H293.806V343.42H285.454V349.318H293.022V351.193H285.454V359H283.34ZM301.511 359.273C300.329 359.273 299.292 358.991 298.4 358.429C297.513 357.866 296.82 357.08 296.32 356.068C295.826 355.057 295.579 353.875 295.579 352.523C295.579 351.159 295.826 349.969 296.32 348.952C296.82 347.935 297.513 347.145 298.4 346.582C299.292 346.02 300.329 345.739 301.511 345.739C302.692 345.739 303.727 346.02 304.613 346.582C305.505 347.145 306.198 347.935 306.692 348.952C307.192 349.969 307.442 351.159 307.442 352.523C307.442 353.875 307.192 355.057 306.692 356.068C306.198 357.08 305.505 357.866 304.613 358.429C303.727 358.991 302.692 359.273 301.511 359.273ZM301.511 357.466C302.408 357.466 303.147 357.236 303.727 356.776C304.306 356.315 304.735 355.71 305.013 354.96C305.292 354.21 305.431 353.398 305.431 352.523C305.431 351.648 305.292 350.832 305.013 350.077C304.735 349.321 304.306 348.71 303.727 348.244C303.147 347.778 302.408 347.545 301.511 347.545C300.613 347.545 299.874 347.778 299.295 348.244C298.715 348.71 298.286 349.321 298.008 350.077C297.729 350.832 297.59 351.648 297.59 352.523C297.59 353.398 297.729 354.21 298.008 354.96C298.286 355.71 298.715 356.315 299.295 356.776C299.874 357.236 300.613 357.466 301.511 357.466ZM310.513 359V345.909H312.456V347.886H312.592C312.831 347.239 313.263 346.713 313.888 346.31C314.513 345.906 315.217 345.705 316.001 345.705C316.149 345.705 316.334 345.707 316.555 345.713C316.777 345.719 316.945 345.727 317.058 345.739V347.784C316.99 347.767 316.834 347.741 316.589 347.707C316.351 347.668 316.098 347.648 315.831 347.648C315.195 347.648 314.626 347.781 314.126 348.048C313.632 348.31 313.24 348.673 312.95 349.139C312.666 349.599 312.524 350.125 312.524 350.716V359H310.513ZM333.147 341.545H335.261V354.023C335.261 355.136 335.056 356.082 334.647 356.861C334.238 357.639 333.661 358.23 332.917 358.634C332.173 359.037 331.295 359.239 330.283 359.239C329.329 359.239 328.479 359.065 327.735 358.719C326.991 358.366 326.406 357.866 325.979 357.219C325.553 356.571 325.34 355.801 325.34 354.909H327.42C327.42 355.403 327.542 355.835 327.786 356.205C328.036 356.568 328.377 356.852 328.809 357.057C329.241 357.261 329.732 357.364 330.283 357.364C330.891 357.364 331.408 357.236 331.835 356.98C332.261 356.724 332.585 356.349 332.806 355.855C333.033 355.355 333.147 354.744 333.147 354.023V341.545ZM344.542 359.273C343.36 359.273 342.323 358.991 341.431 358.429C340.545 357.866 339.852 357.08 339.352 356.068C338.857 355.057 338.61 353.875 338.61 352.523C338.61 351.159 338.857 349.969 339.352 348.952C339.852 347.935 340.545 347.145 341.431 346.582C342.323 346.02 343.36 345.739 344.542 345.739C345.724 345.739 346.758 346.02 347.644 346.582C348.536 347.145 349.229 347.935 349.724 348.952C350.224 349.969 350.474 351.159 350.474 352.523C350.474 353.875 350.224 355.057 349.724 356.068C349.229 357.08 348.536 357.866 347.644 358.429C346.758 358.991 345.724 359.273 344.542 359.273ZM344.542 357.466C345.44 357.466 346.178 357.236 346.758 356.776C347.337 356.315 347.766 355.71 348.045 354.96C348.323 354.21 348.462 353.398 348.462 352.523C348.462 351.648 348.323 350.832 348.045 350.077C347.766 349.321 347.337 348.71 346.758 348.244C346.178 347.778 345.44 347.545 344.542 347.545C343.644 347.545 342.906 347.778 342.326 348.244C341.746 348.71 341.317 349.321 341.039 350.077C340.761 350.832 340.621 351.648 340.621 352.523C340.621 353.398 340.761 354.21 341.039 354.96C341.317 355.71 341.746 356.315 342.326 356.776C342.906 357.236 343.644 357.466 344.542 357.466ZM353.817 359V341.545H355.828V347.989H355.999C356.146 347.761 356.351 347.472 356.612 347.119C356.879 346.761 357.26 346.443 357.754 346.165C358.254 345.881 358.93 345.739 359.783 345.739C360.885 345.739 361.857 346.014 362.697 346.565C363.538 347.116 364.195 347.898 364.666 348.909C365.138 349.92 365.374 351.114 365.374 352.489C365.374 353.875 365.138 355.077 364.666 356.094C364.195 357.105 363.541 357.889 362.706 358.446C361.871 358.997 360.908 359.273 359.817 359.273C358.976 359.273 358.303 359.134 357.797 358.855C357.291 358.571 356.902 358.25 356.629 357.892C356.357 357.528 356.146 357.227 355.999 356.989H355.76V359H353.817ZM355.794 352.455C355.794 353.443 355.939 354.315 356.229 355.071C356.518 355.821 356.942 356.409 357.499 356.835C358.055 357.256 358.737 357.466 359.544 357.466C360.385 357.466 361.087 357.244 361.649 356.801C362.217 356.352 362.643 355.75 362.928 354.994C363.217 354.233 363.362 353.386 363.362 352.455C363.362 351.534 363.22 350.705 362.936 349.966C362.658 349.222 362.234 348.634 361.666 348.202C361.104 347.764 360.396 347.545 359.544 347.545C358.726 347.545 358.038 347.753 357.482 348.168C356.925 348.577 356.504 349.151 356.22 349.889C355.936 350.622 355.794 351.477 355.794 352.455ZM232.159 388.273C230.977 388.273 229.94 387.991 229.048 387.429C228.162 386.866 227.469 386.08 226.969 385.068C226.474 384.057 226.227 382.875 226.227 381.523C226.227 380.159 226.474 378.969 226.969 377.952C227.469 376.935 228.162 376.145 229.048 375.582C229.94 375.02 230.977 374.739 232.159 374.739C233.341 374.739 234.375 375.02 235.261 375.582C236.153 376.145 236.847 376.935 237.341 377.952C237.841 378.969 238.091 380.159 238.091 381.523C238.091 382.875 237.841 384.057 237.341 385.068C236.847 386.08 236.153 386.866 235.261 387.429C234.375 387.991 233.341 388.273 232.159 388.273ZM232.159 386.466C233.057 386.466 233.795 386.236 234.375 385.776C234.955 385.315 235.384 384.71 235.662 383.96C235.94 383.21 236.08 382.398 236.08 381.523C236.08 380.648 235.94 379.832 235.662 379.077C235.384 378.321 234.955 377.71 234.375 377.244C233.795 376.778 233.057 376.545 232.159 376.545C231.261 376.545 230.523 376.778 229.943 377.244C229.364 377.71 228.935 378.321 228.656 379.077C228.378 379.832 228.239 380.648 228.239 381.523C228.239 382.398 228.378 383.21 228.656 383.96C228.935 384.71 229.364 385.315 229.943 385.776C230.523 386.236 231.261 386.466 232.159 386.466ZM241.161 392.909V374.909H243.104V376.989H243.343C243.491 376.761 243.695 376.472 243.957 376.119C244.224 375.761 244.604 375.443 245.099 375.165C245.599 374.881 246.275 374.739 247.127 374.739C248.229 374.739 249.201 375.014 250.042 375.565C250.883 376.116 251.539 376.898 252.011 377.909C252.482 378.92 252.718 380.114 252.718 381.489C252.718 382.875 252.482 384.077 252.011 385.094C251.539 386.105 250.886 386.889 250.05 387.446C249.215 387.997 248.252 388.273 247.161 388.273C246.32 388.273 245.647 388.134 245.141 387.855C244.636 387.571 244.246 387.25 243.974 386.892C243.701 386.528 243.491 386.227 243.343 385.989H243.173V392.909H241.161ZM243.138 381.455C243.138 382.443 243.283 383.315 243.573 384.071C243.863 384.821 244.286 385.409 244.843 385.835C245.4 386.256 246.082 386.466 246.888 386.466C247.729 386.466 248.431 386.244 248.994 385.801C249.562 385.352 249.988 384.75 250.272 383.994C250.562 383.233 250.707 382.386 250.707 381.455C250.707 380.534 250.565 379.705 250.281 378.966C250.002 378.222 249.579 377.634 249.011 377.202C248.448 376.764 247.741 376.545 246.888 376.545C246.07 376.545 245.383 376.753 244.826 377.168C244.269 377.577 243.849 378.151 243.565 378.889C243.281 379.622 243.138 380.477 243.138 381.455ZM255.786 392.909V374.909H257.729V376.989H257.968C258.116 376.761 258.32 376.472 258.582 376.119C258.849 375.761 259.229 375.443 259.724 375.165C260.224 374.881 260.9 374.739 261.752 374.739C262.854 374.739 263.826 375.014 264.667 375.565C265.508 376.116 266.164 376.898 266.636 377.909C267.107 378.92 267.343 380.114 267.343 381.489C267.343 382.875 267.107 384.077 266.636 385.094C266.164 386.105 265.511 386.889 264.675 387.446C263.84 387.997 262.877 388.273 261.786 388.273C260.945 388.273 260.272 388.134 259.766 387.855C259.261 387.571 258.871 387.25 258.599 386.892C258.326 386.528 258.116 386.227 257.968 385.989H257.798V392.909H255.786ZM257.763 381.455C257.763 382.443 257.908 383.315 258.198 384.071C258.488 384.821 258.911 385.409 259.468 385.835C260.025 386.256 260.707 386.466 261.513 386.466C262.354 386.466 263.056 386.244 263.619 385.801C264.187 385.352 264.613 384.75 264.897 383.994C265.187 383.233 265.332 382.386 265.332 381.455C265.332 380.534 265.19 379.705 264.906 378.966C264.627 378.222 264.204 377.634 263.636 377.202C263.073 376.764 262.366 376.545 261.513 376.545C260.695 376.545 260.008 376.753 259.451 377.168C258.894 377.577 258.474 378.151 258.19 378.889C257.906 379.622 257.763 380.477 257.763 381.455ZM275.729 388.273C274.548 388.273 273.511 387.991 272.619 387.429C271.732 386.866 271.039 386.08 270.539 385.068C270.045 384.057 269.798 382.875 269.798 381.523C269.798 380.159 270.045 378.969 270.539 377.952C271.039 376.935 271.732 376.145 272.619 375.582C273.511 375.02 274.548 374.739 275.729 374.739C276.911 374.739 277.945 375.02 278.832 375.582C279.724 376.145 280.417 376.935 280.911 377.952C281.411 378.969 281.661 380.159 281.661 381.523C281.661 382.875 281.411 384.057 280.911 385.068C280.417 386.08 279.724 386.866 278.832 387.429C277.945 387.991 276.911 388.273 275.729 388.273ZM275.729 386.466C276.627 386.466 277.366 386.236 277.945 385.776C278.525 385.315 278.954 384.71 279.232 383.96C279.511 383.21 279.65 382.398 279.65 381.523C279.65 380.648 279.511 379.832 279.232 379.077C278.954 378.321 278.525 377.71 277.945 377.244C277.366 376.778 276.627 376.545 275.729 376.545C274.832 376.545 274.093 376.778 273.513 377.244C272.934 377.71 272.505 378.321 272.227 379.077C271.948 379.832 271.809 380.648 271.809 381.523C271.809 382.398 271.948 383.21 272.227 383.96C272.505 384.71 272.934 385.315 273.513 385.776C274.093 386.236 274.832 386.466 275.729 386.466ZM284.732 388V374.909H286.675V376.886H286.811C287.05 376.239 287.482 375.713 288.107 375.31C288.732 374.906 289.436 374.705 290.22 374.705C290.368 374.705 290.553 374.707 290.774 374.713C290.996 374.719 291.163 374.727 291.277 374.739V376.784C291.209 376.767 291.053 376.741 290.808 376.707C290.57 376.668 290.317 376.648 290.05 376.648C289.413 376.648 288.845 376.781 288.345 377.048C287.851 377.31 287.459 377.673 287.169 378.139C286.885 378.599 286.743 379.125 286.743 379.716V388H284.732ZM300.175 374.909V376.614H293.391V374.909H300.175ZM295.368 371.773H297.379V384.25C297.379 384.818 297.462 385.244 297.626 385.528C297.797 385.807 298.013 385.994 298.274 386.091C298.541 386.182 298.822 386.227 299.118 386.227C299.339 386.227 299.521 386.216 299.663 386.193C299.805 386.165 299.919 386.142 300.004 386.125L300.413 387.932C300.277 387.983 300.087 388.034 299.842 388.085C299.598 388.142 299.288 388.17 298.913 388.17C298.345 388.17 297.788 388.048 297.243 387.804C296.703 387.56 296.254 387.188 295.896 386.688C295.544 386.188 295.368 385.557 295.368 384.795V371.773ZM311.45 382.648V374.909H313.462V388H311.45V385.784H311.314C311.007 386.449 310.53 387.014 309.882 387.48C309.234 387.94 308.416 388.17 307.428 388.17C306.609 388.17 305.882 387.991 305.246 387.634C304.609 387.27 304.109 386.724 303.746 385.997C303.382 385.264 303.2 384.341 303.2 383.227V374.909H305.212V383.091C305.212 384.045 305.479 384.807 306.013 385.375C306.553 385.943 307.24 386.227 308.075 386.227C308.575 386.227 309.084 386.099 309.601 385.844C310.124 385.588 310.561 385.196 310.913 384.668C311.271 384.139 311.45 383.466 311.45 382.648ZM319.157 380.125V388H317.146V374.909H319.089V376.955H319.259C319.566 376.29 320.032 375.756 320.657 375.352C321.282 374.943 322.089 374.739 323.077 374.739C323.964 374.739 324.739 374.92 325.404 375.284C326.069 375.642 326.586 376.188 326.955 376.92C327.325 377.648 327.509 378.568 327.509 379.682V388H325.498V379.818C325.498 378.79 325.231 377.989 324.697 377.415C324.163 376.835 323.43 376.545 322.498 376.545C321.856 376.545 321.282 376.685 320.776 376.963C320.276 377.241 319.881 377.648 319.592 378.182C319.302 378.716 319.157 379.364 319.157 380.125ZM331.185 388V374.909H333.196V388H331.185ZM332.207 372.727C331.815 372.727 331.477 372.594 331.193 372.327C330.915 372.06 330.776 371.739 330.776 371.364C330.776 370.989 330.915 370.668 331.193 370.401C331.477 370.134 331.815 370 332.207 370C332.599 370 332.935 370.134 333.213 370.401C333.497 370.668 333.639 370.989 333.639 371.364C333.639 371.739 333.497 372.06 333.213 372.327C332.935 372.594 332.599 372.727 332.207 372.727ZM342.573 374.909V376.614H335.789V374.909H342.573ZM337.766 371.773H339.778V384.25C339.778 384.818 339.86 385.244 340.025 385.528C340.195 385.807 340.411 385.994 340.673 386.091C340.94 386.182 341.221 386.227 341.516 386.227C341.738 386.227 341.92 386.216 342.062 386.193C342.204 386.165 342.317 386.142 342.403 386.125L342.812 387.932C342.675 387.983 342.485 388.034 342.241 388.085C341.996 388.142 341.687 388.17 341.312 388.17C340.744 388.17 340.187 388.048 339.641 387.804C339.102 387.56 338.653 387.188 338.295 386.688C337.942 386.188 337.766 385.557 337.766 384.795V371.773ZM345.599 388V374.909H347.61V388H345.599ZM346.621 372.727C346.229 372.727 345.891 372.594 345.607 372.327C345.329 372.06 345.19 371.739 345.19 371.364C345.19 370.989 345.329 370.668 345.607 370.401C345.891 370.134 346.229 370 346.621 370C347.013 370 347.349 370.134 347.627 370.401C347.911 370.668 348.053 370.989 348.053 371.364C348.053 371.739 347.911 372.06 347.627 372.327C347.349 372.594 347.013 372.727 346.621 372.727ZM356.783 388.273C355.521 388.273 354.433 387.994 353.518 387.438C352.609 386.875 351.908 386.091 351.413 385.085C350.925 384.074 350.68 382.898 350.68 381.557C350.68 380.216 350.925 379.034 351.413 378.011C351.908 376.983 352.595 376.182 353.476 375.608C354.362 375.028 355.396 374.739 356.578 374.739C357.26 374.739 357.933 374.852 358.598 375.08C359.263 375.307 359.868 375.676 360.413 376.188C360.959 376.693 361.393 377.364 361.717 378.199C362.041 379.034 362.203 380.062 362.203 381.284V382.136H352.112V380.398H360.158C360.158 379.659 360.01 379 359.714 378.42C359.425 377.841 359.01 377.384 358.47 377.048C357.936 376.713 357.305 376.545 356.578 376.545C355.777 376.545 355.084 376.744 354.499 377.142C353.919 377.534 353.473 378.045 353.161 378.676C352.848 379.307 352.692 379.983 352.692 380.705V381.864C352.692 382.852 352.862 383.69 353.203 384.378C353.55 385.06 354.03 385.58 354.643 385.938C355.257 386.29 355.97 386.466 356.783 386.466C357.311 386.466 357.788 386.392 358.214 386.244C358.646 386.091 359.018 385.864 359.331 385.562C359.643 385.256 359.885 384.875 360.055 384.42L361.999 384.966C361.794 385.625 361.45 386.205 360.967 386.705C360.484 387.199 359.888 387.585 359.178 387.864C358.467 388.136 357.669 388.273 356.783 388.273ZM374.536 377.841L372.729 378.352C372.615 378.051 372.447 377.759 372.226 377.474C372.01 377.185 371.714 376.946 371.339 376.759C370.964 376.571 370.484 376.477 369.899 376.477C369.098 376.477 368.43 376.662 367.896 377.031C367.368 377.395 367.104 377.858 367.104 378.42C367.104 378.92 367.286 379.315 367.649 379.605C368.013 379.895 368.581 380.136 369.354 380.33L371.297 380.807C372.467 381.091 373.339 381.526 373.913 382.111C374.487 382.69 374.774 383.437 374.774 384.352C374.774 385.102 374.558 385.773 374.126 386.364C373.7 386.955 373.104 387.42 372.337 387.761C371.57 388.102 370.678 388.273 369.661 388.273C368.325 388.273 367.22 387.983 366.345 387.403C365.47 386.824 364.916 385.977 364.683 384.864L366.592 384.386C366.774 385.091 367.118 385.619 367.624 385.972C368.135 386.324 368.803 386.5 369.626 386.5C370.564 386.5 371.308 386.301 371.859 385.903C372.416 385.5 372.695 385.017 372.695 384.455C372.695 384 372.536 383.619 372.217 383.312C371.899 383 371.411 382.767 370.751 382.614L368.57 382.102C367.371 381.818 366.49 381.378 365.928 380.781C365.371 380.179 365.092 379.426 365.092 378.523C365.092 377.784 365.3 377.131 365.714 376.562C366.135 375.994 366.706 375.548 367.428 375.224C368.155 374.901 368.979 374.739 369.899 374.739C371.195 374.739 372.212 375.023 372.95 375.591C373.695 376.159 374.223 376.909 374.536 377.841Z" fill="black"/>
<rect x="533.5" y="97.5" width="202" height="101" fill="white"/>
<rect x="533.5" y="97.5" width="202" height="101" stroke="#288071" stroke-width="3"/>
<path d="M540.398 124.42V122.682L548.068 110.545H549.33V113.239H548.477L542.682 122.409V122.545H553.011V124.42H540.398ZM548.614 128V123.892V123.082V110.545H550.625V128H548.614ZM561.898 128.239C560.614 128.239 559.521 127.889 558.617 127.19C557.714 126.486 557.023 125.466 556.546 124.131C556.069 122.79 555.83 121.17 555.83 119.273C555.83 117.386 556.069 115.776 556.546 114.44C557.029 113.099 557.722 112.077 558.626 111.372C559.535 110.662 560.626 110.307 561.898 110.307C563.171 110.307 564.259 110.662 565.163 111.372C566.072 112.077 566.765 113.099 567.242 114.44C567.725 115.776 567.967 117.386 567.967 119.273C567.967 121.17 567.728 122.79 567.251 124.131C566.773 125.466 566.083 126.486 565.18 127.19C564.276 127.889 563.183 128.239 561.898 128.239ZM561.898 126.364C563.171 126.364 564.16 125.75 564.864 124.523C565.569 123.295 565.921 121.545 565.921 119.273C565.921 117.761 565.759 116.474 565.435 115.412C565.117 114.349 564.657 113.54 564.055 112.983C563.458 112.426 562.739 112.148 561.898 112.148C560.637 112.148 559.651 112.77 558.941 114.014C558.231 115.253 557.876 117.006 557.876 119.273C557.876 120.784 558.035 122.068 558.353 123.125C558.671 124.182 559.129 124.986 559.725 125.537C560.327 126.088 561.052 126.364 561.898 126.364ZM580.103 124.727V123.807C580.103 123.17 580.234 122.588 580.495 122.06C580.762 121.526 581.148 121.099 581.654 120.781C582.165 120.457 582.785 120.295 583.512 120.295C584.251 120.295 584.87 120.457 585.37 120.781C585.87 121.099 586.248 121.526 586.504 122.06C586.759 122.588 586.887 123.17 586.887 123.807V124.727C586.887 125.364 586.756 125.949 586.495 126.483C586.239 127.011 585.859 127.437 585.353 127.761C584.853 128.08 584.239 128.239 583.512 128.239C582.773 128.239 582.151 128.08 581.646 127.761C581.14 127.437 580.756 127.011 580.495 126.483C580.234 125.949 580.103 125.364 580.103 124.727ZM581.842 123.807V124.727C581.842 125.256 581.967 125.73 582.217 126.151C582.467 126.565 582.898 126.773 583.512 126.773C584.109 126.773 584.529 126.565 584.773 126.151C585.023 125.73 585.148 125.256 585.148 124.727V123.807C585.148 123.278 585.029 122.807 584.79 122.392C584.552 121.972 584.126 121.761 583.512 121.761C582.915 121.761 582.487 121.972 582.225 122.392C581.969 122.807 581.842 123.278 581.842 123.807ZM571.41 114.739V113.818C571.41 113.182 571.54 112.599 571.802 112.071C572.069 111.537 572.455 111.111 572.961 110.793C573.472 110.469 574.092 110.307 574.819 110.307C575.558 110.307 576.177 110.469 576.677 110.793C577.177 111.111 577.555 111.537 577.81 112.071C578.066 112.599 578.194 113.182 578.194 113.818V114.739C578.194 115.375 578.063 115.96 577.802 116.494C577.546 117.023 577.165 117.449 576.66 117.773C576.16 118.091 575.546 118.25 574.819 118.25C574.08 118.25 573.458 118.091 572.952 117.773C572.447 117.449 572.063 117.023 571.802 116.494C571.54 115.96 571.41 115.375 571.41 114.739ZM573.148 113.818V114.739C573.148 115.267 573.273 115.741 573.523 116.162C573.773 116.577 574.205 116.784 574.819 116.784C575.415 116.784 575.836 116.577 576.08 116.162C576.33 115.741 576.455 115.267 576.455 114.739V113.818C576.455 113.29 576.336 112.818 576.097 112.403C575.859 111.983 575.433 111.773 574.819 111.773C574.222 111.773 573.793 111.983 573.532 112.403C573.276 112.818 573.148 113.29 573.148 113.818ZM572.058 128L584.058 110.545H586.001L574.001 128H572.058ZM555.159 145H553.045C552.92 144.392 552.702 143.858 552.389 143.398C552.082 142.938 551.707 142.551 551.264 142.239C550.827 141.92 550.341 141.682 549.807 141.523C549.273 141.364 548.716 141.284 548.136 141.284C547.08 141.284 546.122 141.551 545.264 142.085C544.412 142.619 543.733 143.406 543.227 144.446C542.727 145.486 542.477 146.761 542.477 148.273C542.477 149.784 542.727 151.06 543.227 152.099C543.733 153.139 544.412 153.926 545.264 154.46C546.122 154.994 547.08 155.261 548.136 155.261C548.716 155.261 549.273 155.182 549.807 155.023C550.341 154.864 550.827 154.628 551.264 154.315C551.707 153.997 552.082 153.608 552.389 153.148C552.702 152.682 552.92 152.148 553.045 151.545H555.159C555 152.437 554.71 153.236 554.29 153.94C553.869 154.645 553.347 155.244 552.722 155.739C552.097 156.227 551.395 156.599 550.616 156.855C549.844 157.111 549.017 157.239 548.136 157.239C546.648 157.239 545.324 156.875 544.165 156.148C543.006 155.42 542.094 154.386 541.429 153.045C540.764 151.705 540.432 150.114 540.432 148.273C540.432 146.432 540.764 144.841 541.429 143.5C542.094 142.159 543.006 141.125 544.165 140.398C545.324 139.67 546.648 139.307 548.136 139.307C549.017 139.307 549.844 139.435 550.616 139.69C551.395 139.946 552.097 140.321 552.722 140.815C553.347 141.304 553.869 141.901 554.29 142.605C554.71 143.304 555 144.102 555.159 145ZM563.62 157.273C562.438 157.273 561.401 156.991 560.509 156.429C559.623 155.866 558.93 155.08 558.43 154.068C557.935 153.057 557.688 151.875 557.688 150.523C557.688 149.159 557.935 147.969 558.43 146.952C558.93 145.935 559.623 145.145 560.509 144.582C561.401 144.02 562.438 143.739 563.62 143.739C564.802 143.739 565.836 144.02 566.722 144.582C567.614 145.145 568.308 145.935 568.802 146.952C569.302 147.969 569.552 149.159 569.552 150.523C569.552 151.875 569.302 153.057 568.802 154.068C568.308 155.08 567.614 155.866 566.722 156.429C565.836 156.991 564.802 157.273 563.62 157.273ZM563.62 155.466C564.518 155.466 565.256 155.236 565.836 154.776C566.415 154.315 566.844 153.71 567.123 152.96C567.401 152.21 567.54 151.398 567.54 150.523C567.54 149.648 567.401 148.832 567.123 148.077C566.844 147.321 566.415 146.71 565.836 146.244C565.256 145.778 564.518 145.545 563.62 145.545C562.722 145.545 561.984 145.778 561.404 146.244C560.825 146.71 560.396 147.321 560.117 148.077C559.839 148.832 559.7 149.648 559.7 150.523C559.7 151.398 559.839 152.21 560.117 152.96C560.396 153.71 560.825 154.315 561.404 154.776C561.984 155.236 562.722 155.466 563.62 155.466ZM572.622 157V143.909H574.565V145.955H574.736C575.009 145.256 575.449 144.713 576.057 144.327C576.665 143.935 577.395 143.739 578.247 143.739C579.111 143.739 579.83 143.935 580.403 144.327C580.983 144.713 581.435 145.256 581.759 145.955H581.895C582.23 145.278 582.733 144.741 583.403 144.344C584.074 143.94 584.878 143.739 585.815 143.739C586.986 143.739 587.943 144.105 588.688 144.838C589.432 145.565 589.804 146.699 589.804 148.239V157H587.793V148.239C587.793 147.273 587.528 146.582 587 146.168C586.472 145.753 585.849 145.545 585.134 145.545C584.213 145.545 583.5 145.824 582.994 146.381C582.489 146.932 582.236 147.631 582.236 148.477V157H580.19V148.034C580.19 147.29 579.949 146.69 579.466 146.236C578.983 145.776 578.361 145.545 577.599 145.545C577.077 145.545 576.588 145.685 576.134 145.963C575.685 146.241 575.321 146.628 575.043 147.122C574.77 147.611 574.634 148.176 574.634 148.818V157H572.622ZM593.482 157V143.909H595.425V145.955H595.595C595.868 145.256 596.308 144.713 596.916 144.327C597.524 143.935 598.254 143.739 599.107 143.739C599.97 143.739 600.689 143.935 601.263 144.327C601.842 144.713 602.294 145.256 602.618 145.955H602.754C603.089 145.278 603.592 144.741 604.263 144.344C604.933 143.94 605.737 143.739 606.675 143.739C607.845 143.739 608.803 144.105 609.547 144.838C610.291 145.565 610.663 146.699 610.663 148.239V157H608.652V148.239C608.652 147.273 608.388 146.582 607.859 146.168C607.331 145.753 606.709 145.545 605.993 145.545C605.072 145.545 604.359 145.824 603.854 146.381C603.348 146.932 603.095 147.631 603.095 148.477V157H601.05V148.034C601.05 147.29 600.808 146.69 600.325 146.236C599.842 145.776 599.22 145.545 598.459 145.545C597.936 145.545 597.447 145.685 596.993 145.963C596.544 146.241 596.18 146.628 595.902 147.122C595.629 147.611 595.493 148.176 595.493 148.818V157H593.482ZM622.591 151.648V143.909H624.602V157H622.591V154.784H622.455C622.148 155.449 621.67 156.014 621.023 156.48C620.375 156.94 619.557 157.17 618.568 157.17C617.75 157.17 617.023 156.991 616.386 156.634C615.75 156.27 615.25 155.724 614.886 154.997C614.523 154.264 614.341 153.341 614.341 152.227V143.909H616.352V152.091C616.352 153.045 616.619 153.807 617.153 154.375C617.693 154.943 618.381 155.227 619.216 155.227C619.716 155.227 620.224 155.099 620.741 154.844C621.264 154.588 621.702 154.196 622.054 153.668C622.412 153.139 622.591 152.466 622.591 151.648ZM630.298 149.125V157H628.286V143.909H630.229V145.955H630.4C630.707 145.29 631.173 144.756 631.798 144.352C632.423 143.943 633.229 143.739 634.218 143.739C635.104 143.739 635.88 143.92 636.545 144.284C637.21 144.642 637.727 145.188 638.096 145.92C638.465 146.648 638.65 147.568 638.65 148.682V157H636.638V148.818C636.638 147.79 636.371 146.989 635.837 146.415C635.303 145.835 634.57 145.545 633.638 145.545C632.996 145.545 632.423 145.685 631.917 145.963C631.417 146.241 631.022 146.648 630.732 147.182C630.442 147.716 630.298 148.364 630.298 149.125ZM642.325 157V143.909H644.337V157H642.325ZM643.348 141.727C642.956 141.727 642.618 141.594 642.334 141.327C642.055 141.06 641.916 140.739 641.916 140.364C641.916 139.989 642.055 139.668 642.334 139.401C642.618 139.134 642.956 139 643.348 139C643.74 139 644.075 139.134 644.354 139.401C644.638 139.668 644.78 139.989 644.78 140.364C644.78 140.739 644.638 141.06 644.354 141.327C644.075 141.594 643.74 141.727 643.348 141.727ZM653.339 157.273C652.112 157.273 651.055 156.983 650.168 156.403C649.282 155.824 648.6 155.026 648.123 154.009C647.646 152.991 647.407 151.83 647.407 150.523C647.407 149.193 647.651 148.02 648.14 147.003C648.634 145.98 649.322 145.182 650.202 144.608C651.089 144.028 652.123 143.739 653.305 143.739C654.225 143.739 655.055 143.909 655.793 144.25C656.532 144.591 657.137 145.068 657.609 145.682C658.08 146.295 658.373 147.011 658.487 147.83H656.475C656.322 147.233 655.981 146.705 655.452 146.244C654.93 145.778 654.225 145.545 653.339 145.545C652.555 145.545 651.867 145.75 651.276 146.159C650.691 146.562 650.234 147.134 649.904 147.872C649.58 148.605 649.418 149.466 649.418 150.455C649.418 151.466 649.577 152.347 649.896 153.097C650.219 153.847 650.674 154.429 651.259 154.844C651.85 155.259 652.543 155.466 653.339 155.466C653.862 155.466 654.336 155.375 654.762 155.193C655.188 155.011 655.549 154.75 655.844 154.409C656.14 154.068 656.35 153.659 656.475 153.182H658.487C658.373 153.955 658.092 154.651 657.643 155.27C657.2 155.884 656.612 156.372 655.879 156.736C655.151 157.094 654.305 157.273 653.339 157.273ZM665.279 157.307C664.45 157.307 663.697 157.151 663.021 156.838C662.344 156.52 661.808 156.062 661.41 155.466C661.012 154.864 660.813 154.136 660.813 153.284C660.813 152.534 660.961 151.926 661.256 151.46C661.552 150.989 661.947 150.619 662.441 150.352C662.935 150.085 663.481 149.886 664.077 149.756C664.68 149.619 665.285 149.511 665.893 149.432C666.688 149.33 667.333 149.253 667.827 149.202C668.327 149.145 668.691 149.051 668.918 148.92C669.151 148.79 669.268 148.562 669.268 148.239V148.17C669.268 147.33 669.038 146.676 668.577 146.21C668.123 145.744 667.433 145.511 666.506 145.511C665.546 145.511 664.793 145.722 664.248 146.142C663.702 146.562 663.319 147.011 663.097 147.489L661.188 146.807C661.529 146.011 661.984 145.392 662.552 144.949C663.126 144.5 663.751 144.187 664.427 144.011C665.109 143.83 665.779 143.739 666.438 143.739C666.859 143.739 667.342 143.79 667.887 143.892C668.438 143.989 668.969 144.19 669.481 144.497C669.998 144.804 670.427 145.267 670.768 145.886C671.109 146.506 671.279 147.335 671.279 148.375V157H669.268V155.227H669.165C669.029 155.511 668.802 155.815 668.484 156.139C668.165 156.463 667.742 156.739 667.214 156.966C666.685 157.193 666.04 157.307 665.279 157.307ZM665.586 155.5C666.381 155.5 667.052 155.344 667.597 155.031C668.148 154.719 668.563 154.315 668.842 153.821C669.126 153.327 669.268 152.807 669.268 152.261V150.42C669.183 150.523 668.995 150.616 668.705 150.702C668.421 150.781 668.092 150.852 667.717 150.915C667.347 150.972 666.987 151.023 666.634 151.068C666.288 151.108 666.006 151.142 665.79 151.17C665.268 151.239 664.779 151.349 664.325 151.503C663.876 151.651 663.512 151.875 663.234 152.176C662.961 152.472 662.825 152.875 662.825 153.386C662.825 154.085 663.083 154.614 663.6 154.972C664.123 155.324 664.785 155.5 665.586 155.5ZM680.643 143.909V145.614H673.859V143.909H680.643ZM675.837 140.773H677.848V153.25C677.848 153.818 677.93 154.244 678.095 154.528C678.266 154.807 678.482 154.994 678.743 155.091C679.01 155.182 679.291 155.227 679.587 155.227C679.808 155.227 679.99 155.216 680.132 155.193C680.274 155.165 680.388 155.142 680.473 155.125L680.882 156.932C680.746 156.983 680.555 157.034 680.311 157.085C680.067 157.142 679.757 157.17 679.382 157.17C678.814 157.17 678.257 157.048 677.712 156.804C677.172 156.56 676.723 156.188 676.365 155.688C676.013 155.188 675.837 154.557 675.837 153.795V140.773ZM683.669 157V143.909H685.68V157H683.669ZM684.692 141.727C684.3 141.727 683.962 141.594 683.678 141.327C683.399 141.06 683.26 140.739 683.26 140.364C683.26 139.989 683.399 139.668 683.678 139.401C683.962 139.134 684.3 139 684.692 139C685.084 139 685.419 139.134 685.697 139.401C685.982 139.668 686.124 139.989 686.124 140.364C686.124 140.739 685.982 141.06 685.697 141.327C685.419 141.594 685.084 141.727 684.692 141.727ZM694.683 157.273C693.501 157.273 692.464 156.991 691.572 156.429C690.685 155.866 689.992 155.08 689.492 154.068C688.998 153.057 688.751 151.875 688.751 150.523C688.751 149.159 688.998 147.969 689.492 146.952C689.992 145.935 690.685 145.145 691.572 144.582C692.464 144.02 693.501 143.739 694.683 143.739C695.864 143.739 696.898 144.02 697.785 144.582C698.677 145.145 699.37 145.935 699.864 146.952C700.364 147.969 700.614 149.159 700.614 150.523C700.614 151.875 700.364 153.057 699.864 154.068C699.37 155.08 698.677 155.866 697.785 156.429C696.898 156.991 695.864 157.273 694.683 157.273ZM694.683 155.466C695.58 155.466 696.319 155.236 696.898 154.776C697.478 154.315 697.907 153.71 698.185 152.96C698.464 152.21 698.603 151.398 698.603 150.523C698.603 149.648 698.464 148.832 698.185 148.077C697.907 147.321 697.478 146.71 696.898 146.244C696.319 145.778 695.58 145.545 694.683 145.545C693.785 145.545 693.046 145.778 692.467 146.244C691.887 146.71 691.458 147.321 691.18 148.077C690.901 148.832 690.762 149.648 690.762 150.523C690.762 151.398 690.901 152.21 691.18 152.96C691.458 153.71 691.887 154.315 692.467 154.776C693.046 155.236 693.785 155.466 694.683 155.466ZM705.696 149.125V157H703.685V143.909H705.628V145.955H705.798C706.105 145.29 706.571 144.756 707.196 144.352C707.821 143.943 708.628 143.739 709.616 143.739C710.503 143.739 711.278 143.92 711.943 144.284C712.608 144.642 713.125 145.188 713.494 145.92C713.864 146.648 714.048 147.568 714.048 148.682V157H712.037V148.818C712.037 147.79 711.77 146.989 711.236 146.415C710.702 145.835 709.969 145.545 709.037 145.545C708.395 145.545 707.821 145.685 707.315 145.963C706.815 146.241 706.42 146.648 706.131 147.182C705.841 147.716 705.696 148.364 705.696 149.125ZM543.807 186L539.818 172.909H541.932L544.761 182.932H544.898L547.693 172.909H549.841L552.602 182.898H552.739L555.568 172.909H557.682L553.693 186H551.716L548.852 175.943H548.648L545.784 186H543.807ZM560.341 186V172.909H562.352V186H560.341ZM561.364 170.727C560.972 170.727 560.634 170.594 560.349 170.327C560.071 170.06 559.932 169.739 559.932 169.364C559.932 168.989 560.071 168.668 560.349 168.401C560.634 168.134 560.972 168 561.364 168C561.756 168 562.091 168.134 562.369 168.401C562.653 168.668 562.795 168.989 562.795 169.364C562.795 169.739 562.653 170.06 562.369 170.327C562.091 170.594 561.756 170.727 561.364 170.727ZM571.729 172.909V174.614H564.945V172.909H571.729ZM566.923 169.773H568.934V182.25C568.934 182.818 569.016 183.244 569.181 183.528C569.352 183.807 569.567 183.994 569.829 184.091C570.096 184.182 570.377 184.227 570.673 184.227C570.894 184.227 571.076 184.216 571.218 184.193C571.36 184.165 571.474 184.142 571.559 184.125L571.968 185.932C571.832 185.983 571.641 186.034 571.397 186.085C571.153 186.142 570.843 186.17 570.468 186.17C569.9 186.17 569.343 186.048 568.798 185.804C568.258 185.56 567.809 185.188 567.451 184.688C567.099 184.188 566.923 183.557 566.923 182.795V169.773ZM577.048 178.125V186H575.036V168.545H577.048V174.955H577.218C577.525 174.278 577.985 173.741 578.599 173.344C579.218 172.94 580.042 172.739 581.07 172.739C581.962 172.739 582.744 172.918 583.414 173.276C584.085 173.628 584.604 174.17 584.974 174.903C585.349 175.631 585.536 176.557 585.536 177.682V186H583.525V177.818C583.525 176.778 583.255 175.974 582.715 175.406C582.181 174.832 581.44 174.545 580.491 174.545C579.832 174.545 579.241 174.685 578.718 174.963C578.201 175.241 577.792 175.648 577.491 176.182C577.195 176.716 577.048 177.364 577.048 178.125ZM601.284 186.273C600.102 186.273 599.065 185.991 598.173 185.429C597.287 184.866 596.594 184.08 596.094 183.068C595.599 182.057 595.352 180.875 595.352 179.523C595.352 178.159 595.599 176.969 596.094 175.952C596.594 174.935 597.287 174.145 598.173 173.582C599.065 173.02 600.102 172.739 601.284 172.739C602.466 172.739 603.5 173.02 604.386 173.582C605.278 174.145 605.972 174.935 606.466 175.952C606.966 176.969 607.216 178.159 607.216 179.523C607.216 180.875 606.966 182.057 606.466 183.068C605.972 184.08 605.278 184.866 604.386 185.429C603.5 185.991 602.466 186.273 601.284 186.273ZM601.284 184.466C602.182 184.466 602.92 184.236 603.5 183.776C604.08 183.315 604.509 182.71 604.787 181.96C605.065 181.21 605.205 180.398 605.205 179.523C605.205 178.648 605.065 177.832 604.787 177.077C604.509 176.321 604.08 175.71 603.5 175.244C602.92 174.778 602.182 174.545 601.284 174.545C600.386 174.545 599.648 174.778 599.068 175.244C598.489 175.71 598.06 176.321 597.781 177.077C597.503 177.832 597.364 178.648 597.364 179.523C597.364 180.398 597.503 181.21 597.781 181.96C598.06 182.71 598.489 183.315 599.068 183.776C599.648 184.236 600.386 184.466 601.284 184.466ZM615.979 172.909V174.614H609.195V172.909H615.979ZM611.173 169.773H613.184V182.25C613.184 182.818 613.266 183.244 613.431 183.528C613.602 183.807 613.817 183.994 614.079 184.091C614.346 184.182 614.627 184.227 614.923 184.227C615.144 184.227 615.326 184.216 615.468 184.193C615.61 184.165 615.724 184.142 615.809 184.125L616.218 185.932C616.082 185.983 615.891 186.034 615.647 186.085C615.403 186.142 615.093 186.17 614.718 186.17C614.15 186.17 613.593 186.048 613.048 185.804C612.508 185.56 612.059 185.188 611.701 184.688C611.349 184.188 611.173 183.557 611.173 182.795V169.773ZM621.298 178.125V186H619.286V168.545H621.298V174.955H621.468C621.775 174.278 622.235 173.741 622.849 173.344C623.468 172.94 624.292 172.739 625.32 172.739C626.212 172.739 626.994 172.918 627.664 173.276C628.335 173.628 628.854 174.17 629.224 174.903C629.599 175.631 629.786 176.557 629.786 177.682V186H627.775V177.818C627.775 176.778 627.505 175.974 626.965 175.406C626.431 174.832 625.69 174.545 624.741 174.545C624.082 174.545 623.491 174.685 622.968 174.963C622.451 175.241 622.042 175.648 621.741 176.182C621.445 176.716 621.298 177.364 621.298 178.125ZM638.955 186.273C637.693 186.273 636.605 185.994 635.69 185.438C634.781 184.875 634.08 184.091 633.585 183.085C633.097 182.074 632.852 180.898 632.852 179.557C632.852 178.216 633.097 177.034 633.585 176.011C634.08 174.983 634.767 174.182 635.648 173.608C636.534 173.028 637.568 172.739 638.75 172.739C639.432 172.739 640.105 172.852 640.77 173.08C641.435 173.307 642.04 173.676 642.585 174.188C643.131 174.693 643.565 175.364 643.889 176.199C644.213 177.034 644.375 178.062 644.375 179.284V180.136H634.284V178.398H642.33C642.33 177.659 642.182 177 641.886 176.42C641.597 175.841 641.182 175.384 640.642 175.048C640.108 174.713 639.477 174.545 638.75 174.545C637.949 174.545 637.256 174.744 636.67 175.142C636.091 175.534 635.645 176.045 635.332 176.676C635.02 177.307 634.864 177.983 634.864 178.705V179.864C634.864 180.852 635.034 181.69 635.375 182.378C635.722 183.06 636.202 183.58 636.815 183.938C637.429 184.29 638.142 184.466 638.955 184.466C639.483 184.466 639.96 184.392 640.386 184.244C640.818 184.091 641.19 183.864 641.503 183.562C641.815 183.256 642.057 182.875 642.227 182.42L644.17 182.966C643.966 183.625 643.622 184.205 643.139 184.705C642.656 185.199 642.06 185.585 641.349 185.864C640.639 186.136 639.841 186.273 638.955 186.273ZM647.435 186V172.909H649.378V174.886H649.514C649.753 174.239 650.185 173.713 650.81 173.31C651.435 172.906 652.139 172.705 652.923 172.705C653.071 172.705 653.256 172.707 653.477 172.713C653.699 172.719 653.866 172.727 653.98 172.739V174.784C653.912 174.767 653.756 174.741 653.511 174.707C653.273 174.668 653.02 174.648 652.753 174.648C652.116 174.648 651.548 174.781 651.048 175.048C650.554 175.31 650.162 175.673 649.872 176.139C649.588 176.599 649.446 177.125 649.446 177.716V186H647.435ZM665.637 175.841L663.83 176.352C663.717 176.051 663.549 175.759 663.327 175.474C663.112 175.185 662.816 174.946 662.441 174.759C662.066 174.571 661.586 174.477 661.001 174.477C660.2 174.477 659.532 174.662 658.998 175.031C658.469 175.395 658.205 175.858 658.205 176.42C658.205 176.92 658.387 177.315 658.751 177.605C659.114 177.895 659.683 178.136 660.455 178.33L662.398 178.807C663.569 179.091 664.441 179.526 665.015 180.111C665.589 180.69 665.876 181.437 665.876 182.352C665.876 183.102 665.66 183.773 665.228 184.364C664.802 184.955 664.205 185.42 663.438 185.761C662.671 186.102 661.779 186.273 660.762 186.273C659.427 186.273 658.322 185.983 657.447 185.403C656.572 184.824 656.018 183.977 655.785 182.864L657.694 182.386C657.876 183.091 658.219 183.619 658.725 183.972C659.237 184.324 659.904 184.5 660.728 184.5C661.665 184.5 662.41 184.301 662.961 183.903C663.518 183.5 663.796 183.017 663.796 182.455C663.796 182 663.637 181.619 663.319 181.312C663.001 181 662.512 180.767 661.853 180.614L659.671 180.102C658.472 179.818 657.592 179.378 657.029 178.781C656.472 178.179 656.194 177.426 656.194 176.523C656.194 175.784 656.401 175.131 656.816 174.562C657.237 173.994 657.808 173.548 658.529 173.224C659.256 172.901 660.08 172.739 661.001 172.739C662.296 172.739 663.313 173.023 664.052 173.591C664.796 174.159 665.325 174.909 665.637 175.841Z" fill="black"/>
<path d="M535 235.5H585V197" stroke="black" stroke-width="3"/>
<defs>
<filter id="filter0_d_2851_44147" x="389.171" y="119.4" width="231.657" height="343.643" filterUnits="userSpaceOnUse" color-interpolation-filters="sRGB">
<feFlood flood-opacity="0" result="BackgroundImageFix"/>
<feColorMatrix in="SourceAlpha" type="matrix" values="0 0 0 0 0 0 0 0 0 0 0 0 0 0 0 0 0 0 127 0" result="hardAlpha"/>
<feOffset dx="-3" dy="4"/>
<feGaussianBlur stdDeviation="2.05"/>
<feComposite in2="hardAlpha" operator="out"/>
<feColorMatrix type="matrix" values="0 0 0 0 0 0 0 0 0 0 0 0 0 0 0 0 0 0 0.25 0"/>
<feBlend mode="normal" in2="BackgroundImageFix" result="effect1_dropShadow_2851_44147"/>
<feBlend mode="normal" in="SourceGraphic" in2="effect1_dropShadow_2851_44147" result="shape"/>
</filter>
</defs>
</svg>
