<svg width="108" height="108" viewBox="0 0 108 108" fill="none" xmlns="http://www.w3.org/2000/svg">
<g filter="url(#filter0_d_2870_44862)">
<rect x="8" width="100" height="100" rx="50" fill="black" fill-opacity="0.3" shape-rendering="crispEdges"/>
<path d="M35.3168 47.4012L65.684 17.0355C67.1481 15.5715 69.5231 15.5715 70.9871 17.0355L74.5293 20.5777C75.9918 22.0402 75.9934 24.409 74.5356 25.8746L50.4684 50.0527L74.534 74.2324C75.9934 75.698 75.9902 78.0668 74.5277 79.5293L70.9855 83.0715C69.5215 84.5355 67.1465 84.5355 65.6824 83.0715L35.3168 52.7043C33.8527 51.2402 33.8527 48.8652 35.3168 47.4012Z" fill="white"/>
<mask id="mask0_2870_44862" style="mask-type:luminance" maskUnits="userSpaceOnUse" x="34" y="15" width="42" height="70">
<path d="M35.3168 47.4012L65.684 17.0355C67.1481 15.5715 69.5231 15.5715 70.9871 17.0355L74.5293 20.5777C75.9918 22.0402 75.9934 24.409 74.5356 25.8746L50.4684 50.0527L74.534 74.2324C75.9934 75.698 75.9902 78.0668 74.5277 79.5293L70.9855 83.0715C69.5215 84.5355 67.1465 84.5355 65.6824 83.0715L35.3168 52.7043C33.8527 51.2402 33.8527 48.8652 35.3168 47.4012Z" fill="white"/>
</mask>
<g mask="url(#mask0_2870_44862)">
<rect x="15" y="10" width="80" height="80" fill="white"/>
</g>
</g>
<defs>
<filter id="filter0_d_2870_44862" x="0" y="0" width="108" height="108" filterUnits="userSpaceOnUse" color-interpolation-filters="sRGB">
<feFlood flood-opacity="0" result="BackgroundImageFix"/>
<feColorMatrix in="SourceAlpha" type="matrix" values="0 0 0 0 0 0 0 0 0 0 0 0 0 0 0 0 0 0 127 0" result="hardAlpha"/>
<feOffset dx="-4" dy="4"/>
<feGaussianBlur stdDeviation="2"/>
<feComposite in2="hardAlpha" operator="out"/>
<feColorMatrix type="matrix" values="0 0 0 0 0 0 0 0 0 0 0 0 0 0 0 0 0 0 0.25 0"/>
<feBlend mode="normal" in2="BackgroundImageFix" result="effect1_dropShadow_2870_44862"/>
<feBlend mode="normal" in="SourceGraphic" in2="effect1_dropShadow_2870_44862" result="shape"/>
</filter>
</defs>
</svg>
