<svg width="277" height="66" viewBox="0 0 277 66" fill="none" xmlns="http://www.w3.org/2000/svg">
<path d="M0.175049 45L113.175 45L113.175 21L0.175051 21L34.175 33.7059L0.175049 45Z" fill="#288071" stroke="#1D594F"/>
<path d="M122.119 24.1113C122.119 25.6223 122.559 26.9934 123.436 28.209C124.311 29.4217 125.468 30.2887 126.894 30.8037L127.564 31.0459V21.3887H122.119V24.1113ZM148.786 31.0459L149.456 30.8037C150.882 30.2887 152.04 29.4217 152.914 28.209C153.791 26.9934 154.231 25.6223 154.231 24.1113V21.3887H148.786V31.0459ZM136.452 41.2666L136.063 41.1787C134.32 40.7874 132.768 40.0506 131.403 38.9688C130.046 37.8944 129.053 36.5505 128.418 34.9287L128.31 34.6504L128.012 34.6143C125.356 34.2954 123.143 33.1408 121.354 31.1387C119.566 29.1381 118.675 26.8035 118.675 24.1113V21.8887C118.675 20.8002 119.057 19.8808 119.834 19.1035C120.612 18.3262 121.531 17.9444 122.619 17.9443H127.564V17.4443C127.564 16.3559 127.946 15.4365 128.723 14.6592C129.5 13.8819 130.42 13.5001 131.508 13.5H144.842C145.93 13.5001 146.85 13.8819 147.627 14.6592C148.404 15.4365 148.786 16.3559 148.786 17.4443V17.9443H153.731C154.819 17.9444 155.739 18.3262 156.516 19.1035C157.293 19.8808 157.675 20.8002 157.675 21.8887V24.1113C157.675 26.8035 156.784 29.1381 154.996 31.1387C153.207 33.1408 150.994 34.2954 148.338 34.6143L148.04 34.6504L147.932 34.9287C147.297 36.5505 146.304 37.8944 144.948 38.9688C143.582 40.0506 142.031 40.7874 140.287 41.1787L139.898 41.2666V49.0557H147.064C147.567 49.0557 147.967 49.2203 148.294 49.5479C148.622 49.8753 148.786 50.2739 148.786 50.7773C148.786 51.281 148.622 51.6803 148.294 52.0078C147.967 52.3353 147.567 52.5 147.064 52.5H129.286C128.783 52.5 128.383 52.3353 128.056 52.0078C127.728 51.6803 127.564 51.281 127.564 50.7773C127.564 50.2739 127.729 49.8753 128.056 49.5479C128.383 49.2203 128.783 49.0557 129.286 49.0557H136.452V41.2666Z" fill="#F9D978" stroke="black"/>
<path d="M130.875 30V28.81H132.255V25.14H131.065V24.23C131.412 24.1633 131.705 24.0833 131.945 23.99C132.185 23.8967 132.418 23.7833 132.645 23.65H133.725V28.81H134.915V30H130.875ZM138.218 30.12C137.792 30.12 137.365 30.04 136.938 29.88C136.518 29.72 136.142 29.4867 135.808 29.18L136.648 28.17C136.882 28.37 137.142 28.5333 137.428 28.66C137.715 28.7867 137.992 28.85 138.258 28.85C138.565 28.85 138.792 28.7933 138.938 28.68C139.092 28.5667 139.168 28.4133 139.168 28.22C139.168 28.0133 139.082 27.8633 138.908 27.77C138.742 27.67 138.515 27.56 138.228 27.44L137.378 27.08C137.158 26.9867 136.948 26.8633 136.748 26.71C136.548 26.55 136.385 26.3533 136.258 26.12C136.132 25.8867 136.068 25.6133 136.068 25.3C136.068 24.94 136.165 24.6133 136.358 24.32C136.558 24.0267 136.832 23.7933 137.178 23.62C137.532 23.4467 137.935 23.36 138.388 23.36C138.762 23.36 139.135 23.4333 139.508 23.58C139.882 23.7267 140.208 23.94 140.488 24.22L139.738 25.15C139.525 24.9833 139.312 24.8567 139.098 24.77C138.885 24.6767 138.648 24.63 138.388 24.63C138.135 24.63 137.932 24.6833 137.778 24.79C137.632 24.89 137.558 25.0333 137.558 25.22C137.558 25.42 137.652 25.57 137.838 25.67C138.032 25.77 138.268 25.8767 138.548 25.99L139.388 26.33C139.782 26.49 140.095 26.71 140.328 26.99C140.562 27.27 140.678 27.64 140.678 28.1C140.678 28.46 140.582 28.7933 140.388 29.1C140.195 29.4067 139.915 29.6533 139.548 29.84C139.182 30.0267 138.738 30.12 138.218 30.12ZM142.86 30V24.72H141.07V23.48H146.13V24.72H144.34V30H142.86Z" fill="#1D594F"/>
<path d="M276.175 21H163.175V45H276.175L242.175 32.2941L276.175 21Z" fill="#288071" stroke="#1D594F"/>
<circle cx="182.175" cy="33" r="5" fill="white"/>
<circle cx="207.175" cy="33" r="5" fill="white"/>
<circle cx="232.175" cy="33" r="5" fill="white"/>
<circle cx="45.175" cy="33" r="5" fill="white"/>
<circle cx="70.175" cy="33" r="5" fill="white"/>
<circle cx="95.175" cy="33" r="5" fill="white"/>
</svg>
